<svg width="68" height="67" viewBox="0 0 68 67" fill="none" xmlns="http://www.w3.org/2000/svg">
<path opacity="0.25" d="M15.2083 67H3.04167C2.23497 67 1.46131 66.6839 0.890883 66.1213C0.32046 65.5587 0 64.7956 0 64V40C0 39.2044 0.32046 38.4413 0.890883 37.8787C1.46131 37.3161 2.23497 37 3.04167 37H15.2083C16.015 37 16.7887 37.3161 17.3591 37.8787C17.9295 38.4413 18.25 39.2044 18.25 40V64C18.25 64.7956 17.9295 65.5587 17.3591 66.1213C16.7887 66.6839 16.015 67 15.2083 67Z" fill="#1DA1F2"/>
<path opacity="0.25" d="M15.2083 67H3.04167C2.23497 67 1.46131 66.6839 0.890883 66.1213C0.32046 65.5587 0 64.7956 0 64V40C0 39.2044 0.32046 38.4413 0.890883 37.8787C1.46131 37.3161 2.23497 37 3.04167 37H15.2083C16.015 37 16.7887 37.3161 17.3591 37.8787C17.9295 38.4413 18.25 39.2044 18.25 40V64C18.25 64.7956 17.9295 65.5587 17.3591 66.1213C16.7887 66.6839 16.015 67 15.2083 67Z" fill="#1DA1F2"/>
<path opacity="0.25" d="M15.2083 67H3.04167C2.23497 67 1.46131 66.6839 0.890883 66.1213C0.32046 65.5587 0 64.7956 0 64V40C0 39.2044 0.32046 38.4413 0.890883 37.8787C1.46131 37.3161 2.23497 37 3.04167 37H15.2083C16.015 37 16.7887 37.3161 17.3591 37.8787C17.9295 38.4413 18.25 39.2044 18.25 40V64C18.25 64.7956 17.9295 65.5587 17.3591 66.1213C16.7887 66.6839 16.015 67 15.2083 67Z" fill="#1DA1F2"/>
<path d="M39.5416 67H27.3749C26.5682 67 25.7946 66.6791 25.2241 66.108C24.6537 65.5369 24.3333 64.7623 24.3333 63.9545V3.04545C24.3333 2.23775 24.6537 1.46313 25.2241 0.891993C25.7946 0.320859 26.5682 0 27.3749 0H39.5416C40.3483 0 41.1219 0.320859 41.6924 0.891993C42.2628 1.46313 42.5833 2.23775 42.5833 3.04545V63.9545C42.5833 64.7623 42.2628 65.5369 41.6924 66.108C41.1219 66.6791 40.3483 67 39.5416 67Z" fill="#173F5F"/>
<path opacity="0.5" d="M64.2083 67H52.0417C51.235 67 50.4613 66.6839 49.8909 66.1213C49.3205 65.5587 49 64.7957 49 64V28C49 27.2044 49.3205 26.4413 49.8909 25.8787C50.4613 25.3161 51.235 25 52.0417 25H64.2083C65.015 25 65.7887 25.3161 66.3591 25.8787C66.9295 26.4413 67.25 27.2044 67.25 28V64C67.25 64.7957 66.9295 65.5587 66.3591 66.1213C65.7887 66.6839 65.015 67 64.2083 67Z" fill="#3CAEA3"/>
<path opacity="0.5" d="M64.2083 67H52.0417C51.235 67 50.4613 66.6839 49.8909 66.1213C49.3205 65.5587 49 64.7957 49 64V28C49 27.2044 49.3205 26.4413 49.8909 25.8787C50.4613 25.3161 51.235 25 52.0417 25H64.2083C65.015 25 65.7887 25.3161 66.3591 25.8787C66.9295 26.4413 67.25 27.2044 67.25 28V64C67.25 64.7957 66.9295 65.5587 66.3591 66.1213C65.7887 66.6839 65.015 67 64.2083 67Z" fill="#3CAEA3"/>
<path opacity="0.5" d="M64.2083 67H52.0417C51.235 67 50.4613 66.6839 49.8909 66.1213C49.3205 65.5587 49 64.7957 49 64V28C49 27.2044 49.3205 26.4413 49.8909 25.8787C50.4613 25.3161 51.235 25 52.0417 25H64.2083C65.015 25 65.7887 25.3161 66.3591 25.8787C66.9295 26.4413 67.25 27.2044 67.25 28V64C67.25 64.7957 66.9295 65.5587 66.3591 66.1213C65.7887 66.6839 65.015 67 64.2083 67Z" fill="#3CAEA3"/>
<path opacity="0.25" d="M15.2083 67H3.04167C2.23497 67 1.46131 66.6839 0.890883 66.1213C0.32046 65.5587 0 64.7956 0 64V40C0 39.2044 0.32046 38.4413 0.890883 37.8787C1.46131 37.3161 2.23497 37 3.04167 37H15.2083C16.015 37 16.7887 37.3161 17.3591 37.8787C17.9295 38.4413 18.25 39.2044 18.25 40V64C18.25 64.7956 17.9295 65.5587 17.3591 66.1213C16.7887 66.6839 16.015 67 15.2083 67Z" fill="#FF0000"/>
</svg>
