<svg width="966" height="139" viewBox="0 0 966 139" fill="none" xmlns="http://www.w3.org/2000/svg">
<path d="M6.75142 0.22863C8.59713 0.22863 10.1714 0.662916 11.4743 1.53149C12.8857 2.40006 13.5914 3.54006 13.5914 4.95149V119.114C13.5914 120.309 12.8857 121.449 11.4743 122.534C10.1714 123.511 8.59713 124 6.75142 124C4.79714 124 3.16856 123.511 1.86571 122.534C0.671423 121.449 0.0742804 120.309 0.0742804 119.114V4.95149C0.0742804 3.54006 0.671423 2.40006 1.86571 1.53149C3.16856 0.662916 4.79714 0.22863 6.75142 0.22863ZM63.7107 45.8286C67.8364 45.8286 71.7992 46.5886 75.5992 48.1086C79.3992 49.52 82.7107 51.5829 85.5335 54.2972C88.4649 56.9029 90.7449 60.0515 92.3735 63.7429C94.1107 67.4343 94.9792 71.4515 94.9792 75.7943C94.9792 79.0515 94.5449 81.6029 93.6764 83.4486C92.9164 85.1857 91.8307 86.5429 90.4192 87.52C89.1164 88.3886 87.5964 88.9314 85.8592 89.1486C84.1221 89.2572 82.3307 89.3114 80.485 89.3114H44.8193V94.1972C44.8193 100.277 46.9364 105.109 51.1707 108.691C55.5135 112.166 61.105 113.903 67.945 113.903C70.985 113.903 73.5364 113.577 75.5992 112.926C77.6621 112.274 79.3992 111.569 80.8107 110.809C82.3307 109.94 83.5792 109.18 84.5564 108.529C85.6421 107.877 86.6735 107.551 87.6507 107.551C89.2792 107.551 90.5821 108.311 91.5592 109.831C92.6449 111.243 93.1878 112.546 93.1878 113.74C93.1878 114.826 92.5907 116.02 91.3964 117.323C90.2021 118.626 88.4649 119.874 86.185 121.069C84.0135 122.263 81.2992 123.24 78.0421 124C74.8935 124.869 71.365 125.303 67.4564 125.303C62.1364 125.303 57.2507 124.543 52.7993 123.023C48.4564 121.503 44.6564 119.386 41.3993 116.671C38.2507 113.849 35.7535 110.537 33.9078 106.737C32.1707 102.829 31.3021 98.4857 31.3021 93.7086V76.6086C31.3021 72.4829 32.1164 68.5743 33.745 64.8829C35.4821 61.0829 37.8164 57.7715 40.7478 54.9486C43.6793 52.1257 47.0993 49.9 51.0078 48.2715C55.025 46.6429 59.2593 45.8286 63.7107 45.8286ZM74.9478 80.1914C77.7707 80.1914 79.6707 79.8657 80.6478 79.2143C81.625 78.5629 82.1135 77.1515 82.1135 74.98C82.1135 72.5915 81.625 70.3115 80.6478 68.14C79.7792 65.86 78.5307 63.9057 76.9021 62.2772C75.2735 60.54 73.3192 59.1829 71.0392 58.2057C68.7592 57.12 66.2621 56.5772 63.5478 56.5772C60.9421 56.5772 58.4992 57.0657 56.2193 58.0429C54.0478 58.9115 52.0935 60.16 50.3564 61.7886C48.6193 63.3086 47.2621 65.1543 46.285 67.3257C45.3078 69.4972 44.8193 71.8315 44.8193 74.3286V80.1914H74.9478ZM123.128 99.4086C123.128 104.077 124.105 107.389 126.059 109.343C128.014 111.189 131.542 112.111 136.645 112.111H141.694C143.539 112.111 144.951 112.709 145.928 113.903C147.014 115.097 147.557 116.454 147.557 117.974C147.557 119.494 147.014 120.906 145.928 122.209C144.951 123.403 143.539 124 141.694 124H136.645C127.851 124 121.119 122.046 116.451 118.137C111.891 114.229 109.611 107.986 109.611 99.4086V15.5372C109.611 14.1258 110.317 12.9858 111.728 12.1172C113.248 11.2486 114.768 10.8143 116.288 10.8143C118.025 10.8143 119.599 11.2486 121.011 12.1172C122.422 12.9858 123.128 14.1258 123.128 15.5372V46.8057H143.648C144.842 46.8057 145.819 47.3486 146.579 48.4343C147.339 49.52 147.719 50.7686 147.719 52.18C147.719 53.5915 147.339 54.84 146.579 55.9257C145.819 56.9029 144.842 57.3915 143.648 57.3915H123.128V99.4086ZM308.434 97.9429C308.434 96.3143 308.814 94.9572 309.574 93.8714C310.443 92.6772 311.637 92.08 313.157 92.08H354.522C355.717 92.08 356.802 92.6772 357.78 93.8714C358.865 94.9572 359.408 96.3143 359.408 97.9429C359.408 99.7886 358.865 101.254 357.78 102.34C356.802 103.317 355.717 103.806 354.522 103.806H313.157C311.637 103.806 310.443 103.317 309.574 102.34C308.814 101.254 308.434 99.7886 308.434 97.9429ZM308.434 64.8829C308.434 63.2543 308.814 61.8972 309.574 60.8115C310.443 59.6172 311.637 59.02 313.157 59.02H354.522C355.717 59.02 356.802 59.6172 357.78 60.8115C358.865 61.8972 359.408 63.2543 359.408 64.8829C359.408 66.7286 358.865 68.1943 357.78 69.28C356.802 70.2572 355.717 70.7457 354.522 70.7457H313.157C311.637 70.7457 310.443 70.2572 309.574 69.28C308.814 68.1943 308.434 66.7286 308.434 64.8829ZM415.54 33.7772C413.26 33.7772 411.252 32.9629 409.515 31.3343C407.886 29.7058 407.072 27.6972 407.072 25.3086C407.072 24.1143 407.615 22.0515 408.7 19.12C409.786 16.08 411.686 11.5201 414.4 5.44006C414.726 4.68006 415.215 4.1372 415.866 3.81149C416.518 3.48577 417.115 3.32291 417.658 3.32291C418.852 3.32291 419.938 3.70291 420.915 4.46292C422 5.11434 422.543 6.09149 422.543 7.39434C422.543 8.04577 422.435 8.58863 422.218 9.02291L418.798 17.4915C420.318 18.1429 421.566 19.1743 422.543 20.5858C423.52 21.9972 424.009 23.5715 424.009 25.3086C424.009 27.6972 423.195 29.7058 421.566 31.3343C420.046 32.9629 418.038 33.7772 415.54 33.7772ZM441.76 33.7772C439.372 33.7772 437.363 32.9629 435.735 31.3343C434.106 29.7058 433.292 27.6972 433.292 25.3086C433.292 24.1143 433.78 22.0515 434.758 19.12C435.843 16.08 437.743 11.5201 440.458 5.44006C441.218 4.02863 442.358 3.32291 443.878 3.32291C444.963 3.32291 445.995 3.70291 446.972 4.46292C448.058 5.11434 448.6 6.09149 448.6 7.39434C448.6 8.04577 448.492 8.58863 448.275 9.02291L444.855 17.4915C446.483 18.1429 447.786 19.1743 448.763 20.5858C449.74 21.9972 450.229 23.5715 450.229 25.3086C450.229 27.6972 449.415 29.7058 447.786 31.3343C446.158 32.9629 444.149 33.7772 441.76 33.7772ZM497.683 58.0429C495.077 58.0429 492.526 58.5857 490.028 59.6715C487.531 60.7572 485.306 62.3315 483.351 64.3943C481.506 66.4572 479.986 69.0086 478.791 72.0486C477.597 74.98 477 78.2914 477 81.9829V119.114C477 120.309 476.294 121.449 474.883 122.534C473.58 123.511 472.006 124 470.16 124C468.206 124 466.577 123.511 465.274 122.534C464.08 121.449 463.483 120.309 463.483 119.114V51.5286C463.483 50.1172 464.08 48.9772 465.274 48.1086C466.577 47.24 468.206 46.8057 470.16 46.8057C471.897 46.8057 473.363 47.24 474.557 48.1086C475.751 48.9772 476.348 50.1172 476.348 51.5286V59.1829C478.194 55.8172 480.908 52.7772 484.491 50.0629C488.183 47.24 492.58 45.8286 497.683 45.8286H503.22C504.631 45.8286 505.826 46.48 506.803 47.7829C507.888 48.9772 508.431 50.3886 508.431 52.0172C508.431 53.6457 507.888 55.0572 506.803 56.2515C505.826 57.4457 504.631 58.0429 503.22 58.0429H497.683ZM542.753 45.8286C548.399 45.8286 553.176 46.7515 557.085 48.5972C561.102 50.3343 564.359 52.6686 566.856 55.6C569.353 58.5315 571.145 61.8972 572.231 65.6972C573.316 69.4972 573.859 73.4057 573.859 77.4229V119.114C573.859 120.526 573.208 121.72 571.905 122.697C570.711 123.566 569.136 124 567.182 124C565.336 124 563.816 123.566 562.622 122.697C561.536 121.72 560.993 120.526 560.993 119.114V112.6C558.171 115.857 554.751 118.789 550.733 121.394C546.716 124 541.939 125.303 536.402 125.303C533.362 125.303 530.485 124.869 527.771 124C525.165 123.131 522.831 121.829 520.768 120.091C518.813 118.246 517.239 115.966 516.045 113.251C514.959 110.537 514.416 107.334 514.416 103.643C514.416 99.0829 515.339 95.3914 517.185 92.5686C519.031 89.6372 521.636 87.3029 525.002 85.5657C528.368 83.8286 532.385 82.6343 537.053 81.9829C541.722 81.3315 546.879 81.0057 552.525 81.0057H560.342V77.5857C560.342 75.1972 560.016 72.8086 559.365 70.42C558.713 68.0315 557.682 65.86 556.271 63.9057C554.859 61.9515 553.013 60.3772 550.733 59.1829C548.453 57.9886 545.685 57.3915 542.428 57.3915C539.605 57.3915 537.216 57.6629 535.262 58.2057C533.308 58.64 531.679 59.1829 530.376 59.8343C529.073 60.3772 527.988 60.92 527.119 61.4629C526.251 61.8972 525.436 62.1143 524.676 62.1143C523.048 62.1143 521.799 61.3543 520.931 59.8343C520.062 58.3143 519.628 56.7943 519.628 55.2743C519.628 53.9715 520.333 52.7772 521.745 51.6915C523.156 50.4972 524.948 49.4658 527.119 48.5972C529.399 47.7286 531.896 47.0772 534.611 46.6429C537.325 46.1 540.039 45.8286 542.753 45.8286ZM560.342 89.3114H554.642C551.168 89.3114 547.802 89.4743 544.545 89.8C541.396 90.0172 538.573 90.56 536.076 91.4286C533.688 92.2972 531.733 93.6 530.213 95.3372C528.802 96.9657 528.096 99.2457 528.096 102.177C528.096 106.411 529.291 109.506 531.679 111.46C534.068 113.414 537.053 114.391 540.636 114.391C542.916 114.391 545.251 113.903 547.639 112.926C550.028 111.84 552.145 110.483 553.991 108.854C555.836 107.226 557.356 105.434 558.551 103.48C559.745 101.526 560.342 99.6257 560.342 97.78V89.3114ZM628.944 76.12L655.979 115.369C656.521 116.237 656.793 117.051 656.793 117.811C656.793 119.44 655.979 121.014 654.35 122.534C652.721 123.946 651.039 124.651 649.301 124.651C647.781 124.651 646.533 123.946 645.556 122.534L619.661 84.5886L606.144 96.64V119.114C606.144 120.309 605.439 121.449 604.027 122.534C602.724 123.511 601.15 124 599.304 124C597.35 124 595.721 123.511 594.419 122.534C593.224 121.449 592.627 120.309 592.627 119.114V4.95149C592.627 3.54006 593.224 2.40006 594.419 1.53149C595.721 0.662916 597.35 0.22863 599.304 0.22863C601.15 0.22863 602.724 0.662916 604.027 1.53149C605.439 2.40006 606.144 3.54006 606.144 4.95149V81.1686L643.276 47.62C644.253 46.86 645.23 46.48 646.207 46.48C647.727 46.48 649.247 47.1315 650.767 48.4343C652.287 49.7372 653.047 51.2029 653.047 52.8315C653.047 54.1343 652.559 55.22 651.581 56.0886L628.944 76.12ZM689.983 114.391C695.845 114.391 699.863 113.36 702.034 111.297C704.314 109.126 705.454 106.737 705.454 104.131C705.454 100.874 704.477 98.3772 702.523 96.64C700.568 94.7943 698.125 93.3286 695.194 92.2429C692.263 91.0486 689.06 90.0172 685.585 89.1486C682.111 88.28 678.908 87.0857 675.977 85.5657C673.045 83.9372 670.603 81.8743 668.648 79.3772C666.694 76.7715 665.717 73.1886 665.717 68.6286C665.717 65.9143 666.151 63.2 667.02 60.4857C667.997 57.7715 669.517 55.3286 671.58 53.1572C673.751 50.9858 676.52 49.2486 679.885 47.9458C683.36 46.5343 687.54 45.8286 692.425 45.8286C695.248 45.8286 698.017 46.1 700.731 46.6429C703.554 47.0772 706.051 47.7286 708.223 48.5972C710.394 49.3572 712.131 50.28 713.434 51.3658C714.737 52.4515 715.388 53.5372 715.388 54.6229C715.388 55.1657 715.225 55.8172 714.9 56.5772C714.683 57.3372 714.357 58.0972 713.923 58.8572C713.488 59.6172 712.891 60.2686 712.131 60.8115C711.48 61.2457 710.774 61.4629 710.014 61.4629C709.254 61.4629 708.331 61.2457 707.245 60.8115C706.268 60.2686 705.074 59.7257 703.663 59.1829C702.36 58.5315 700.785 57.9886 698.94 57.5543C697.094 57.0115 694.977 56.74 692.588 56.74C689.874 56.74 687.54 57.12 685.585 57.88C683.74 58.5315 682.22 59.4543 681.025 60.6486C679.94 61.7343 679.125 62.9829 678.583 64.3943C678.04 65.6972 677.768 66.9457 677.768 68.14C677.768 70.9629 678.745 73.08 680.7 74.4915C682.654 75.9029 685.097 77.0972 688.028 78.0743C691.068 79.0515 694.271 80.0286 697.637 81.0057C701.111 81.8743 704.314 83.1772 707.245 84.9143C710.285 86.6514 712.783 88.9857 714.737 91.9172C716.691 94.74 717.668 98.5943 717.668 103.48C717.668 110.211 715.334 115.531 710.665 119.44C705.997 123.349 699.265 125.303 690.471 125.303C686.563 125.303 682.98 124.923 679.723 124.163C676.465 123.403 673.643 122.426 671.254 121.231C668.865 120.037 667.02 118.734 665.717 117.323C664.414 115.803 663.763 114.337 663.763 112.926C663.763 111.731 664.197 110.429 665.065 109.017C665.934 107.497 667.074 106.737 668.485 106.737C669.463 106.737 670.44 107.171 671.417 108.04C672.394 108.8 673.643 109.669 675.163 110.646C676.791 111.514 678.745 112.383 681.025 113.251C683.414 114.011 686.4 114.391 689.983 114.391ZM745.941 119.114C745.941 120.309 745.235 121.449 743.823 122.534C742.521 123.511 740.946 124 739.101 124C737.146 124 735.518 123.511 734.215 122.534C733.021 121.449 732.423 120.309 732.423 119.114V4.95149C732.423 3.54006 733.021 2.40006 734.215 1.53149C735.518 0.662916 737.146 0.22863 739.101 0.22863C740.946 0.22863 742.521 0.662916 743.823 1.53149C745.235 2.40006 745.941 3.54006 745.941 4.95149V58.2057C747.569 55.0572 750.175 52.2343 753.758 49.7372C757.341 47.1315 761.792 45.8286 767.112 45.8286C771.021 45.8286 774.712 46.6429 778.186 48.2715C781.661 49.9 784.701 52.18 787.306 55.1115C789.912 57.9343 791.975 61.2457 793.495 65.0457C795.015 68.8457 795.775 72.8629 795.775 77.0972V119.114C795.775 120.743 795.069 121.991 793.658 122.86C792.246 123.62 790.672 124 788.935 124C787.415 124 785.895 123.62 784.375 122.86C782.963 121.991 782.258 120.743 782.258 119.114V77.0972C782.258 74.7086 781.769 72.3743 780.792 70.0943C779.815 67.8143 778.458 65.8057 776.721 64.0686C775.092 62.2229 773.138 60.7572 770.858 59.6715C768.578 58.5857 766.189 58.0429 763.692 58.0429C761.521 58.0429 759.349 58.4772 757.178 59.3457C755.115 60.2143 753.215 61.4629 751.478 63.0915C749.849 64.72 748.492 66.7286 747.406 69.1172C746.429 71.5057 745.941 74.1657 745.941 77.0972V119.114ZM821.002 46.8057C822.848 46.8057 824.422 47.24 825.725 48.1086C827.137 48.9772 827.842 50.1172 827.842 51.5286V119.114C827.842 120.309 827.137 121.449 825.725 122.534C824.422 123.511 822.848 124 821.002 124C819.157 124 817.582 123.511 816.28 122.534C814.977 121.449 814.325 120.309 814.325 119.114V51.5286C814.325 50.1172 814.977 48.9772 816.28 48.1086C817.582 47.24 819.157 46.8057 821.002 46.8057ZM821.002 10.1629C823.282 10.1629 825.237 10.9229 826.865 12.4429C828.494 13.9629 829.308 15.7543 829.308 17.8172C829.308 19.8801 828.494 21.7258 826.865 23.3543C825.237 24.8743 823.282 25.6343 821.002 25.6343C818.614 25.6343 816.605 24.8743 814.977 23.3543C813.348 21.7258 812.534 19.8801 812.534 17.8172C812.534 15.7543 813.348 13.9629 814.977 12.4429C816.605 10.9229 818.614 10.1629 821.002 10.1629ZM860.279 99.4086C860.279 104.077 861.256 107.389 863.21 109.343C865.165 111.189 868.693 112.111 873.796 112.111H878.845C880.69 112.111 882.102 112.709 883.079 113.903C884.165 115.097 884.707 116.454 884.707 117.974C884.707 119.494 884.165 120.906 883.079 122.209C882.102 123.403 880.69 124 878.845 124H873.796C865.002 124 858.27 122.046 853.602 118.137C849.042 114.229 846.762 107.986 846.762 99.4086V15.5372C846.762 14.1258 847.467 12.9858 848.879 12.1172C850.399 11.2486 851.919 10.8143 853.439 10.8143C855.176 10.8143 856.75 11.2486 858.162 12.1172C859.573 12.9858 860.279 14.1258 860.279 15.5372V46.8057H880.799C881.993 46.8057 882.97 47.3486 883.73 48.4343C884.49 49.52 884.87 50.7686 884.87 52.18C884.87 53.5915 884.49 54.84 883.73 55.9257C882.97 56.9029 881.993 57.3915 880.799 57.3915H860.279V99.4086ZM928.12 3.32291C930.4 3.32291 932.355 4.19149 933.983 5.92863C935.612 7.5572 936.426 9.51149 936.426 11.7915C936.426 12.9858 935.883 15.1029 934.797 18.1429C933.82 21.0743 931.975 25.58 929.26 31.66C928.935 32.42 928.446 32.9629 927.795 33.2886C927.143 33.6143 926.492 33.7772 925.84 33.7772C924.755 33.7772 923.669 33.4515 922.583 32.8C921.606 32.04 921.117 31.0629 921.117 29.8686C921.117 29.1086 921.226 28.5658 921.443 28.2401L924.863 19.7715C923.343 19.1201 922.095 18.0886 921.117 16.6772C920.14 15.2658 919.652 13.6372 919.652 11.7915C919.652 9.51149 920.412 7.5572 921.932 5.92863C923.56 4.19149 925.623 3.32291 928.12 3.32291ZM901.9 3.32291C904.18 3.32291 906.135 4.19149 907.763 5.92863C909.5 7.5572 910.369 9.51149 910.369 11.7915C910.369 12.9858 909.826 15.1029 908.74 18.1429C907.763 21.0743 905.863 25.58 903.04 31.66C902.715 32.42 902.226 32.9629 901.575 33.2886C900.923 33.6143 900.326 33.7772 899.783 33.7772C898.697 33.7772 897.612 33.4515 896.526 32.8C895.44 32.04 894.897 31.0629 894.897 29.8686C894.897 29.3258 895.06 28.7829 895.386 28.2401L898.643 19.7715C897.123 19.1201 895.875 18.0886 894.897 16.6772C893.92 15.2658 893.432 13.6372 893.432 11.7915C893.432 9.51149 894.246 7.5572 895.875 5.92863C897.503 4.19149 899.512 3.32291 901.9 3.32291ZM956.845 107.877C959.017 107.877 960.971 108.691 962.708 110.32C964.445 111.84 965.314 113.903 965.314 116.509C965.314 116.834 965.26 117.269 965.151 117.811C965.043 118.354 964.771 119.331 964.337 120.743C963.903 122.046 963.197 123.891 962.22 126.28C961.351 128.777 960.048 132.089 958.311 136.214C957.66 137.734 956.465 138.494 954.728 138.494C953.643 138.494 952.557 138.114 951.471 137.354C950.494 136.703 950.005 135.78 950.005 134.586C950.005 133.826 950.114 133.229 950.331 132.794L953.751 124.326C952.231 123.674 950.983 122.643 950.005 121.231C949.028 119.82 948.54 118.246 948.54 116.509C948.54 114.12 949.3 112.111 950.82 110.483C952.448 108.746 954.457 107.877 956.845 107.877ZM957.497 55.2743C959.777 55.2743 961.731 56.1429 963.36 57.88C964.988 59.5086 965.803 61.5172 965.803 63.9057C965.803 66.0772 964.988 68.0315 963.36 69.7686C961.731 71.5057 959.777 72.3743 957.497 72.3743C955 72.3743 952.937 71.5057 951.308 69.7686C949.788 68.0315 949.028 66.0772 949.028 63.9057C949.028 61.5172 949.788 59.5086 951.308 57.88C952.937 56.1429 955 55.2743 957.497 55.2743Z" fill="black"/>
<path d="M224.387 75.3057L200.447 119.766C199.904 120.851 199.198 121.883 198.33 122.86C197.461 123.837 196.43 124.326 195.236 124.326C193.39 124.326 191.49 123.674 189.536 122.371C187.581 121.069 186.604 119.494 186.604 117.649C186.604 116.671 186.93 115.694 187.581 114.717L215.593 64.3943L188.233 14.3972C187.473 13.2029 187.093 12.0086 187.093 10.8143C187.093 8.96863 187.961 7.50291 189.698 6.4172C191.436 5.22291 193.336 4.62577 195.398 4.62577C196.81 4.62577 198.004 5.16863 198.981 6.25434C199.958 7.34005 200.773 8.53434 201.424 9.8372L224.387 53.1572L247.513 9.8372C248.164 8.53434 248.978 7.34005 249.956 6.25434C250.933 5.16863 252.127 4.62577 253.538 4.62577C255.601 4.62577 257.501 5.22291 259.238 6.4172C260.976 7.50291 261.844 8.96863 261.844 10.8143C261.844 12.0086 261.464 13.2029 260.704 14.3972L233.181 64.3943L261.356 114.717C262.007 115.694 262.333 116.671 262.333 117.649C262.333 119.494 261.356 121.069 259.401 122.371C257.447 123.674 255.547 124.326 253.701 124.326C252.507 124.326 251.476 123.837 250.607 122.86C249.738 121.883 249.033 120.851 248.49 119.766L224.387 75.3057Z" fill="#4EAFCD"/>
</svg>
