<svg height="511pt" viewBox="0 1 511.99956 511" width="511pt" xmlns="http://www.w3.org/2000/svg"><path d="m277.382812 410.125-27.976562-90.8125 64.0625-19.734375 27.90625 90.59375c.722656 2.339844-1.460938 4.542969-3.808594 3.839844l-29.773437-8.914063c-1.152344-.34375-2.402344.015625-3.191407.921875l-21.976562 25.21875c-1.582031 1.808594-4.535156 1.183594-5.242188-1.113281zm0 0" fill="#fc4e51"/><path d="m409.636719 277.871094-90.816407-27.972656-19.734374 64.0625 90.59375 27.90625c2.34375.722656 4.542968-1.460938 3.839843-3.808594l-8.910156-29.777344c-.347656-1.152344.015625-2.398438.921875-3.191406l25.214844-21.976563c1.8125-1.578125 1.183594-4.535156-1.109375-5.242187zm0 0" fill="#fc4e51"/><path d="m500.433594 120.695312-108.628906-108.628906-178.625 201.574219-201.605469 178.652344c-11.851563 11.855469 2.851562 45.785156 32.847656 75.78125 30 29.996093 63.925781 44.703125 75.78125 32.847656l178.65625-201.605469zm0 0" fill="#f3e8d7"/><path d="m460.59375 80.855469-201.574219 178.625-197.617187 223.667969c24.875 19.472656 49.152344 27.425781 58.800781 17.773437l178.65625-201.605469 201.574219-178.621094zm0 0" fill="#ddd1c3"/><path d="m467.582031 44.917969c-29.996093-30-63.925781-44.703125-75.78125-32.851563-11.855469 11.855469 2.851563 45.785156 32.851563 75.78125 29.996094 29.996094 63.921875 44.703125 75.777344 32.847656 11.855468-11.855468-2.851563-45.78125-32.847657-75.777343zm0 0" fill="#ddd1c3"/><path d="m392.222656 42.398438c5.859375 13.882812 17.15625 30.171874 32.429688 45.445312 15.277344 15.277344 31.566406 26.574219 45.449218 32.429688 3.578126-10.808594-7.054687-32.289063-26.320312-51.554688s-40.75-29.898438-51.558594-26.320312zm0 0" fill="#efefef"/><path d="m211.535156 190.015625c6.5625-.359375 12.667969-3.46875 16.8125-8.566406 7.503906-9.226563 20.753906-11.324219 30.742188-4.871094 5.519531 3.566406 12.289062 4.640625 18.640625 2.953125 11.492187-3.050781 23.445312 3.039062 27.730469 14.128906 2.367187 6.132813 7.214843 10.976563 13.34375 13.34375 11.09375 4.289063 17.183593 16.238282 14.128906 27.734375-1.6875 6.351563-.613282 13.121094 2.953125 18.640625 6.457031 9.988282 4.359375 23.234375-4.867188 30.738282-5.097656 4.148437-8.210937 10.253906-8.566406 16.816406-.652344 11.875-10.132813 21.359375-22.011719 22.007812-6.558594.359375-12.667968 3.46875-16.8125 8.566406-7.503906 9.226563-20.753906 11.324219-30.742187 4.871094-5.519531-3.566406-12.285157-4.640625-18.636719-2.953125-11.496094 3.050781-23.445312-3.035156-27.734375-14.128906-2.367187-6.132813-7.214844-10.976563-13.34375-13.34375-11.09375-4.289063-17.183594-16.238281-14.128906-27.734375 1.6875-6.351562.613281-13.121094-2.953125-18.640625-6.457032-9.988281-4.359375-23.234375 4.867187-30.738281 5.097657-4.148438 8.210938-10.253906 8.570313-16.816406.648437-11.875 10.132812-21.359376 22.007812-22.007813zm0 0" fill="#fcb038"/><path d="m335.886719 253.378906c-3.566407-5.519531-4.636719-12.289062-2.949219-18.640625 3.050781-11.496093-3.039062-23.445312-14.132812-27.734375-6.128907-2.367187-10.972657-7.210937-13.34375-13.34375-4.285157-11.09375-16.234376-17.179687-27.730469-14.128906-6.351563 1.6875-13.121094.617188-18.640625-2.953125-9.988282-6.453125-23.234375-4.355469-30.742188 4.871094-4.144531 5.097656-10.25 8.207031-16.8125 8.566406-11.875.648437-21.359375 10.132813-22.007812 22.007813-.046875.839843-.136719 1.671874-.273438 2.492187 29.660156-8.21875 62.765625-.695313 86.078125 22.621094 23.316407 23.3125 30.839844 56.421875 22.621094 86.078125.820313-.136719 1.652344-.226563 2.492187-.273438 11.875-.648437 21.359376-10.132812 22.007813-22.007812.359375-6.5625 3.472656-12.667969 8.570313-16.816406 9.222656-7.503907 11.320312-20.75 4.863281-30.738282zm0 0" fill="#fd8f31"/><path d="m291.097656 221.367188c-19.390625-19.394532-50.832031-19.394532-70.226562 0-19.390625 19.390624-19.390625 50.832031 0 70.222656 19.394531 19.394531 50.835937 19.394531 70.226562 0 19.394532-19.390625 19.394532-50.832032 0-70.222656zm0 0" fill="#ffe285"/><path d="m313.148438 256.480469c0-15.269531-5.945313-29.621094-16.742188-40.417969-22.285156-22.285156-58.546875-22.285156-80.832031 0-22.289063 22.285156-22.289063 58.546875 0 80.832031 11.140625 11.144531 25.777343 16.714844 40.414062 16.714844 14.640625 0 29.277344-5.570313 40.417969-16.714844 10.796875-10.792969 16.742188-25.148437 16.742188-40.414062zm-86.96875 29.804687c-7.960938-7.960937-12.347657-18.546875-12.347657-29.808594 0-11.257812 4.386719-21.84375 12.347657-29.808593 8.21875-8.21875 19.011718-12.328125 29.808593-12.328125s21.59375 4.113281 29.808594 12.328125c7.964844 7.964843 12.347656 18.550781 12.347656 29.808593 0 11.261719-4.382812 21.847657-12.347656 29.808594-16.4375 16.441406-43.179687 16.441406-59.617187 0zm0 0"/><path d="m506.585938 86.625c-6.570313-15.160156-18.539063-31.855469-33.699219-47.015625-15.15625-15.15625-31.855469-27.125-47.011719-33.695313-17.027344-7.382812-30.8125-7.199218-38.933594.453126-.113281.09375-.222656.191406-.328125.292968-.035156.035156-.078125.066406-.113281.101563-.050781.054687-.09375.113281-.148438.164062-.050781.058594-.109374.109375-.160156.167969l-.925781 1.046875c-.0625.074219-.132813.140625-.195313.21875l-46.503906 52.480469c-2.746094 3.097656-2.460937 7.839844.640625 10.585937 1.425781 1.265625 3.203125 1.886719 4.96875 1.886719 2.074219 0 4.136719-.851562 5.617188-2.523438l31.933593-36.039062c.832032 3.320312 2.015626 6.820312 3.550782 10.472656.011718.03125.019531.0625.035156.09375.019531.050782.042969.097656.0625.148438.097656.226562.179688.445312.277344.671875.277344.636719.574218 1.277343.867187 1.917969.039063.078124.070313.15625.109375.234374.402344.875.828125 1.753907 1.265625 2.636719.054688.105469.105469.210938.15625.316407.421875.84375.863281 1.695312 1.316407 2.542968.082031.152344.15625.300782.238281.453125.429687.796875.875 1.601563 1.332031 2.402344.117188.207031.226562.410156.347656.617187.425782.742188.867188 1.484376 1.316406 2.230469.160157.265625.316407.535157.480469.804688.414063.679687.84375 1.359375 1.273438 2.039062.214843.335938.421875.671875.636719 1.007813.398437.613281.808593 1.230468 1.21875 1.84375.265624.402344.527343.804687.800781 1.203125.378906.554687.765625 1.109375 1.152343 1.660156.324219.460937.640626.921875.96875 1.382813.355469.5.726563 1 1.09375 1.5.371094.511718.738282 1.019531 1.121094 1.53125.347656.460937.703125.921874 1.054688 1.378906.417968.546875.828125 1.09375 1.253906 1.636718.34375.4375.695312.875 1.046875 1.308594.449219.566406.890625 1.128906 1.351563 1.691406.359374.4375.730468.875 1.09375 1.3125.460937.554688.917968 1.109376 1.390624 1.664063.410157.480469.835938.960937 1.253907 1.441406.4375.503907.871093 1.007813 1.316406 1.511719.519531.585938 1.050781 1.164062 1.582031 1.75.355469.394531.707032.789062 1.070313 1.179688.78125.847656 1.578125 1.6875 2.382812 2.527343.121094.125.234375.253907.355469.378907.9375.976562 1.886719 1.945312 2.851562 2.90625.960938.964843 1.929688 1.910156 2.902344 2.847656.152344.144531.304688.285156.457032.429687.8125.777344 1.628906 1.550781 2.449218 2.308594.402344.371094.804688.730469 1.207032 1.09375.574218.523437 1.148437 1.050781 1.726562 1.5625.507812.449219 1.019531.886719 1.53125 1.332031.472656.414063.945312.832032 1.421875 1.238282.550781.464843 1.101563.917968 1.648437 1.375.445313.371093.886719.746093 1.332032 1.109374.550781.449219 1.101562.882813 1.652344 1.324219.449218.359375.898437.722657 1.347656 1.078125.53125.414063 1.0625.816406 1.59375 1.222656.472656.363282.949218.730469 1.421875 1.085938.496093.371094.992187.726562 1.484375 1.089844.519531.375 1.035156.757812 1.550781 1.128906.441406.316406.882813.617188 1.324219.925781.574218.402344 1.148437.804688 1.71875 1.195313.378906.257812.757812.503906 1.140625.757812.636719.425782 1.273437.851563 1.910156 1.261719.3125.203125.625.394531.9375.59375.703125.445313 1.40625.890625 2.109375 1.316406.25.152344.496094.296875.746094.445313.765625.460937 1.53125.917968 2.292968 1.355468.183594.105469.371094.207032.554688.3125.824219.464844 1.648438.925782 2.46875 1.367188.125.066406.253906.132812.382812.199219.871094.46875 1.742188.917969 2.609376 1.351562.085937.042969.171874.085938.253906.125.90625.453125 1.804687.882813 2.703125 1.296875.058593.027344.117187.054688.171875.082032.65625.300781 1.3125.605468 1.960937.886718.238281.101563.46875.1875.703125.289063.039063.015625.078125.035156.117188.050781.023437.011719.050781.015625.074218.027344 3.65625 1.539062 7.160157 2.726562 10.488282 3.5625l-134.925782 119.5625c-.203124-.347656-.410156-.695313-.632812-1.035156-2.414062-3.734376-3.144531-8.339844-2-12.640626 4.039062-15.21875-3.988281-30.976562-18.675781-36.652343-4.148438-1.605469-7.449219-4.90625-9.050781-9.054688-5.675782-14.6875-21.433594-22.710937-36.65625-18.675781-4.300782 1.144531-8.90625.410156-12.640626-2-.328124-.214844-.664062-.414062-.996093-.609375l64.371093-72.644531c2.75-3.101563 2.460938-7.839844-.636718-10.589844-3.105469-2.746094-7.84375-2.460938-10.589844.640625l-69.351562 78.261719c-8.824219.136718-17.476563 4.058594-23.429688 11.375-2.804688 3.449218-6.960938 5.570312-11.402344 5.8125-15.726562.859375-28.230468 13.363281-29.089844 29.089844-.242187 4.441406-2.359374 8.597656-5.8125 11.402343-7.316406 5.953125-11.238281 14.605469-11.375 23.429688l-158.25 140.230469c-.113281.101562-.222656.203124-.328124.3125-8.0625 8.058593-8.363282 22.042968-.851563 39.371093 6.574219 15.160157 18.539063 31.855469 33.699219 47.015625 15.15625 15.15625 31.855468 27.125 47.011718 33.695313 8.347657 3.617187 15.914063 5.425781 22.421876 5.425781 7.003906 0 12.773437-2.09375 16.953124-6.273438.105469-.105468.210938-.214843.308594-.328124l27.921875-31.507813c2.746094-3.101563 2.460938-7.84375-.636719-10.589844-3.105468-2.75-7.84375-2.460937-10.589843.636719l-27.734375 31.296875c-5.902344 5.433594-33.097656-1.011719-65.050782-32.964844-29.730468-29.730469-39.316406-58.222656-32.96875-65.046875l152.421876-135.066406c.195312.332031.398437.667969.609374.996094 2.414063 3.734375 3.144532 8.34375 2.003907 12.640625-4.042969 15.222656 3.984375 30.980469 18.675781 36.65625 4.148438 1.601562 7.445312 4.902343 9.050781 9.050781 5.675781 14.6875 21.433594 22.71875 36.652344 18.675781 4.300781-1.140625 8.90625-.410156 12.644531 2.003907.34375.21875.695313.414062 1.042969.621093l-84.199219 95.019531c-2.75 3.101563-2.464844 7.839844.636719 10.585938 1.429687 1.265625 3.203125 1.890625 4.972656 1.890625 2.070313 0 4.132813-.855469 5.617188-2.527344l77.46875-87.417969 15.859375 51.484376c1.125 3.660156 4.15625 6.429687 7.90625 7.226562.726562.152344 1.460937.226562 2.1875.226562 3.019531 0 5.941406-1.296874 7.96875-3.625l20.101562-23.0625 27.039063 8.097657c3.742187 1.117187 7.777343.089843 10.53125-2.6875 2.75-2.773438 3.746093-6.816407 2.59375-10.550781l-17.328125-56.253907 56.253906 17.328125c1.027344.316406 2.078125.46875 3.121094.46875 2.742187 0 5.421875-1.070312 7.433594-3.066406 2.773437-2.753906 3.800781-6.789062 2.679687-10.53125l-8.09375-27.039062 23.066406-20.097657c2.886719-2.519531 4.1875-6.410156 3.394531-10.160156-.796874-3.746094-3.566406-6.777344-7.226562-7.90625l-51.484375-15.859375 145.046875-128.535156c.0625-.054688.117188-.113282.175781-.171875.050781-.046875.105469-.089844.152344-.136719.035156-.035156.066406-.074219.101563-.113281.101562-.105469.203124-.21875.296874-.328125 7.652344-8.125 7.832032-21.90625.453126-38.933594zm-242.710938 245.898438c-.058594-.007813-.117188-.011719-.175781-.015626-2.335938-.277343-4.640625-1.074218-6.738281-2.429687-5.023438-3.246094-10.859376-4.929687-16.746094-4.929687-2.640625 0-5.296875.339843-7.890625 1.027343-7.8125 2.074219-15.898438-2.046875-18.8125-9.585937-3.121094-8.082032-9.550781-14.511719-17.636719-17.636719-7.535156-2.910156-11.65625-11-9.582031-18.808594 2.222656-8.378906.800781-17.359375-3.902344-24.636719-1.347656-2.082031-2.140625-4.371093-2.421875-6.6875-.007812-.074218-.015625-.148437-.023438-.222656-.550781-5.164062 1.464844-10.457031 5.746094-13.941406 6.726563-5.46875 10.851563-13.570312 11.324219-22.226562.441406-8.066407 6.859375-14.484376 14.929687-14.925782 8.652344-.472656 16.753907-4.601562 22.222657-11.324218 3.496093-4.296876 8.804687-6.3125 13.984375-5.746094.0625.007812.125.015625.1875.023437 2.316406.28125 4.601562 1.074219 6.679687 2.417969 7.277344 4.707031 16.257813 6.125 24.636719 3.902344 7.8125-2.074219 15.898438 2.046875 18.808594 9.585937 3.125 8.082031 9.554687 14.511719 17.636718 17.636719 7.539063 2.914062 11.660157 11 9.585938 18.8125-2.226562 8.375-.804688 17.355469 3.902344 24.636719 1.355468 2.09375 2.152344 4.402343 2.425781 6.738281.007813.058594.011719.117188.019531.175781.546875 5.164063-1.464844 10.453125-5.75 13.933594-1.882812 1.535156-3.554687 3.277344-5.007812 5.179687-.167969.199219-.332032.410157-.480469.632813-3.449219 4.753906-5.507813 10.453125-5.835937 16.414063-.167969 3.085937-1.214844 5.929687-2.894532 8.292968-.148437.175782-.289062.359375-.417968.550782-.808594 1.035156-1.742188 1.96875-2.78125 2.773437-.183594.128906-.363282.265625-.535157.410156-2.363281 1.679688-5.207031 2.730469-8.296875 2.898438-5.898437.324219-11.539062 2.347656-16.265625 5.730469-.238281.160156-.46875.328124-.683593.511718-1.9375 1.472656-3.714844 3.167969-5.273438 5.085938-3.484375 4.28125-8.773438 6.296875-13.9375 5.746094zm18.328125 67.777343-16.199219-52.597656.082032-.089844c6.515624-.117187 12.933593-2.292969 18.238281-6.378906l12.851562 41.890625zm49.558594-15.859375-20.363281-6.09375-14.46875-47.175781c1.261718-.402344 2.574218-.667969 3.921874-.738281 4.746094-.261719 9.195313-1.589844 13.125-3.738282zm-5.554688-69.976562c2.148438-3.925782 3.476563-8.375 3.734375-13.121094.074219-1.378906.351563-2.722656.769532-4.011719l47.144531 14.546875 6.097656 20.375zm73.605469-31.769532-17.171875 14.964844-41.839844-12.914062c4.054688-5.292969 6.214844-11.6875 6.328125-18.179688l.082032-.074218zm34.113281-196.308593c-.066406-.058594-.128906-.117188-.191406-.179688-.460937-.433593-.917969-.871093-1.371094-1.3125-.800781-.773437-1.601562-1.546875-2.40625-2.355469-.746093-.746093-1.484375-1.5-2.214843-2.257812-.324219-.335938-.648438-.675781-.972657-1.015625-.339843-.355469-.671875-.710937-1.007812-1.070313-8.351563-8.914062-15.539063-18.363281-20.847657-27.367187 8.527344 2.996094 20.628907 10.261719 33.5625 23.195313 12.933594 12.933593 20.199219 25.03125 23.191407 33.558593-9.125-5.382812-18.71875-12.695312-27.742188-21.195312zm61.261719 28.933593-.398438.351563c-2.53125 2.054687-8.375 2.210937-16.519531-.378906-.179687-15.777344-13.855469-36.546875-29.1875-51.878907-15.34375-15.339843-36.132812-29.023437-51.914062-29.183593-2.464844-7.65625-2.628907-13.800781-.3125-16.554688l.328125-.371093c1.285156-1.230469 3.4375-1.835938 6.226562-1.835938 4.296875 0 10.089844 1.429688 16.496094 4.207031 13.46875 5.839844 28.519531 16.6875 42.375 30.542969 32.0625 32.058594 38.4375 59.328125 32.90625 65.101562zm0 0"/></svg>