<svg width="93" height="127" viewBox="0 0 93 127" fill="none" xmlns="http://www.w3.org/2000/svg">
<mask id="mask0" mask-type="alpha" maskUnits="userSpaceOnUse" x="0" y="0" width="93" height="127">
<path d="M75.8363 46.3548C75.8363 52.1891 74.1062 57.8923 70.8649 62.7433C67.6236 67.5943 63.0165 71.3752 57.6264 73.6078C52.2363 75.8405 46.3051 76.4247 40.583 75.2865C34.8608 74.1483 29.6047 71.3388 25.4793 67.2134C21.3539 63.0879 18.5444 57.8318 17.4062 52.1097C16.268 46.3876 16.8522 40.4564 19.0848 35.0663C21.3175 29.6761 25.0984 25.0691 29.9494 21.8278C34.8004 18.5864 40.5036 16.8564 46.3378 16.8564C54.1586 16.8652 61.6566 19.9759 67.1867 25.506C72.7168 31.0361 75.8275 38.5341 75.8363 46.3548ZM92.6925 46.3548C92.6938 53.1848 91.1834 59.9305 88.2696 66.1078C85.3558 72.2851 81.1109 77.7409 75.8394 82.0838V122.208C75.8395 122.926 75.6559 123.633 75.3061 124.26C74.9564 124.887 74.4521 125.415 73.8411 125.793C73.2301 126.17 72.5327 126.386 71.8151 126.418C71.0976 126.45 70.3837 126.299 69.7412 125.977L46.3373 114.277L22.9414 125.977C22.2989 126.298 21.585 126.45 20.8674 126.418C20.1498 126.385 19.4524 126.17 18.8413 125.793C18.2302 125.415 17.7259 124.887 17.376 124.26C17.0262 123.633 16.8426 122.926 16.8426 122.208V82.0885C10.8203 77.1174 6.15169 70.7051 3.27033 63.4471C0.388962 56.1891 -0.611769 48.3208 0.361052 40.5726C1.33387 32.8244 4.24871 25.4477 8.8349 19.1273C13.4211 12.8069 19.53 7.7478 26.5943 4.41974C33.6586 1.09167 41.4493 -0.397456 49.243 0.0906251C57.0368 0.578706 64.5808 3.02817 71.1747 7.21158C77.7686 11.395 83.1986 17.1767 86.9604 24.0199C90.7222 30.8631 92.694 38.5458 92.6925 46.3548V46.3548ZM84.2644 46.3548C84.2644 38.8537 82.0401 31.521 77.8726 25.284C73.7052 19.047 67.7819 14.1858 60.8517 11.3153C53.9215 8.44468 46.2958 7.69361 38.9387 9.15702C31.5817 10.6204 24.8238 14.2326 19.5197 19.5367C14.2156 24.8408 10.6034 31.5987 9.14003 38.9557C7.67663 46.3128 8.4277 53.9385 11.2983 60.8687C14.1688 67.7989 19.03 73.7222 25.267 77.8896C31.504 82.057 38.8367 84.2814 46.3378 84.2814C56.3931 84.2701 66.0333 80.2707 73.1435 73.1605C80.2537 66.0503 84.2531 56.4101 84.2644 46.3548Z" fill="black"/>
</mask>
<g mask="url(#mask0)">
<rect x="93" width="126" height="93" transform="rotate(90 93 0)" fill="url(#paint0_linear)"/>
</g>
<defs>
<linearGradient id="paint0_linear" x1="93" y1="46.5" x2="219" y2="46.5" gradientUnits="userSpaceOnUse">
<stop stop-color="#5C258D"/>
<stop offset="1" stop-color="#4389A2"/>
</linearGradient>
</defs>
</svg>
