<svg width="245" height="49" viewBox="0 0 245 49" fill="none" xmlns="http://www.w3.org/2000/svg">
<path fill-rule="evenodd" clip-rule="evenodd" d="M210.228 43.9591C210.086 43.8168 209.972 43.6478 209.895 43.4618C209.818 43.2758 209.778 43.0763 209.778 42.8749C209.778 42.6735 209.818 42.4741 209.895 42.2881C209.972 42.102 210.086 41.933 210.228 41.7908L227.522 24.4999L210.228 7.20906C210.086 7.06669 209.973 6.89767 209.896 6.71166C209.819 6.52564 209.779 6.32627 209.779 6.12493C209.779 5.92359 209.819 5.72422 209.896 5.53821C209.973 5.35219 210.086 5.18318 210.228 5.04081C210.371 4.89844 210.54 4.78551 210.726 4.70846C210.912 4.63141 211.111 4.59175 211.312 4.59175C211.514 4.59175 211.713 4.63141 211.899 4.70846C212.085 4.78551 212.254 4.89844 212.396 5.04081L230.771 23.4158C230.914 23.558 231.027 23.727 231.104 23.9131C231.182 24.0991 231.221 24.2985 231.221 24.4999C231.221 24.7013 231.182 24.9008 231.104 25.0868C231.027 25.2728 230.914 25.4418 230.771 25.5841L212.396 43.9591C212.254 44.1017 212.085 44.2148 211.899 44.292C211.713 44.3692 211.514 44.4089 211.312 44.4089C211.111 44.4089 210.911 44.3692 210.725 44.292C210.539 44.2148 210.37 44.1017 210.228 43.9591V43.9591Z" fill="black"/>
<path fill-rule="evenodd" clip-rule="evenodd" d="M34.7718 4.44986C34.9144 4.5921 35.0276 4.76108 35.1048 4.94711C35.1819 5.13314 35.2217 5.33258 35.2217 5.53399C35.2217 5.7354 35.1819 5.93483 35.1048 6.12087C35.0276 6.3069 34.9144 6.47587 34.7718 6.61811L17.4779 23.909L34.7718 41.1999C34.9142 41.3422 35.0271 41.5112 35.1042 41.6973C35.1812 41.8833 35.2209 42.0826 35.2209 42.284C35.2209 42.4853 35.1812 42.6847 35.1042 42.8707C35.0271 43.0567 34.9142 43.2257 34.7718 43.3681C34.6294 43.5105 34.4604 43.6234 34.2744 43.7005C34.0884 43.7775 33.889 43.8172 33.6877 43.8172C33.4864 43.8172 33.287 43.7775 33.101 43.7005C32.915 43.6234 32.7459 43.5105 32.6036 43.3681L14.2286 24.9931C14.086 24.8509 13.9728 24.6819 13.8956 24.4959C13.8184 24.3098 13.7787 24.1104 13.7787 23.909C13.7787 23.7076 13.8184 23.5081 13.8956 23.3221C13.9728 23.1361 14.086 22.9671 14.2286 22.8249L32.6036 4.44986C32.7458 4.30726 32.9148 4.19412 33.1008 4.11693C33.2868 4.03974 33.4863 4 33.6877 4C33.8891 4 34.0885 4.03974 34.2746 4.11693C34.4606 4.19412 34.6296 4.30726 34.7718 4.44986V4.44986Z" fill="black"/>
<path d="M59.796 18.56C59.772 18.2 59.7 17.78 59.58 17.3C59.484 16.82 59.268 16.376 58.932 15.968C58.62 15.536 58.152 15.176 57.528 14.888C56.928 14.576 56.124 14.42 55.116 14.42C53.556 14.42 52.368 14.84 51.552 15.68C50.736 16.496 50.328 17.78 50.328 19.532V30.368C50.328 32.12 50.736 33.416 51.552 34.256C52.392 35.072 53.616 35.48 55.224 35.48C56.232 35.48 57.024 35.336 57.6 35.048C58.176 34.76 58.62 34.4 58.932 33.968C59.244 33.536 59.448 33.08 59.544 32.6C59.664 32.096 59.748 31.628 59.796 31.196C59.868 30.5 60.372 30.152 61.308 30.152C61.812 30.152 62.184 30.26 62.424 30.476C62.688 30.692 62.82 31.148 62.82 31.844C62.82 32.732 62.64 33.572 62.28 34.364C61.92 35.132 61.404 35.804 60.732 36.38C60.06 36.956 59.232 37.412 58.248 37.748C57.288 38.06 56.208 38.216 55.008 38.216C53.952 38.216 52.956 38.084 52.02 37.82C51.084 37.532 50.268 37.076 49.572 36.452C48.876 35.828 48.324 35.024 47.916 34.04C47.508 33.032 47.304 31.808 47.304 30.368V19.532C47.304 18.092 47.508 16.88 47.916 15.896C48.324 14.888 48.876 14.072 49.572 13.448C50.292 12.824 51.12 12.38 52.056 12.116C52.992 11.828 53.988 11.684 55.044 11.684C56.244 11.684 57.324 11.852 58.284 12.188C59.244 12.5 60.06 12.944 60.732 13.52C61.404 14.072 61.92 14.732 62.28 15.5C62.64 16.244 62.82 17.06 62.82 17.948C62.82 18.644 62.688 19.1 62.424 19.316C62.184 19.508 61.812 19.604 61.308 19.604C60.348 19.604 59.844 19.256 59.796 18.56ZM72.693 20.72C73.653 20.72 74.565 20.9 75.429 21.26C76.293 21.62 77.049 22.124 77.697 22.772C78.345 23.396 78.861 24.128 79.245 24.968C79.629 25.808 79.821 26.696 79.821 27.632V31.304C79.821 32.216 79.629 33.092 79.245 33.932C78.861 34.772 78.345 35.516 77.697 36.164C77.049 36.812 76.293 37.328 75.429 37.712C74.565 38.096 73.653 38.288 72.693 38.288C71.733 38.288 70.821 38.096 69.957 37.712C69.117 37.328 68.373 36.812 67.725 36.164C67.077 35.516 66.561 34.772 66.177 33.932C65.793 33.092 65.601 32.216 65.601 31.304V27.632C65.601 26.72 65.781 25.844 66.141 25.004C66.525 24.164 67.041 23.432 67.689 22.808C68.337 22.16 69.081 21.656 69.921 21.296C70.785 20.912 71.709 20.72 72.693 20.72ZM76.833 27.632C76.833 27.104 76.725 26.588 76.509 26.084C76.293 25.58 75.993 25.136 75.609 24.752C75.249 24.344 74.817 24.02 74.313 23.78C73.809 23.54 73.269 23.42 72.693 23.42C72.117 23.42 71.577 23.54 71.073 23.78C70.569 24.02 70.137 24.344 69.777 24.752C69.417 25.136 69.129 25.58 68.913 26.084C68.697 26.588 68.589 27.104 68.589 27.632V31.304C68.589 31.856 68.697 32.396 68.913 32.924C69.129 33.428 69.417 33.884 69.777 34.292C70.161 34.676 70.593 34.988 71.073 35.228C71.577 35.468 72.117 35.588 72.693 35.588C73.269 35.588 73.797 35.468 74.277 35.228C74.781 34.988 75.225 34.676 75.609 34.292C75.993 33.884 76.293 33.428 76.509 32.924C76.725 32.396 76.833 31.856 76.833 31.304V27.632ZM86.3933 36.92C86.3933 37.184 86.2373 37.436 85.9253 37.676C85.6373 37.892 85.2893 38 84.8813 38C84.4493 38 84.0893 37.892 83.8013 37.676C83.5373 37.436 83.4053 37.184 83.4053 36.92V21.98C83.4053 21.668 83.5373 21.416 83.8013 21.224C84.0893 21.032 84.4493 20.936 84.8813 20.936C85.2413 20.936 85.5533 21.032 85.8173 21.224C86.1053 21.416 86.2493 21.668 86.2493 21.98V23.456C86.6093 22.76 87.1973 22.136 88.0133 21.584C88.8293 21.008 89.8493 20.72 91.0733 20.72C91.9373 20.72 92.7533 20.9 93.5213 21.26C94.2893 21.62 94.9613 22.124 95.5373 22.772C96.1133 23.396 96.5693 24.128 96.9053 24.968C97.2413 25.808 97.4093 26.696 97.4093 27.632V36.92C97.4093 37.28 97.2533 37.556 96.9413 37.748C96.6293 37.916 96.2813 38 95.8973 38C95.5373 38 95.2013 37.916 94.8893 37.748C94.5773 37.556 94.4213 37.28 94.4213 36.92V27.632C94.4213 27.104 94.3133 26.588 94.0973 26.084C93.8813 25.58 93.5813 25.136 93.1973 24.752C92.8373 24.344 92.4053 24.02 91.9013 23.78C91.3973 23.54 90.8693 23.42 90.3173 23.42C89.8373 23.42 89.3573 23.516 88.8773 23.708C88.4213 23.9 88.0013 24.176 87.6173 24.536C87.2573 24.896 86.9573 25.34 86.7173 25.868C86.5013 26.396 86.3933 26.984 86.3933 27.632V36.92ZM104.427 32.564C104.427 33.596 104.643 34.328 105.075 34.76C105.507 35.168 106.287 35.372 107.415 35.372H108.531C108.939 35.372 109.251 35.504 109.467 35.768C109.707 36.032 109.827 36.332 109.827 36.668C109.827 37.004 109.707 37.316 109.467 37.604C109.251 37.868 108.939 38 108.531 38H107.415C105.471 38 103.983 37.568 102.951 36.704C101.943 35.84 101.439 34.46 101.439 32.564V14.024C101.439 13.712 101.595 13.46 101.907 13.268C102.243 13.076 102.579 12.98 102.915 12.98C103.299 12.98 103.647 13.076 103.959 13.268C104.271 13.46 104.427 13.712 104.427 14.024V20.936H108.963C109.227 20.936 109.443 21.056 109.611 21.296C109.779 21.536 109.863 21.812 109.863 22.124C109.863 22.436 109.779 22.712 109.611 22.952C109.443 23.168 109.227 23.276 108.963 23.276H104.427V32.564ZM117.803 20.72C119.051 20.72 120.107 20.924 120.971 21.332C121.859 21.716 122.579 22.232 123.131 22.88C123.683 23.528 124.079 24.272 124.319 25.112C124.559 25.952 124.679 26.816 124.679 27.704V36.92C124.679 37.232 124.535 37.496 124.247 37.712C123.983 37.904 123.635 38 123.203 38C122.795 38 122.459 37.904 122.195 37.712C121.955 37.496 121.835 37.232 121.835 36.92V35.48C121.211 36.2 120.455 36.848 119.567 37.424C118.679 38 117.623 38.288 116.399 38.288C115.727 38.288 115.091 38.192 114.491 38C113.915 37.808 113.399 37.52 112.943 37.136C112.511 36.728 112.163 36.224 111.899 35.624C111.659 35.024 111.539 34.316 111.539 33.5C111.539 32.492 111.743 31.676 112.151 31.052C112.559 30.404 113.135 29.888 113.879 29.504C114.623 29.12 115.511 28.856 116.543 28.712C117.575 28.568 118.715 28.496 119.963 28.496H121.691V27.74C121.691 27.212 121.619 26.684 121.475 26.156C121.331 25.628 121.103 25.148 120.791 24.716C120.479 24.284 120.071 23.936 119.567 23.672C119.063 23.408 118.451 23.276 117.731 23.276C117.107 23.276 116.579 23.336 116.147 23.456C115.715 23.552 115.355 23.672 115.067 23.816C114.779 23.936 114.539 24.056 114.347 24.176C114.155 24.272 113.975 24.32 113.807 24.32C113.447 24.32 113.171 24.152 112.979 23.816C112.787 23.48 112.691 23.144 112.691 22.808C112.691 22.52 112.847 22.256 113.159 22.016C113.471 21.752 113.867 21.524 114.347 21.332C114.851 21.14 115.403 20.996 116.003 20.9C116.603 20.78 117.203 20.72 117.803 20.72ZM121.691 30.332H120.431C119.663 30.332 118.919 30.368 118.199 30.44C117.503 30.488 116.879 30.608 116.327 30.8C115.799 30.992 115.367 31.28 115.031 31.664C114.719 32.024 114.563 32.528 114.563 33.176C114.563 34.112 114.827 34.796 115.355 35.228C115.883 35.66 116.543 35.876 117.335 35.876C117.839 35.876 118.355 35.768 118.883 35.552C119.411 35.312 119.879 35.012 120.287 34.652C120.695 34.292 121.031 33.896 121.295 33.464C121.559 33.032 121.691 32.612 121.691 32.204V30.332ZM135.38 38.288C134.132 38.288 133.052 38.108 132.14 37.748C131.252 37.388 130.508 36.896 129.908 36.272C129.332 35.648 128.9 34.916 128.612 34.076C128.324 33.212 128.18 32.288 128.18 31.304V27.704C128.18 26.744 128.324 25.844 128.612 25.004C128.9 24.14 129.332 23.396 129.908 22.772C130.508 22.124 131.252 21.62 132.14 21.26C133.052 20.9 134.12 20.72 135.344 20.72C136.136 20.72 136.856 20.804 137.504 20.972C138.152 21.116 138.704 21.308 139.16 21.548C139.64 21.788 140 22.064 140.24 22.376C140.504 22.664 140.636 22.94 140.636 23.204C140.636 23.516 140.516 23.84 140.276 24.176C140.036 24.512 139.736 24.68 139.376 24.68C139.184 24.68 138.992 24.62 138.8 24.5C138.632 24.356 138.404 24.212 138.116 24.068C137.852 23.9 137.516 23.756 137.108 23.636C136.7 23.492 136.184 23.42 135.56 23.42C134.072 23.42 132.968 23.804 132.248 24.572C131.528 25.316 131.168 26.36 131.168 27.704V31.304C131.168 32.648 131.528 33.704 132.248 34.472C132.968 35.216 134.084 35.588 135.596 35.588C136.244 35.588 136.772 35.528 137.18 35.408C137.612 35.264 137.96 35.108 138.224 34.94C138.512 34.772 138.752 34.628 138.944 34.508C139.136 34.364 139.328 34.292 139.52 34.292C139.928 34.292 140.252 34.46 140.492 34.796C140.732 35.108 140.852 35.42 140.852 35.732C140.852 36.02 140.72 36.32 140.456 36.632C140.192 36.92 139.82 37.196 139.34 37.46C138.86 37.7 138.284 37.892 137.612 38.036C136.94 38.204 136.196 38.288 135.38 38.288ZM146.72 32.564C146.72 33.596 146.936 34.328 147.368 34.76C147.8 35.168 148.58 35.372 149.708 35.372H150.824C151.232 35.372 151.544 35.504 151.76 35.768C152 36.032 152.12 36.332 152.12 36.668C152.12 37.004 152 37.316 151.76 37.604C151.544 37.868 151.232 38 150.824 38H149.708C147.764 38 146.276 37.568 145.244 36.704C144.236 35.84 143.732 34.46 143.732 32.564V14.024C143.732 13.712 143.888 13.46 144.2 13.268C144.536 13.076 144.872 12.98 145.208 12.98C145.592 12.98 145.94 13.076 146.252 13.268C146.564 13.46 146.72 13.712 146.72 14.024V20.936H151.256C151.52 20.936 151.736 21.056 151.904 21.296C152.072 21.536 152.156 21.812 152.156 22.124C152.156 22.436 152.072 22.712 151.904 22.952C151.736 23.168 151.52 23.276 151.256 23.276H146.72V32.564Z" fill="black"/>
<path d="M173.315 28.244C173.147 28.556 172.955 28.772 172.739 28.892C172.547 29.012 172.343 29.072 172.127 29.072C171.935 29.072 171.743 29.012 171.551 28.892C171.359 28.772 171.179 28.556 171.011 28.244L165.611 17.876V36.92C165.611 37.28 165.455 37.556 165.143 37.748C164.831 37.916 164.483 38 164.099 38C163.715 38 163.367 37.916 163.055 37.748C162.743 37.556 162.587 37.28 162.587 36.92V13.16C162.587 12.608 162.731 12.224 163.019 12.008C163.331 11.792 163.691 11.684 164.099 11.684C164.651 11.684 165.107 11.852 165.467 12.188C165.827 12.5 166.175 12.968 166.511 13.592L172.163 24.428L177.851 13.592C178.187 12.968 178.535 12.5 178.895 12.188C179.255 11.852 179.711 11.684 180.263 11.684C180.671 11.684 181.019 11.792 181.307 12.008C181.619 12.224 181.775 12.608 181.775 13.16V36.92C181.775 37.28 181.619 37.556 181.307 37.748C180.995 37.916 180.647 38 180.263 38C179.879 38 179.531 37.916 179.219 37.748C178.907 37.556 178.751 37.28 178.751 36.92V18.02L173.315 28.244ZM192.788 20.72C193.7 20.72 194.576 20.888 195.416 21.224C196.256 21.536 196.988 21.992 197.612 22.592C198.26 23.168 198.764 23.864 199.124 24.68C199.508 25.496 199.7 26.384 199.7 27.344C199.7 28.064 199.604 28.628 199.412 29.036C199.244 29.42 199.004 29.72 198.692 29.936C198.404 30.128 198.068 30.248 197.684 30.296C197.3 30.32 196.904 30.332 196.496 30.332H188.612V31.412C188.612 32.756 189.08 33.824 190.016 34.616C190.976 35.384 192.212 35.768 193.724 35.768C194.396 35.768 194.96 35.696 195.416 35.552C195.872 35.408 196.256 35.252 196.568 35.084C196.904 34.892 197.18 34.724 197.396 34.58C197.636 34.436 197.864 34.364 198.08 34.364C198.44 34.364 198.728 34.532 198.944 34.868C199.184 35.18 199.304 35.468 199.304 35.732C199.304 35.972 199.172 36.236 198.908 36.524C198.644 36.812 198.26 37.088 197.756 37.352C197.276 37.616 196.676 37.832 195.956 38C195.26 38.192 194.48 38.288 193.616 38.288C192.44 38.288 191.36 38.12 190.376 37.784C189.416 37.448 188.576 36.98 187.856 36.38C187.16 35.756 186.608 35.024 186.2 34.184C185.816 33.32 185.624 32.36 185.624 31.304V27.524C185.624 26.612 185.804 25.748 186.164 24.932C186.548 24.092 187.064 23.36 187.712 22.736C188.36 22.112 189.116 21.62 189.98 21.26C190.868 20.9 191.804 20.72 192.788 20.72ZM195.272 28.316C195.896 28.316 196.316 28.244 196.532 28.1C196.748 27.956 196.856 27.644 196.856 27.164C196.856 26.636 196.748 26.132 196.532 25.652C196.34 25.148 196.064 24.716 195.704 24.356C195.344 23.972 194.912 23.672 194.408 23.456C193.904 23.216 193.352 23.096 192.752 23.096C192.176 23.096 191.636 23.204 191.132 23.42C190.652 23.612 190.22 23.888 189.836 24.248C189.452 24.584 189.152 24.992 188.936 25.472C188.72 25.952 188.612 26.468 188.612 27.02V28.316H195.272Z" fill="#F2AE30"/>
</svg>
