<svg width="89" height="66" viewBox="0 0 89 66" fill="none" xmlns="http://www.w3.org/2000/svg">
<path d="M31.2897 17.3202C31.2308 16.4372 31.0542 15.4071 30.7599 14.2298C30.5244 13.0525 29.9946 11.9635 29.1706 10.9628C28.4053 9.90329 27.2575 9.02033 25.727 8.31397C24.2554 7.54874 22.2835 7.16612 19.8112 7.16612C15.985 7.16612 13.0712 8.19624 11.0699 10.2565C9.0685 12.2579 8.06781 15.4071 8.06781 19.7042V46.2812C8.06781 50.5783 9.0685 53.757 11.0699 55.8172C13.1301 57.8186 16.1322 58.8193 20.0761 58.8193C22.5484 58.8193 24.4909 58.4661 25.9036 57.7597C27.3163 57.0534 28.4053 56.1704 29.1706 55.1108C29.9358 54.0513 30.4361 52.9329 30.6716 51.7556C30.9659 50.5195 31.1719 49.3716 31.2897 48.3121C31.4662 46.605 32.7024 45.7515 34.9981 45.7515C36.2342 45.7515 37.1466 46.0164 37.7353 46.5461C38.3828 47.0759 38.7065 48.1943 38.7065 49.9014C38.7065 52.0794 38.265 54.1396 37.3821 56.0821C36.4991 57.9658 35.2335 59.6139 33.5854 61.0267C31.9372 62.4394 29.9064 63.5578 27.4929 64.3819C25.1384 65.1472 22.4895 65.5298 19.5463 65.5298C16.9563 65.5298 14.5134 65.206 12.2177 64.5585C9.92202 63.8522 7.92065 62.7337 6.21359 61.2033C4.50654 59.6728 3.15266 57.7009 2.15198 55.2874C1.15129 52.8152 0.650944 49.8131 0.650944 46.2812V19.7042C0.650944 16.1723 1.15129 13.1997 2.15198 10.7863C3.15266 8.31397 4.50654 6.31259 6.21359 4.78213C7.97951 3.25166 10.0103 2.16268 12.306 1.51517C14.6017 0.808808 17.0446 0.455625 19.6346 0.455625C22.5778 0.455625 25.2267 0.867673 27.5812 1.69177C29.9358 2.457 31.9372 3.54598 33.5854 4.95872C35.2335 6.31259 36.4991 7.93135 37.3821 9.815C38.265 11.6398 38.7065 13.6412 38.7065 15.8191C38.7065 17.5262 38.3828 18.6446 37.7353 19.1744C37.1466 19.6453 36.2342 19.8807 34.9981 19.8807C32.6435 19.8807 31.4074 19.0272 31.2897 17.3202ZM43.5849 4.25235C43.4671 3.89917 43.4083 3.66371 43.4083 3.54598C43.4083 2.60416 43.9086 1.86836 44.9093 1.33858C45.91 0.749945 46.9107 0.455625 47.9114 0.455625C49.383 0.455625 50.2954 1.01483 50.6486 2.13325L66.1886 54.5811L81.6404 2.13325C82.0525 1.01483 82.9355 0.455625 84.2893 0.455625C85.3489 0.455625 86.379 0.779377 87.3797 1.42688C88.3804 2.01552 88.8807 2.75132 88.8807 3.63428C88.8807 3.75201 88.8513 3.86974 88.7924 3.98746C88.7924 4.04632 88.7924 4.13462 88.7924 4.25235L70.8683 62.9692C70.574 63.7933 69.9854 64.4408 69.1024 64.9117C68.2195 65.3238 67.2482 65.5298 66.1886 65.5298C65.188 65.5298 64.2461 65.3238 63.3632 64.9117C62.5391 64.4997 61.9799 63.8522 61.6856 62.9692L43.5849 4.25235Z" fill="black"/>
</svg>
