<svg width="78" height="85" viewBox="0 0 78 85" fill="none" xmlns="http://www.w3.org/2000/svg">
<path d="M70.6292 84.8052H22.4735C20.7711 84.8036 19.139 84.1649 17.9352 83.0293C16.7315 81.8936 16.0544 80.3538 16.0527 78.7477V60.5752H22.4735V78.7477H70.6292V12.1151H41.7358V6.05762H70.6292C72.3316 6.05922 73.9638 6.69794 75.1675 7.83359C76.3713 8.96925 77.0483 10.5091 77.05 12.1151V78.7477C77.0483 80.3538 76.3713 81.8936 75.1675 83.0293C73.9638 84.1649 72.3316 84.8036 70.6292 84.8052Z" fill="black"/>
<path d="M41.7344 24.23H64.2071V30.2875H41.7344V24.23Z" fill="black"/>
<path d="M38.5244 39.374H64.2075V45.4315H38.5244V39.374Z" fill="black"/>
<path d="M35.3145 54.5176H64.2079V60.5751H35.3145V54.5176Z" fill="black"/>
<path d="M16.0519 51.4888C11.796 51.4848 7.71559 49.888 4.70619 47.0489C1.69679 44.2097 0.00424956 40.3602 0 36.345V3.02875H6.42076V36.345C6.42076 38.7549 7.43547 41.066 9.24166 42.77C11.0479 44.474 13.4976 45.4313 16.0519 45.4313C18.6063 45.4313 21.056 44.474 22.8622 42.77C24.6684 41.066 25.6831 38.7549 25.6831 36.345V9.08626C25.6831 8.28299 25.3448 7.51261 24.7428 6.94461C24.1407 6.37661 23.3241 6.05751 22.4727 6.05751C21.6212 6.05751 20.8047 6.37661 20.2026 6.94461C19.6005 7.51261 19.2623 8.28299 19.2623 9.08626V39.3738H12.8415V9.08626C12.8415 6.67644 13.8562 4.36531 15.6624 2.6613C17.4686 0.9573 19.9183 0 22.4727 0C25.027 0 27.4767 0.9573 29.2829 2.6613C31.0891 4.36531 32.1038 6.67644 32.1038 9.08626V36.345C32.0996 40.3602 30.407 44.2097 27.3976 47.0489C24.3882 49.888 20.3078 51.4848 16.0519 51.4888Z" fill="black"/>
</svg>
