<svg width="432" height="195" viewBox="0 0 432 195" fill="none" xmlns="http://www.w3.org/2000/svg">
<path d="M39.8216 33.9999V9.65494H39.6416L29.0216 33.9999H26.1866L15.6116 9.65494H15.4316V33.9999H11.7866V3.03994H17.0066L27.5816 27.1149H27.8066L38.3816 3.03994H43.6016V33.9999H39.8216Z" fill="black" fill-opacity="0.7"/>
<path d="M61.7468 34.3599C59.1068 34.3599 57.1868 33.8799 55.9868 32.9199C54.7868 31.9299 54.1868 30.1899 54.1868 27.6999C54.1868 25.9299 54.3968 24.5499 54.8168 23.5599C55.2368 22.5699 55.9418 21.8499 56.9318 21.3999C57.9518 20.9499 59.3768 20.7249 61.2068 20.7249C62.0768 20.7249 64.9418 20.7999 69.8018 20.9499V19.5999C69.8018 17.7999 69.6218 16.5249 69.2618 15.7749C68.9318 15.0249 68.3018 14.5449 67.3718 14.3349C66.4718 14.1249 64.9268 14.0199 62.7368 14.0199C61.7768 14.0199 60.5618 14.0799 59.0918 14.1999C57.6518 14.2899 56.5268 14.3949 55.7168 14.5149V11.3199C58.0868 10.8999 60.8618 10.6899 64.0418 10.6899C66.7418 10.6899 68.7518 10.9749 70.0718 11.5449C71.4218 12.0849 72.3218 12.9849 72.7718 14.2449C73.2218 15.4749 73.4468 17.2749 73.4468 19.6449V33.9999H70.1618L69.9818 30.8049H69.7118C69.0818 32.2449 68.0618 33.2049 66.6518 33.6849C65.2718 34.1349 63.6368 34.3599 61.7468 34.3599ZM63.1418 31.0749C64.6418 31.0749 65.8568 30.9399 66.7868 30.6699C67.7468 30.3999 68.4368 29.8749 68.8568 29.0949C69.4868 28.0149 69.8018 26.5149 69.8018 24.5949V23.5599H62.1518C60.8918 23.5599 59.9618 23.6499 59.3618 23.8299C58.7918 24.0099 58.3868 24.3699 58.1468 24.9099C57.9068 25.4199 57.7868 26.2299 57.7868 27.3399C57.7868 28.4199 57.9218 29.2149 58.1918 29.7249C58.4618 30.2349 58.9568 30.5949 59.6768 30.8049C60.4268 30.9849 61.5818 31.0749 63.1418 31.0749Z" fill="black" fill-opacity="0.7"/>
<path d="M99.4709 33.7749C98.6609 33.9249 97.6709 34.0599 96.5009 34.1799C95.3609 34.2999 94.2659 34.3599 93.2159 34.3599C90.3959 34.3599 88.3259 33.9549 87.0059 33.1449C85.6859 32.3349 84.8309 31.1349 84.4409 29.5449C84.0809 27.9549 83.9009 25.6149 83.9009 22.5249C83.9009 19.4949 84.1259 17.1549 84.5759 15.5049C85.0259 13.8549 85.9109 12.6399 87.2309 11.8599C88.5509 11.0799 90.5009 10.6899 93.0809 10.6899C94.1009 10.6899 95.1809 10.7499 96.3209 10.8699C97.4909 10.9899 98.4809 11.1249 99.2909 11.2749V14.5149C97.4909 14.1849 95.7209 14.0199 93.9809 14.0199C92.0609 14.0199 90.6509 14.2449 89.7509 14.6949C88.8809 15.1449 88.2959 15.9399 87.9959 17.0799C87.6959 18.2199 87.5459 20.0349 87.5459 22.5249C87.5459 25.0449 87.6959 26.8899 87.9959 28.0599C88.3259 29.1999 88.9259 29.9799 89.7959 30.3999C90.6959 30.8199 92.1359 31.0299 94.1159 31.0299C95.5859 31.0299 97.3709 30.8799 99.4709 30.5799V33.7749Z" fill="black" fill-opacity="0.7"/>
<path d="M124.714 21.0849C124.714 18.9549 124.579 17.4399 124.309 16.5399C124.039 15.6099 123.529 14.9949 122.779 14.6949C122.029 14.3949 120.769 14.2449 118.999 14.2449C117.109 14.2449 115.714 14.5449 114.814 15.1449C113.944 15.7449 113.389 16.5699 113.149 17.6199C112.939 18.6699 112.834 20.1849 112.834 22.1649V33.9999H109.189V0.564941H112.834V14.0649H113.059C113.539 12.9849 114.349 12.1599 115.489 11.5899C116.659 11.0199 118.324 10.7349 120.484 10.7349C122.704 10.7349 124.369 11.0499 125.479 11.6799C126.619 12.2799 127.384 13.2099 127.774 14.4699C128.164 15.6999 128.359 17.4249 128.359 19.6449V33.9999H124.714V21.0849Z" fill="black" fill-opacity="0.7"/>
<path d="M139.593 4.74994V0.564941H143.463V4.74994H139.593ZM139.728 33.9999V11.0499H143.373V33.9999H139.728Z" fill="black" fill-opacity="0.7"/>
<path d="M170.278 21.0849C170.278 18.9549 170.143 17.4399 169.873 16.5399C169.603 15.6099 169.093 14.9949 168.343 14.6949C167.593 14.3949 166.333 14.2449 164.563 14.2449C162.673 14.2449 161.278 14.5449 160.378 15.1449C159.508 15.7449 158.953 16.5699 158.713 17.6199C158.503 18.6699 158.398 20.1849 158.398 22.1649V33.9999H154.753V11.0499H157.993L158.173 14.2899H158.443C158.953 13.1199 159.793 12.2349 160.963 11.6349C162.133 11.0049 163.828 10.6899 166.048 10.6899C168.268 10.6899 169.933 11.0049 171.043 11.6349C172.183 12.2649 172.948 13.2099 173.338 14.4699C173.728 15.6999 173.923 17.4249 173.923 19.6449V33.9999H170.278V21.0849Z" fill="black" fill-opacity="0.7"/>
<path d="M203.652 23.8299H187.947C187.947 26.0199 188.097 27.5799 188.397 28.5099C188.697 29.4399 189.342 30.0999 190.332 30.4899C191.352 30.8499 193.047 31.0299 195.417 31.0299C197.727 31.0299 200.172 30.8649 202.752 30.5349V33.7299C201.792 33.9099 200.547 34.0599 199.017 34.1799C197.487 34.2999 196.032 34.3599 194.652 34.3599C191.562 34.3599 189.282 33.9999 187.812 33.2799C186.372 32.5599 185.427 31.4049 184.977 29.8149C184.527 28.2249 184.302 25.8099 184.302 22.5699C184.302 19.3899 184.497 17.0049 184.887 15.4149C185.307 13.8249 186.222 12.6399 187.632 11.8599C189.072 11.0799 191.337 10.6899 194.427 10.6899C197.307 10.6899 199.392 11.0799 200.682 11.8599C201.972 12.6099 202.782 13.7649 203.112 15.3249C203.472 16.8549 203.652 19.2549 203.652 22.5249V23.8299ZM194.337 14.0199C192.387 14.0199 190.977 14.1999 190.107 14.5599C189.267 14.8899 188.697 15.5349 188.397 16.4949C188.127 17.4249 187.977 18.9399 187.947 21.0399H200.142V20.6799C200.142 18.6999 199.962 17.2449 199.602 16.3149C199.272 15.3849 198.717 14.7699 197.937 14.4699C197.157 14.1699 195.957 14.0199 194.337 14.0199Z" fill="black" fill-opacity="0.7"/>
<path d="M228.848 33.9999V3.03994H232.718V30.2649H247.163V33.9999H228.848Z" fill="black" fill-opacity="0.7"/>
<path d="M274.437 23.8299H258.732C258.732 26.0199 258.882 27.5799 259.182 28.5099C259.482 29.4399 260.127 30.0999 261.117 30.4899C262.137 30.8499 263.832 31.0299 266.202 31.0299C268.512 31.0299 270.957 30.8649 273.537 30.5349V33.7299C272.577 33.9099 271.332 34.0599 269.802 34.1799C268.272 34.2999 266.817 34.3599 265.437 34.3599C262.347 34.3599 260.067 33.9999 258.597 33.2799C257.157 32.5599 256.212 31.4049 255.762 29.8149C255.312 28.2249 255.087 25.8099 255.087 22.5699C255.087 19.3899 255.282 17.0049 255.672 15.4149C256.092 13.8249 257.007 12.6399 258.417 11.8599C259.857 11.0799 262.122 10.6899 265.212 10.6899C268.092 10.6899 270.177 11.0799 271.467 11.8599C272.757 12.6099 273.567 13.7649 273.897 15.3249C274.257 16.8549 274.437 19.2549 274.437 22.5249V23.8299ZM265.122 14.0199C263.172 14.0199 261.762 14.1999 260.892 14.5599C260.052 14.8899 259.482 15.5349 259.182 16.4949C258.912 17.4249 258.762 18.9399 258.732 21.0399H270.927V20.6799C270.927 18.6999 270.747 17.2449 270.387 16.3149C270.057 15.3849 269.502 14.7699 268.722 14.4699C267.942 14.1699 266.742 14.0199 265.122 14.0199Z" fill="black" fill-opacity="0.7"/>
<path d="M290.978 34.3599C288.338 34.3599 286.418 33.8799 285.218 32.9199C284.018 31.9299 283.418 30.1899 283.418 27.6999C283.418 25.9299 283.628 24.5499 284.048 23.5599C284.468 22.5699 285.173 21.8499 286.163 21.3999C287.183 20.9499 288.608 20.7249 290.438 20.7249C291.308 20.7249 294.173 20.7999 299.033 20.9499V19.5999C299.033 17.7999 298.853 16.5249 298.493 15.7749C298.163 15.0249 297.533 14.5449 296.603 14.3349C295.703 14.1249 294.158 14.0199 291.968 14.0199C291.008 14.0199 289.793 14.0799 288.323 14.1999C286.883 14.2899 285.758 14.3949 284.948 14.5149V11.3199C287.318 10.8999 290.093 10.6899 293.273 10.6899C295.973 10.6899 297.983 10.9749 299.303 11.5449C300.653 12.0849 301.553 12.9849 302.003 14.2449C302.453 15.4749 302.678 17.2749 302.678 19.6449V33.9999H299.393L299.213 30.8049H298.943C298.313 32.2449 297.293 33.2049 295.883 33.6849C294.503 34.1349 292.868 34.3599 290.978 34.3599ZM292.373 31.0749C293.873 31.0749 295.088 30.9399 296.018 30.6699C296.978 30.3999 297.668 29.8749 298.088 29.0949C298.718 28.0149 299.033 26.5149 299.033 24.5949V23.5599H291.383C290.123 23.5599 289.193 23.6499 288.593 23.8299C288.023 24.0099 287.618 24.3699 287.378 24.9099C287.138 25.4199 287.018 26.2299 287.018 27.3399C287.018 28.4199 287.153 29.2149 287.423 29.7249C287.693 30.2349 288.188 30.5949 288.908 30.8049C289.658 30.9849 290.813 31.0749 292.373 31.0749Z" fill="black" fill-opacity="0.7"/>
<path d="M314.122 11.0499H317.362L317.542 15.4149H317.812C318.352 13.6149 319.252 12.3849 320.512 11.7249C321.772 11.0349 323.422 10.6899 325.462 10.6899V14.6049C323.392 14.6049 321.802 14.9199 320.692 15.5499C319.582 16.1799 318.817 17.1549 318.397 18.4749C317.977 19.7649 317.767 21.5199 317.767 23.7399V33.9999H314.122V11.0499Z" fill="black" fill-opacity="0.7"/>
<path d="M349.77 21.0849C349.77 18.9549 349.635 17.4399 349.365 16.5399C349.095 15.6099 348.585 14.9949 347.835 14.6949C347.085 14.3949 345.825 14.2449 344.055 14.2449C342.165 14.2449 340.77 14.5449 339.87 15.1449C339 15.7449 338.445 16.5699 338.205 17.6199C337.995 18.6699 337.89 20.1849 337.89 22.1649V33.9999H334.245V11.0499H337.485L337.665 14.2899H337.935C338.445 13.1199 339.285 12.2349 340.455 11.6349C341.625 11.0049 343.32 10.6899 345.54 10.6899C347.76 10.6899 349.425 11.0049 350.535 11.6349C351.675 12.2649 352.44 13.2099 352.83 14.4699C353.22 15.6999 353.415 17.4249 353.415 19.6449V33.9999H349.77V21.0849Z" fill="black" fill-opacity="0.7"/>
<path d="M364.649 4.74994V0.564941H368.519V4.74994H364.649ZM364.784 33.9999V11.0499H368.429V33.9999H364.784Z" fill="black" fill-opacity="0.7"/>
<path d="M395.335 21.0849C395.335 18.9549 395.2 17.4399 394.93 16.5399C394.66 15.6099 394.15 14.9949 393.4 14.6949C392.65 14.3949 391.39 14.2449 389.62 14.2449C387.73 14.2449 386.335 14.5449 385.435 15.1449C384.565 15.7449 384.01 16.5699 383.77 17.6199C383.56 18.6699 383.455 20.1849 383.455 22.1649V33.9999H379.81V11.0499H383.05L383.23 14.2899H383.5C384.01 13.1199 384.85 12.2349 386.02 11.6349C387.19 11.0049 388.885 10.6899 391.105 10.6899C393.325 10.6899 394.99 11.0049 396.1 11.6349C397.24 12.2649 398.005 13.2099 398.395 14.4699C398.785 15.6999 398.98 17.4249 398.98 19.6449V33.9999H395.335V21.0849Z" fill="black" fill-opacity="0.7"/>
<path d="M418.718 43.2699C415.538 43.2699 412.838 43.1349 410.618 42.8649V39.6699C413.498 39.8499 415.943 39.9399 417.953 39.9399C420.263 39.9399 421.928 39.7299 422.948 39.3099C423.998 38.8899 424.673 38.1399 424.973 37.0599C425.303 36.0099 425.468 34.3149 425.468 31.9749V30.9849H425.243C424.673 32.1549 423.773 32.9949 422.543 33.5049C421.343 33.9849 419.783 34.2249 417.863 34.2249C415.553 34.2249 413.798 33.8949 412.598 33.2349C411.398 32.5449 410.558 31.3749 410.078 29.7249C409.598 28.0749 409.358 25.6749 409.358 22.5249C409.358 19.3449 409.598 16.9299 410.078 15.2799C410.588 13.5999 411.443 12.4149 412.643 11.7249C413.843 11.0349 415.583 10.6899 417.863 10.6899C419.693 10.6899 421.253 10.9449 422.543 11.4549C423.863 11.9649 424.823 12.9099 425.423 14.2899H425.693L425.828 11.0499H429.113V31.0749C429.113 34.3149 428.873 36.7599 428.393 38.4099C427.943 40.0599 426.983 41.2749 425.513 42.0549C424.043 42.8649 421.778 43.2699 418.718 43.2699ZM419.258 30.7149C420.758 30.7149 421.943 30.5349 422.813 30.1749C423.713 29.7849 424.343 29.1999 424.703 28.4199C425.003 27.7599 425.198 26.9799 425.288 26.0799C425.408 25.1799 425.468 23.9799 425.468 22.4799C425.468 20.9499 425.423 19.7649 425.333 18.9249C425.273 18.0549 425.093 17.3199 424.793 16.7199C424.403 15.8199 423.758 15.1749 422.858 14.7849C421.958 14.3949 420.758 14.1999 419.258 14.1999C417.338 14.1999 415.958 14.3949 415.118 14.7849C414.278 15.1449 413.708 15.8799 413.408 16.9899C413.138 18.0699 413.003 19.8999 413.003 22.4799C413.003 25.0299 413.138 26.8599 413.408 27.9699C413.708 29.0499 414.278 29.7849 415.118 30.1749C415.958 30.5349 417.338 30.7149 419.258 30.7149Z" fill="black" fill-opacity="0.7"/>
<path d="M183.02 105V74.0399H203.18V77.6399H186.89V87.5849H201.02V91.1849H186.89V101.4H203.18V105H183.02Z" fill="black" fill-opacity="0.7"/>
<path d="M228.719 92.0849C228.719 89.9549 228.584 88.4399 228.314 87.5399C228.044 86.6099 227.534 85.9949 226.784 85.6949C226.034 85.3949 224.774 85.2449 223.004 85.2449C221.114 85.2449 219.719 85.5449 218.819 86.1449C217.949 86.7449 217.394 87.5699 217.154 88.6199C216.944 89.6699 216.839 91.1849 216.839 93.1649V105H213.194V82.0499H216.434L216.614 85.2899H216.884C217.394 84.1199 218.234 83.2349 219.404 82.6349C220.574 82.0049 222.269 81.6899 224.489 81.6899C226.709 81.6899 228.374 82.0049 229.484 82.6349C230.624 83.2649 231.389 84.2099 231.779 85.4699C232.169 86.6999 232.364 88.4249 232.364 90.6449V105H228.719V92.0849Z" fill="black" fill-opacity="0.7"/>
<path d="M245.622 105V85.3799H240.987V82.0499H245.622V75.3899H249.267V82.0499H254.757V85.3799H249.267V105H245.622Z" fill="black" fill-opacity="0.7"/>
<path d="M279.029 92.0849C279.029 89.9549 278.894 88.4399 278.624 87.5399C278.354 86.6099 277.844 85.9949 277.094 85.6949C276.344 85.3949 275.084 85.2449 273.314 85.2449C271.424 85.2449 270.029 85.5449 269.129 86.1449C268.259 86.7449 267.704 87.5699 267.464 88.6199C267.254 89.6699 267.149 91.1849 267.149 93.1649V105H263.504V71.5649H267.149V85.0649H267.374C267.854 83.9849 268.664 83.1599 269.804 82.5899C270.974 82.0199 272.639 81.7349 274.799 81.7349C277.019 81.7349 278.684 82.0499 279.794 82.6799C280.934 83.2799 281.699 84.2099 282.089 85.4699C282.479 86.6999 282.674 88.4249 282.674 90.6449V105H279.029V92.0849Z" fill="black" fill-opacity="0.7"/>
<path d="M309.747 101.76H309.477C308.967 102.93 308.127 103.83 306.957 104.46C305.787 105.06 304.092 105.36 301.872 105.36C299.682 105.36 298.017 105.045 296.877 104.415C295.767 103.785 295.017 102.855 294.627 101.625C294.237 100.365 294.042 98.6249 294.042 96.4049V82.0499H297.687V94.9649C297.687 97.1249 297.807 98.6549 298.047 99.5549C298.317 100.455 298.827 101.055 299.577 101.355C300.327 101.655 301.587 101.805 303.357 101.805C305.247 101.805 306.627 101.505 307.497 100.905C308.397 100.305 308.967 99.4799 309.207 98.4299C309.447 97.3499 309.567 95.8349 309.567 93.8849V82.0499H313.212V105H309.927L309.747 101.76Z" fill="black" fill-opacity="0.7"/>
<path d="M332.186 105.36C330.956 105.36 329.561 105.3 328.001 105.18C326.441 105.06 325.061 104.925 323.861 104.775V101.535C326.831 101.865 329.546 102.03 332.006 102.03C333.536 102.03 334.661 101.925 335.381 101.715C336.101 101.505 336.566 101.175 336.776 100.725C337.016 100.245 337.136 99.5399 337.136 98.6099C337.136 97.6799 337.046 97.0199 336.866 96.6299C336.716 96.2099 336.461 95.9249 336.101 95.7749C335.741 95.6249 335.111 95.5049 334.211 95.4149L328.226 94.7399C326.846 94.5899 325.781 94.2749 325.031 93.7949C324.311 93.3149 323.816 92.6549 323.546 91.8149C323.276 90.9749 323.141 89.8499 323.141 88.4399C323.141 86.4899 323.486 85.0349 324.176 84.0749C324.896 83.0849 325.871 82.4399 327.101 82.1399C328.361 81.8399 330.041 81.6899 332.141 81.6899C333.311 81.6899 334.571 81.7499 335.921 81.8699C337.271 81.9899 338.411 82.1399 339.341 82.3199V85.5599C337.001 85.1999 334.586 85.0199 332.096 85.0199C330.716 85.0199 329.666 85.0949 328.946 85.2449C328.226 85.3649 327.671 85.6649 327.281 86.1449C326.891 86.5949 326.696 87.3149 326.696 88.3049C326.696 89.1749 326.771 89.8049 326.921 90.1949C327.071 90.5849 327.326 90.8549 327.686 91.0049C328.046 91.1549 328.646 91.2749 329.486 91.3649L335.696 92.0849C337.016 92.2349 338.006 92.4899 338.666 92.8499C339.356 93.1799 339.851 93.7799 340.151 94.6499C340.481 95.5199 340.646 96.8099 340.646 98.5199C340.646 100.41 340.331 101.85 339.701 102.84C339.101 103.83 338.201 104.505 337.001 104.865C335.831 105.195 334.226 105.36 332.186 105.36Z" fill="black" fill-opacity="0.7"/>
<path d="M350.502 75.7499V71.5649H354.372V75.7499H350.502ZM350.637 105V82.0499H354.282V105H350.637Z" fill="black" fill-opacity="0.7"/>
<path d="M371.783 105.36C369.143 105.36 367.223 104.88 366.023 103.92C364.823 102.93 364.223 101.19 364.223 98.6999C364.223 96.9299 364.433 95.5499 364.853 94.5599C365.273 93.5699 365.978 92.8499 366.968 92.3999C367.988 91.9499 369.413 91.7249 371.243 91.7249C372.113 91.7249 374.978 91.7999 379.838 91.9499V90.5999C379.838 88.7999 379.658 87.5249 379.298 86.7749C378.968 86.0249 378.338 85.5449 377.408 85.3349C376.508 85.1249 374.963 85.0199 372.773 85.0199C371.813 85.0199 370.598 85.0799 369.128 85.1999C367.688 85.2899 366.563 85.3949 365.753 85.5149V82.3199C368.123 81.8999 370.898 81.6899 374.078 81.6899C376.778 81.6899 378.788 81.9749 380.108 82.5449C381.458 83.0849 382.358 83.9849 382.808 85.2449C383.258 86.4749 383.483 88.2749 383.483 90.6449V105H380.198L380.018 101.805H379.748C379.118 103.245 378.098 104.205 376.688 104.685C375.308 105.135 373.673 105.36 371.783 105.36ZM373.178 102.075C374.678 102.075 375.893 101.94 376.823 101.67C377.783 101.4 378.473 100.875 378.893 100.095C379.523 99.0149 379.838 97.5149 379.838 95.5949V94.5599H372.188C370.928 94.5599 369.998 94.6499 369.398 94.8299C368.828 95.0099 368.423 95.3699 368.183 95.9099C367.943 96.4199 367.823 97.2299 367.823 98.3399C367.823 99.4199 367.958 100.215 368.228 100.725C368.498 101.235 368.993 101.595 369.713 101.805C370.463 101.985 371.618 102.075 373.178 102.075Z" fill="black" fill-opacity="0.7"/>
<path d="M402.532 105.36C401.302 105.36 399.907 105.3 398.347 105.18C396.787 105.06 395.407 104.925 394.207 104.775V101.535C397.177 101.865 399.892 102.03 402.352 102.03C403.882 102.03 405.007 101.925 405.727 101.715C406.447 101.505 406.912 101.175 407.122 100.725C407.362 100.245 407.482 99.5399 407.482 98.6099C407.482 97.6799 407.392 97.0199 407.212 96.6299C407.062 96.2099 406.807 95.9249 406.447 95.7749C406.087 95.6249 405.457 95.5049 404.557 95.4149L398.572 94.7399C397.192 94.5899 396.127 94.2749 395.377 93.7949C394.657 93.3149 394.162 92.6549 393.892 91.8149C393.622 90.9749 393.487 89.8499 393.487 88.4399C393.487 86.4899 393.832 85.0349 394.522 84.0749C395.242 83.0849 396.217 82.4399 397.447 82.1399C398.707 81.8399 400.387 81.6899 402.487 81.6899C403.657 81.6899 404.917 81.7499 406.267 81.8699C407.617 81.9899 408.757 82.1399 409.687 82.3199V85.5599C407.347 85.1999 404.932 85.0199 402.442 85.0199C401.062 85.0199 400.012 85.0949 399.292 85.2449C398.572 85.3649 398.017 85.6649 397.627 86.1449C397.237 86.5949 397.042 87.3149 397.042 88.3049C397.042 89.1749 397.117 89.8049 397.267 90.1949C397.417 90.5849 397.672 90.8549 398.032 91.0049C398.392 91.1549 398.992 91.2749 399.832 91.3649L406.042 92.0849C407.362 92.2349 408.352 92.4899 409.012 92.8499C409.702 93.1799 410.197 93.7799 410.497 94.6499C410.827 95.5199 410.992 96.8099 410.992 98.5199C410.992 100.41 410.677 101.85 410.047 102.84C409.447 103.83 408.547 104.505 407.347 104.865C406.177 105.195 404.572 105.36 402.532 105.36Z" fill="black" fill-opacity="0.7"/>
<path d="M422.653 105V85.3799H418.018V82.0499H422.653V75.3899H426.298V82.0499H431.788V85.3799H426.298V105H422.653Z" fill="black" fill-opacity="0.7"/>
<path d="M0 163.013C0 162.523 0.131991 162.108 0.395974 161.769C0.659957 161.392 1.07479 161.015 1.64046 160.638L20.3078 148.023C20.4964 147.91 20.7038 147.853 20.9301 147.853C21.2695 147.853 21.5523 147.966 21.7786 148.193C22.0049 148.419 22.118 148.702 22.118 149.041V151.587C22.118 152.454 21.5146 153.284 20.3078 154.076L5.37394 164.201L20.3078 174.327C21.5146 175.119 22.118 175.949 22.118 176.816V179.361C22.118 179.701 22.0049 179.984 21.7786 180.21C21.5523 180.436 21.2695 180.549 20.9301 180.549C20.7038 180.549 20.4964 180.493 20.3078 180.38L1.64046 167.765C1.07479 167.388 0.659957 167.03 0.395974 166.69C0.131991 166.313 0 165.879 0 165.389V163.013Z" fill="black" fill-opacity="0.55"/>
<path d="M56.0732 177.212L61.8431 145.93C61.9563 145.402 62.1637 145.025 62.4654 144.799C62.8048 144.535 63.1819 144.403 63.5967 144.403H65.8594C66.1988 144.403 66.4817 144.535 66.708 144.799C66.9719 145.025 67.1039 145.308 67.1039 145.647L67.0474 146.1L60.0895 181.058C59.8633 182.077 59.5616 182.831 59.1844 183.321C58.8073 183.774 58.1851 184 57.3177 184H55.055C54.2253 184 53.6031 183.755 53.1883 183.265C52.7734 182.737 52.434 182.001 52.17 181.058L46.9658 162.165L41.7616 181.058C41.4976 182.001 41.1582 182.737 40.7434 183.265C40.3285 183.755 39.7063 184 38.8766 184H36.6139C35.7465 184 35.1243 183.774 34.7472 183.321C34.3701 182.831 34.0684 182.077 33.8421 181.058L26.8843 146.1L26.8277 145.647C26.8277 145.308 26.9408 145.025 27.1671 144.799C27.4311 144.535 27.7328 144.403 28.0722 144.403H30.3349C30.7497 144.403 31.108 144.535 31.4097 144.799C31.7491 145.025 31.9754 145.402 32.0885 145.93L37.8584 177.212L44.0809 154.811C44.1563 154.434 44.3448 154.076 44.6465 153.736C44.9482 153.359 45.4008 153.171 46.0042 153.171H47.9275C48.5309 153.171 48.9834 153.359 49.2851 153.736C49.5868 154.076 49.7753 154.434 49.8508 154.811L56.0732 177.212Z" fill="black" fill-opacity="0.55"/>
<path d="M84.0738 154.019C88.109 154.019 91.2956 155.301 93.6338 157.866C95.9719 160.43 97.141 163.918 97.141 168.331V169.858C97.141 170.273 96.9901 170.631 96.6884 170.933C96.3867 171.235 96.0285 171.385 95.6136 171.385H76.1543V171.725C76.2298 174.214 76.984 176.175 78.417 177.608C79.8878 179.003 81.7734 179.701 84.0738 179.701C85.9594 179.701 87.4113 179.456 88.4295 178.965C89.4855 178.475 90.4283 177.778 91.2579 176.872C91.5596 176.571 91.8236 176.363 92.0499 176.25C92.3138 176.137 92.6533 176.081 93.0681 176.081H94.7651C95.2177 176.081 95.5948 176.231 95.8965 176.533C96.1982 176.835 96.3302 177.193 96.2924 177.608C96.1416 178.626 95.5759 179.682 94.5954 180.776C93.6526 181.832 92.2761 182.737 90.466 183.491C88.6935 184.207 86.5628 184.566 84.0738 184.566C81.6602 184.566 79.5107 184.019 77.6251 182.925C75.7395 181.794 74.231 180.248 73.0997 178.287C72.006 176.326 71.3461 174.12 71.1198 171.668C71.0444 170.537 71.0067 169.67 71.0067 169.066C71.0067 168.463 71.0444 167.595 71.1198 166.464C71.3461 164.126 72.006 162.014 73.0997 160.128C74.231 158.243 75.7206 156.753 77.5685 155.66C79.4541 154.566 81.6225 154.019 84.0738 154.019ZM92.0499 166.634V166.464C92.0499 164.164 91.3145 162.335 89.8437 160.977C88.4107 159.582 86.4874 158.884 84.0738 158.884C81.8865 158.884 80.0198 159.582 78.4736 160.977C76.9651 162.372 76.192 164.201 76.1543 166.464V166.634H92.0499Z" fill="black" fill-opacity="0.55"/>
<path d="M129.591 167.426C129.628 167.803 129.647 168.406 129.647 169.236C129.647 170.103 129.628 170.725 129.591 171.103C129.477 173.818 128.836 176.194 127.667 178.23C126.536 180.267 125.009 181.832 123.085 182.925C121.2 184.019 119.088 184.566 116.75 184.566C112.828 184.566 109.905 183.283 107.982 180.719V182.473C107.982 182.888 107.831 183.246 107.529 183.547C107.227 183.849 106.869 184 106.454 184H104.361C103.946 184 103.588 183.849 103.287 183.547C102.985 183.246 102.834 182.888 102.834 182.473V145.364C102.834 144.949 102.985 144.591 103.287 144.289C103.588 143.988 103.946 143.837 104.361 143.837H106.454C106.869 143.837 107.227 143.988 107.529 144.289C107.831 144.591 107.982 144.949 107.982 145.364V157.866C108.811 156.772 109.943 155.867 111.376 155.15C112.846 154.396 114.638 154.019 116.75 154.019C119.125 154.019 121.256 154.566 123.142 155.66C125.027 156.753 126.536 158.318 127.667 160.355C128.836 162.353 129.477 164.71 129.591 167.426ZM116.184 179.701C118.635 179.701 120.577 178.928 122.01 177.382C123.443 175.798 124.254 173.629 124.443 170.876C124.481 170.499 124.499 169.971 124.499 169.292C124.499 166.087 123.764 163.56 122.293 161.712C120.86 159.827 118.824 158.884 116.184 158.884C113.808 158.884 111.904 159.619 110.471 161.09C109.038 162.561 108.208 164.616 107.982 167.256C107.944 167.633 107.925 168.368 107.925 169.462C107.925 170.593 107.944 171.348 107.982 171.725C108.17 174.176 109 176.118 110.471 177.551C111.979 178.984 113.884 179.701 116.184 179.701Z" fill="black" fill-opacity="0.55"/>
<path d="M179.528 168.67C179.491 171.8 178.793 174.534 177.435 176.872C176.078 179.173 174.211 180.945 171.835 182.19C169.459 183.397 166.725 184 163.633 184H150.339C149.925 184 149.566 183.849 149.265 183.547C148.963 183.246 148.812 182.888 148.812 182.473V145.93C148.812 145.515 148.963 145.157 149.265 144.855C149.566 144.553 149.925 144.403 150.339 144.403H163.293C166.423 144.403 169.195 145.025 171.609 146.269C174.06 147.476 175.983 149.249 177.379 151.587C178.774 153.887 179.491 156.602 179.528 159.732C179.566 160.864 179.585 162.353 179.585 164.201C179.585 166.049 179.566 167.539 179.528 168.67ZM154.186 149.494V178.909H163.35C167.121 178.909 169.836 177.928 171.496 175.967C173.193 174.006 174.079 171.48 174.154 168.387C174.192 167.256 174.211 165.861 174.211 164.201C174.211 162.542 174.192 161.147 174.154 160.015C174.079 156.961 173.155 154.453 171.383 152.492C169.61 150.493 166.838 149.494 163.067 149.494H154.186Z" fill="black" fill-opacity="0.55"/>
<path d="M197.6 154.019C201.636 154.019 204.822 155.301 207.16 157.866C209.499 160.43 210.668 163.918 210.668 168.331V169.858C210.668 170.273 210.517 170.631 210.215 170.933C209.913 171.235 209.555 171.385 209.14 171.385H189.681V171.725C189.756 174.214 190.511 176.175 191.944 177.608C193.414 179.003 195.3 179.701 197.6 179.701C199.486 179.701 200.938 179.456 201.956 178.965C203.012 178.475 203.955 177.778 204.785 176.872C205.086 176.571 205.35 176.363 205.576 176.25C205.84 176.137 206.18 176.081 206.595 176.081H208.292C208.744 176.081 209.121 176.231 209.423 176.533C209.725 176.835 209.857 177.193 209.819 177.608C209.668 178.626 209.103 179.682 208.122 180.776C207.179 181.832 205.803 182.737 203.993 183.491C202.22 184.207 200.089 184.566 197.6 184.566C195.187 184.566 193.037 184.019 191.152 182.925C189.266 181.794 187.758 180.248 186.626 178.287C185.533 176.326 184.873 174.12 184.646 171.668C184.571 170.537 184.533 169.67 184.533 169.066C184.533 168.463 184.571 167.595 184.646 166.464C184.873 164.126 185.533 162.014 186.626 160.128C187.758 158.243 189.247 156.753 191.095 155.66C192.981 154.566 195.149 154.019 197.6 154.019ZM205.576 166.634V166.464C205.576 164.164 204.841 162.335 203.37 160.977C201.937 159.582 200.014 158.884 197.6 158.884C195.413 158.884 193.546 159.582 192 160.977C190.492 162.372 189.719 164.201 189.681 166.464V166.634H205.576Z" fill="black" fill-opacity="0.55"/>
<path d="M229.032 184C229.786 184 230.352 183.529 230.729 182.586L241.986 156.338C242.023 156.225 242.042 156.093 242.042 155.942C242.042 155.565 241.91 155.245 241.646 154.981C241.382 154.717 241.062 154.585 240.685 154.585H238.365C237.611 154.585 237.064 155.037 236.725 155.942L227.957 176.477L219.189 155.942C218.85 155.037 218.227 154.585 217.322 154.585H215.229C214.852 154.585 214.532 154.717 214.268 154.981C214.004 155.245 213.872 155.565 213.872 155.942C213.872 156.093 213.89 156.225 213.928 156.338L225.185 182.586C225.562 183.529 226.147 184 226.939 184H229.032Z" fill="black" fill-opacity="0.55"/>
<path d="M258.479 154.019C262.514 154.019 265.701 155.301 268.039 157.866C270.377 160.43 271.546 163.918 271.546 168.331V169.858C271.546 170.273 271.396 170.631 271.094 170.933C270.792 171.235 270.434 171.385 270.019 171.385H250.56V171.725C250.635 174.214 251.389 176.175 252.822 177.608C254.293 179.003 256.179 179.701 258.479 179.701C260.365 179.701 261.817 179.456 262.835 178.965C263.891 178.475 264.834 177.778 265.663 176.872C265.965 176.571 266.229 176.363 266.455 176.25C266.719 176.137 267.059 176.081 267.474 176.081H269.171C269.623 176.081 270 176.231 270.302 176.533C270.604 176.835 270.736 177.193 270.698 177.608C270.547 178.626 269.981 179.682 269.001 180.776C268.058 181.832 266.682 182.737 264.871 183.491C263.099 184.207 260.968 184.566 258.479 184.566C256.066 184.566 253.916 184.019 252.031 182.925C250.145 181.794 248.636 180.248 247.505 178.287C246.411 176.326 245.751 174.12 245.525 171.668C245.45 170.537 245.412 169.67 245.412 169.066C245.412 168.463 245.45 167.595 245.525 166.464C245.751 164.126 246.411 162.014 247.505 160.128C248.636 158.243 250.126 156.753 251.974 155.66C253.86 154.566 256.028 154.019 258.479 154.019ZM266.455 166.634V166.464C266.455 164.164 265.72 162.335 264.249 160.977C262.816 159.582 260.893 158.884 258.479 158.884C256.292 158.884 254.425 159.582 252.879 160.977C251.371 162.372 250.597 164.201 250.56 166.464V166.634H266.455Z" fill="black" fill-opacity="0.55"/>
<path d="M282.387 182.473C282.387 182.888 282.236 183.246 281.935 183.547C281.633 183.849 281.275 184 280.86 184H278.767C278.352 184 277.994 183.849 277.692 183.547C277.39 183.246 277.239 182.888 277.239 182.473V145.364C277.239 144.949 277.39 144.591 277.692 144.289C277.994 143.988 278.352 143.837 278.767 143.837H280.86C281.275 143.837 281.633 143.988 281.935 144.289C282.236 144.591 282.387 144.949 282.387 145.364V182.473Z" fill="black" fill-opacity="0.55"/>
<path d="M315.208 166.634C315.284 167.463 315.321 168.368 315.321 169.349C315.321 170.254 315.284 171.121 315.208 171.951C314.869 175.798 313.53 178.871 311.192 181.172C308.892 183.434 305.761 184.566 301.802 184.566C297.842 184.566 294.693 183.434 292.355 181.172C290.055 178.871 288.735 175.798 288.395 171.951C288.357 171.536 288.339 170.669 288.339 169.349C288.339 167.954 288.357 167.049 288.395 166.634C288.697 162.787 290.017 159.732 292.355 157.47C294.693 155.169 297.842 154.019 301.802 154.019C305.761 154.019 308.91 155.169 311.249 157.47C313.587 159.732 314.907 162.787 315.208 166.634ZM310.061 166.917C309.834 164.503 309.024 162.561 307.628 161.09C306.271 159.619 304.328 158.884 301.802 158.884C299.275 158.884 297.314 159.619 295.919 161.09C294.561 162.561 293.769 164.503 293.543 166.917C293.505 167.369 293.486 168.18 293.486 169.349C293.486 170.48 293.505 171.253 293.543 171.668C293.769 174.082 294.561 176.024 295.919 177.495C297.314 178.965 299.275 179.701 301.802 179.701C304.328 179.701 306.271 178.965 307.628 177.495C309.024 176.024 309.834 174.082 310.061 171.668C310.136 170.839 310.174 170.065 310.174 169.349C310.174 168.632 310.136 167.822 310.061 166.917Z" fill="black" fill-opacity="0.55"/>
<path d="M326.417 193.221C326.417 193.635 326.266 193.994 325.965 194.295C325.663 194.597 325.305 194.748 324.89 194.748H322.797C322.382 194.748 322.024 194.597 321.722 194.295C321.42 193.994 321.269 193.635 321.269 193.221V156.112C321.269 155.697 321.42 155.339 321.722 155.037C322.024 154.736 322.382 154.585 322.797 154.585H324.89C325.305 154.585 325.663 154.736 325.965 155.037C326.266 155.339 326.417 155.697 326.417 156.112V157.866C328.34 155.301 331.263 154.019 335.185 154.019C337.523 154.019 339.635 154.566 341.521 155.66C343.444 156.753 344.971 158.318 346.103 160.355C347.272 162.391 347.913 164.767 348.026 167.482C348.064 167.859 348.083 168.463 348.083 169.292C348.083 170.16 348.064 170.782 348.026 171.159C347.913 173.874 347.272 176.25 346.103 178.287C344.971 180.285 343.463 181.832 341.577 182.925C339.692 184.019 337.561 184.566 335.185 184.566C333.073 184.566 331.282 184.207 329.811 183.491C328.378 182.737 327.247 181.813 326.417 180.719V193.221ZM326.417 171.329C326.53 173.969 327.322 176.024 328.793 177.495C330.264 178.965 332.206 179.701 334.619 179.701C337.071 179.701 339.013 178.909 340.446 177.325C341.917 175.741 342.728 173.592 342.878 170.876C342.916 170.499 342.935 169.971 342.935 169.292C342.935 168.614 342.916 168.086 342.878 167.709C342.728 164.993 341.917 162.844 340.446 161.26C339.013 159.676 337.071 158.884 334.619 158.884C332.281 158.884 330.358 159.619 328.85 161.09C327.341 162.523 326.53 164.446 326.417 166.86L326.361 169.066L326.417 171.329Z" fill="black" fill-opacity="0.55"/>
<path d="M365.543 154.019C369.578 154.019 372.764 155.301 375.103 157.866C377.441 160.43 378.61 163.918 378.61 168.331V169.858C378.61 170.273 378.459 170.631 378.157 170.933C377.855 171.235 377.497 171.385 377.082 171.385H357.623V171.725C357.699 174.214 358.453 176.175 359.886 177.608C361.357 179.003 363.242 179.701 365.543 179.701C367.428 179.701 368.88 179.456 369.898 178.965C370.954 178.475 371.897 177.778 372.727 176.872C373.028 176.571 373.292 176.363 373.519 176.25C373.783 176.137 374.122 176.081 374.537 176.081H376.234C376.686 176.081 377.064 176.231 377.365 176.533C377.667 176.835 377.799 177.193 377.761 177.608C377.61 178.626 377.045 179.682 376.064 180.776C375.121 181.832 373.745 182.737 371.935 183.491C370.162 184.207 368.032 184.566 365.543 184.566C363.129 184.566 360.979 184.019 359.094 182.925C357.208 181.794 355.7 180.248 354.568 178.287C353.475 176.326 352.815 174.12 352.589 171.668C352.513 170.537 352.475 169.67 352.475 169.066C352.475 168.463 352.513 167.595 352.589 166.464C352.815 164.126 353.475 162.014 354.568 160.128C355.7 158.243 357.189 156.753 359.037 155.66C360.923 154.566 363.091 154.019 365.543 154.019ZM373.519 166.634V166.464C373.519 164.164 372.783 162.335 371.312 160.977C369.879 159.582 367.956 158.884 365.543 158.884C363.355 158.884 361.489 159.582 359.942 160.977C358.434 162.372 357.661 164.201 357.623 166.464V166.634H373.519Z" fill="black" fill-opacity="0.55"/>
<path d="M399.237 154.585C399.651 154.585 400.01 154.736 400.311 155.037C400.613 155.339 400.764 155.697 400.764 156.112V157.922C400.764 158.337 400.613 158.695 400.311 158.997C400.01 159.299 399.651 159.45 399.237 159.45H395.956C393.844 159.45 392.222 160.015 391.091 161.147C389.997 162.24 389.45 163.843 389.45 165.955V182.473C389.45 182.888 389.3 183.246 388.998 183.547C388.696 183.849 388.338 184 387.923 184H385.83C385.415 184 385.057 183.849 384.755 183.547C384.454 183.246 384.303 182.888 384.303 182.473V156.112C384.303 155.697 384.454 155.339 384.755 155.037C385.057 154.736 385.415 154.585 385.83 154.585H387.923C388.338 154.585 388.696 154.736 388.998 155.037C389.3 155.339 389.45 155.697 389.45 156.112V157.866C390.205 156.734 391.11 155.905 392.166 155.377C393.222 154.849 394.598 154.585 396.295 154.585H399.237Z" fill="black" fill-opacity="0.55"/>
<path d="M425.933 165.389C425.933 165.879 425.801 166.313 425.537 166.69C425.273 167.03 424.858 167.388 424.292 167.765L405.625 180.38C405.436 180.493 405.229 180.549 405.003 180.549C404.663 180.549 404.38 180.436 404.154 180.21C403.928 179.984 403.815 179.701 403.815 179.361V176.816C403.815 175.949 404.418 175.119 405.625 174.327L420.559 164.201L405.625 154.076C404.418 153.284 403.815 152.454 403.815 151.587V149.041C403.815 148.702 403.928 148.419 404.154 148.193C404.38 147.966 404.663 147.853 405.003 147.853C405.229 147.853 405.436 147.91 405.625 148.023L424.292 160.638C424.858 161.015 425.273 161.392 425.537 161.769C425.801 162.108 425.933 162.523 425.933 163.013V165.389Z" fill="black" fill-opacity="0.55"/>
<path d="M5.54012 104.52C5.22012 104.84 4.82012 105 4.34012 105C3.86012 105 3.44678 104.84 3.10012 104.52C2.78012 104.173 2.62012 103.76 2.62012 103.28V77.52C2.62012 77.04 2.78012 76.64 3.10012 76.32C3.44678 75.9733 3.86012 75.8 4.34012 75.8C4.82012 75.8 5.22012 75.9733 5.54012 76.32C5.88678 76.64 6.06012 77.04 6.06012 77.52V103.28C6.06012 103.76 5.88678 104.173 5.54012 104.52Z" fill="black" fill-opacity="0.35"/>
<path d="M15.9964 104.52C15.703 104.84 15.3297 105 14.8764 105C14.423 105 14.0364 104.84 13.7164 104.52C13.423 104.2 13.2764 103.827 13.2764 103.4V76.6C13.2764 76.1733 13.423 75.8 13.7164 75.48C14.0364 75.16 14.423 75 14.8764 75C15.3297 75 15.703 75.16 15.9964 75.48C16.3164 75.8 16.4764 76.1733 16.4764 76.6V103.4C16.4764 103.827 16.3164 104.2 15.9964 104.52Z" fill="black" fill-opacity="0.35"/>
<path d="M25.5979 104.52C25.3046 104.84 24.9313 105 24.4779 105C24.0246 105 23.6379 104.84 23.3179 104.52C23.0246 104.2 22.8779 103.827 22.8779 103.4V76.6C22.8779 76.1733 23.0246 75.8 23.3179 75.48C23.6379 75.16 24.0246 75 24.4779 75C24.9313 75 25.3046 75.16 25.5979 75.48C25.9179 75.8 26.0779 76.1733 26.0779 76.6V103.4C26.0779 103.827 25.9179 104.2 25.5979 104.52Z" fill="black" fill-opacity="0.35"/>
<path d="M38.1807 105.4C35.8607 105.4 34.1541 104.76 33.0607 103.48C31.9941 102.2 31.4607 100.08 31.4607 97.12V85.72C31.4607 85.2933 31.5941 84.9333 31.8607 84.64C32.1541 84.3467 32.5141 84.2 32.9407 84.2C33.3674 84.2 33.7274 84.3467 34.0207 84.64C34.3141 84.9333 34.4607 85.2933 34.4607 85.72V96.72C34.4607 99.12 34.8207 100.773 35.5407 101.68C36.2607 102.56 37.4074 103 38.9807 103C40.4207 103 41.7807 102.387 43.0607 101.16C44.3407 99.9067 44.9807 98.5467 44.9807 97.08V85.72C44.9807 85.2933 45.1274 84.9333 45.4207 84.64C45.7407 84.3467 46.1141 84.2 46.5407 84.2C46.9674 84.2 47.3274 84.3467 47.6207 84.64C47.9141 84.9333 48.0607 85.2933 48.0607 85.72V103.56C48.0607 103.96 47.9141 104.307 47.6207 104.6C47.3541 104.867 47.0207 105 46.6207 105C46.2207 105 45.8741 104.867 45.5807 104.6C45.2874 104.307 45.1407 103.96 45.1407 103.56V101.92C45.1407 101.893 45.1274 101.88 45.1007 101.88C45.0741 101.88 45.0474 101.893 45.0207 101.92C43.1807 104.24 40.9007 105.4 38.1807 105.4Z" fill="black" fill-opacity="0.35"/>
<path d="M58.6436 95.68C56.0569 95.0667 54.2036 94.28 53.0836 93.32C51.9902 92.3333 51.4436 91.0667 51.4436 89.52C51.4436 87.76 52.0969 86.3733 53.4036 85.36C54.7369 84.32 56.6302 83.8 59.0836 83.8C60.9236 83.8 62.7502 84.04 64.5636 84.52C65.3902 84.7333 65.8036 85.28 65.8036 86.16C65.8036 86.48 65.6836 86.72 65.4436 86.88C65.2036 87.04 64.9236 87.08 64.6036 87C62.8436 86.4667 61.0836 86.2 59.3236 86.2C56.1236 86.2 54.5236 87.2267 54.5236 89.28C54.5236 90.1867 54.8436 90.9467 55.4836 91.56C56.1236 92.1467 57.2836 92.6267 58.9636 93C61.8436 93.64 63.8169 94.4533 64.8836 95.44C65.9769 96.4267 66.5236 97.84 66.5236 99.68C66.5236 101.467 65.8302 102.867 64.4436 103.88C63.0836 104.893 61.1502 105.4 58.6436 105.4C56.6969 105.4 54.8436 105.107 53.0836 104.52C52.2569 104.253 51.8436 103.68 51.8436 102.8C51.8436 102.507 51.9769 102.28 52.2436 102.12C52.5102 101.933 52.7902 101.893 53.0836 102C54.8169 102.667 56.5902 103 58.4036 103C61.7636 103 63.4436 101.893 63.4436 99.68C63.4436 98.72 63.0969 97.92 62.4036 97.28C61.7369 96.64 60.4836 96.1067 58.6436 95.68Z" fill="black" fill-opacity="0.35"/>
<path d="M69.3451 87.4C68.9984 87.4 68.7051 87.2933 68.4651 87.08C68.2518 86.84 68.1451 86.5467 68.1451 86.2C68.1451 85.8533 68.2518 85.5733 68.4651 85.36C68.7051 85.12 68.9984 85 69.3451 85H72.2651C72.5051 85 72.6251 84.88 72.6251 84.64V78.92C72.6251 78.4933 72.7718 78.1333 73.0651 77.84C73.3585 77.5467 73.7185 77.4 74.1451 77.4C74.5718 77.4 74.9318 77.5467 75.2251 77.84C75.5185 78.1333 75.6651 78.4933 75.6651 78.92V84.64C75.6651 84.88 75.7851 85 76.0251 85H82.0251C82.3718 85 82.6518 85.12 82.8651 85.36C83.1051 85.5733 83.2251 85.8533 83.2251 86.2C83.2251 86.5467 83.1051 86.84 82.8651 87.08C82.6518 87.2933 82.3718 87.4 82.0251 87.4H76.0251C75.7851 87.4 75.6651 87.52 75.6651 87.76V98.32C75.6651 100.24 75.9185 101.507 76.4251 102.12C76.9318 102.707 77.9051 103 79.3451 103C80.1984 103 80.9051 102.933 81.4651 102.8C81.7585 102.747 82.0251 102.813 82.2651 103C82.5318 103.16 82.6651 103.387 82.6651 103.68C82.6651 104.053 82.5451 104.387 82.3051 104.68C82.0918 104.973 81.8118 105.147 81.4651 105.2C80.7718 105.333 79.8918 105.4 78.8251 105.4C76.4785 105.4 74.8518 104.92 73.9451 103.96C73.0651 102.973 72.6251 101.187 72.6251 98.6V87.76C72.6251 87.52 72.5051 87.4 72.2651 87.4H69.3451Z" fill="black" fill-opacity="0.35"/>
<path d="M89.9432 104.52C89.6499 104.84 89.2766 105 88.8232 105C88.3699 105 87.9832 104.84 87.6632 104.52C87.3699 104.2 87.2232 103.827 87.2232 103.4V85.72C87.2232 85.2933 87.3699 84.9333 87.6632 84.64C87.9566 84.3467 88.3166 84.2 88.7432 84.2C89.1699 84.2 89.5299 84.3467 89.8232 84.64C90.1166 84.9333 90.2632 85.2933 90.2632 85.72V88.8C90.2632 88.8267 90.2766 88.84 90.3032 88.84C90.3566 88.84 90.3832 88.8133 90.3832 88.76C91.1832 87.4267 92.3032 86.36 93.7432 85.56C95.2099 84.7333 96.8499 84.28 98.6632 84.2C99.0366 84.1733 99.3566 84.2933 99.6232 84.56C99.8899 84.8267 100.023 85.1467 100.023 85.52C100.023 85.8667 99.8899 86.1733 99.6232 86.44C99.3832 86.7067 99.0766 86.8533 98.7032 86.88C96.0632 86.9867 94.0232 87.76 92.5832 89.2C91.1432 90.6133 90.4232 92.6 90.4232 95.16V103.4C90.4232 103.827 90.2632 104.2 89.9432 104.52Z" fill="black" fill-opacity="0.35"/>
<path d="M112.1 94C109.46 94 107.46 94.4267 106.1 95.28C104.767 96.1333 104.1 97.3333 104.1 98.88C104.1 100.08 104.433 101.053 105.1 101.8C105.793 102.52 106.7 102.88 107.82 102.88C109.74 102.88 111.327 102.24 112.58 100.96C113.86 99.68 114.5 97.9867 114.5 95.88V94.36C114.5 94.12 114.38 94 114.14 94H112.1ZM107.18 105.4C105.367 105.4 103.887 104.827 102.74 103.68C101.593 102.533 101.02 101.013 101.02 99.12C101.02 96.9067 101.9 95.1333 103.66 93.8C105.42 92.4667 108.233 91.8 112.1 91.8H114.14C114.38 91.8 114.5 91.6933 114.5 91.48V90.72C114.5 89.0933 114.127 87.96 113.38 87.32C112.633 86.6533 111.313 86.32 109.42 86.32C107.58 86.32 105.593 86.6667 103.46 87.36C103.14 87.4667 102.847 87.4267 102.58 87.24C102.313 87.0533 102.18 86.7867 102.18 86.44C102.18 85.5067 102.62 84.9067 103.5 84.64C105.473 84.08 107.447 83.8 109.42 83.8C112.487 83.8 114.607 84.36 115.78 85.48C116.98 86.6 117.58 88.6133 117.58 91.52V103.56C117.58 103.96 117.433 104.307 117.14 104.6C116.873 104.867 116.54 105 116.14 105C115.74 105 115.393 104.867 115.1 104.6C114.807 104.307 114.66 103.96 114.66 103.56L114.62 101.48C114.62 101.453 114.607 101.44 114.58 101.44C114.527 101.44 114.5 101.467 114.5 101.52C112.927 104.107 110.487 105.4 107.18 105.4Z" fill="black" fill-opacity="0.35"/>
<path d="M120.376 87.4C120.03 87.4 119.736 87.2933 119.496 87.08C119.283 86.84 119.176 86.5467 119.176 86.2C119.176 85.8533 119.283 85.5733 119.496 85.36C119.736 85.12 120.03 85 120.376 85H123.296C123.536 85 123.656 84.88 123.656 84.64V78.92C123.656 78.4933 123.803 78.1333 124.096 77.84C124.39 77.5467 124.75 77.4 125.176 77.4C125.603 77.4 125.963 77.5467 126.256 77.84C126.55 78.1333 126.696 78.4933 126.696 78.92V84.64C126.696 84.88 126.816 85 127.056 85H133.056C133.403 85 133.683 85.12 133.896 85.36C134.136 85.5733 134.256 85.8533 134.256 86.2C134.256 86.5467 134.136 86.84 133.896 87.08C133.683 87.2933 133.403 87.4 133.056 87.4H127.056C126.816 87.4 126.696 87.52 126.696 87.76V98.32C126.696 100.24 126.95 101.507 127.456 102.12C127.963 102.707 128.936 103 130.376 103C131.23 103 131.936 102.933 132.496 102.8C132.79 102.747 133.056 102.813 133.296 103C133.563 103.16 133.696 103.387 133.696 103.68C133.696 104.053 133.576 104.387 133.336 104.68C133.123 104.973 132.843 105.147 132.496 105.2C131.803 105.333 130.923 105.4 129.856 105.4C127.51 105.4 125.883 104.92 124.976 103.96C124.096 102.973 123.656 101.187 123.656 98.6V87.76C123.656 87.52 123.536 87.4 123.296 87.4H120.376Z" fill="black" fill-opacity="0.35"/>
<path d="M152.384 94.6C152.384 89 150.251 86.2 145.984 86.2C141.717 86.2 139.584 89 139.584 94.6C139.584 100.2 141.717 103 145.984 103C150.251 103 152.384 100.2 152.384 94.6ZM152.984 102.56C151.304 104.453 148.971 105.4 145.984 105.4C142.997 105.4 140.664 104.453 138.984 102.56C137.304 100.667 136.464 98.0133 136.464 94.6C136.464 91.1867 137.304 88.5333 138.984 86.64C140.664 84.7467 142.997 83.8 145.984 83.8C148.971 83.8 151.304 84.7467 152.984 86.64C154.664 88.5333 155.504 91.1867 155.504 94.6C155.504 98.0133 154.664 100.667 152.984 102.56Z" fill="black" fill-opacity="0.35"/>
<path d="M160.81 104.52C160.517 104.84 160.144 105 159.69 105C159.237 105 158.85 104.84 158.53 104.52C158.237 104.2 158.09 103.827 158.09 103.4V85.72C158.09 85.2933 158.237 84.9333 158.53 84.64C158.824 84.3467 159.184 84.2 159.61 84.2C160.037 84.2 160.397 84.3467 160.69 84.64C160.984 84.9333 161.13 85.2933 161.13 85.72V88.8C161.13 88.8267 161.144 88.84 161.17 88.84C161.224 88.84 161.25 88.8133 161.25 88.76C162.05 87.4267 163.17 86.36 164.61 85.56C166.077 84.7333 167.717 84.28 169.53 84.2C169.904 84.1733 170.224 84.2933 170.49 84.56C170.757 84.8267 170.89 85.1467 170.89 85.52C170.89 85.8667 170.757 86.1733 170.49 86.44C170.25 86.7067 169.944 86.8533 169.57 86.88C166.93 86.9867 164.89 87.76 163.45 89.2C162.01 90.6133 161.29 92.6 161.29 95.16V103.4C161.29 103.827 161.13 104.2 160.81 104.52Z" fill="black" fill-opacity="0.35"/>
</svg>
