<svg width="70" height="60" viewBox="0 0 70 60" fill="none" xmlns="http://www.w3.org/2000/svg">
<path d="M36.4747 38.525L45.4247 47.5L36.4497 56.475L39.9997 60L52.4997 47.5L39.9997 35L36.4747 38.525Z" fill="black"/>
<path d="M53.9747 38.525L62.9247 47.5L53.9497 56.475L57.4997 60L69.9997 47.5L57.4997 35L53.9747 38.525Z" fill="black"/>
<path d="M30 45H5V7.275L33.575 27.05C33.9935 27.3403 34.4907 27.4959 35 27.4959C35.5093 27.4959 36.0065 27.3403 36.425 27.05L65 7.275V30H70V5C70 3.67392 69.4732 2.40215 68.5355 1.46447C67.5979 0.526784 66.3261 0 65 0H5C3.67392 0 2.40215 0.526784 1.46447 1.46447C0.526784 2.40215 0 3.67392 0 5V45C0 46.3261 0.526784 47.5979 1.46447 48.5355C2.40215 49.4732 3.67392 50 5 50H30V45ZM59.5 5L35 21.95L10.5 5H59.5Z" fill="black"/>
</svg>
