<svg width="600" height="89" viewBox="0 0 600 89" fill="none" xmlns="http://www.w3.org/2000/svg">
<path d="M12.9179 6.28109C14.154 6.28109 15.2136 6.69314 16.0966 7.51724C16.9795 8.34134 17.421 9.31259 17.421 10.431C17.421 11.5494 16.9795 12.5501 16.0966 13.4331C15.2136 14.2572 14.154 14.6692 12.9179 14.6692C11.6229 14.6692 10.5339 14.2572 9.65094 13.4331C8.76798 12.5501 8.3265 11.5494 8.3265 10.431C8.3265 9.31259 8.76798 8.34134 9.65094 7.51724C10.5339 6.69314 11.6229 6.28109 12.9179 6.28109ZM12.9179 26.1477C13.9186 26.1477 14.7721 26.3832 15.4785 26.8541C16.2437 27.325 16.6263 27.943 16.6263 28.7083V71.5318C16.6263 74.0041 16.3909 76.241 15.92 78.2423C15.449 80.3026 14.7132 82.0685 13.7126 83.5401C12.7707 85.0117 11.5346 86.1595 10.0041 86.9836C8.47366 87.8077 6.64888 88.2198 4.52978 88.2198C3.11704 88.2198 2.14578 87.896 1.61601 87.2485C1.02737 86.601 0.733048 85.8652 0.733048 85.0411C0.733048 84.0404 1.02737 83.2458 1.61601 82.6571C2.20465 82.0685 2.91102 81.7742 3.73511 81.7742C4.97126 81.7742 5.94251 81.5093 6.64888 80.9795C7.41411 80.5086 7.97332 79.8022 8.3265 78.8604C8.73855 77.9774 9.00344 76.8885 9.12117 75.5935C9.2389 74.3573 9.29776 73.0034 9.29776 71.5318V28.7083C9.29776 27.943 9.62151 27.325 10.269 26.8541C10.9754 26.3832 11.8583 26.1477 12.9179 26.1477ZM106.689 14.316C106.689 14.8458 106.571 15.4639 106.336 16.1702C106.1 16.8178 105.806 17.4653 105.453 18.1128L80.3767 66.9404C79.9647 67.7645 79.17 68.1766 77.9927 68.1766C76.8155 68.1766 75.7559 67.8528 74.8141 67.2053C73.9311 66.5578 73.4896 65.7043 73.4896 64.6448C73.4896 64.115 73.6074 63.6146 73.8428 63.1437L99.2721 15.199V10.1661H76.0502V19.4372C76.0502 20.2024 75.6676 20.8499 74.9024 21.3797C74.196 21.8506 73.3425 22.0861 72.3418 22.0861C71.3411 22.0861 70.4581 21.8506 69.6929 21.3797C68.9865 20.8499 68.6334 20.2024 68.6334 19.4372V6.1045C68.6334 5.457 68.9865 4.86836 69.6929 4.33858C70.3993 3.74994 71.1645 3.45563 71.9886 3.45563H103.334C104.099 3.45563 104.835 3.74994 105.541 4.33858C106.306 4.86836 106.689 5.457 106.689 6.1045V14.316ZM128.586 53.1663H106.512C105.688 53.1663 105.011 52.9014 104.481 52.3716C104.01 51.8418 103.774 51.1355 103.774 50.2525C103.774 49.605 103.922 49.0458 104.216 48.5749L126.025 5.57473C126.79 4.16199 127.909 3.45563 129.38 3.45563C130.087 3.45563 130.852 3.72051 131.676 4.25028C132.559 4.78006 133 5.48643 133 6.36939C133 6.78144 132.883 7.19349 132.647 7.60554L113.31 46.1026H128.586V31.2689C128.586 30.3859 128.968 29.7384 129.734 29.3264C130.499 28.9143 131.352 28.7083 132.294 28.7083C133.236 28.7083 134.089 28.9143 134.855 29.3264C135.62 29.7384 136.003 30.3859 136.003 31.2689V46.1026H140.682C141.565 46.1026 142.213 46.4852 142.625 47.2504C143.096 47.9568 143.331 48.7515 143.331 49.6344C143.331 50.5174 143.066 51.3415 142.536 52.1067C142.066 52.8131 141.447 53.1663 140.682 53.1663H136.003V65.3511C136.003 66.2341 135.62 66.911 134.855 67.3819C134.089 67.794 133.236 68 132.294 68C131.352 68 130.499 67.794 129.734 67.3819C128.968 66.911 128.586 66.2341 128.586 65.3511V53.1663ZM165.225 42.3942C162.753 42.3942 160.428 42.0998 158.25 41.5112C156.131 40.9226 154.276 39.9513 152.687 38.5974C151.098 37.1847 149.832 35.3599 148.89 33.1231C147.948 30.8274 147.478 27.9725 147.478 24.5584V22.7042C147.478 19.1723 147.948 16.1997 148.89 13.7863C149.891 11.314 151.245 9.31259 152.952 7.78213C154.659 6.25166 156.66 5.16268 158.956 4.51517C161.311 3.80881 163.812 3.45563 166.461 3.45563C169.169 3.45563 171.671 3.80881 173.966 4.51517C176.321 5.16268 178.352 6.25166 180.059 7.78213C181.766 9.31259 183.09 11.314 184.032 13.7863C185.033 16.1997 185.533 19.1723 185.533 22.7042V49.2812C185.533 52.8131 185.033 55.8152 184.032 58.2874C183.031 60.7009 181.678 62.6728 179.97 64.2033C178.263 65.7337 176.203 66.8522 173.79 67.5585C171.435 68.206 168.904 68.5298 166.196 68.5298C163.077 68.5298 160.339 68.0883 157.985 67.2053C155.689 66.3224 153.747 65.1745 152.157 63.7618C150.627 62.2902 149.449 60.642 148.625 58.8172C147.86 56.9336 147.478 55.0499 147.478 53.1663C147.478 51.9301 147.772 51.0766 148.361 50.6057C148.949 50.1348 149.832 49.8993 151.009 49.8993C152.01 49.8993 152.893 50.1053 153.658 50.5174C154.482 50.9294 154.894 51.6947 154.894 52.8131C154.894 54.2258 155.189 55.4914 155.777 56.6098C156.425 57.6694 157.249 58.6112 158.25 59.4353C159.309 60.2005 160.516 60.7892 161.87 61.2012C163.283 61.6133 164.784 61.8193 166.373 61.8193C170.081 61.8193 172.966 60.8186 175.026 58.8172C177.086 56.757 178.116 53.5783 178.116 49.2812V36.9198C176.645 38.8623 174.79 40.2751 172.554 41.158C170.317 41.9821 167.874 42.3942 165.225 42.3942ZM178.116 22.351C178.116 17.995 177.086 14.8164 175.026 12.815C173.025 10.8136 170.17 9.81293 166.461 9.81293C162.812 9.81293 159.957 10.8136 157.896 12.815C155.895 14.8164 154.894 17.995 154.894 22.351V24.2052C154.894 28.5611 155.895 31.6515 157.896 33.4763C159.957 35.301 162.841 36.2134 166.549 36.2134C170.081 36.2134 172.877 35.3599 174.938 33.6529C177.057 31.9458 178.116 29.0615 178.116 24.9998V22.351ZM210.995 35.5071C210.995 34.8596 211.348 34.2415 212.054 33.6529C212.761 33.0642 213.644 32.5639 214.703 32.1518C215.822 31.7398 217.058 31.416 218.412 31.1806C219.824 30.9451 221.208 30.8274 222.562 30.8274C226.447 30.8274 229.596 31.7986 232.009 33.7412C234.423 35.6837 235.629 38.5091 235.629 42.2176V56.963C235.806 58.3757 236.306 59.4647 237.13 60.23C238.013 60.9363 238.985 61.2895 240.044 61.2895C241.28 61.2895 242.252 60.848 242.958 59.9651C243.723 59.0821 244.312 57.9931 244.724 56.6981C245.136 55.3442 245.401 53.9021 245.519 52.3716C245.695 50.8411 245.783 49.399 245.783 48.0451C245.783 40.2751 243.929 34.2415 240.221 29.9444C236.512 25.5885 230.803 23.4105 223.091 23.4105C218.677 23.4105 214.968 24.1169 211.966 25.5296C209.023 26.9424 206.668 28.826 204.902 31.1806C203.136 33.5351 201.871 36.2723 201.106 39.3921C200.34 42.453 199.958 45.6611 199.958 49.0164C199.958 52.1362 200.282 55.1382 200.929 58.0226C201.635 60.9069 202.783 63.4675 204.373 65.7043C205.962 67.9411 208.052 69.7071 210.642 71.0021C213.232 72.3559 216.469 73.0329 220.354 73.0329C222.238 73.0329 223.857 72.8857 225.21 72.5914C226.564 72.3559 227.712 72.0616 228.654 71.7084C229.596 71.3552 230.361 71.0315 230.95 70.7372C231.597 70.5017 232.156 70.384 232.627 70.384C233.275 70.384 233.775 70.6489 234.128 71.1787C234.54 71.7673 234.746 72.2676 234.746 72.6797C234.746 73.3861 234.246 74.0336 233.245 74.6222C232.304 75.2697 231.067 75.8289 229.537 76.2998C228.065 76.7707 226.417 77.1239 224.592 77.3594C222.826 77.6537 221.149 77.8009 219.56 77.8009C216.322 77.8009 213.202 77.2122 210.2 76.0349C207.257 74.9165 204.637 73.18 202.342 70.8255C200.046 68.5298 198.192 65.5866 196.779 61.9959C195.425 58.3463 194.748 54.0492 194.748 49.1047C194.748 44.8664 195.278 40.8931 196.338 37.1847C197.456 33.4174 199.163 30.1504 201.459 27.3838C203.813 24.6172 206.786 22.4393 210.377 20.8499C213.967 19.2606 218.235 18.4659 223.18 18.4659C232.127 18.4659 238.985 20.9677 243.753 25.9711C248.579 30.9157 250.993 37.9794 250.993 47.1621C250.993 49.5756 250.787 51.9007 250.375 54.1375C249.963 56.3744 249.286 58.3463 248.344 60.0534C247.461 61.7604 246.284 63.1437 244.812 64.2033C243.399 65.204 241.663 65.7043 239.603 65.7043C237.307 65.7043 235.364 65.1157 233.775 63.9384C232.186 62.7611 231.215 61.3778 230.861 59.7885C229.331 61.4367 227.771 62.7317 226.182 63.6735C224.592 64.5565 222.532 64.9979 220.001 64.9979C218.529 64.9979 217.117 64.8213 215.763 64.4682C214.409 64.115 213.232 63.5558 212.231 62.7905C211.23 62.0253 210.406 61.0246 209.759 59.7885C209.17 58.4935 208.876 56.963 208.876 55.1971C208.876 53.1957 209.288 51.5475 210.112 50.2525C210.936 48.8986 212.113 47.8391 213.644 47.0738C215.174 46.2498 216.999 45.6905 219.118 45.3962C221.296 45.1019 223.709 44.9547 226.358 44.9547H229.89V43.3654C229.89 40.952 229.213 39.1861 227.859 38.0677C226.564 36.8904 224.475 36.3017 221.59 36.3017C220.178 36.3017 219 36.4195 218.058 36.6549C217.176 36.8904 216.41 37.1553 215.763 37.4496C215.174 37.685 214.674 37.9205 214.262 38.156C213.909 38.3914 213.555 38.5091 213.202 38.5091C212.555 38.5091 212.025 38.156 211.613 37.4496C211.201 36.6844 210.995 36.0368 210.995 35.5071ZM230.067 48.9281H226.888C225.122 48.9281 223.503 49.0164 222.032 49.193C220.619 49.3695 219.383 49.6933 218.323 50.1642C217.323 50.5763 216.528 51.1943 215.939 52.0184C215.351 52.8425 215.056 53.9021 215.056 55.1971C215.056 57.0807 215.616 58.4346 216.734 59.2587C217.852 60.0828 219.265 60.4948 220.972 60.4948C222.326 60.4948 223.562 60.2888 224.681 59.8768C225.799 59.4059 226.741 58.8172 227.506 58.1108C228.33 57.4045 228.948 56.6392 229.36 55.8152C229.831 54.9322 230.067 54.0787 230.067 53.2546V48.9281ZM273.833 57.7577C271.42 57.7577 269.242 57.3162 267.299 56.4332C266.711 56.7864 266.181 57.1985 265.71 57.6694C265.298 58.0814 265.092 58.6701 265.092 59.4353C265.092 60.6714 265.769 61.5544 267.123 62.0842C268.477 62.5551 270.154 62.9377 272.156 63.232C274.157 63.4675 276.335 63.7324 278.69 64.0267C281.044 64.321 283.222 64.8508 285.223 65.616C287.225 66.3812 288.902 67.4997 290.256 68.9713C291.61 70.5017 292.287 72.6208 292.287 75.3286C292.287 77.5065 291.816 79.3902 290.874 80.9795C289.991 82.6277 288.726 83.9816 287.078 85.0411C285.488 86.1007 283.605 86.8953 281.427 87.4251C279.249 87.9549 276.894 88.2198 274.363 88.2198C271.773 88.2198 269.36 87.9255 267.123 87.3368C264.886 86.807 262.943 86.0418 261.295 85.0411C259.706 84.0404 258.44 82.8043 257.498 81.3327C256.557 79.8611 256.086 78.1835 256.086 76.2998C256.086 73.8275 256.792 71.7967 258.205 70.2074C259.676 68.6769 261.354 67.4997 263.238 66.6756C261.884 66.2046 260.795 65.5277 259.971 64.6448C259.147 63.7618 258.735 62.4668 258.735 60.7597C258.735 59.1115 259.117 57.8165 259.882 56.8747C260.707 55.874 261.796 54.9911 263.149 54.2258C261.56 52.9308 260.324 51.3415 259.441 49.4578C258.558 47.5153 258.117 45.3962 258.117 43.1005V40.1868C258.117 38.0677 258.499 36.1251 259.264 34.3592C260.03 32.5344 261.089 30.9745 262.443 29.6795C263.797 28.3845 265.445 27.3838 267.388 26.6775C269.33 25.9711 271.479 25.6179 273.833 25.6179C275.893 25.6179 277.777 25.9417 279.484 26.5892C281.25 27.1778 282.81 28.0019 284.164 29.0615C285.047 27.119 286.018 25.6768 287.078 24.735C288.137 23.7931 289.167 23.3222 290.168 23.3222C291.169 23.3222 291.934 23.6165 292.464 24.2052C293.052 24.7938 293.347 25.4119 293.347 26.0594C293.347 26.5303 293.2 26.9424 292.905 27.2955C292.611 27.6487 292.258 27.9136 291.846 28.0902C291.198 28.2668 290.433 28.62 289.55 29.1498C288.667 29.6795 287.843 30.5625 287.078 31.7986C288.019 32.9171 288.696 34.2121 289.108 35.6837C289.579 37.0964 289.815 38.5974 289.815 40.1868V43.1005C289.815 45.2196 289.403 47.1621 288.579 48.9281C287.813 50.694 286.724 52.2539 285.312 53.6078C283.899 54.9028 282.221 55.9329 280.279 56.6981C278.336 57.4045 276.188 57.7577 273.833 57.7577ZM282.663 40.1868C282.663 37.5379 281.898 35.301 280.367 33.4763C278.837 31.5926 276.688 30.6508 273.922 30.6508C271.096 30.6508 268.948 31.5926 267.476 33.4763C266.004 35.301 265.269 37.5379 265.269 40.1868V43.0122C265.269 45.7788 266.004 48.104 267.476 49.9876C269.006 51.8124 271.184 52.7248 274.01 52.7248C276.659 52.7248 278.748 51.8418 280.279 50.0759C281.868 48.2511 282.663 45.926 282.663 43.1005V40.1868ZM285.135 75.5052C285.135 73.857 284.605 72.562 283.546 71.6201C282.486 70.7372 281.191 70.0602 279.661 69.5893C278.13 69.1773 276.482 68.883 274.716 68.7064C273.009 68.5886 271.449 68.4415 270.037 68.2649C268.153 68.9124 266.505 69.7954 265.092 70.9138C263.738 72.091 263.061 73.6215 263.061 75.5052C263.061 77.8009 264.062 79.6256 266.063 80.9795C268.123 82.3922 270.861 83.0986 274.275 83.0986C277.63 83.0986 280.279 82.3922 282.221 80.9795C284.164 79.6256 285.135 77.8009 285.135 75.5052ZM325.666 42.3942C325.666 40.9226 325.401 39.5687 324.871 38.3325C324.4 37.0375 323.753 35.9486 322.929 35.0656C322.105 34.1826 321.133 33.5057 320.015 33.0348C318.896 32.505 317.719 32.2401 316.483 32.2401C315.306 32.2401 314.158 32.4756 313.039 32.9465C311.921 33.3585 310.92 34.006 310.037 34.889C309.154 35.772 308.419 36.8609 307.83 38.156C307.3 39.451 307.035 40.9226 307.035 42.5708V65.3511C307.035 65.9986 306.653 66.6167 305.887 67.2053C305.181 67.7351 304.328 68 303.327 68C302.267 68 301.384 67.7351 300.678 67.2053C300.031 66.6167 299.707 65.9986 299.707 65.3511V28.7083C299.707 27.943 300.031 27.325 300.678 26.8541C301.384 26.3832 302.267 26.1477 303.327 26.1477C304.269 26.1477 305.063 26.3832 305.711 26.8541C306.358 27.325 306.682 27.943 306.682 28.7083V32.3284C307.683 30.6214 309.154 29.0909 311.097 27.737C313.039 26.3243 315.482 25.6179 318.426 25.6179C321.251 25.6179 323.723 26.442 325.842 28.0902C327.961 29.6795 329.521 31.7986 330.522 34.4475C332.053 31.4455 334.024 29.2381 336.438 27.8253C338.851 26.3537 341.353 25.6179 343.943 25.6179C345.886 25.6179 347.769 26.0005 349.594 26.7658C351.419 27.531 353.008 28.6494 354.362 30.121C355.775 31.5338 356.893 33.2997 357.717 35.4188C358.6 37.479 359.042 39.863 359.042 42.5708V65.3511C359.042 65.9986 358.659 66.6167 357.894 67.2053C357.187 67.7351 356.334 68 355.333 68C354.333 68 353.479 67.7351 352.773 67.2053C352.066 66.6167 351.713 65.9986 351.713 65.3511V42.5708C351.713 40.8637 351.448 39.3627 350.918 38.0677C350.389 36.7726 349.682 35.7131 348.799 34.889C347.916 34.006 346.916 33.3585 345.797 32.9465C344.679 32.4756 343.56 32.2401 342.442 32.2401C341.265 32.2401 340.117 32.4756 338.998 32.9465C337.88 33.4174 336.879 34.0943 335.996 34.9773C335.113 35.8603 334.378 36.9198 333.789 38.156C333.259 39.3921 332.994 40.7754 332.994 42.3059V65.4394C332.994 66.3224 332.612 66.9699 331.846 67.3819C331.081 67.794 330.228 68 329.286 68C328.462 68 327.638 67.794 326.814 67.3819C326.048 66.9699 325.666 66.3224 325.666 65.4394V42.3942ZM381.745 25.6179C384.806 25.6179 387.396 26.1183 389.516 27.119C391.693 28.0608 393.459 29.3264 394.813 30.9157C396.167 32.505 397.138 34.3298 397.727 36.39C398.316 38.4503 398.61 40.5694 398.61 42.7473V65.3511C398.61 66.1164 398.257 66.7639 397.55 67.2936C396.903 67.7645 396.049 68 394.99 68C393.989 68 393.165 67.7645 392.518 67.2936C391.929 66.7639 391.635 66.1164 391.635 65.3511V61.8193C390.104 63.5852 388.25 65.1745 386.072 66.5873C383.894 68 381.304 68.7064 378.302 68.7064C376.654 68.7064 375.094 68.4709 373.622 68C372.209 67.5291 370.944 66.8227 369.825 65.8809C368.766 64.8802 367.912 63.6441 367.265 62.1725C366.676 60.7009 366.382 58.9644 366.382 56.963C366.382 54.4907 366.882 52.4893 367.883 50.9589C368.884 49.3695 370.296 48.104 372.121 47.1621C373.946 46.2203 376.124 45.5728 378.655 45.2196C381.186 44.8664 383.982 44.6899 387.043 44.6899H391.281V42.8356C391.281 41.5406 391.105 40.2456 390.752 38.9506C390.398 37.6556 389.839 36.4783 389.074 35.4188C388.309 34.3592 387.308 33.5057 386.072 32.8582C384.836 32.2107 383.335 31.8869 381.569 31.8869C380.038 31.8869 378.743 32.0341 377.684 32.3284C376.624 32.5639 375.741 32.8582 375.035 33.2114C374.329 33.5057 373.74 33.8 373.269 34.0943C372.798 34.3298 372.357 34.4475 371.945 34.4475C371.062 34.4475 370.385 34.0355 369.914 33.2114C369.443 32.3873 369.207 31.5632 369.207 30.7391C369.207 30.0327 369.59 29.3852 370.355 28.7966C371.121 28.1491 372.092 27.5899 373.269 27.119C374.505 26.648 375.859 26.2949 377.331 26.0594C378.802 25.7651 380.274 25.6179 381.745 25.6179ZM391.281 49.193H388.191C386.307 49.193 384.483 49.2812 382.717 49.4578C381.01 49.5756 379.479 49.8699 378.125 50.3408C376.83 50.8117 375.771 51.5181 374.947 52.4599C374.181 53.3429 373.799 54.579 373.799 56.1683C373.799 58.464 374.446 60.1417 375.741 61.2012C377.036 62.2608 378.655 62.7905 380.598 62.7905C381.834 62.7905 383.099 62.5256 384.394 61.9959C385.689 61.4072 386.837 60.6714 387.838 59.7885C388.839 58.9055 389.663 57.9343 390.31 56.8747C390.958 55.8152 391.281 54.785 391.281 53.7843V49.193ZM412.317 26.1477C413.318 26.1477 414.171 26.3832 414.878 26.8541C415.643 27.325 416.026 27.943 416.026 28.7083V65.3511C416.026 65.9986 415.643 66.6167 414.878 67.2053C414.171 67.7351 413.318 68 412.317 68C411.317 68 410.463 67.7351 409.757 67.2053C409.05 66.6167 408.697 65.9986 408.697 65.3511V28.7083C408.697 27.943 409.05 27.325 409.757 26.8541C410.463 26.3832 411.317 26.1477 412.317 26.1477ZM412.317 6.28109C413.553 6.28109 414.613 6.69314 415.496 7.51724C416.379 8.34134 416.82 9.31259 416.82 10.431C416.82 11.5494 416.379 12.5501 415.496 13.4331C414.613 14.2572 413.553 14.6692 412.317 14.6692C411.022 14.6692 409.933 14.2572 409.05 13.4331C408.167 12.5501 407.726 11.5494 407.726 10.431C407.726 9.31259 408.167 8.34134 409.05 7.51724C409.933 6.69314 411.022 6.28109 412.317 6.28109ZM430.875 0.895037C431.875 0.895037 432.729 1.13049 433.435 1.60141C434.2 2.07232 434.583 2.69039 434.583 3.45563V65.3511C434.583 65.9986 434.2 66.6167 433.435 67.2053C432.729 67.7351 431.875 68 430.875 68C429.815 68 428.932 67.7351 428.226 67.2053C427.578 66.6167 427.254 65.9986 427.254 65.3511V3.45563C427.254 2.69039 427.578 2.07232 428.226 1.60141C428.932 1.13049 429.815 0.895037 430.875 0.895037ZM448.423 59.2587C449.66 59.2587 450.719 59.7296 451.602 60.6714C452.485 61.5544 452.927 62.6434 452.927 63.9384C452.927 65.1157 452.485 66.1752 451.602 67.117C450.719 68.0589 449.66 68.5298 448.423 68.5298C447.07 68.5298 445.951 68.0589 445.068 67.117C444.244 66.1752 443.832 65.1157 443.832 63.9384C443.832 62.6434 444.244 61.5544 445.068 60.6714C445.951 59.7296 447.07 59.2587 448.423 59.2587ZM477.453 68.7064C474.393 68.7064 471.744 68.2649 469.507 67.3819C467.329 66.499 465.504 65.2923 464.032 63.7618C462.62 62.2313 461.56 60.436 460.854 58.3757C460.147 56.2566 459.794 53.9904 459.794 51.5769V42.7473C459.794 40.3928 460.147 38.1854 460.854 36.1251C461.56 34.006 462.62 32.1813 464.032 30.6508C465.504 29.0615 467.329 27.8253 469.507 26.9424C471.744 26.0594 474.363 25.6179 477.365 25.6179C479.308 25.6179 481.074 25.8239 482.663 26.236C484.252 26.5892 485.606 27.0601 486.725 27.6487C487.902 28.2374 488.785 28.9143 489.373 29.6795C490.021 30.3859 490.345 31.0628 490.345 31.7103C490.345 32.4756 490.05 33.2702 489.462 34.0943C488.873 34.9184 488.137 35.3305 487.254 35.3305C486.783 35.3305 486.313 35.1833 485.842 34.889C485.43 34.5358 484.87 34.1826 484.164 33.8294C483.516 33.4174 482.692 33.0642 481.692 32.7699C480.691 32.4167 479.425 32.2401 477.895 32.2401C474.245 32.2401 471.538 33.1819 469.772 35.0656C468.006 36.8904 467.123 39.451 467.123 42.7473V51.5769C467.123 54.8733 468.006 57.4633 469.772 59.347C471.538 61.1718 474.275 62.0842 477.983 62.0842C479.573 62.0842 480.868 61.937 481.868 61.6427C482.928 61.2895 483.781 60.9069 484.429 60.4948C485.135 60.0828 485.724 59.7296 486.195 59.4353C486.666 59.0821 487.137 58.9055 487.608 58.9055C488.608 58.9055 489.403 59.3176 489.992 60.1417C490.58 60.9069 490.874 61.6721 490.874 62.4374C490.874 63.1437 490.551 63.8795 489.903 64.6448C489.256 65.3511 488.343 66.0281 487.166 66.6756C485.989 67.2642 484.576 67.7351 482.928 68.0883C481.28 68.5003 479.455 68.7064 477.453 68.7064ZM513.488 25.6179C515.842 25.6179 518.079 26.0594 520.198 26.9424C522.317 27.8253 524.172 29.0615 525.761 30.6508C527.35 32.1813 528.616 33.9766 529.558 36.0368C530.5 38.0971 530.971 40.2751 530.971 42.5708V51.5769C530.971 53.8138 530.5 55.9623 529.558 58.0226C528.616 60.0828 527.35 61.9076 525.761 63.4969C524.172 65.0862 522.317 66.3518 520.198 67.2936C518.079 68.2355 515.842 68.7064 513.488 68.7064C511.133 68.7064 508.897 68.2355 506.777 67.2936C504.717 66.3518 502.892 65.0862 501.303 63.4969C499.714 61.9076 498.448 60.0828 497.506 58.0226C496.564 55.9623 496.094 53.8138 496.094 51.5769V42.5708C496.094 40.3339 496.535 38.1854 497.418 36.1251C498.36 34.0649 499.625 32.2696 501.215 30.7391C502.804 29.1498 504.629 27.9136 506.689 27.0307C508.808 26.0888 511.074 25.6179 513.488 25.6179ZM523.642 42.5708C523.642 41.2757 523.377 40.0102 522.847 38.774C522.317 37.5379 521.582 36.4489 520.64 35.5071C519.757 34.5064 518.697 33.7117 517.461 33.1231C516.225 32.5344 514.901 32.2401 513.488 32.2401C512.075 32.2401 510.751 32.5344 509.515 33.1231C508.278 33.7117 507.219 34.5064 506.336 35.5071C505.453 36.4489 504.747 37.5379 504.217 38.774C503.687 40.0102 503.422 41.2757 503.422 42.5708V51.5769C503.422 52.9308 503.687 54.2553 504.217 55.5503C504.747 56.7864 505.453 57.9048 506.336 58.9055C507.278 59.8473 508.337 60.6126 509.515 61.2012C510.751 61.7898 512.075 62.0842 513.488 62.0842C514.901 62.0842 516.196 61.7898 517.373 61.2012C518.609 60.6126 519.698 59.8473 520.64 58.9055C521.582 57.9048 522.317 56.7864 522.847 55.5503C523.377 54.2553 523.642 52.9308 523.642 51.5769V42.5708ZM565.72 42.3942C565.72 40.9226 565.456 39.5687 564.926 38.3325C564.455 37.0375 563.807 35.9486 562.983 35.0656C562.159 34.1826 561.188 33.5057 560.07 33.0348C558.951 32.505 557.774 32.2401 556.538 32.2401C555.36 32.2401 554.213 32.4756 553.094 32.9465C551.976 33.3585 550.975 34.006 550.092 34.889C549.209 35.772 548.473 36.8609 547.885 38.156C547.355 39.451 547.09 40.9226 547.09 42.5708V65.3511C547.09 65.9986 546.707 66.6167 545.942 67.2053C545.236 67.7351 544.382 68 543.382 68C542.322 68 541.439 67.7351 540.733 67.2053C540.085 66.6167 539.761 65.9986 539.761 65.3511V28.7083C539.761 27.943 540.085 27.325 540.733 26.8541C541.439 26.3832 542.322 26.1477 543.382 26.1477C544.323 26.1477 545.118 26.3832 545.766 26.8541C546.413 27.325 546.737 27.943 546.737 28.7083V32.3284C547.738 30.6214 549.209 29.0909 551.152 27.737C553.094 26.3243 555.537 25.6179 558.48 25.6179C561.306 25.6179 563.778 26.442 565.897 28.0902C568.016 29.6795 569.576 31.7986 570.577 34.4475C572.107 31.4455 574.079 29.2381 576.493 27.8253C578.906 26.3537 581.408 25.6179 583.998 25.6179C585.94 25.6179 587.824 26.0005 589.649 26.7658C591.473 27.531 593.063 28.6494 594.417 30.121C595.829 31.5338 596.948 33.2997 597.772 35.4188C598.655 37.479 599.096 39.863 599.096 42.5708V65.3511C599.096 65.9986 598.714 66.6167 597.949 67.2053C597.242 67.7351 596.389 68 595.388 68C594.387 68 593.534 67.7351 592.827 67.2053C592.121 66.6167 591.768 65.9986 591.768 65.3511V42.5708C591.768 40.8637 591.503 39.3627 590.973 38.0677C590.443 36.7726 589.737 35.7131 588.854 34.889C587.971 34.006 586.97 33.3585 585.852 32.9465C584.734 32.4756 583.615 32.2401 582.497 32.2401C581.319 32.2401 580.172 32.4756 579.053 32.9465C577.935 33.4174 576.934 34.0943 576.051 34.9773C575.168 35.8603 574.432 36.9198 573.844 38.156C573.314 39.3921 573.049 40.7754 573.049 42.3059V65.4394C573.049 66.3224 572.666 66.9699 571.901 67.3819C571.136 67.794 570.282 68 569.341 68C568.517 68 567.692 67.794 566.868 67.3819C566.103 66.9699 565.72 66.3224 565.72 65.4394V42.3942Z" fill="black"/>
<path d="M44.1857 41.5995L31.2062 65.7043C30.9119 66.2929 30.5293 66.8522 30.0584 67.3819C29.5874 67.9117 29.0282 68.1766 28.3807 68.1766C27.38 68.1766 26.3499 67.8234 25.2904 67.117C24.2308 66.4107 23.701 65.5571 23.701 64.5565C23.701 64.0267 23.8776 63.4969 24.2308 62.9671L39.4177 35.6837L24.584 8.57679C24.172 7.92929 23.9659 7.28178 23.9659 6.63428C23.9659 5.63359 24.4368 4.83893 25.3787 4.25028C26.3205 3.60278 27.3506 3.27903 28.469 3.27903C29.2343 3.27903 29.8818 3.57335 30.4115 4.16199C30.9413 4.75063 31.3828 5.39813 31.736 6.1045L44.1857 29.5912L56.7238 6.1045C57.0769 5.39813 57.5184 4.75063 58.0482 4.16199C58.578 3.57335 59.2255 3.27903 59.9907 3.27903C61.1091 3.27903 62.1392 3.60278 63.0811 4.25028C64.0229 4.83893 64.4938 5.63359 64.4938 6.63428C64.4938 7.28178 64.2878 7.92929 63.8757 8.57679L48.9537 35.6837L64.2289 62.9671C64.5821 63.4969 64.7587 64.0267 64.7587 64.5565C64.7587 65.5571 64.2289 66.4107 63.1694 67.117C62.1098 67.8234 61.0797 68.1766 60.079 68.1766C59.4315 68.1766 58.8723 67.9117 58.4014 67.3819C57.9305 66.8522 57.5478 66.2929 57.2535 65.7043L44.1857 41.5995Z" fill="#4EAFCD"/>
</svg>
