<svg width="1041" height="408" viewBox="0 0 1041 408" fill="none" xmlns="http://www.w3.org/2000/svg">
<g filter="url(#filter0_d)">
<path d="M201.936 378V307.25H30.2495V263.857L201.936 30.3817H244.858V268.102H288.251V307.25H244.858V378H201.936ZM201.936 268.102V102.547L79.7745 268.102H201.936Z" fill="white"/>
</g>
<g filter="url(#filter1_d)">
<path d="M445.03 378L395.505 328.475V79.9067L445.03 30.3817H595.963L645.488 79.9067V328.475L595.963 378H445.03ZM464.368 339.795H576.625L602.566 313.853V94.5284L576.625 68.5867H464.368L438.426 94.5284L438.898 313.853L464.368 339.795Z" fill="white"/>
</g>
<g filter="url(#filter2_d)">
<path d="M839.064 378V307.25H1010.75V263.857L839.064 30.3817H796.142V268.102H752.749V307.25H796.142V378H839.064ZM839.064 268.102V102.547L961.225 268.102H839.064Z" fill="white"/>
</g>
<defs>
<filter id="filter0_d" x="0.25" y="0.381592" width="318.002" height="407.618" filterUnits="userSpaceOnUse" color-interpolation-filters="sRGB">
<feFlood flood-opacity="0" result="BackgroundImageFix"/>
<feColorMatrix in="SourceAlpha" type="matrix" values="0 0 0 0 0 0 0 0 0 0 0 0 0 0 0 0 0 0 127 0"/>
<feOffset/>
<feGaussianBlur stdDeviation="15"/>
<feColorMatrix type="matrix" values="0 0 0 0 0 0 0 0 0 0 0 0 0 0 0 0 0 0 0.25 0"/>
<feBlend mode="normal" in2="BackgroundImageFix" result="effect1_dropShadow"/>
<feBlend mode="normal" in="SourceGraphic" in2="effect1_dropShadow" result="shape"/>
</filter>
<filter id="filter1_d" x="365.505" y="0.381592" width="309.983" height="407.618" filterUnits="userSpaceOnUse" color-interpolation-filters="sRGB">
<feFlood flood-opacity="0" result="BackgroundImageFix"/>
<feColorMatrix in="SourceAlpha" type="matrix" values="0 0 0 0 0 0 0 0 0 0 0 0 0 0 0 0 0 0 127 0"/>
<feOffset/>
<feGaussianBlur stdDeviation="15"/>
<feColorMatrix type="matrix" values="0 0 0 0 0 0 0 0 0 0 0 0 0 0 0 0 0 0 0.25 0"/>
<feBlend mode="normal" in2="BackgroundImageFix" result="effect1_dropShadow"/>
<feBlend mode="normal" in="SourceGraphic" in2="effect1_dropShadow" result="shape"/>
</filter>
<filter id="filter2_d" x="722.749" y="0.381592" width="318.002" height="407.618" filterUnits="userSpaceOnUse" color-interpolation-filters="sRGB">
<feFlood flood-opacity="0" result="BackgroundImageFix"/>
<feColorMatrix in="SourceAlpha" type="matrix" values="0 0 0 0 0 0 0 0 0 0 0 0 0 0 0 0 0 0 127 0"/>
<feOffset/>
<feGaussianBlur stdDeviation="15"/>
<feColorMatrix type="matrix" values="0 0 0 0 0 0 0 0 0 0 0 0 0 0 0 0 0 0 0.25 0"/>
<feBlend mode="normal" in2="BackgroundImageFix" result="effect1_dropShadow"/>
<feBlend mode="normal" in="SourceGraphic" in2="effect1_dropShadow" result="shape"/>
</filter>
</defs>
</svg>
