<svg width="1065" height="513" viewBox="0 0 1065 513" fill="none" xmlns="http://www.w3.org/2000/svg">
<path d="M89.6472 59.219C89.6472 57.5347 90.1886 56.091 91.2714 54.888C92.4744 53.6849 94.0384 53.0834 95.9633 53.0834H130.251C135.905 53.0834 141.259 53.6849 146.312 54.888C151.365 56.091 155.756 58.1362 159.485 61.0236C163.335 63.911 166.343 67.7007 168.508 72.3926C170.674 77.0846 171.757 82.9195 171.757 89.8973C171.757 95.3111 171.095 100.063 169.772 104.154C168.448 108.124 166.644 111.553 164.358 114.44C162.192 117.327 159.546 119.733 156.418 121.658C153.29 123.463 149.921 124.786 146.312 125.628L171.576 173.09C172.058 173.932 172.298 174.834 172.298 175.797C172.298 177 171.937 178.203 171.215 179.406C170.494 180.609 169.591 181.692 168.508 182.654C167.426 183.496 166.162 184.218 164.719 184.82C163.395 185.301 162.072 185.541 160.749 185.541C157.621 185.541 155.094 183.677 153.169 179.947L126.822 128.335H108.596V178.684C108.596 180.729 107.573 182.293 105.528 183.376C103.603 184.459 101.437 185 99.0312 185C96.625 185 94.4595 184.459 92.5346 183.376C90.6097 182.293 89.6472 180.729 89.6472 178.684V59.219ZM108.596 70.0466V112.996H130.251C136.988 112.996 142.402 111.372 146.492 108.124C150.583 104.876 152.628 99.3414 152.628 91.5214C152.628 83.7015 150.583 78.1674 146.492 74.9191C142.402 71.6708 136.988 70.0466 130.251 70.0466H108.596ZM215.716 98.3789C222.333 98.3789 227.927 99.4016 232.499 101.447C237.191 103.372 240.98 105.958 243.868 109.207C246.755 112.455 248.86 116.184 250.184 120.395C251.507 124.606 252.169 128.937 252.169 133.388V178.684C252.169 180.368 251.267 181.872 249.462 183.195C247.778 184.398 245.612 185 242.965 185C240.559 185 238.514 184.398 236.83 183.195C235.145 181.872 234.303 180.368 234.303 178.684V172.368C231.175 176.097 227.386 179.406 222.934 182.293C218.483 185.06 213.189 186.444 207.054 186.444C203.805 186.444 200.677 185.962 197.67 185C194.782 184.038 192.256 182.594 190.09 180.669C187.925 178.624 186.18 176.157 184.857 173.27C183.654 170.262 183.052 166.713 183.052 162.623C183.052 157.57 184.075 153.359 186.12 149.991C188.166 146.622 191.053 143.975 194.782 142.05C198.512 140.125 202.963 138.802 208.136 138.08C213.31 137.238 219.024 136.817 225.28 136.817H233.22V133.569C233.22 131.283 232.92 128.997 232.318 126.711C231.717 124.305 230.694 122.2 229.25 120.395C227.807 118.47 225.942 116.966 223.656 115.884C221.37 114.681 218.603 114.079 215.355 114.079C212.107 114.079 209.4 114.38 207.234 114.981C205.069 115.463 203.264 116.064 201.82 116.786C200.377 117.508 199.113 118.169 198.031 118.771C197.068 119.252 196.166 119.493 195.324 119.493C193.038 119.493 191.293 118.47 190.09 116.425C189.008 114.259 188.466 112.094 188.466 109.928C188.466 108.364 189.308 106.861 190.993 105.417C192.677 103.973 194.843 102.77 197.489 101.808C200.136 100.725 203.023 99.8828 206.151 99.2812C209.4 98.6797 212.588 98.3789 215.716 98.3789ZM233.22 147.284H228.709C225.22 147.284 221.851 147.464 218.603 147.825C215.475 148.066 212.708 148.667 210.302 149.63C207.896 150.472 205.911 151.735 204.347 153.419C202.903 155.104 202.181 157.39 202.181 160.277C202.181 164.367 203.264 167.375 205.43 169.3C207.715 171.105 210.543 172.007 213.911 172.007C216.197 172.007 218.483 171.465 220.769 170.383C223.055 169.3 225.1 167.916 226.904 166.232C228.829 164.548 230.333 162.623 231.416 160.457C232.619 158.292 233.22 156.126 233.22 153.961V147.284ZM316.586 132.486L344.918 173.27C345.64 174.353 346.001 175.436 346.001 176.518C346.001 177.601 345.64 178.744 344.918 179.947C344.317 181.03 343.475 182.052 342.392 183.015C341.309 183.857 340.106 184.579 338.783 185.18C337.58 185.782 336.437 186.083 335.354 186.083C333.189 186.083 331.504 185.18 330.301 183.376L303.773 144.216L290.6 156.126V178.684C290.6 180.248 289.637 181.692 287.713 183.015C285.908 184.338 283.622 185 280.855 185C278.088 185 275.862 184.338 274.178 183.015C272.494 181.692 271.652 180.248 271.652 178.684V54.7075C271.652 52.9029 272.494 51.4592 274.178 50.3764C275.862 49.1734 278.088 48.5718 280.855 48.5718C283.622 48.5718 285.908 49.1734 287.713 50.3764C289.637 51.4592 290.6 52.9029 290.6 54.7075V135.012L328.316 100.364C329.399 99.2812 330.722 98.7399 332.286 98.7399C333.369 98.7399 334.452 99.0406 335.535 99.6422C336.617 100.123 337.58 100.785 338.422 101.627C339.384 102.469 340.106 103.432 340.587 104.515C341.189 105.597 341.49 106.68 341.49 107.763C341.49 109.327 340.948 110.65 339.866 111.733L316.586 132.486ZM383.622 171.826C386.629 171.826 389.096 171.586 391.021 171.105C392.945 170.503 394.509 169.781 395.712 168.939C396.916 167.977 397.758 166.894 398.239 165.691C398.72 164.488 398.961 163.285 398.961 162.082C398.961 158.954 397.878 156.547 395.712 154.863C393.547 153.058 390.84 151.615 387.592 150.532C384.464 149.449 380.975 148.427 377.125 147.464C373.396 146.381 369.907 144.998 366.658 143.314C363.53 141.509 360.884 139.163 358.718 136.276C356.553 133.388 355.47 129.418 355.47 124.365C355.47 121.237 356.011 118.169 357.094 115.162C358.177 112.034 359.921 109.267 362.327 106.861C364.733 104.334 367.922 102.289 371.892 100.725C375.862 99.1609 380.674 98.3789 386.329 98.3789C389.697 98.3789 393.006 98.6797 396.254 99.2812C399.502 99.7625 402.39 100.544 404.916 101.627C407.442 102.59 409.488 103.733 411.052 105.056C412.616 106.259 413.398 107.582 413.398 109.026C413.398 109.748 413.217 110.65 412.856 111.733C412.616 112.695 412.134 113.658 411.413 114.62C410.811 115.583 410.029 116.425 409.067 117.147C408.224 117.869 407.262 118.23 406.179 118.23C405.217 118.23 404.134 117.989 402.931 117.508C401.728 116.906 400.344 116.305 398.78 115.703C397.216 114.981 395.412 114.38 393.367 113.899C391.442 113.297 389.216 112.996 386.689 112.996C381.396 112.996 377.606 114.199 375.32 116.605C373.155 118.891 372.072 121.177 372.072 123.463C372.072 126.11 373.155 128.155 375.32 129.599C377.486 130.922 380.193 132.125 383.441 133.208C386.689 134.17 390.178 135.193 393.908 136.276C397.758 137.238 401.307 138.682 404.555 140.607C407.803 142.532 410.51 145.118 412.676 148.367C414.841 151.615 415.924 155.946 415.924 161.36C415.924 169.059 413.157 175.195 407.623 179.767C402.209 184.218 394.389 186.444 384.163 186.444C379.712 186.444 375.561 186.023 371.711 185.18C367.982 184.338 364.733 183.256 361.966 181.932C359.199 180.488 357.034 178.924 355.47 177.24C353.906 175.436 353.124 173.691 353.124 172.007C353.124 170.323 353.725 168.518 354.928 166.593C356.131 164.548 357.695 163.525 359.62 163.525C360.823 163.525 362.027 163.946 363.23 164.788C364.433 165.631 365.876 166.593 367.561 167.676C369.245 168.759 371.35 169.721 373.877 170.563C376.524 171.405 379.772 171.826 383.622 171.826ZM450.265 178.684C450.265 180.248 449.303 181.692 447.378 183.015C445.453 184.338 443.227 185 440.701 185C437.934 185 435.648 184.338 433.843 183.015C432.159 181.692 431.317 180.248 431.317 178.684V54.7075C431.317 52.9029 432.159 51.4592 433.843 50.3764C435.648 49.1734 437.934 48.5718 440.701 48.5718C443.227 48.5718 445.453 49.1734 447.378 50.3764C449.303 51.4592 450.265 52.9029 450.265 54.7075V112.094C451.949 108.605 454.777 105.477 458.747 102.71C462.717 99.8226 467.589 98.3789 473.364 98.3789C477.575 98.3789 481.545 99.3414 485.274 101.266C489.124 103.071 492.493 105.597 495.38 108.846C498.268 112.094 500.553 115.884 502.238 120.215C503.922 124.546 504.764 129.117 504.764 133.93V178.684C504.764 180.729 503.742 182.293 501.696 183.376C499.771 184.459 497.606 185 495.2 185C493.034 185 490.929 184.459 488.884 183.376C486.838 182.293 485.816 180.729 485.816 178.684V133.93C485.816 131.644 485.335 129.358 484.372 127.072C483.41 124.786 482.086 122.801 480.402 121.117C478.718 119.312 476.793 117.869 474.627 116.786C472.462 115.703 470.116 115.162 467.589 115.162C465.424 115.162 463.258 115.583 461.093 116.425C459.048 117.267 457.183 118.53 455.499 120.215C453.935 121.779 452.671 123.764 451.709 126.17C450.746 128.456 450.265 131.042 450.265 133.93V178.684ZM533.218 99.4617C535.985 99.4617 538.271 100.063 540.075 101.266C541.88 102.349 542.782 103.793 542.782 105.597V178.684C542.782 180.248 541.88 181.692 540.075 183.015C538.271 184.338 535.985 185 533.218 185C530.451 185 528.165 184.338 526.36 183.015C524.676 181.692 523.834 180.248 523.834 178.684V105.597C523.834 103.793 524.676 102.349 526.36 101.266C528.165 100.063 530.451 99.4617 533.218 99.4617ZM533.218 58.1362C536.346 58.1362 538.932 59.0987 540.978 61.0236C543.143 62.9485 544.226 65.2945 544.226 68.0616C544.226 70.7083 543.143 73.0543 540.978 75.0995C538.932 77.0244 536.346 77.9869 533.218 77.9869C530.09 77.9869 527.443 77.0244 525.278 75.0995C523.232 73.0543 522.21 70.7083 522.21 68.0616C522.21 65.2945 523.232 62.9485 525.278 61.0236C527.443 59.0987 530.09 58.1362 533.218 58.1362ZM581.373 156.848C581.373 161.179 582.275 164.247 584.079 166.052C586.004 167.856 589.313 168.759 594.005 168.759H600.321C603.088 168.759 605.133 169.601 606.457 171.285C607.78 172.969 608.442 174.834 608.442 176.879C608.442 178.924 607.78 180.789 606.457 182.474C605.133 184.158 603.088 185 600.321 185H594.005C583.658 185 575.778 182.774 570.364 178.323C565.071 173.872 562.424 166.713 562.424 156.848V66.4374C562.424 64.6328 563.387 63.1891 565.312 62.1064C567.357 60.9033 569.522 60.3018 571.808 60.3018C574.214 60.3018 576.38 60.9033 578.305 62.1064C580.35 63.1891 581.373 64.6328 581.373 66.4374V99.4617H603.389C605.073 99.4617 606.336 100.184 607.178 101.627C608.141 103.071 608.622 104.695 608.622 106.5C608.622 108.304 608.141 109.928 607.178 111.372C606.336 112.816 605.073 113.538 603.389 113.538H581.373V156.848ZM692.229 70.0466C690.184 70.0466 688.62 69.2045 687.537 67.5202C686.454 65.8359 685.913 63.7907 685.913 61.3845C685.913 59.3393 686.394 57.4746 687.356 55.7903C688.319 53.9857 689.943 53.0834 692.229 53.0834H723.99C726.035 53.0834 727.96 53.6247 729.765 54.7075C731.569 55.7903 732.472 57.3542 732.472 59.3995V145.84C732.472 153.179 731.389 159.435 729.223 164.608C727.178 169.661 724.351 173.811 720.742 177.06C717.132 180.188 712.861 182.474 707.929 183.917C703.117 185.361 697.943 186.083 692.409 186.083C686.394 186.083 680.86 185.301 675.807 183.737C670.754 182.052 666.423 179.706 662.814 176.699C659.205 173.691 656.377 170.082 654.332 165.871C652.287 161.66 651.264 156.908 651.264 151.615C651.264 148.006 652.046 145.599 653.61 144.396C655.295 143.073 657.761 142.411 661.009 142.411C663.415 142.411 665.521 142.893 667.325 143.855C669.25 144.697 670.273 146.321 670.393 148.727C670.513 151.494 670.934 154.081 671.656 156.487C672.498 158.893 673.762 161.059 675.446 162.984C677.251 164.909 679.476 166.413 682.123 167.495C684.77 168.578 687.958 169.119 691.687 169.119C698.545 169.119 703.838 167.255 707.568 163.525C711.418 159.675 713.343 153.78 713.343 145.84V70.0466H692.229ZM772.944 178.684C772.944 180.248 771.982 181.692 770.057 183.015C768.132 184.338 765.906 185 763.38 185C760.613 185 758.327 184.338 756.522 183.015C754.838 181.692 753.996 180.248 753.996 178.684V54.7075C753.996 52.9029 754.838 51.4592 756.522 50.3764C758.327 49.1734 760.613 48.5718 763.38 48.5718C765.906 48.5718 768.132 49.1734 770.057 50.3764C771.982 51.4592 772.944 52.9029 772.944 54.7075V112.094C774.628 108.605 777.456 105.477 781.426 102.71C785.396 99.8226 790.268 98.3789 796.043 98.3789C800.254 98.3789 804.224 99.3414 807.953 101.266C811.803 103.071 815.172 105.597 818.059 108.846C820.947 112.094 823.232 115.884 824.917 120.215C826.601 124.546 827.443 129.117 827.443 133.93V178.684C827.443 180.729 826.421 182.293 824.375 183.376C822.45 184.459 820.285 185 817.879 185C815.713 185 813.608 184.459 811.563 183.376C809.517 182.293 808.495 180.729 808.495 178.684V133.93C808.495 131.644 808.014 129.358 807.051 127.072C806.089 124.786 804.765 122.801 803.081 121.117C801.397 119.312 799.472 117.869 797.306 116.786C795.141 115.703 792.795 115.162 790.268 115.162C788.103 115.162 785.937 115.583 783.772 116.425C781.726 117.267 779.862 118.53 778.177 120.215C776.613 121.779 775.35 123.764 774.388 126.17C773.425 128.456 772.944 131.042 772.944 133.93V178.684ZM873.762 98.3789C880.379 98.3789 885.973 99.4016 890.545 101.447C895.237 103.372 899.027 105.958 901.914 109.207C904.801 112.455 906.907 116.184 908.23 120.395C909.554 124.606 910.215 128.937 910.215 133.388V178.684C910.215 180.368 909.313 181.872 907.508 183.195C905.824 184.398 903.659 185 901.012 185C898.606 185 896.56 184.398 894.876 183.195C893.192 181.872 892.35 180.368 892.35 178.684V172.368C889.222 176.097 885.432 179.406 880.981 182.293C876.529 185.06 871.236 186.444 865.1 186.444C861.852 186.444 858.724 185.962 855.716 185C852.829 184.038 850.302 182.594 848.137 180.669C845.971 178.624 844.227 176.157 842.904 173.27C841.7 170.262 841.099 166.713 841.099 162.623C841.099 157.57 842.122 153.359 844.167 149.991C846.212 146.622 849.099 143.975 852.829 142.05C856.558 140.125 861.01 138.802 866.183 138.08C871.356 137.238 877.071 136.817 883.327 136.817H891.267V133.569C891.267 131.283 890.966 128.997 890.365 126.711C889.763 124.305 888.74 122.2 887.297 120.395C885.853 118.47 883.988 116.966 881.703 115.884C879.417 114.681 876.65 114.079 873.401 114.079C870.153 114.079 867.446 114.38 865.281 114.981C863.115 115.463 861.31 116.064 859.867 116.786C858.423 117.508 857.16 118.169 856.077 118.771C855.115 119.252 854.212 119.493 853.37 119.493C851.084 119.493 849.34 118.47 848.137 116.425C847.054 114.259 846.513 112.094 846.513 109.928C846.513 108.364 847.355 106.861 849.039 105.417C850.723 103.973 852.889 102.77 855.536 101.808C858.183 100.725 861.07 99.8828 864.198 99.2812C867.446 98.6797 870.634 98.3789 873.762 98.3789ZM891.267 147.284H886.755C883.267 147.284 879.898 147.464 876.65 147.825C873.522 148.066 870.755 148.667 868.348 149.63C865.942 150.472 863.957 151.735 862.393 153.419C860.95 155.104 860.228 157.39 860.228 160.277C860.228 164.367 861.31 167.375 863.476 169.3C865.762 171.105 868.589 172.007 871.958 172.007C874.243 172.007 876.529 171.465 878.815 170.383C881.101 169.3 883.146 167.916 884.951 166.232C886.876 164.548 888.38 162.623 889.462 160.457C890.665 158.292 891.267 156.126 891.267 153.961V147.284ZM936.375 164.427C939.262 164.427 941.729 165.51 943.774 167.676C945.939 169.721 947.022 172.247 947.022 175.255C947.022 178.142 945.939 180.669 943.774 182.834C941.729 185 939.262 186.083 936.375 186.083C933.247 186.083 930.66 185 928.615 182.834C926.57 180.669 925.547 178.142 925.547 175.255C925.547 172.247 926.57 169.721 928.615 167.676C930.66 165.51 933.247 164.427 936.375 164.427Z" fill="black"/>
<path d="M27.5323 183.558C26.5429 183.558 25.8284 183.119 25.3886 182.239C24.9489 181.305 24.7291 180.288 24.7291 179.188C24.7291 178.089 24.9489 177.1 25.3886 176.22C25.8284 175.286 26.5429 174.819 27.5323 174.819H82.1143C83.0487 174.819 83.7632 175.286 84.2579 176.22C84.7526 177.1 85 178.089 85 179.188C85 180.288 84.7526 181.305 84.2579 182.239C83.7632 183.119 83.0487 183.558 82.1143 183.558H27.5323Z" fill="black"/>
<path d="M45.424 136.015C45.424 132.992 45.8912 130.436 46.8256 128.347C47.7051 126.204 48.8869 124.472 50.371 123.153C51.8551 121.834 53.5591 120.872 55.4829 120.267C57.4067 119.663 59.3855 119.36 61.4193 119.36H82.1143C82.8838 119.36 83.5709 119.773 84.1755 120.597C84.7252 121.367 85 122.356 85 123.565C85 124.665 84.7252 125.599 84.1755 126.369C83.5709 127.138 82.8838 127.523 82.1143 127.523H79.2285C80.9325 128.952 82.4441 130.684 83.7632 132.717C85.0275 134.751 85.6596 137.17 85.6596 139.973C85.6596 141.457 85.4397 142.886 85 144.26C84.5603 145.579 83.9007 146.734 83.0212 147.723C82.0868 148.713 80.9599 149.51 79.6407 150.114C78.2666 150.664 76.6451 150.939 74.7762 150.939C72.4676 150.939 70.5438 150.472 69.0047 149.537C67.4656 148.603 66.2564 147.283 65.3769 145.579C64.4974 143.876 63.8928 141.842 63.563 139.478C63.1782 137.115 62.9858 134.504 62.9858 131.645V128.018H61.5017C60.4574 128.018 59.413 128.155 58.3686 128.43C57.2693 128.705 56.3074 129.172 55.4829 129.832C54.6034 130.491 53.9163 131.343 53.4216 132.388C52.872 133.432 52.5972 134.696 52.5972 136.18C52.5972 137.664 52.7346 138.901 53.0094 139.89C53.2293 140.88 53.5041 141.704 53.8339 142.364C54.1637 143.024 54.466 143.601 54.7408 144.095C54.9607 144.535 55.0707 144.947 55.0707 145.332C55.0707 146.377 54.6034 147.174 53.669 147.723C52.6796 148.218 51.6902 148.465 50.7008 148.465C49.9862 148.465 49.2991 148.08 48.6396 147.311C47.98 146.541 47.4303 145.552 46.9905 144.343C46.4958 143.133 46.1111 141.814 45.8362 140.385C45.5614 138.901 45.424 137.444 45.424 136.015ZM67.768 128.018V130.079C67.768 131.673 67.8504 133.212 68.0153 134.696C68.1252 136.125 68.4001 137.389 68.8398 138.489C69.2246 139.588 69.8017 140.495 70.5712 141.21C71.3408 141.869 72.3851 142.199 73.7043 142.199C75.5732 142.199 76.9474 141.704 77.8268 140.715C78.6513 139.671 79.0636 138.379 79.0636 136.84C79.0636 135.795 78.8162 134.751 78.3216 133.707C77.8269 132.662 77.1947 131.728 76.4252 130.903C75.6557 130.024 74.7762 129.337 73.7868 128.842C72.7974 128.292 71.808 128.018 70.8186 128.018H67.768ZM61.5842 86.5485C59.0008 86.5485 56.9395 87.3181 55.4004 88.8571C53.8614 90.3962 53.0918 92.1826 53.0918 94.2164C53.0918 95.2058 53.2842 96.1677 53.669 97.1021C53.9988 97.9816 54.5485 98.7786 55.318 99.4932C56.0326 100.208 56.9395 100.785 58.0388 101.225C59.0832 101.664 60.2925 101.884 61.6666 101.884H82.1143C82.8288 101.884 83.4884 102.324 84.093 103.203C84.6977 104.083 85 105.1 85 106.254C85 107.518 84.6977 108.563 84.093 109.387C83.4884 110.157 82.8288 110.541 82.1143 110.541H48.722C47.8975 110.541 47.2379 110.157 46.7432 109.387C46.1935 108.563 45.9187 107.518 45.9187 106.254C45.9187 105.21 46.1935 104.303 46.7432 103.533C47.2379 102.764 47.8975 102.379 48.722 102.379H51.6902C50.0962 101.444 48.667 100.098 47.4028 98.3389C46.0836 96.525 45.424 94.2164 45.424 91.4131C45.424 88.9396 46.1935 86.7684 47.7326 84.8995C49.2167 82.9757 51.1955 81.5466 53.669 80.6121C50.8657 79.183 48.8044 77.3691 47.4853 75.1704C46.1111 72.9168 45.424 70.5807 45.424 68.1622C45.424 66.2933 45.7813 64.5069 46.4959 62.8029C47.2104 61.044 48.2548 59.5049 49.6289 58.1857C51.0031 56.8665 52.7071 55.8222 54.7408 55.0526C56.7746 54.2281 59.0832 53.8159 61.6666 53.8159H82.1143C82.8288 53.8159 83.4884 54.2556 84.093 55.1351C84.6977 55.9596 85 56.9765 85 58.1857C85 59.2851 84.6977 60.2745 84.093 61.1539C83.4884 62.0334 82.8288 62.4731 82.1143 62.4731H61.6666C60.2375 62.4731 59.0008 62.693 57.9564 63.1327C56.8571 63.5725 55.9501 64.1496 55.2355 64.8642C54.466 65.5787 53.9163 66.4032 53.5866 67.3377C53.2018 68.2721 53.0094 69.2065 53.0094 70.141C53.0094 71.1304 53.2018 72.0923 53.5866 73.0267C53.9713 73.9062 54.521 74.7307 55.2355 75.5002C55.9501 76.2148 56.8571 76.7919 57.9564 77.2317C59.0008 77.6714 60.1825 77.8913 61.5017 77.8913H82.1967C83.1861 77.8913 83.9007 78.3585 84.3404 79.2929C84.7801 80.1724 85 81.1618 85 82.2611C85 83.2505 84.7801 84.2124 84.3404 85.1469C83.9007 86.0813 83.1861 86.5485 82.1967 86.5485H61.5842Z" fill="#F2AE30"/>
<path d="M484.697 217.963H493.649V220H482.193V201.109H484.697V217.963ZM498.722 220H496.322V205.962H498.722V220ZM496.127 202.238C496.127 201.849 496.244 201.52 496.477 201.252C496.72 200.984 497.074 200.85 497.541 200.85C498.008 200.85 498.363 200.984 498.605 201.252C498.847 201.52 498.968 201.849 498.968 202.238C498.968 202.627 498.847 202.952 498.605 203.211C498.363 203.471 498.008 203.6 497.541 203.6C497.074 203.6 496.72 203.471 496.477 203.211C496.244 202.952 496.127 202.627 496.127 202.238ZM504.833 205.962L504.898 207.519C505.927 206.308 507.315 205.702 509.062 205.702C511.026 205.702 512.362 206.455 513.072 207.96C513.539 207.285 514.144 206.74 514.888 206.325C515.64 205.91 516.527 205.702 517.548 205.702C520.627 205.702 522.193 207.333 522.244 210.594V220H519.844V210.736C519.844 209.733 519.615 208.985 519.157 208.492C518.698 207.99 517.928 207.739 516.847 207.739C515.956 207.739 515.217 208.007 514.628 208.544C514.04 209.071 513.699 209.785 513.604 210.684V220H511.19V210.801C511.19 208.76 510.191 207.739 508.193 207.739C506.619 207.739 505.542 208.41 504.963 209.75V220H502.562V205.962H504.833ZM528.485 220H526.085V205.962H528.485V220ZM525.89 202.238C525.89 201.849 526.007 201.52 526.241 201.252C526.483 200.984 526.837 200.85 527.304 200.85C527.771 200.85 528.126 200.984 528.368 201.252C528.61 201.52 528.732 201.849 528.732 202.238C528.732 202.627 528.61 202.952 528.368 203.211C528.126 203.471 527.771 203.6 527.304 203.6C526.837 203.6 526.483 203.471 526.241 203.211C526.007 202.952 525.89 202.627 525.89 202.238ZM535.595 202.563V205.962H538.216V207.817H535.595V216.523C535.595 217.085 535.712 217.509 535.945 217.794C536.179 218.071 536.577 218.21 537.139 218.21C537.416 218.21 537.796 218.158 538.281 218.054V220C537.649 220.173 537.035 220.259 536.438 220.259C535.366 220.259 534.557 219.935 534.012 219.286C533.467 218.638 533.195 217.717 533.195 216.523V207.817H530.639V205.962H533.195V202.563H535.595ZM549.205 216.276C549.205 215.628 548.959 215.126 548.466 214.771C547.981 214.408 547.129 214.097 545.91 213.837C544.699 213.578 543.734 213.266 543.016 212.903C542.307 212.54 541.779 212.107 541.433 211.606C541.096 211.104 540.927 210.507 540.927 209.815C540.927 208.665 541.412 207.692 542.381 206.896C543.358 206.1 544.604 205.702 546.117 205.702C547.709 205.702 548.997 206.113 549.984 206.935C550.978 207.757 551.476 208.807 551.476 210.088H549.062C549.062 209.43 548.781 208.864 548.219 208.388C547.665 207.912 546.965 207.674 546.117 207.674C545.244 207.674 544.56 207.865 544.067 208.245C543.574 208.626 543.328 209.123 543.328 209.737C543.328 210.317 543.557 210.754 544.015 211.048C544.474 211.342 545.3 211.623 546.493 211.891C547.696 212.159 548.669 212.479 549.413 212.851C550.157 213.223 550.706 213.673 551.06 214.2C551.424 214.719 551.605 215.355 551.605 216.108C551.605 217.362 551.104 218.37 550.1 219.131C549.097 219.883 547.795 220.259 546.195 220.259C545.071 220.259 544.076 220.061 543.211 219.663C542.346 219.265 541.667 218.711 541.174 218.002C540.69 217.284 540.447 216.51 540.447 215.68H542.848C542.891 216.484 543.211 217.124 543.808 217.6C544.413 218.067 545.209 218.3 546.195 218.3C547.103 218.3 547.83 218.119 548.375 217.755C548.928 217.384 549.205 216.89 549.205 216.276ZM564.58 202.563V205.962H567.2V207.817H564.58V216.523C564.58 217.085 564.696 217.509 564.93 217.794C565.164 218.071 565.561 218.21 566.124 218.21C566.4 218.21 566.781 218.158 567.265 218.054V220C566.634 220.173 566.02 220.259 565.423 220.259C564.35 220.259 563.542 219.935 562.997 219.286C562.452 218.638 562.179 217.717 562.179 216.523V207.817H559.623V205.962H562.179V202.563H564.58ZM575.841 220.259C573.938 220.259 572.39 219.637 571.197 218.391C570.003 217.137 569.406 215.463 569.406 213.37V212.929C569.406 211.536 569.67 210.295 570.198 209.205C570.734 208.107 571.478 207.251 572.429 206.636C573.389 206.014 574.427 205.702 575.543 205.702C577.368 205.702 578.787 206.303 579.799 207.506C580.811 208.708 581.317 210.429 581.317 212.67V213.669H571.806C571.841 215.052 572.243 216.173 573.013 217.029C573.791 217.877 574.777 218.3 575.971 218.3C576.819 218.3 577.537 218.127 578.125 217.781C578.713 217.435 579.228 216.977 579.669 216.406L581.135 217.548C579.959 219.356 578.194 220.259 575.841 220.259ZM575.543 207.674C574.574 207.674 573.761 208.029 573.104 208.738C572.446 209.439 572.04 210.425 571.884 211.696H578.916V211.515C578.847 210.295 578.518 209.352 577.93 208.686C577.342 208.012 576.546 207.674 575.543 207.674ZM586.377 205.962L586.454 207.726C587.527 206.377 588.928 205.702 590.658 205.702C593.625 205.702 595.121 207.376 595.147 210.723V220H592.747V210.71C592.738 209.698 592.505 208.95 592.046 208.466C591.597 207.981 590.892 207.739 589.931 207.739C589.153 207.739 588.47 207.947 587.882 208.362C587.293 208.777 586.835 209.322 586.506 209.997V220H584.106V205.962H586.377ZM598.183 212.864C598.183 210.71 598.693 208.98 599.714 207.674C600.735 206.36 602.071 205.702 603.723 205.702C605.367 205.702 606.668 206.265 607.628 207.389V200.071H610.029V220H607.823L607.706 218.495C606.746 219.671 605.41 220.259 603.697 220.259C602.071 220.259 600.743 219.593 599.714 218.261C598.693 216.929 598.183 215.191 598.183 213.046V212.864ZM600.583 213.137C600.583 214.728 600.912 215.974 601.569 216.873C602.227 217.773 603.135 218.223 604.294 218.223C605.816 218.223 606.928 217.539 607.628 216.173V209.724C606.911 208.401 605.808 207.739 604.32 207.739C603.144 207.739 602.227 208.193 601.569 209.102C600.912 210.01 600.583 211.355 600.583 213.137ZM613.688 223.763L612.325 222.828C613.138 221.695 613.562 220.528 613.597 219.325V217.159H615.945V219.04C615.945 219.914 615.729 220.787 615.296 221.661C614.872 222.534 614.336 223.235 613.688 223.763ZM628.621 220H626.13V201.109H628.621V220ZM642.01 220H639.61V200.071H642.01V220ZM648.472 220H646.071V205.962H648.472V220ZM645.877 202.238C645.877 201.849 645.994 201.52 646.227 201.252C646.469 200.984 646.824 200.85 647.291 200.85C647.758 200.85 648.113 200.984 648.355 201.252C648.597 201.52 648.718 201.849 648.718 202.238C648.718 202.627 648.597 202.952 648.355 203.211C648.113 203.471 647.758 203.6 647.291 203.6C646.824 203.6 646.469 203.471 646.227 203.211C645.994 202.952 645.877 202.627 645.877 202.238ZM656.243 213.5L654.738 215.07V220H652.338V200.071H654.738V212.125L656.023 210.581L660.395 205.962H663.314L657.852 211.826L663.95 220H661.135L656.243 213.5ZM671.358 220.259C669.456 220.259 667.907 219.637 666.714 218.391C665.52 217.137 664.923 215.463 664.923 213.37V212.929C664.923 211.536 665.187 210.295 665.715 209.205C666.251 208.107 666.995 207.251 667.946 206.636C668.906 206.014 669.944 205.702 671.06 205.702C672.885 205.702 674.304 206.303 675.316 207.506C676.328 208.708 676.834 210.429 676.834 212.67V213.669H667.323C667.358 215.052 667.76 216.173 668.53 217.029C669.308 217.877 670.295 218.3 671.488 218.3C672.336 218.3 673.054 218.127 673.642 217.781C674.23 217.435 674.745 216.977 675.186 216.406L676.652 217.548C675.476 219.356 673.711 220.259 671.358 220.259ZM671.06 207.674C670.091 207.674 669.278 208.029 668.621 208.738C667.963 209.439 667.557 210.425 667.401 211.696H674.433V211.515C674.364 210.295 674.035 209.352 673.447 208.686C672.859 208.012 672.063 207.674 671.06 207.674ZM689.471 202.563V205.962H692.091V207.817H689.471V216.523C689.471 217.085 689.587 217.509 689.821 217.794C690.054 218.071 690.452 218.21 691.015 218.21C691.291 218.21 691.672 218.158 692.156 218.054V220C691.525 220.173 690.911 220.259 690.314 220.259C689.241 220.259 688.433 219.935 687.888 219.286C687.343 218.638 687.07 217.717 687.07 216.523V207.817H684.514V205.962H687.07V202.563H689.471ZM694.012 212.851C694.012 211.476 694.28 210.239 694.816 209.14C695.361 208.042 696.113 207.194 697.074 206.598C698.042 206.001 699.145 205.702 700.382 205.702C702.294 205.702 703.837 206.364 705.014 207.687C706.199 209.011 706.791 210.771 706.791 212.968V213.137C706.791 214.503 706.527 215.731 706 216.821C705.481 217.902 704.733 218.746 703.755 219.351C702.787 219.957 701.671 220.259 700.408 220.259C698.505 220.259 696.961 219.598 695.776 218.274C694.6 216.951 694.012 215.199 694.012 213.02V212.851ZM696.425 213.137C696.425 214.693 696.784 215.943 697.502 216.886C698.228 217.829 699.197 218.3 700.408 218.3C701.628 218.3 702.596 217.825 703.314 216.873C704.032 215.913 704.391 214.572 704.391 212.851C704.391 211.312 704.023 210.066 703.288 209.115C702.562 208.154 701.593 207.674 700.382 207.674C699.197 207.674 698.241 208.146 697.515 209.089C696.788 210.031 696.425 211.381 696.425 213.137ZM728.277 213.137C728.277 215.282 727.784 217.007 726.798 218.313C725.812 219.611 724.488 220.259 722.828 220.259C721.054 220.259 719.683 219.632 718.715 218.378L718.598 220H716.392V200.071H718.793V207.506C719.761 206.303 721.098 205.702 722.802 205.702C724.506 205.702 725.842 206.347 726.811 207.635C727.788 208.924 728.277 210.689 728.277 212.929V213.137ZM725.877 212.864C725.877 211.229 725.561 209.967 724.929 209.076C724.298 208.185 723.39 207.739 722.205 207.739C720.622 207.739 719.485 208.474 718.793 209.945V216.017C719.528 217.487 720.674 218.223 722.231 218.223C723.381 218.223 724.276 217.777 724.916 216.886C725.556 215.995 725.877 214.655 725.877 212.864ZM737.138 220.259C735.235 220.259 733.687 219.637 732.493 218.391C731.3 217.137 730.703 215.463 730.703 213.37V212.929C730.703 211.536 730.967 210.295 731.494 209.205C732.031 208.107 732.775 207.251 733.726 206.636C734.686 206.014 735.724 205.702 736.84 205.702C738.665 205.702 740.083 206.303 741.095 207.506C742.107 208.708 742.613 210.429 742.613 212.67V213.669H733.103C733.138 215.052 733.54 216.173 734.31 217.029C735.088 217.877 736.074 218.3 737.268 218.3C738.116 218.3 738.834 218.127 739.422 217.781C740.01 217.435 740.525 216.977 740.966 216.406L742.432 217.548C741.255 219.356 739.491 220.259 737.138 220.259ZM736.84 207.674C735.871 207.674 735.058 208.029 734.401 208.738C733.743 209.439 733.337 210.425 733.181 211.696H740.213V211.515C740.144 210.295 739.815 209.352 739.227 208.686C738.639 208.012 737.843 207.674 736.84 207.674ZM751.358 212.851C751.358 211.476 751.626 210.239 752.163 209.14C752.707 208.042 753.46 207.194 754.42 206.598C755.389 206.001 756.492 205.702 757.729 205.702C759.64 205.702 761.184 206.364 762.36 207.687C763.545 209.011 764.138 210.771 764.138 212.968V213.137C764.138 214.503 763.874 215.731 763.346 216.821C762.827 217.902 762.079 218.746 761.102 219.351C760.133 219.957 759.017 220.259 757.754 220.259C755.852 220.259 754.308 219.598 753.123 218.274C751.946 216.951 751.358 215.199 751.358 213.02V212.851ZM753.771 213.137C753.771 214.693 754.13 215.943 754.848 216.886C755.575 217.829 756.544 218.3 757.754 218.3C758.974 218.3 759.943 217.825 760.661 216.873C761.379 215.913 761.738 214.572 761.738 212.851C761.738 211.312 761.37 210.066 760.635 209.115C759.908 208.154 758.939 207.674 757.729 207.674C756.544 207.674 755.588 208.146 754.861 209.089C754.135 210.031 753.771 211.381 753.771 213.137ZM769.418 205.962L769.496 207.726C770.569 206.377 771.97 205.702 773.7 205.702C776.667 205.702 778.163 207.376 778.189 210.723V220H775.789V210.71C775.78 209.698 775.547 208.95 775.088 208.466C774.638 207.981 773.933 207.739 772.973 207.739C772.195 207.739 771.512 207.947 770.923 208.362C770.335 208.777 769.877 209.322 769.548 209.997V220H767.148V205.962H769.418ZM791.656 202.563V205.962H794.277V207.817H791.656V216.523C791.656 217.085 791.773 217.509 792.007 217.794C792.24 218.071 792.638 218.21 793.2 218.21C793.477 218.21 793.858 218.158 794.342 218.054V220C793.711 220.173 793.097 220.259 792.5 220.259C791.427 220.259 790.618 219.935 790.074 219.286C789.529 218.638 789.256 217.717 789.256 216.523V207.817H786.7V205.962H789.256V202.563H791.656ZM799.493 207.661C800.557 206.355 801.941 205.702 803.645 205.702C806.611 205.702 808.108 207.376 808.134 210.723V220H805.734V210.71C805.725 209.698 805.491 208.95 805.033 208.466C804.583 207.981 803.878 207.739 802.918 207.739C802.14 207.739 801.456 207.947 800.868 208.362C800.28 208.777 799.822 209.322 799.493 209.997V220H797.093V200.071H799.493V207.661ZM817.553 220.259C815.65 220.259 814.102 219.637 812.908 218.391C811.715 217.137 811.118 215.463 811.118 213.37V212.929C811.118 211.536 811.382 210.295 811.909 209.205C812.446 208.107 813.189 207.251 814.141 206.636C815.101 206.014 816.139 205.702 817.255 205.702C819.08 205.702 820.498 206.303 821.51 207.506C822.522 208.708 823.028 210.429 823.028 212.67V213.669H813.518C813.553 215.052 813.955 216.173 814.725 217.029C815.503 217.877 816.489 218.3 817.683 218.3C818.531 218.3 819.248 218.127 819.837 217.781C820.425 217.435 820.939 216.977 821.381 216.406L822.847 217.548C821.67 219.356 819.906 220.259 817.553 220.259ZM817.255 207.674C816.286 207.674 815.473 208.029 814.816 208.738C814.158 209.439 813.752 210.425 813.596 211.696H820.628V211.515C820.559 210.295 820.23 209.352 819.642 208.686C819.054 208.012 818.258 207.674 817.255 207.674ZM841.076 218.612C840.141 219.71 838.77 220.259 836.963 220.259C835.466 220.259 834.325 219.827 833.538 218.962C832.759 218.088 832.366 216.8 832.357 215.096V205.962H834.757V215.031C834.757 217.159 835.622 218.223 837.352 218.223C839.186 218.223 840.405 217.539 841.011 216.173V205.962H843.411V220H841.128L841.076 218.612ZM858.928 213.137C858.928 215.273 858.44 216.994 857.462 218.3C856.485 219.606 855.161 220.259 853.492 220.259C851.788 220.259 850.447 219.719 849.47 218.638V225.397H847.07V205.962H849.262L849.379 207.519C850.357 206.308 851.715 205.702 853.453 205.702C855.14 205.702 856.472 206.338 857.449 207.61C858.435 208.881 858.928 210.65 858.928 212.916V213.137ZM856.528 212.864C856.528 211.281 856.191 210.031 855.516 209.115C854.841 208.198 853.916 207.739 852.74 207.739C851.286 207.739 850.197 208.384 849.47 209.672V216.38C850.188 217.66 851.286 218.3 852.765 218.3C853.916 218.3 854.828 217.846 855.503 216.938C856.186 216.021 856.528 214.663 856.528 212.864ZM873.849 213.137C873.849 215.273 873.36 216.994 872.383 218.3C871.405 219.606 870.082 220.259 868.413 220.259C866.709 220.259 865.368 219.719 864.39 218.638V225.397H861.99V205.962H864.183L864.3 207.519C865.277 206.308 866.635 205.702 868.374 205.702C870.06 205.702 871.392 206.338 872.37 207.61C873.356 208.881 873.849 210.65 873.849 212.916V213.137ZM871.449 212.864C871.449 211.281 871.111 210.031 870.437 209.115C869.762 208.198 868.836 207.739 867.66 207.739C866.207 207.739 865.117 208.384 864.39 209.672V216.38C865.108 217.66 866.207 218.3 867.686 218.3C868.836 218.3 869.749 217.846 870.424 216.938C871.107 216.021 871.449 214.663 871.449 212.864ZM882.736 220.259C880.833 220.259 879.285 219.637 878.091 218.391C876.898 217.137 876.301 215.463 876.301 213.37V212.929C876.301 211.536 876.565 210.295 877.092 209.205C877.629 208.107 878.372 207.251 879.324 206.636C880.284 206.014 881.322 205.702 882.438 205.702C884.263 205.702 885.681 206.303 886.693 207.506C887.705 208.708 888.211 210.429 888.211 212.67V213.669H878.701C878.736 215.052 879.138 216.173 879.908 217.029C880.686 217.877 881.672 218.3 882.866 218.3C883.714 218.3 884.431 218.127 885.02 217.781C885.608 217.435 886.122 216.977 886.564 216.406L888.03 217.548C886.853 219.356 885.089 220.259 882.736 220.259ZM882.438 207.674C881.469 207.674 880.656 208.029 879.999 208.738C879.341 209.439 878.935 210.425 878.779 211.696H885.811V211.515C885.742 210.295 885.413 209.352 884.825 208.686C884.237 208.012 883.441 207.674 882.438 207.674ZM897.786 208.116C897.423 208.055 897.03 208.025 896.606 208.025C895.032 208.025 893.963 208.695 893.401 210.036V220H891.001V205.962H893.336L893.375 207.584C894.162 206.329 895.278 205.702 896.723 205.702C897.19 205.702 897.544 205.763 897.786 205.884V208.116ZM905.96 212.851C905.96 211.476 906.228 210.239 906.765 209.14C907.31 208.042 908.062 207.194 909.022 206.598C909.991 206.001 911.094 205.702 912.331 205.702C914.242 205.702 915.786 206.364 916.962 207.687C918.147 209.011 918.74 210.771 918.74 212.968V213.137C918.74 214.503 918.476 215.731 917.949 216.821C917.43 217.902 916.681 218.746 915.704 219.351C914.735 219.957 913.619 220.259 912.357 220.259C910.454 220.259 908.91 219.598 907.725 218.274C906.548 216.951 905.96 215.199 905.96 213.02V212.851ZM908.373 213.137C908.373 214.693 908.732 215.943 909.45 216.886C910.177 217.829 911.146 218.3 912.357 218.3C913.576 218.3 914.545 217.825 915.263 216.873C915.981 215.913 916.34 214.572 916.34 212.851C916.34 211.312 915.972 210.066 915.237 209.115C914.51 208.154 913.542 207.674 912.331 207.674C911.146 207.674 910.19 208.146 909.463 209.089C908.737 210.031 908.373 211.381 908.373 213.137ZM924.021 205.962L924.098 207.726C925.171 206.377 926.572 205.702 928.302 205.702C931.269 205.702 932.765 207.376 932.791 210.723V220H930.391V210.71C930.382 209.698 930.149 208.95 929.69 208.466C929.241 207.981 928.536 207.739 927.575 207.739C926.797 207.739 926.114 207.947 925.526 208.362C924.937 208.777 924.479 209.322 924.15 209.997V220H921.75V205.962H924.021ZM942.236 220.259C940.334 220.259 938.785 219.637 937.592 218.391C936.398 217.137 935.801 215.463 935.801 213.37V212.929C935.801 211.536 936.065 210.295 936.593 209.205C937.129 208.107 937.873 207.251 938.824 206.636C939.784 206.014 940.822 205.702 941.938 205.702C943.763 205.702 945.182 206.303 946.194 207.506C947.206 208.708 947.712 210.429 947.712 212.67V213.669H938.201C938.236 215.052 938.638 216.173 939.408 217.029C940.187 217.877 941.173 218.3 942.366 218.3C943.214 218.3 943.932 218.127 944.52 217.781C945.108 217.435 945.623 216.977 946.064 216.406L947.53 217.548C946.354 219.356 944.589 220.259 942.236 220.259ZM941.938 207.674C940.969 207.674 940.156 208.029 939.499 208.738C938.842 209.439 938.435 210.425 938.279 211.696H945.311V211.515C945.242 210.295 944.913 209.352 944.325 208.686C943.737 208.012 942.941 207.674 941.938 207.674ZM950.553 218.741C950.553 218.326 950.674 217.98 950.916 217.704C951.167 217.427 951.539 217.288 952.032 217.288C952.525 217.288 952.897 217.427 953.148 217.704C953.407 217.98 953.537 218.326 953.537 218.741C953.537 219.139 953.407 219.472 953.148 219.741C952.897 220.009 952.525 220.143 952.032 220.143C951.539 220.143 951.167 220.009 950.916 219.741C950.674 219.472 950.553 219.139 950.553 218.741Z" fill="#808080"/>
<path d="M9.92493 472.811L33.4591 482.322V489.691L2.7068 475.443V469.954L33.4591 455.743V463.112L9.92493 472.811ZM57.1775 479.766L58.2302 486.984L59.7716 480.48L70.5988 442.284H76.6891L87.2531 480.48L88.7569 487.097L89.9223 479.728L98.4186 442.284H105.674L92.4035 497.022H85.8245L74.5462 457.134L73.6815 452.961L72.8168 457.134L61.125 497.022H54.5459L41.3127 442.284H48.5308L57.1775 479.766ZM128.152 497.774C122.638 497.774 118.152 495.969 114.693 492.36C111.235 488.726 109.505 483.876 109.505 477.811V476.533C109.505 472.498 110.27 468.901 111.799 465.743C113.353 462.56 115.508 460.079 118.265 458.299C121.047 456.495 124.054 455.593 127.288 455.593C132.576 455.593 136.686 457.335 139.619 460.818C142.551 464.302 144.017 469.29 144.017 475.781V478.676H116.46C116.561 482.686 117.726 485.931 119.957 488.413C122.212 490.869 125.07 492.097 128.528 492.097C130.984 492.097 133.065 491.596 134.769 490.593C136.473 489.591 137.964 488.262 139.243 486.608L143.491 489.916C140.082 495.155 134.969 497.774 128.152 497.774ZM127.288 461.307C124.481 461.307 122.125 462.335 120.22 464.39C118.315 466.42 117.137 469.277 116.686 472.961H137.062V472.435C136.862 468.901 135.909 466.169 134.205 464.239C132.501 462.284 130.195 461.307 127.288 461.307ZM186.382 477.134C186.382 483.35 184.954 488.35 182.097 492.134C179.239 495.894 175.405 497.774 170.593 497.774C165.455 497.774 161.482 495.957 158.675 492.322L158.337 497.022H151.946V439.277H158.901V460.818C161.708 457.335 165.58 455.593 170.518 455.593C175.455 455.593 179.327 457.46 182.134 461.194C184.966 464.929 186.382 470.041 186.382 476.533V477.134ZM179.427 476.345C179.427 471.608 178.513 467.949 176.683 465.367C174.853 462.786 172.222 461.495 168.788 461.495C164.202 461.495 160.906 463.625 158.901 467.886V485.48C161.031 489.741 164.352 491.871 168.863 491.871C172.197 491.871 174.791 490.581 176.645 487.999C178.5 485.418 179.427 481.533 179.427 476.345ZM215.06 497.022V442.284H230.511C235.273 442.284 239.484 443.337 243.143 445.442C246.802 447.547 249.622 450.542 251.602 454.427C253.607 458.312 254.622 462.773 254.647 467.811V471.307C254.647 476.47 253.644 480.994 251.639 484.879C249.659 488.763 246.815 491.746 243.105 493.826C239.421 495.906 235.123 496.972 230.21 497.022H215.06ZM222.278 448.224V491.119H229.872C235.436 491.119 239.759 489.39 242.842 485.931C245.95 482.473 247.504 477.548 247.504 471.157V467.961C247.504 461.746 246.038 456.921 243.105 453.487C240.198 450.029 236.063 448.274 230.699 448.224H222.278ZM281.222 497.774C275.709 497.774 271.222 495.969 267.764 492.36C264.305 488.726 262.576 483.876 262.576 477.811V476.533C262.576 472.498 263.34 468.901 264.869 465.743C266.423 462.56 268.578 460.079 271.335 458.299C274.117 456.495 277.125 455.593 280.358 455.593C285.646 455.593 289.756 457.335 292.689 460.818C295.621 464.302 297.087 469.29 297.087 475.781V478.676H269.531C269.631 482.686 270.796 485.931 273.027 488.413C275.282 490.869 278.14 492.097 281.598 492.097C284.054 492.097 286.135 491.596 287.839 490.593C289.543 489.591 291.035 488.262 292.313 486.608L296.561 489.916C293.152 495.155 288.04 497.774 281.222 497.774ZM280.358 461.307C277.551 461.307 275.195 462.335 273.29 464.39C271.385 466.42 270.207 469.277 269.756 472.961H290.132V472.435C289.932 468.901 288.979 466.169 287.275 464.239C285.571 462.284 283.265 461.307 280.358 461.307ZM317.911 487.586L327.986 456.345H335.092L320.505 497.022H315.204L300.467 456.345H307.572L317.911 487.586ZM357.983 497.774C352.469 497.774 347.983 495.969 344.524 492.36C341.066 488.726 339.336 483.876 339.336 477.811V476.533C339.336 472.498 340.101 468.901 341.629 465.743C343.183 462.56 345.339 460.079 348.096 458.299C350.878 456.495 353.885 455.593 357.118 455.593C362.407 455.593 366.517 457.335 369.449 460.818C372.382 464.302 373.848 469.29 373.848 475.781V478.676H346.291C346.391 482.686 347.557 485.931 349.787 488.413C352.043 490.869 354.9 492.097 358.359 492.097C360.815 492.097 362.895 491.596 364.6 490.593C366.304 489.591 367.795 488.262 369.073 486.608L373.322 489.916C369.913 495.155 364.8 497.774 357.983 497.774ZM357.118 461.307C354.311 461.307 351.955 462.335 350.051 464.39C348.146 466.42 346.968 469.277 346.517 472.961H366.893V472.435C366.692 468.901 365.74 466.169 364.036 464.239C362.331 462.284 360.026 461.307 357.118 461.307ZM389.333 497.022H382.378V439.277H389.333V497.022ZM398.503 476.307C398.503 472.322 399.28 468.738 400.833 465.555C402.412 462.372 404.593 459.916 407.375 458.187C410.182 456.457 413.378 455.593 416.962 455.593C422.5 455.593 426.974 457.51 430.383 461.345C433.816 465.179 435.533 470.28 435.533 476.646V477.134C435.533 481.094 434.769 484.653 433.24 487.811C431.736 490.944 429.568 493.388 426.736 495.142C423.929 496.896 420.696 497.774 417.037 497.774C411.523 497.774 407.049 495.856 403.615 492.022C400.207 488.187 398.503 483.112 398.503 476.796V476.307ZM405.495 477.134C405.495 481.646 406.535 485.267 408.616 487.999C410.721 490.731 413.528 492.097 417.037 492.097C420.571 492.097 423.378 490.718 425.458 487.961C427.538 485.179 428.578 481.295 428.578 476.307C428.578 471.846 427.513 468.237 425.383 465.48C423.277 462.698 420.47 461.307 416.962 461.307C413.528 461.307 410.758 462.673 408.653 465.405C406.548 468.137 405.495 472.046 405.495 477.134ZM478.462 477.134C478.462 483.325 477.046 488.312 474.214 492.097C471.382 495.881 467.547 497.774 462.71 497.774C457.773 497.774 453.888 496.207 451.056 493.074V512.661H444.101V456.345H450.455L450.793 460.856C453.625 457.347 457.56 455.593 462.598 455.593C467.485 455.593 471.345 457.435 474.177 461.119C477.034 464.803 478.462 469.929 478.462 476.495V477.134ZM471.507 476.345C471.507 471.758 470.53 468.137 468.575 465.48C466.62 462.823 463.938 461.495 460.53 461.495C456.319 461.495 453.161 463.362 451.056 467.097V486.533C453.136 490.242 456.319 492.097 460.605 492.097C463.938 492.097 466.583 490.781 468.537 488.149C470.517 485.493 471.507 481.558 471.507 476.345ZM504.061 497.774C498.547 497.774 494.06 495.969 490.602 492.36C487.143 488.726 485.414 483.876 485.414 477.811V476.533C485.414 472.498 486.178 468.901 487.707 465.743C489.261 462.56 491.416 460.079 494.173 458.299C496.955 456.495 499.963 455.593 503.196 455.593C508.484 455.593 512.595 457.335 515.527 460.818C518.459 464.302 519.925 469.29 519.925 475.781V478.676H492.369C492.469 482.686 493.634 485.931 495.865 488.413C498.121 490.869 500.978 492.097 504.437 492.097C506.893 492.097 508.973 491.596 510.677 490.593C512.382 489.591 513.873 488.262 515.151 486.608L519.399 489.916C515.991 495.155 510.878 497.774 504.061 497.774ZM503.196 461.307C500.389 461.307 498.033 462.335 496.128 464.39C494.223 466.42 493.045 469.277 492.594 472.961H512.97V472.435C512.77 468.901 511.818 466.169 510.113 464.239C508.409 462.284 506.103 461.307 503.196 461.307ZM547.516 462.585C546.464 462.41 545.323 462.322 544.095 462.322C539.534 462.322 536.438 464.264 534.809 468.149V497.022H527.854V456.345H534.621L534.734 461.044C537.015 457.41 540.248 455.593 544.433 455.593C545.787 455.593 546.814 455.768 547.516 456.119V462.585ZM578.415 472.585L553.565 462.848V455.705L585.671 469.916V475.405L553.565 489.653V482.435L578.415 472.585Z" fill="black" fill-opacity="0.55"/>
<path d="M16.6681 303.385L31.5805 340.604L46.493 303.385H54.2939V349H48.2787V331.237L48.8427 312.063L33.8675 349H29.2622L14.3184 312.157L14.9137 331.237V349H8.89856V303.385H16.6681ZM90.0662 349C89.7321 348.332 89.4606 347.141 89.2517 345.429C86.5574 348.227 83.341 349.627 79.6024 349.627C76.2607 349.627 73.5142 348.687 71.363 346.807C69.2326 344.906 68.1675 342.505 68.1675 339.601C68.1675 336.072 69.5042 333.336 72.1775 331.393C74.8718 329.43 78.6521 328.448 83.5185 328.448H89.1577V325.785C89.1577 323.76 88.552 322.151 87.3406 320.961C86.1293 319.749 84.3435 319.144 81.9834 319.144C79.9157 319.144 78.1822 319.666 76.7829 320.71C75.3835 321.754 74.6838 323.018 74.6838 324.501H68.8567C68.8567 322.809 69.4519 321.18 70.6424 319.614C71.8538 318.026 73.4829 316.773 75.5297 315.854C77.5974 314.935 79.8635 314.476 82.328 314.476C86.2337 314.476 89.2935 315.457 91.5074 317.421C93.7213 319.363 94.87 322.047 94.9535 325.472V341.074C94.9535 344.186 95.3503 346.661 96.144 348.499V349H90.0662ZM80.4483 344.583C82.2654 344.583 83.9885 344.113 85.6176 343.173C87.2467 342.233 88.4267 341.011 89.1577 339.507V332.552H84.615C77.5139 332.552 73.9633 334.631 73.9633 338.787C73.9633 340.604 74.569 342.024 75.7803 343.048C76.9917 344.071 78.5477 344.583 80.4483 344.583ZM122.768 344.896C124.836 344.896 126.643 344.269 128.188 343.016C129.734 341.763 130.59 340.197 130.757 338.317H136.24C136.135 340.259 135.467 342.108 134.235 343.862C133.002 345.616 131.352 347.016 129.285 348.06C127.238 349.104 125.066 349.627 122.768 349.627C118.153 349.627 114.477 348.091 111.741 345.021C109.026 341.93 107.668 337.711 107.668 332.364V331.393C107.668 328.093 108.274 325.159 109.485 322.59C110.696 320.021 112.43 318.026 114.686 316.606C116.962 315.186 119.646 314.476 122.737 314.476C126.538 314.476 129.692 315.614 132.198 317.891C134.726 320.167 136.073 323.122 136.24 326.757H130.757C130.59 324.564 129.755 322.767 128.251 321.368C126.768 319.948 124.93 319.238 122.737 319.238C119.792 319.238 117.505 320.303 115.876 322.433C114.268 324.543 113.464 327.602 113.464 331.613V332.709C113.464 336.615 114.268 339.622 115.876 341.732C117.484 343.841 119.782 344.896 122.768 344.896ZM153.685 319.206C156.254 316.053 159.596 314.476 163.71 314.476C170.874 314.476 174.487 318.517 174.55 326.6V349H168.754V326.569C168.733 324.125 168.169 322.318 167.062 321.149C165.976 319.979 164.274 319.394 161.956 319.394C160.076 319.394 158.426 319.896 157.006 320.898C155.585 321.901 154.478 323.216 153.685 324.846V349H147.889V300.879H153.685V319.206ZM194.658 349H188.862V315.102H194.658V349ZM188.392 306.111C188.392 305.171 188.674 304.377 189.238 303.73C189.823 303.083 190.679 302.759 191.807 302.759C192.935 302.759 193.791 303.083 194.376 303.73C194.961 304.377 195.253 305.171 195.253 306.111C195.253 307.051 194.961 307.834 194.376 308.461C193.791 309.087 192.935 309.401 191.807 309.401C190.679 309.401 189.823 309.087 189.238 308.461C188.674 307.834 188.392 307.051 188.392 306.111ZM214.578 315.102L214.766 319.363C217.356 316.105 220.739 314.476 224.916 314.476C232.08 314.476 235.693 318.517 235.756 326.6V349H229.96V326.569C229.939 324.125 229.375 322.318 228.268 321.149C227.182 319.979 225.48 319.394 223.162 319.394C221.282 319.394 219.632 319.896 218.212 320.898C216.792 321.901 215.685 323.216 214.891 324.846V349H209.095V315.102H214.578ZM263.696 349.627C259.101 349.627 255.363 348.123 252.481 345.115C249.598 342.087 248.157 338.045 248.157 332.991V331.926C248.157 328.563 248.794 325.566 250.068 322.935C251.363 320.282 253.159 318.214 255.457 316.731C257.775 315.228 260.281 314.476 262.976 314.476C267.383 314.476 270.808 315.927 273.251 318.83C275.695 321.734 276.917 325.89 276.917 331.299V333.712H253.953C254.037 337.053 255.008 339.758 256.867 341.826C258.746 343.873 261.127 344.896 264.01 344.896C266.056 344.896 267.79 344.478 269.21 343.643C270.63 342.807 271.873 341.7 272.938 340.322L276.478 343.079C273.638 347.444 269.377 349.627 263.696 349.627ZM262.976 319.238C260.636 319.238 258.673 320.094 257.086 321.807C255.499 323.498 254.517 325.879 254.141 328.95H271.121V328.511C270.954 325.566 270.16 323.29 268.74 321.681C267.32 320.052 265.398 319.238 262.976 319.238ZM316.788 344.081H338.405V349H310.742V303.385H316.788V344.081ZM363.557 349.627C358.962 349.627 355.224 348.123 352.341 345.115C349.459 342.087 348.018 338.045 348.018 332.991V331.926C348.018 328.563 348.655 325.566 349.929 322.935C351.224 320.282 353.02 318.214 355.318 316.731C357.636 315.228 360.142 314.476 362.837 314.476C367.243 314.476 370.669 315.927 373.112 318.83C375.556 321.734 376.778 325.89 376.778 331.299V333.712H353.814C353.897 337.053 354.869 339.758 356.727 341.826C358.607 343.873 360.988 344.896 363.87 344.896C365.917 344.896 367.651 344.478 369.071 343.643C370.491 342.807 371.734 341.7 372.799 340.322L376.339 343.079C373.499 347.444 369.238 349.627 363.557 349.627ZM362.837 319.238C360.497 319.238 358.534 320.094 356.947 321.807C355.359 323.498 354.378 325.879 354.002 328.95H370.982V328.511C370.815 325.566 370.021 323.29 368.601 321.681C367.181 320.052 365.259 319.238 362.837 319.238ZM409.574 349C409.24 348.332 408.968 347.141 408.759 345.429C406.065 348.227 402.849 349.627 399.11 349.627C395.768 349.627 393.022 348.687 390.871 346.807C388.74 344.906 387.675 342.505 387.675 339.601C387.675 336.072 389.012 333.336 391.685 331.393C394.38 329.43 398.16 328.448 403.026 328.448H408.665V325.785C408.665 323.76 408.06 322.151 406.848 320.961C405.637 319.749 403.851 319.144 401.491 319.144C399.423 319.144 397.69 319.666 396.291 320.71C394.891 321.754 394.192 323.018 394.192 324.501H388.364C388.364 322.809 388.96 321.18 390.15 319.614C391.362 318.026 392.991 316.773 395.037 315.854C397.105 314.935 399.371 314.476 401.836 314.476C405.741 314.476 408.801 315.457 411.015 317.421C413.229 319.363 414.378 322.047 414.461 325.472V341.074C414.461 344.186 414.858 346.661 415.652 348.499V349H409.574ZM399.956 344.583C401.773 344.583 403.496 344.113 405.125 343.173C406.754 342.233 407.934 341.011 408.665 339.507V332.552H404.123C397.022 332.552 393.471 334.631 393.471 338.787C393.471 340.604 394.077 342.024 395.288 343.048C396.499 344.071 398.055 344.583 399.956 344.583ZM445.064 320.303C444.187 320.157 443.237 320.084 442.213 320.084C438.412 320.084 435.833 321.702 434.475 324.94V349H428.679V315.102H434.319L434.413 319.018C436.313 315.99 439.008 314.476 442.495 314.476C443.623 314.476 444.48 314.622 445.064 314.914V320.303ZM461.037 315.102L461.225 319.363C463.815 316.105 467.198 314.476 471.376 314.476C478.539 314.476 482.153 318.517 482.215 326.6V349H476.419V326.569C476.399 324.125 475.835 322.318 474.728 321.149C473.642 319.979 471.939 319.394 469.621 319.394C467.741 319.394 466.091 319.896 464.671 320.898C463.251 321.901 462.144 323.216 461.35 324.846V349H455.555V315.102H461.037ZM502.386 349H496.59V315.102H502.386V349ZM496.12 306.111C496.12 305.171 496.402 304.377 496.966 303.73C497.551 303.083 498.407 302.759 499.535 302.759C500.663 302.759 501.519 303.083 502.104 303.73C502.689 304.377 502.981 305.171 502.981 306.111C502.981 307.051 502.689 307.834 502.104 308.461C501.519 309.087 500.663 309.401 499.535 309.401C498.407 309.401 497.551 309.087 496.966 308.461C496.402 307.834 496.12 307.051 496.12 306.111ZM522.306 315.102L522.494 319.363C525.084 316.105 528.467 314.476 532.644 314.476C539.808 314.476 543.421 318.517 543.484 326.6V349H537.688V326.569C537.667 324.125 537.104 322.318 535.997 321.149C534.911 319.979 533.208 319.394 530.89 319.394C529.01 319.394 527.36 319.896 525.94 320.898C524.52 321.901 523.413 323.216 522.619 324.846V349H516.823V315.102H522.306ZM555.979 331.769C555.979 326.485 557.201 322.287 559.645 319.175C562.088 316.042 565.326 314.476 569.357 314.476C573.492 314.476 576.719 315.938 579.037 318.862L579.319 315.102H584.614V348.185C584.614 352.571 583.308 356.028 580.698 358.555C578.108 361.082 574.62 362.346 570.234 362.346C567.79 362.346 565.399 361.824 563.06 360.78C560.72 359.735 558.935 358.305 557.702 356.488L560.71 353.01C563.195 356.08 566.234 357.615 569.827 357.615C572.646 357.615 574.839 356.822 576.406 355.234C577.993 353.647 578.787 351.412 578.787 348.53V345.616C576.468 348.29 573.304 349.627 569.294 349.627C565.326 349.627 562.109 348.029 559.645 344.833C557.201 341.638 555.979 337.283 555.979 331.769ZM561.806 332.427C561.806 336.249 562.59 339.257 564.156 341.45C565.723 343.622 567.916 344.708 570.735 344.708C574.39 344.708 577.074 343.048 578.787 339.727V324.25C577.011 321.013 574.348 319.394 570.798 319.394C567.978 319.394 565.775 320.491 564.187 322.684C562.6 324.877 561.806 328.125 561.806 332.427ZM272.625 402.916H252.856V419.081H275.82V424H246.841V378.385H275.507V383.335H252.856V397.997H272.625V402.916ZM293.015 390.102L293.203 394.363C295.793 391.105 299.176 389.476 303.353 389.476C310.517 389.476 314.13 393.517 314.193 401.6V424H308.397V401.569C308.376 399.125 307.812 397.318 306.706 396.149C305.619 394.979 303.917 394.394 301.599 394.394C299.719 394.394 298.069 394.896 296.649 395.898C295.229 396.901 294.122 398.216 293.328 399.846V424H287.532V390.102H293.015ZM335.93 381.894V390.102H342.259V394.582H335.93V415.604C335.93 416.961 336.212 417.985 336.776 418.674C337.34 419.342 338.301 419.677 339.658 419.677C340.327 419.677 341.246 419.551 342.415 419.301V424C340.891 424.418 339.408 424.627 337.967 424.627C335.377 424.627 333.424 423.843 332.108 422.277C330.792 420.71 330.134 418.486 330.134 415.604V394.582H323.963V390.102H330.134V381.894H335.93ZM359.986 394.206C362.555 391.053 365.896 389.476 370.011 389.476C377.175 389.476 380.788 393.517 380.851 401.6V424H375.055V401.569C375.034 399.125 374.47 397.318 373.363 396.149C372.277 394.979 370.575 394.394 368.256 394.394C366.377 394.394 364.727 394.896 363.306 395.898C361.886 396.901 360.779 398.216 359.986 399.846V424H354.19V375.879H359.986V394.206ZM415.589 420.648C413.333 423.3 410.023 424.627 405.658 424.627C402.045 424.627 399.288 423.582 397.387 421.494C395.507 419.384 394.557 416.272 394.536 412.158V390.102H400.332V412.001C400.332 417.139 402.421 419.708 406.598 419.708C411.026 419.708 413.97 418.058 415.432 414.758V390.102H421.228V424H415.714L415.589 420.648ZM454.933 415.009C454.933 413.442 454.338 412.231 453.147 411.375C451.978 410.497 449.92 409.745 446.975 409.119C444.051 408.492 441.723 407.74 439.989 406.863C438.276 405.986 437.002 404.942 436.167 403.73C435.352 402.519 434.945 401.078 434.945 399.407C434.945 396.629 436.115 394.279 438.454 392.358C440.814 390.437 443.822 389.476 447.477 389.476C451.32 389.476 454.432 390.468 456.813 392.452C459.215 394.436 460.415 396.974 460.415 400.065H454.588C454.588 398.478 453.91 397.11 452.552 395.961C451.215 394.812 449.523 394.238 447.477 394.238C445.367 394.238 443.717 394.697 442.527 395.616C441.336 396.535 440.741 397.736 440.741 399.219C440.741 400.618 441.294 401.673 442.401 402.383C443.508 403.093 445.503 403.772 448.385 404.42C451.288 405.067 453.638 405.84 455.434 406.738C457.23 407.636 458.557 408.722 459.413 409.996C460.29 411.249 460.729 412.784 460.729 414.601C460.729 417.63 459.517 420.063 457.095 421.901C454.672 423.718 451.529 424.627 447.665 424.627C444.95 424.627 442.548 424.146 440.459 423.185C438.37 422.225 436.731 420.888 435.54 419.175C434.371 417.442 433.786 415.573 433.786 413.568H439.582C439.686 415.51 440.459 417.055 441.9 418.204C443.362 419.332 445.284 419.896 447.665 419.896C449.858 419.896 451.612 419.457 452.928 418.58C454.265 417.682 454.933 416.492 454.933 415.009ZM479.709 424H473.913V390.102H479.709V424ZM473.443 381.111C473.443 380.171 473.725 379.377 474.289 378.73C474.874 378.083 475.73 377.759 476.858 377.759C477.986 377.759 478.842 378.083 479.427 378.73C480.012 379.377 480.304 380.171 480.304 381.111C480.304 382.051 480.012 382.834 479.427 383.461C478.842 384.087 477.986 384.401 476.858 384.401C475.73 384.401 474.874 384.087 474.289 383.461C473.725 382.834 473.443 382.051 473.443 381.111ZM515.074 424C514.74 423.332 514.468 422.141 514.259 420.429C511.565 423.227 508.349 424.627 504.61 424.627C501.269 424.627 498.522 423.687 496.371 421.807C494.24 419.906 493.175 417.505 493.175 414.601C493.175 411.072 494.512 408.336 497.185 406.393C499.88 404.43 503.66 403.448 508.526 403.448H514.166V400.785C514.166 398.76 513.56 397.151 512.348 395.961C511.137 394.749 509.351 394.144 506.991 394.144C504.924 394.144 503.19 394.666 501.791 395.71C500.391 396.754 499.692 398.018 499.692 399.501H493.864C493.864 397.809 494.46 396.18 495.65 394.614C496.862 393.026 498.491 391.773 500.538 390.854C502.605 389.935 504.871 389.476 507.336 389.476C511.241 389.476 514.301 390.457 516.515 392.421C518.729 394.363 519.878 397.047 519.961 400.472V416.074C519.961 419.186 520.358 421.661 521.152 423.499V424H515.074ZM505.456 419.583C507.273 419.583 508.996 419.113 510.625 418.173C512.254 417.233 513.435 416.011 514.166 414.507V407.552H509.623C502.522 407.552 498.971 409.631 498.971 413.787C498.971 415.604 499.577 417.024 500.788 418.048C502 419.071 503.556 419.583 505.456 419.583ZM553.917 415.009C553.917 413.442 553.321 412.231 552.131 411.375C550.961 410.497 548.904 409.745 545.959 409.119C543.035 408.492 540.706 407.74 538.973 406.863C537.26 405.986 535.986 404.942 535.151 403.73C534.336 402.519 533.929 401.078 533.929 399.407C533.929 396.629 535.099 394.279 537.438 392.358C539.798 390.437 542.805 389.476 546.46 389.476C550.303 389.476 553.415 390.468 555.796 392.452C558.198 394.436 559.399 396.974 559.399 400.065H553.572C553.572 398.478 552.893 397.11 551.536 395.961C550.199 394.812 548.507 394.238 546.46 394.238C544.351 394.238 542.701 394.697 541.51 395.616C540.32 396.535 539.725 397.736 539.725 399.219C539.725 400.618 540.278 401.673 541.385 402.383C542.492 403.093 544.487 403.772 547.369 404.42C550.272 405.067 552.622 405.84 554.418 406.738C556.214 407.636 557.54 408.722 558.397 409.996C559.274 411.249 559.712 412.784 559.712 414.601C559.712 417.63 558.501 420.063 556.078 421.901C553.656 423.718 550.512 424.627 546.648 424.627C543.933 424.627 541.531 424.146 539.443 423.185C537.354 422.225 535.715 420.888 534.524 419.175C533.355 417.442 532.77 415.573 532.77 413.568H538.566C538.67 415.51 539.443 417.055 540.884 418.204C542.346 419.332 544.267 419.896 546.648 419.896C548.841 419.896 550.596 419.457 551.912 418.58C553.248 417.682 553.917 416.492 553.917 415.009ZM580.259 381.894V390.102H586.587V394.582H580.259V415.604C580.259 416.961 580.541 417.985 581.105 418.674C581.669 419.342 582.63 419.677 583.987 419.677C584.656 419.677 585.574 419.551 586.744 419.301V424C585.219 424.418 583.737 424.627 582.295 424.627C579.706 424.627 577.753 423.843 576.437 422.277C575.121 420.71 574.463 418.486 574.463 415.604V394.582H568.291V390.102H574.463V381.894H580.259Z" fill="black" fill-opacity="0.7"/>
<path d="M10.5734 426.126H5.15984V385.073H10.5734V426.126ZM22.4608 426.126H17.2446V382.818H22.4608V426.126ZM33.6151 426.126H28.3989V382.818H33.6151V426.126ZM57.9368 423.109C55.9067 425.497 52.9274 426.69 48.9987 426.69C45.7468 426.69 43.2656 425.75 41.555 423.871C39.8633 421.972 39.008 419.171 38.9892 415.468V395.618H44.2054V415.327C44.2054 419.951 46.0852 422.264 49.8446 422.264C53.8296 422.264 56.48 420.779 57.7958 417.809V395.618H63.0121V426.126H58.0496L57.9368 423.109ZM85.8394 418.034C85.8394 416.624 85.3037 415.534 84.2323 414.763C83.1796 413.974 81.3281 413.297 78.6777 412.733C76.0461 412.169 73.9502 411.493 72.39 410.703C70.8486 409.914 69.702 408.974 68.9501 407.884C68.217 406.793 67.8505 405.496 67.8505 403.993C67.8505 401.493 68.9031 399.378 71.0084 397.649C73.1325 395.919 75.8393 395.055 79.1288 395.055C82.5875 395.055 85.3883 395.947 87.5312 397.733C89.6929 399.519 90.7737 401.803 90.7737 404.585H85.5293C85.5293 403.156 84.9184 401.925 83.6965 400.891C82.4935 399.857 80.9709 399.34 79.1288 399.34C77.2303 399.34 75.7453 399.754 74.6739 400.581C73.6024 401.408 73.0667 402.489 73.0667 403.823C73.0667 405.083 73.5648 406.032 74.5611 406.671C75.5573 407.31 77.3525 407.921 79.9465 408.504C82.5593 409.087 84.674 409.782 86.2906 410.59C87.9071 411.399 89.1007 412.376 89.8714 413.523C90.6609 414.651 91.0557 416.032 91.0557 417.668C91.0557 420.393 89.9654 422.583 87.7849 424.237C85.6045 425.873 82.7755 426.69 79.298 426.69C76.8543 426.69 74.6927 426.258 72.8129 425.393C70.9332 424.529 69.4576 423.326 68.3862 421.784C67.3336 420.224 66.8072 418.542 66.8072 416.737H72.0235C72.1174 418.485 72.8129 419.876 74.11 420.91C75.4258 421.925 77.1551 422.433 79.298 422.433C81.2717 422.433 82.8507 422.038 84.0349 421.248C85.2379 420.44 85.8394 419.369 85.8394 418.034ZM102.041 388.231V395.618H107.736V399.65H102.041V418.57C102.041 419.792 102.295 420.713 102.802 421.333C103.31 421.935 104.174 422.235 105.396 422.235C105.998 422.235 106.825 422.123 107.877 421.897V426.126C106.505 426.502 105.17 426.69 103.873 426.69C101.543 426.69 99.7851 425.985 98.6009 424.576C97.4166 423.166 96.8245 421.164 96.8245 418.57V399.65H91.2699V395.618H96.8245V388.231H102.041ZM125.714 400.299C124.924 400.167 124.069 400.102 123.148 400.102C119.727 400.102 117.406 401.558 116.184 404.472V426.126H110.968V395.618H116.043L116.127 399.143C117.838 396.417 120.263 395.055 123.402 395.055C124.417 395.055 125.188 395.186 125.714 395.449V400.299ZM145.355 426.126C145.054 425.525 144.81 424.453 144.622 422.912C142.197 425.431 139.302 426.69 135.938 426.69C132.93 426.69 130.458 425.844 128.522 424.153C126.605 422.442 125.646 420.28 125.646 417.668C125.646 414.491 126.849 412.028 129.255 410.28C131.68 408.513 135.083 407.63 139.462 407.63H144.538V405.233C144.538 403.41 143.992 401.963 142.902 400.891C141.812 399.801 140.205 399.256 138.081 399.256C136.22 399.256 134.66 399.726 133.4 400.665C132.141 401.605 131.511 402.743 131.511 404.077H126.267C126.267 402.555 126.802 401.088 127.874 399.679C128.964 398.25 130.43 397.122 132.272 396.295C134.133 395.468 136.173 395.055 138.391 395.055C141.906 395.055 144.66 395.938 146.652 397.705C148.645 399.453 149.679 401.869 149.754 404.951V418.993C149.754 421.794 150.111 424.021 150.825 425.675V426.126H145.355ZM136.699 422.151C138.334 422.151 139.885 421.728 141.351 420.882C142.818 420.036 143.88 418.936 144.538 417.583V411.324H140.449C134.058 411.324 130.863 413.194 130.863 416.934C130.863 418.57 131.408 419.848 132.498 420.769C133.588 421.69 134.989 422.151 136.699 422.151ZM162.12 388.231V395.618H167.816V399.65H162.12V418.57C162.12 419.792 162.374 420.713 162.882 421.333C163.389 421.935 164.254 422.235 165.476 422.235C166.077 422.235 166.904 422.123 167.957 421.897V426.126C166.585 426.502 165.25 426.69 163.953 426.69C161.622 426.69 159.865 425.985 158.681 424.576C157.496 423.166 156.904 421.164 156.904 418.57V399.65H151.35V395.618H156.904V388.231H162.12ZM169.102 410.59C169.102 407.602 169.684 404.914 170.85 402.526C172.034 400.139 173.669 398.297 175.756 397C177.861 395.703 180.258 395.055 182.946 395.055C187.1 395.055 190.455 396.493 193.012 399.368C195.587 402.244 196.875 406.07 196.875 410.844V411.211C196.875 414.181 196.301 416.85 195.155 419.218C194.027 421.568 192.401 423.401 190.277 424.717C188.172 426.032 185.747 426.69 183.002 426.69C178.867 426.69 175.512 425.252 172.936 422.376C170.38 419.5 169.102 415.694 169.102 410.957V410.59ZM174.346 411.211C174.346 414.594 175.126 417.31 176.686 419.359C178.265 421.408 180.371 422.433 183.002 422.433C185.653 422.433 187.758 421.399 189.318 419.331C190.878 417.245 191.658 414.331 191.658 410.59C191.658 407.245 190.86 404.538 189.262 402.47C187.683 400.384 185.578 399.34 182.946 399.34C180.371 399.34 178.294 400.365 176.715 402.414C175.136 404.463 174.346 407.395 174.346 411.211ZM215.275 400.299C214.486 400.167 213.63 400.102 212.709 400.102C209.288 400.102 206.967 401.558 205.745 404.472V426.126H200.529V395.618H205.604L205.689 399.143C207.399 396.417 209.824 395.055 212.963 395.055C213.978 395.055 214.749 395.186 215.275 395.449V400.299Z" fill="black" fill-opacity="0.35"/>
</svg>
