<svg width="186" height="86" viewBox="0 0 186 86" fill="none" xmlns="http://www.w3.org/2000/svg">
<path d="M12.9179 3.28109C14.154 3.28109 15.2136 3.69314 16.0966 4.51724C16.9795 5.34134 17.421 6.31259 17.421 7.43101C17.421 8.54942 16.9795 9.55011 16.0966 10.4331C15.2136 11.2572 14.154 11.6692 12.9179 11.6692C11.6229 11.6692 10.5339 11.2572 9.65094 10.4331C8.76798 9.55011 8.3265 8.54942 8.3265 7.43101C8.3265 6.31259 8.76798 5.34134 9.65094 4.51724C10.5339 3.69314 11.6229 3.28109 12.9179 3.28109ZM12.9179 23.1477C13.9186 23.1477 14.7721 23.3832 15.4785 23.8541C16.2437 24.325 16.6263 24.943 16.6263 25.7083V68.5318C16.6263 71.0041 16.3909 73.241 15.92 75.2423C15.449 77.3026 14.7132 79.0685 13.7126 80.5401C12.7707 82.0117 11.5346 83.1595 10.0041 83.9836C8.47366 84.8077 6.64888 85.2198 4.52978 85.2198C3.11704 85.2198 2.14578 84.896 1.61601 84.2485C1.02737 83.601 0.733048 82.8652 0.733048 82.0411C0.733048 81.0404 1.02737 80.2458 1.61601 79.6571C2.20465 79.0685 2.91102 78.7742 3.73511 78.7742C4.97126 78.7742 5.94251 78.5093 6.64888 77.9795C7.41411 77.5086 7.97332 76.8022 8.3265 75.8604C8.73855 74.9774 9.00344 73.8885 9.12117 72.5935C9.2389 71.3573 9.29776 70.0034 9.29776 68.5318V25.7083C9.29776 24.943 9.62151 24.325 10.269 23.8541C10.9754 23.3832 11.8583 23.1477 12.9179 23.1477ZM106.689 11.316C106.689 11.8458 106.571 12.4639 106.336 13.1702C106.1 13.8178 105.806 14.4653 105.453 15.1128L80.3767 63.9404C79.9647 64.7645 79.17 65.1766 77.9927 65.1766C76.8155 65.1766 75.7559 64.8528 74.8141 64.2053C73.9311 63.5578 73.4896 62.7043 73.4896 61.6448C73.4896 61.115 73.6074 60.6146 73.8428 60.1437L99.2721 12.199V7.16612H76.0502V16.4372C76.0502 17.2024 75.6676 17.8499 74.9024 18.3797C74.196 18.8506 73.3425 19.0861 72.3418 19.0861C71.3411 19.0861 70.4581 18.8506 69.6929 18.3797C68.9865 17.8499 68.6334 17.2024 68.6334 16.4372V3.1045C68.6334 2.457 68.9865 1.86836 69.6929 1.33858C70.3993 0.749945 71.1645 0.455625 71.9886 0.455625H103.334C104.099 0.455625 104.835 0.749945 105.541 1.33858C106.306 1.86836 106.689 2.457 106.689 3.1045V11.316ZM128.586 50.1663H106.512C105.688 50.1663 105.011 49.9014 104.481 49.3716C104.01 48.8418 103.774 48.1355 103.774 47.2525C103.774 46.605 103.922 46.0458 104.216 45.5749L126.025 2.57473C126.79 1.16199 127.909 0.455625 129.38 0.455625C130.087 0.455625 130.852 0.720512 131.676 1.25028C132.559 1.78006 133 2.48643 133 3.36939C133 3.78144 132.883 4.19349 132.647 4.60554L113.31 43.1026H128.586V28.2689C128.586 27.3859 128.968 26.7384 129.734 26.3264C130.499 25.9143 131.352 25.7083 132.294 25.7083C133.236 25.7083 134.089 25.9143 134.855 26.3264C135.62 26.7384 136.003 27.3859 136.003 28.2689V43.1026H140.682C141.565 43.1026 142.213 43.4852 142.625 44.2504C143.096 44.9568 143.331 45.7515 143.331 46.6344C143.331 47.5174 143.066 48.3415 142.536 49.1067C142.066 49.8131 141.447 50.1663 140.682 50.1663H136.003V62.3511C136.003 63.2341 135.62 63.911 134.855 64.3819C134.089 64.794 133.236 65 132.294 65C131.352 65 130.499 64.794 129.734 64.3819C128.968 63.911 128.586 63.2341 128.586 62.3511V50.1663ZM165.225 39.3942C162.753 39.3942 160.428 39.0998 158.25 38.5112C156.131 37.9226 154.276 36.9513 152.687 35.5974C151.098 34.1847 149.832 32.3599 148.89 30.1231C147.948 27.8274 147.478 24.9725 147.478 21.5584V19.7042C147.478 16.1723 147.948 13.1997 148.89 10.7863C149.891 8.31397 151.245 6.31259 152.952 4.78213C154.659 3.25166 156.66 2.16268 158.956 1.51517C161.311 0.808808 163.812 0.455625 166.461 0.455625C169.169 0.455625 171.671 0.808808 173.966 1.51517C176.321 2.16268 178.352 3.25166 180.059 4.78213C181.766 6.31259 183.09 8.31397 184.032 10.7863C185.033 13.1997 185.533 16.1723 185.533 19.7042V46.2812C185.533 49.8131 185.033 52.8152 184.032 55.2874C183.031 57.7009 181.678 59.6728 179.97 61.2033C178.263 62.7337 176.203 63.8522 173.79 64.5585C171.435 65.206 168.904 65.5298 166.196 65.5298C163.077 65.5298 160.339 65.0883 157.985 64.2053C155.689 63.3224 153.747 62.1745 152.157 60.7618C150.627 59.2902 149.449 57.642 148.625 55.8172C147.86 53.9336 147.478 52.0499 147.478 50.1663C147.478 48.9301 147.772 48.0766 148.361 47.6057C148.949 47.1348 149.832 46.8993 151.009 46.8993C152.01 46.8993 152.893 47.1053 153.658 47.5174C154.482 47.9294 154.894 48.6947 154.894 49.8131C154.894 51.2258 155.189 52.4914 155.777 53.6098C156.425 54.6694 157.249 55.6112 158.25 56.4353C159.309 57.2005 160.516 57.7892 161.87 58.2012C163.283 58.6133 164.784 58.8193 166.373 58.8193C170.081 58.8193 172.966 57.8186 175.026 55.8172C177.086 53.757 178.116 50.5783 178.116 46.2812V33.9198C176.645 35.8623 174.79 37.2751 172.554 38.158C170.317 38.9821 167.874 39.3942 165.225 39.3942ZM178.116 19.351C178.116 14.995 177.086 11.8164 175.026 9.815C173.025 7.81362 170.17 6.81293 166.461 6.81293C162.812 6.81293 159.957 7.81362 157.896 9.815C155.895 11.8164 154.894 14.995 154.894 19.351V21.2052C154.894 25.5611 155.895 28.6515 157.896 30.4763C159.957 32.301 162.841 33.2134 166.549 33.2134C170.081 33.2134 172.877 32.3599 174.938 30.6529C177.057 28.9458 178.116 26.0615 178.116 21.9998V19.351Z" fill="black"/>
<path d="M44.1857 38.5995L31.2062 62.7043C30.9119 63.2929 30.5293 63.8522 30.0584 64.3819C29.5874 64.9117 29.0282 65.1766 28.3807 65.1766C27.38 65.1766 26.3499 64.8234 25.2904 64.117C24.2308 63.4107 23.701 62.5571 23.701 61.5565C23.701 61.0267 23.8776 60.4969 24.2308 59.9671L39.4177 32.6837L24.584 5.57679C24.172 4.92929 23.9659 4.28178 23.9659 3.63428C23.9659 2.63359 24.4368 1.83893 25.3787 1.25028C26.3205 0.602782 27.3506 0.27903 28.469 0.27903C29.2343 0.27903 29.8818 0.57335 30.4115 1.16199C30.9413 1.75063 31.3828 2.39813 31.736 3.1045L44.1857 26.5912L56.7238 3.1045C57.0769 2.39813 57.5184 1.75063 58.0482 1.16199C58.578 0.57335 59.2255 0.27903 59.9907 0.27903C61.1091 0.27903 62.1392 0.602782 63.0811 1.25028C64.0229 1.83893 64.4938 2.63359 64.4938 3.63428C64.4938 4.28178 64.2878 4.92929 63.8757 5.57679L48.9537 32.6837L64.2289 59.9671C64.5821 60.4969 64.7587 61.0267 64.7587 61.5565C64.7587 62.5571 64.2289 63.4107 63.1694 64.117C62.1098 64.8234 61.0797 65.1766 60.079 65.1766C59.4315 65.1766 58.8723 64.9117 58.4014 64.3819C57.9305 63.8522 57.5478 63.2929 57.2535 62.7043L44.1857 38.5995Z" fill="#4EAFCD"/>
</svg>
