<svg width="80" height="80" viewBox="0 0 80 80" fill="none" xmlns="http://www.w3.org/2000/svg">
<path d="M32.4064 59.7117C32.8818 59.7117 33.2423 59.6958 33.48 59.6639C33.7588 59.6073 34.0103 59.4571 34.1931 59.2382C34.4308 58.9876 34.5497 58.6255 34.5497 58.1481L34.5338 55.932C34.5219 54.5195 34.518 53.3975 34.518 52.574L33.7732 52.7053C33.1771 52.7995 32.5736 52.8368 31.9706 52.8167C31.2129 52.8032 30.4577 52.7274 29.7124 52.5899C28.9214 52.4418 28.1771 52.1062 27.5413 51.6111C26.8748 51.1047 26.3774 50.4068 26.1151 49.6099L25.7902 48.8579C25.517 48.2657 25.1738 47.7087 24.7681 47.1988C24.4038 46.676 23.9184 46.2499 23.3538 45.9575L23.1279 45.7983C22.9724 45.6833 22.8314 45.5497 22.708 45.4004C22.5882 45.2648 22.4894 45.1119 22.4148 44.9469C22.3514 44.7957 22.4029 44.6684 22.5733 44.5729C22.8723 44.4522 23.1948 44.4018 23.5162 44.4257L24.1659 44.5251C24.6017 44.6087 25.1365 44.8713 25.7744 45.305C26.4083 45.7426 26.9352 46.3036 27.3472 46.9999C27.8464 47.8911 28.4446 48.5714 29.1498 49.0369C29.7723 49.4778 30.5118 49.7216 31.2733 49.7372C31.9864 49.7372 32.6044 49.6855 33.1234 49.578C33.6286 49.4728 34.1194 49.3072 34.5853 49.0847C34.7794 47.6325 35.3064 46.5105 36.17 45.7307C35.0488 45.6193 33.9376 45.4224 32.8461 45.1418C31.7804 44.8468 30.7556 44.4191 29.7956 43.8687C28.7902 43.3209 27.9018 42.5801 27.1808 41.6883C26.4915 40.817 25.9249 39.6791 25.4773 38.2667C25.0105 36.68 24.7874 35.0312 24.8156 33.3769C24.8156 30.751 25.6714 28.511 27.3789 26.6649C26.5786 24.6875 26.6539 22.4714 27.6047 20.0166C28.2346 19.8177 29.1656 19.9649 30.3977 20.4542C31.6299 20.9436 32.5371 21.3614 33.1076 21.7115C33.682 22.0576 34.1376 22.3481 34.4863 22.5868C36.5154 22.0209 38.6122 21.7371 40.7181 21.7433C42.8574 21.7433 44.9374 22.0218 46.9499 22.5908L48.1781 21.807C49.0259 21.2898 50.0203 20.8083 51.1652 20.3747C52.3141 19.937 53.1897 19.8177 53.7958 20.0166C54.7704 22.4714 54.8576 24.6875 54.0534 26.661C55.7648 28.511 56.6206 30.747 56.6206 33.3769C56.6206 35.223 56.3987 36.8583 55.955 38.2826C55.5113 39.707 54.9368 40.8449 54.2356 41.7043C53.5028 42.5872 52.6102 43.323 51.605 43.8726C50.6451 44.4233 49.6202 44.851 48.5544 45.1458C47.4616 45.4253 46.349 45.6209 45.2266 45.7307C46.3517 46.7054 46.9143 48.2492 46.9143 50.3578V58.1441C46.9143 58.5141 46.9697 58.8125 47.0767 59.0433C47.1271 59.1532 47.199 59.2518 47.2881 59.3331C47.3773 59.4145 47.4819 59.4769 47.5957 59.5167C47.8334 59.6003 48.0473 59.656 48.2296 59.6759C48.4158 59.6997 48.6773 59.7117 49.0219 59.7117H32.4103H32.4064Z" fill="black"/>
<path d="M15.847 7.95732C13.7456 7.95732 11.7302 8.79568 10.2442 10.288C8.75829 11.7802 7.9235 13.8042 7.9235 15.9146V63.6585C7.9235 65.769 8.75829 67.7929 10.2442 69.2852C11.7302 70.7775 13.7456 71.6159 15.847 71.6159H63.388C65.4894 71.6159 67.5048 70.7775 68.9907 69.2852C70.4767 67.7929 71.3115 65.769 71.3115 63.6585V15.9146C71.3115 13.8042 70.4767 11.7802 68.9907 10.288C67.5048 8.79568 65.4894 7.95732 63.388 7.95732H15.847ZM15.847 0H63.388C67.5909 0 71.6216 1.67672 74.5935 4.66129C77.5654 7.64586 79.235 11.6938 79.235 15.9146V63.6585C79.235 67.8794 77.5654 71.9273 74.5935 74.9119C71.6216 77.8965 67.5909 79.5732 63.388 79.5732H15.847C11.6441 79.5732 7.61337 77.8965 4.64148 74.9119C1.66959 71.9273 0 67.8794 0 63.6585V15.9146C0 11.6938 1.66959 7.64586 4.64148 4.66129C7.61337 1.67672 11.6441 0 15.847 0Z" fill="black"/>
</svg>
