<svg width="426" height="23" viewBox="0 0 426 23" fill="none" xmlns="http://www.w3.org/2000/svg">
<path d="M0.0390625 0.9375V2.82422H4.03516V16.125H0.0390625V18H10.3516V16.125H6.26172V2.82422H10.3516V0.9375H0.0390625ZM29.207 0V1.88672H33.5195V16.125H29.207V18H39.8242V16.125H35.6875V0H29.207ZM43.6211 5.32031V7.20703H47.9336V16.125H43.6211V18H54.2383V16.125H50.1016V5.32031H43.6211ZM47.6523 1.99219C47.6523 2.34375 47.7578 2.63672 47.9688 2.87109C48.1875 3.10547 48.5156 3.22266 48.9531 3.22266C49.3828 3.22266 49.707 3.10547 49.9258 2.87109C50.1445 2.63672 50.2539 2.34375 50.2539 1.99219C50.2539 1.79688 50.2227 1.61719 50.1602 1.45312C50.0977 1.28906 50.0039 1.15234 49.8789 1.04297C49.7773 0.941406 49.6484 0.863281 49.4922 0.808594C49.3359 0.746094 49.1562 0.714844 48.9531 0.714844C48.75 0.714844 48.5664 0.746094 48.4023 0.808594C48.2461 0.863281 48.1172 0.941406 48.0156 1.04297C47.8906 1.16016 47.7969 1.30078 47.7344 1.46484C47.6797 1.62891 47.6523 1.80469 47.6523 1.99219ZM61.4922 12.082L66.1445 18H68.8984L62.9805 10.6055L68.1133 5.32031H65.4766L61.3164 9.49219L59.8984 11.0156V0H57.7188V18H59.8984V13.6172L61.4922 12.082ZM77.7109 18.2344C78.9453 18.2344 79.9805 17.9883 80.8164 17.4961C81.6602 16.9961 82.293 16.4258 82.7148 15.7852L81.3906 14.7539C80.9922 15.2695 80.4922 15.6836 79.8906 15.9961C79.2891 16.3086 78.6016 16.4648 77.8281 16.4648C77.2422 16.4648 76.707 16.3555 76.2227 16.1367C75.7383 15.918 75.3242 15.6172 74.9805 15.2344C74.6445 14.875 74.3789 14.4609 74.1836 13.9922C73.9961 13.5234 73.875 12.9805 73.8203 12.3633V12.2812H82.8789V11.3086C82.8789 10.4258 82.7656 9.60547 82.5391 8.84766C82.3203 8.08984 81.9844 7.42969 81.5312 6.86719C81.0781 6.3125 80.5078 5.87891 79.8203 5.56641C79.1406 5.24609 78.3438 5.08594 77.4297 5.08594C76.7031 5.08594 75.9922 5.23438 75.2969 5.53125C74.6094 5.82812 73.9961 6.25391 73.457 6.80859C72.9102 7.37109 72.4727 8.05859 72.1445 8.87109C71.8164 9.67578 71.6523 10.5898 71.6523 11.6133V12.1055C71.6523 12.9883 71.8008 13.8047 72.0977 14.5547C72.3945 15.3047 72.8086 15.9531 73.3398 16.5C73.8711 17.0469 74.5078 17.4727 75.25 17.7773C76 18.082 76.8203 18.2344 77.7109 18.2344ZM77.4297 6.86719C77.9844 6.86719 78.4609 6.96875 78.8594 7.17188C79.2656 7.375 79.6016 7.64062 79.8672 7.96875C80.1328 8.29688 80.3398 8.6875 80.4883 9.14062C80.6367 9.58594 80.7109 10.0039 80.7109 10.3945V10.5H73.8906C73.9766 9.91406 74.125 9.39844 74.3359 8.95312C74.5547 8.5 74.8203 8.11719 75.1328 7.80469C75.4453 7.5 75.7969 7.26953 76.1875 7.11328C76.5781 6.94922 76.9922 6.86719 77.4297 6.86719ZM106.07 2.25H103.891V5.32031H100.562V6.99609H103.891V13.8867C103.891 14.668 103.992 15.3359 104.195 15.8906C104.406 16.4375 104.691 16.8828 105.051 17.2266C105.41 17.5781 105.832 17.8359 106.316 18C106.809 18.1562 107.336 18.2344 107.898 18.2344C108.234 18.2344 108.57 18.2188 108.906 18.1875C109.25 18.1562 109.574 18.1094 109.879 18.0469C110.184 17.9922 110.465 17.9258 110.723 17.8477C110.98 17.7617 111.199 17.6641 111.379 17.5547L111.074 16.0195C110.941 16.0508 110.77 16.0898 110.559 16.1367C110.355 16.1758 110.137 16.2148 109.902 16.2539C109.66 16.293 109.414 16.3281 109.164 16.3594C108.914 16.3828 108.672 16.3945 108.438 16.3945C108.117 16.3945 107.812 16.3555 107.523 16.2773C107.242 16.1992 106.992 16.0625 106.773 15.8672C106.555 15.6797 106.383 15.4258 106.258 15.1055C106.133 14.7852 106.07 14.3789 106.07 13.8867V6.99609H110.898V5.32031H106.07V2.25ZM114.742 11.543V11.8008C114.742 12.7148 114.875 13.5625 115.141 14.3438C115.406 15.125 115.789 15.8047 116.289 16.3828C116.781 16.9609 117.383 17.4141 118.094 17.7422C118.812 18.0703 119.621 18.2344 120.52 18.2344C121.41 18.2344 122.211 18.0703 122.922 17.7422C123.633 17.4141 124.238 16.9609 124.738 16.3828C125.23 15.8047 125.609 15.125 125.875 14.3438C126.141 13.5625 126.273 12.7148 126.273 11.8008V11.543C126.273 10.6289 126.141 9.78125 125.875 9C125.609 8.21094 125.23 7.52734 124.738 6.94922C124.238 6.37109 123.629 5.91797 122.91 5.58984C122.199 5.25391 121.395 5.08594 120.496 5.08594C119.605 5.08594 118.805 5.25391 118.094 5.58984C117.383 5.91797 116.781 6.37109 116.289 6.94922C115.789 7.52734 115.406 8.21094 115.141 9C114.875 9.78125 114.742 10.6289 114.742 11.543ZM116.91 11.8008V11.543C116.91 10.9258 116.984 10.3359 117.133 9.77344C117.281 9.20312 117.508 8.70312 117.812 8.27344C118.109 7.84375 118.48 7.50391 118.926 7.25391C119.371 6.99609 119.895 6.86719 120.496 6.86719C121.098 6.86719 121.621 6.99609 122.066 7.25391C122.52 7.50391 122.898 7.84375 123.203 8.27344C123.5 8.70312 123.723 9.20312 123.871 9.77344C124.027 10.3359 124.105 10.9258 124.105 11.543V11.8008C124.105 12.4258 124.031 13.0234 123.883 13.5938C123.734 14.1562 123.512 14.6523 123.215 15.082C122.91 15.5117 122.531 15.8516 122.078 16.1016C121.633 16.3516 121.113 16.4766 120.52 16.4766C119.918 16.4766 119.391 16.3516 118.938 16.1016C118.484 15.8516 118.109 15.5117 117.812 15.082C117.508 14.6523 117.281 14.1562 117.133 13.5938C116.984 13.0234 116.91 12.4258 116.91 11.8008ZM154.926 11.8008V11.5547C154.926 10.8906 154.871 10.2617 154.762 9.66797C154.652 9.06641 154.492 8.51953 154.281 8.02734C154.078 7.58984 153.844 7.19531 153.578 6.84375C153.312 6.48438 153.012 6.17969 152.676 5.92969C152.301 5.66406 151.883 5.45703 151.422 5.30859C150.961 5.16016 150.457 5.08594 149.91 5.08594C149.473 5.08594 149.066 5.12891 148.691 5.21484C148.316 5.30078 147.973 5.42578 147.66 5.58984C147.41 5.72266 147.176 5.88281 146.957 6.07031C146.738 6.25 146.539 6.45312 146.359 6.67969V0H144.191V18H146.184L146.289 16.5586C146.43 16.7383 146.578 16.9023 146.734 17.0508C146.891 17.1992 147.055 17.3359 147.227 17.4609C147.586 17.7109 147.988 17.9023 148.434 18.0352C148.887 18.168 149.387 18.2344 149.934 18.2344C150.41 18.2344 150.852 18.1758 151.258 18.0586C151.672 17.9414 152.051 17.7773 152.395 17.5664C152.871 17.2617 153.277 16.8789 153.613 16.418C153.957 15.9492 154.234 15.4219 154.445 14.8359C154.602 14.3906 154.719 13.9141 154.797 13.4062C154.883 12.8906 154.926 12.3555 154.926 11.8008ZM152.758 11.5547V11.8008C152.758 12.1758 152.734 12.543 152.688 12.9023C152.641 13.2617 152.566 13.5977 152.465 13.9102C152.34 14.3242 152.172 14.6992 151.961 15.0352C151.75 15.3711 151.488 15.6484 151.176 15.8672C150.941 16.0391 150.676 16.1719 150.379 16.2656C150.082 16.3516 149.754 16.3945 149.395 16.3945C149.02 16.3945 148.676 16.3477 148.363 16.2539C148.051 16.1523 147.77 16.0117 147.52 15.832C147.27 15.6523 147.047 15.4453 146.852 15.2109C146.664 14.9688 146.5 14.707 146.359 14.4258V8.88281C146.492 8.60156 146.652 8.34375 146.84 8.10938C147.035 7.86719 147.258 7.65625 147.508 7.47656C147.75 7.30469 148.027 7.17188 148.34 7.07812C148.652 6.97656 148.996 6.92578 149.371 6.92578C149.715 6.92578 150.027 6.96484 150.309 7.04297C150.59 7.12109 150.844 7.23047 151.07 7.37109C151.398 7.56641 151.676 7.83594 151.902 8.17969C152.129 8.52344 152.312 8.90234 152.453 9.31641C152.555 9.65234 152.629 10.0117 152.676 10.3945C152.73 10.7695 152.758 11.1562 152.758 11.5547ZM164.195 18.2344C165.43 18.2344 166.465 17.9883 167.301 17.4961C168.145 16.9961 168.777 16.4258 169.199 15.7852L167.875 14.7539C167.477 15.2695 166.977 15.6836 166.375 15.9961C165.773 16.3086 165.086 16.4648 164.312 16.4648C163.727 16.4648 163.191 16.3555 162.707 16.1367C162.223 15.918 161.809 15.6172 161.465 15.2344C161.129 14.875 160.863 14.4609 160.668 13.9922C160.48 13.5234 160.359 12.9805 160.305 12.3633V12.2812H169.363V11.3086C169.363 10.4258 169.25 9.60547 169.023 8.84766C168.805 8.08984 168.469 7.42969 168.016 6.86719C167.562 6.3125 166.992 5.87891 166.305 5.56641C165.625 5.24609 164.828 5.08594 163.914 5.08594C163.188 5.08594 162.477 5.23438 161.781 5.53125C161.094 5.82812 160.48 6.25391 159.941 6.80859C159.395 7.37109 158.957 8.05859 158.629 8.87109C158.301 9.67578 158.137 10.5898 158.137 11.6133V12.1055C158.137 12.9883 158.285 13.8047 158.582 14.5547C158.879 15.3047 159.293 15.9531 159.824 16.5C160.355 17.0469 160.992 17.4727 161.734 17.7773C162.484 18.082 163.305 18.2344 164.195 18.2344ZM163.914 6.86719C164.469 6.86719 164.945 6.96875 165.344 7.17188C165.75 7.375 166.086 7.64062 166.352 7.96875C166.617 8.29688 166.824 8.6875 166.973 9.14062C167.121 9.58594 167.195 10.0039 167.195 10.3945V10.5H160.375C160.461 9.91406 160.609 9.39844 160.82 8.95312C161.039 8.5 161.305 8.11719 161.617 7.80469C161.93 7.5 162.281 7.26953 162.672 7.11328C163.062 6.94922 163.477 6.86719 163.914 6.86719ZM186.812 11.543V11.8008C186.812 12.7148 186.945 13.5625 187.211 14.3438C187.477 15.125 187.859 15.8047 188.359 16.3828C188.852 16.9609 189.453 17.4141 190.164 17.7422C190.883 18.0703 191.691 18.2344 192.59 18.2344C193.48 18.2344 194.281 18.0703 194.992 17.7422C195.703 17.4141 196.309 16.9609 196.809 16.3828C197.301 15.8047 197.68 15.125 197.945 14.3438C198.211 13.5625 198.344 12.7148 198.344 11.8008V11.543C198.344 10.6289 198.211 9.78125 197.945 9C197.68 8.21094 197.301 7.52734 196.809 6.94922C196.309 6.37109 195.699 5.91797 194.98 5.58984C194.27 5.25391 193.465 5.08594 192.566 5.08594C191.676 5.08594 190.875 5.25391 190.164 5.58984C189.453 5.91797 188.852 6.37109 188.359 6.94922C187.859 7.52734 187.477 8.21094 187.211 9C186.945 9.78125 186.812 10.6289 186.812 11.543ZM188.98 11.8008V11.543C188.98 10.9258 189.055 10.3359 189.203 9.77344C189.352 9.20312 189.578 8.70312 189.883 8.27344C190.18 7.84375 190.551 7.50391 190.996 7.25391C191.441 6.99609 191.965 6.86719 192.566 6.86719C193.168 6.86719 193.691 6.99609 194.137 7.25391C194.59 7.50391 194.969 7.84375 195.273 8.27344C195.57 8.70312 195.793 9.20312 195.941 9.77344C196.098 10.3359 196.176 10.9258 196.176 11.543V11.8008C196.176 12.4258 196.102 13.0234 195.953 13.5938C195.805 14.1562 195.582 14.6523 195.285 15.082C194.98 15.5117 194.602 15.8516 194.148 16.1016C193.703 16.3516 193.184 16.4766 192.59 16.4766C191.988 16.4766 191.461 16.3516 191.008 16.1016C190.555 15.8516 190.18 15.5117 189.883 15.082C189.578 14.6523 189.352 14.1562 189.203 13.5938C189.055 13.0234 188.98 12.4258 188.98 11.8008ZM201.836 18H204.004V8.90625C204.152 8.63281 204.324 8.38281 204.52 8.15625C204.723 7.92969 204.941 7.73047 205.176 7.55859C205.465 7.36328 205.781 7.21094 206.125 7.10156C206.469 6.98438 206.84 6.92578 207.238 6.92578C207.699 6.92578 208.105 6.98047 208.457 7.08984C208.816 7.19922 209.121 7.375 209.371 7.61719C209.613 7.85938 209.797 8.17578 209.922 8.56641C210.047 8.95703 210.109 9.43359 210.109 9.99609V18H212.277V9.94922C212.277 9.10547 212.172 8.37891 211.961 7.76953C211.758 7.15234 211.465 6.64453 211.082 6.24609C210.699 5.84766 210.234 5.55469 209.688 5.36719C209.148 5.17969 208.547 5.08594 207.883 5.08594C207.391 5.09375 206.922 5.16797 206.477 5.30859C206.039 5.44141 205.633 5.63281 205.258 5.88281C205.008 6.04688 204.77 6.24219 204.543 6.46875C204.324 6.6875 204.121 6.92969 203.934 7.19531L203.781 5.32031H201.836V18ZM235.797 2.25H233.617V5.32031H230.289V6.99609H233.617V13.8867C233.617 14.668 233.719 15.3359 233.922 15.8906C234.133 16.4375 234.418 16.8828 234.777 17.2266C235.137 17.5781 235.559 17.8359 236.043 18C236.535 18.1562 237.062 18.2344 237.625 18.2344C237.961 18.2344 238.297 18.2188 238.633 18.1875C238.977 18.1562 239.301 18.1094 239.605 18.0469C239.91 17.9922 240.191 17.9258 240.449 17.8477C240.707 17.7617 240.926 17.6641 241.105 17.5547L240.801 16.0195C240.668 16.0508 240.496 16.0898 240.285 16.1367C240.082 16.1758 239.863 16.2148 239.629 16.2539C239.387 16.293 239.141 16.3281 238.891 16.3594C238.641 16.3828 238.398 16.3945 238.164 16.3945C237.844 16.3945 237.539 16.3555 237.25 16.2773C236.969 16.1992 236.719 16.0625 236.5 15.8672C236.281 15.6797 236.109 15.4258 235.984 15.1055C235.859 14.7852 235.797 14.3789 235.797 13.8867V6.99609H240.625V5.32031H235.797V2.25ZM247.246 7.20703V0H245.078V18H247.246V8.78906C247.402 8.53906 247.578 8.3125 247.773 8.10938C247.977 7.89844 248.195 7.71484 248.43 7.55859C248.727 7.35547 249.051 7.19922 249.402 7.08984C249.754 6.98047 250.125 6.92578 250.516 6.92578C250.992 6.91797 251.414 6.98438 251.781 7.125C252.148 7.25781 252.453 7.46094 252.695 7.73438C252.922 7.98438 253.094 8.30078 253.211 8.68359C253.328 9.05859 253.387 9.49609 253.387 9.99609V18H255.555V10.0195C255.555 9.16797 255.449 8.43359 255.238 7.81641C255.035 7.19141 254.742 6.67578 254.359 6.26953C253.977 5.86328 253.512 5.56641 252.965 5.37891C252.426 5.18359 251.824 5.08594 251.16 5.08594C250.652 5.09375 250.172 5.16797 249.719 5.30859C249.273 5.44922 248.863 5.65625 248.488 5.92969C248.254 6.09375 248.031 6.28516 247.82 6.50391C247.609 6.71484 247.418 6.94922 247.246 7.20703ZM265.094 18.2344C266.328 18.2344 267.363 17.9883 268.199 17.4961C269.043 16.9961 269.676 16.4258 270.098 15.7852L268.773 14.7539C268.375 15.2695 267.875 15.6836 267.273 15.9961C266.672 16.3086 265.984 16.4648 265.211 16.4648C264.625 16.4648 264.09 16.3555 263.605 16.1367C263.121 15.918 262.707 15.6172 262.363 15.2344C262.027 14.875 261.762 14.4609 261.566 13.9922C261.379 13.5234 261.258 12.9805 261.203 12.3633V12.2812H270.262V11.3086C270.262 10.4258 270.148 9.60547 269.922 8.84766C269.703 8.08984 269.367 7.42969 268.914 6.86719C268.461 6.3125 267.891 5.87891 267.203 5.56641C266.523 5.24609 265.727 5.08594 264.812 5.08594C264.086 5.08594 263.375 5.23438 262.68 5.53125C261.992 5.82812 261.379 6.25391 260.84 6.80859C260.293 7.37109 259.855 8.05859 259.527 8.87109C259.199 9.67578 259.035 10.5898 259.035 11.6133V12.1055C259.035 12.9883 259.184 13.8047 259.48 14.5547C259.777 15.3047 260.191 15.9531 260.723 16.5C261.254 17.0469 261.891 17.4727 262.633 17.7773C263.383 18.082 264.203 18.2344 265.094 18.2344ZM264.812 6.86719C265.367 6.86719 265.844 6.96875 266.242 7.17188C266.648 7.375 266.984 7.64062 267.25 7.96875C267.516 8.29688 267.723 8.6875 267.871 9.14062C268.02 9.58594 268.094 10.0039 268.094 10.3945V10.5H261.273C261.359 9.91406 261.508 9.39844 261.719 8.95312C261.938 8.5 262.203 8.11719 262.516 7.80469C262.828 7.5 263.18 7.26953 263.57 7.11328C263.961 6.94922 264.375 6.86719 264.812 6.86719ZM296.676 18H298.645V5.32031H296.465V14.4141C296.348 14.6875 296.199 14.9414 296.02 15.1758C295.848 15.4023 295.645 15.5977 295.41 15.7617C295.129 15.9648 294.797 16.125 294.414 16.2422C294.031 16.3516 293.598 16.4062 293.113 16.4062C292.699 16.4062 292.332 16.3516 292.012 16.2422C291.699 16.1328 291.434 15.9414 291.215 15.668C290.996 15.4023 290.832 15.043 290.723 14.5898C290.613 14.1367 290.559 13.5664 290.559 12.8789V5.32031H288.391V12.8555C288.391 13.8008 288.492 14.6133 288.695 15.293C288.906 15.9648 289.203 16.5195 289.586 16.957C289.969 17.3945 290.43 17.7188 290.969 17.9297C291.508 18.1328 292.109 18.2344 292.773 18.2344C293.602 18.2344 294.332 18.0625 294.965 17.7188C295.598 17.3672 296.125 16.8789 296.547 16.2539L296.676 18ZM302.723 22.875H304.891V16.7812C305.047 16.9531 305.215 17.1133 305.395 17.2617C305.574 17.4023 305.766 17.5312 305.969 17.6484C306.305 17.8359 306.68 17.9805 307.094 18.082C307.516 18.1836 307.969 18.2344 308.453 18.2344C309.25 18.2344 309.957 18.0703 310.574 17.7422C311.199 17.4141 311.723 16.9609 312.145 16.3828C312.566 15.8047 312.887 15.125 313.105 14.3438C313.324 13.5547 313.434 12.707 313.434 11.8008V11.5547C313.434 10.6094 313.324 9.74219 313.105 8.95312C312.887 8.15625 312.566 7.47266 312.145 6.90234C311.723 6.33203 311.199 5.88672 310.574 5.56641C309.949 5.24609 309.23 5.08594 308.418 5.08594C307.957 5.08594 307.523 5.13672 307.117 5.23828C306.719 5.33203 306.355 5.47266 306.027 5.66016C305.793 5.78516 305.574 5.9375 305.371 6.11719C305.168 6.28906 304.98 6.48438 304.809 6.70312L304.703 5.32031H302.723V22.875ZM311.266 11.5547V11.8008C311.266 12.418 311.195 13.0078 311.055 13.5703C310.922 14.1328 310.715 14.6289 310.434 15.0586C310.152 15.4883 309.793 15.832 309.355 16.0898C308.918 16.3398 308.398 16.4648 307.797 16.4648C307.422 16.4648 307.078 16.418 306.766 16.3242C306.461 16.2305 306.184 16.1016 305.934 15.9375C305.715 15.7969 305.52 15.625 305.348 15.4219C305.176 15.2188 305.023 15 304.891 14.7656V8.66016C305.039 8.39453 305.211 8.15234 305.406 7.93359C305.602 7.71484 305.824 7.53125 306.074 7.38281C306.301 7.23438 306.555 7.12109 306.836 7.04297C307.125 6.96484 307.438 6.92578 307.773 6.92578C308.383 6.92578 308.906 7.05078 309.344 7.30078C309.781 7.55078 310.145 7.88672 310.434 8.30859C310.715 8.73828 310.922 9.23438 311.055 9.79688C311.195 10.3516 311.266 10.9375 311.266 11.5547ZM317.137 22.875H319.305V16.7812C319.461 16.9531 319.629 17.1133 319.809 17.2617C319.988 17.4023 320.18 17.5312 320.383 17.6484C320.719 17.8359 321.094 17.9805 321.508 18.082C321.93 18.1836 322.383 18.2344 322.867 18.2344C323.664 18.2344 324.371 18.0703 324.988 17.7422C325.613 17.4141 326.137 16.9609 326.559 16.3828C326.98 15.8047 327.301 15.125 327.52 14.3438C327.738 13.5547 327.848 12.707 327.848 11.8008V11.5547C327.848 10.6094 327.738 9.74219 327.52 8.95312C327.301 8.15625 326.98 7.47266 326.559 6.90234C326.137 6.33203 325.613 5.88672 324.988 5.56641C324.363 5.24609 323.645 5.08594 322.832 5.08594C322.371 5.08594 321.938 5.13672 321.531 5.23828C321.133 5.33203 320.77 5.47266 320.441 5.66016C320.207 5.78516 319.988 5.9375 319.785 6.11719C319.582 6.28906 319.395 6.48438 319.223 6.70312L319.117 5.32031H317.137V22.875ZM325.68 11.5547V11.8008C325.68 12.418 325.609 13.0078 325.469 13.5703C325.336 14.1328 325.129 14.6289 324.848 15.0586C324.566 15.4883 324.207 15.832 323.77 16.0898C323.332 16.3398 322.812 16.4648 322.211 16.4648C321.836 16.4648 321.492 16.418 321.18 16.3242C320.875 16.2305 320.598 16.1016 320.348 15.9375C320.129 15.7969 319.934 15.625 319.762 15.4219C319.59 15.2188 319.438 15 319.305 14.7656V8.66016C319.453 8.39453 319.625 8.15234 319.82 7.93359C320.016 7.71484 320.238 7.53125 320.488 7.38281C320.715 7.23438 320.969 7.12109 321.25 7.04297C321.539 6.96484 321.852 6.92578 322.188 6.92578C322.797 6.92578 323.32 7.05078 323.758 7.30078C324.195 7.55078 324.559 7.88672 324.848 8.30859C325.129 8.73828 325.336 9.23438 325.469 9.79688C325.609 10.3516 325.68 10.9375 325.68 11.5547ZM337.164 18.2344C338.398 18.2344 339.434 17.9883 340.27 17.4961C341.113 16.9961 341.746 16.4258 342.168 15.7852L340.844 14.7539C340.445 15.2695 339.945 15.6836 339.344 15.9961C338.742 16.3086 338.055 16.4648 337.281 16.4648C336.695 16.4648 336.16 16.3555 335.676 16.1367C335.191 15.918 334.777 15.6172 334.434 15.2344C334.098 14.875 333.832 14.4609 333.637 13.9922C333.449 13.5234 333.328 12.9805 333.273 12.3633V12.2812H342.332V11.3086C342.332 10.4258 342.219 9.60547 341.992 8.84766C341.773 8.08984 341.438 7.42969 340.984 6.86719C340.531 6.3125 339.961 5.87891 339.273 5.56641C338.594 5.24609 337.797 5.08594 336.883 5.08594C336.156 5.08594 335.445 5.23438 334.75 5.53125C334.062 5.82812 333.449 6.25391 332.91 6.80859C332.363 7.37109 331.926 8.05859 331.598 8.87109C331.27 9.67578 331.105 10.5898 331.105 11.6133V12.1055C331.105 12.9883 331.254 13.8047 331.551 14.5547C331.848 15.3047 332.262 15.9531 332.793 16.5C333.324 17.0469 333.961 17.4727 334.703 17.7773C335.453 18.082 336.273 18.2344 337.164 18.2344ZM336.883 6.86719C337.438 6.86719 337.914 6.96875 338.312 7.17188C338.719 7.375 339.055 7.64062 339.32 7.96875C339.586 8.29688 339.793 8.6875 339.941 9.14062C340.09 9.58594 340.164 10.0039 340.164 10.3945V10.5H333.344C333.43 9.91406 333.578 9.39844 333.789 8.95312C334.008 8.5 334.273 8.11719 334.586 7.80469C334.898 7.5 335.25 7.26953 335.641 7.11328C336.031 6.94922 336.445 6.86719 336.883 6.86719ZM354.285 5.08594C353.363 5.08594 352.539 5.28906 351.812 5.69531C351.094 6.09375 350.477 6.64062 349.961 7.33594L349.949 7.01953L349.855 5.32031H347.793V18H349.973V9.86719C350.113 9.47656 350.289 9.125 350.5 8.8125C350.719 8.49219 350.973 8.22266 351.262 8.00391C351.582 7.75391 351.957 7.56641 352.387 7.44141C352.816 7.30859 353.297 7.24219 353.828 7.24219C354.242 7.24219 354.637 7.26562 355.012 7.3125C355.395 7.35156 355.797 7.41797 356.219 7.51172L356.512 5.39062C356.293 5.29688 355.965 5.22266 355.527 5.16797C355.098 5.11328 354.684 5.08594 354.285 5.08594ZM374.195 11.543V11.8008C374.195 12.7148 374.328 13.5625 374.594 14.3438C374.859 15.125 375.242 15.8047 375.742 16.3828C376.234 16.9609 376.836 17.4141 377.547 17.7422C378.266 18.0703 379.074 18.2344 379.973 18.2344C380.863 18.2344 381.664 18.0703 382.375 17.7422C383.086 17.4141 383.691 16.9609 384.191 16.3828C384.684 15.8047 385.062 15.125 385.328 14.3438C385.594 13.5625 385.727 12.7148 385.727 11.8008V11.543C385.727 10.6289 385.594 9.78125 385.328 9C385.062 8.21094 384.684 7.52734 384.191 6.94922C383.691 6.37109 383.082 5.91797 382.363 5.58984C381.652 5.25391 380.848 5.08594 379.949 5.08594C379.059 5.08594 378.258 5.25391 377.547 5.58984C376.836 5.91797 376.234 6.37109 375.742 6.94922C375.242 7.52734 374.859 8.21094 374.594 9C374.328 9.78125 374.195 10.6289 374.195 11.543ZM376.363 11.8008V11.543C376.363 10.9258 376.438 10.3359 376.586 9.77344C376.734 9.20312 376.961 8.70312 377.266 8.27344C377.562 7.84375 377.934 7.50391 378.379 7.25391C378.824 6.99609 379.348 6.86719 379.949 6.86719C380.551 6.86719 381.074 6.99609 381.52 7.25391C381.973 7.50391 382.352 7.84375 382.656 8.27344C382.953 8.70312 383.176 9.20312 383.324 9.77344C383.48 10.3359 383.559 10.9258 383.559 11.543V11.8008C383.559 12.4258 383.484 13.0234 383.336 13.5938C383.188 14.1562 382.965 14.6523 382.668 15.082C382.363 15.5117 381.984 15.8516 381.531 16.1016C381.086 16.3516 380.566 16.4766 379.973 16.4766C379.371 16.4766 378.844 16.3516 378.391 16.1016C377.938 15.8516 377.562 15.5117 377.266 15.082C376.961 14.6523 376.734 14.1562 376.586 13.5938C376.438 13.0234 376.363 12.4258 376.363 11.8008ZM389.219 18H391.387V8.90625C391.535 8.63281 391.707 8.38281 391.902 8.15625C392.105 7.92969 392.324 7.73047 392.559 7.55859C392.848 7.36328 393.164 7.21094 393.508 7.10156C393.852 6.98438 394.223 6.92578 394.621 6.92578C395.082 6.92578 395.488 6.98047 395.84 7.08984C396.199 7.19922 396.504 7.375 396.754 7.61719C396.996 7.85938 397.18 8.17578 397.305 8.56641C397.43 8.95703 397.492 9.43359 397.492 9.99609V18H399.66V9.94922C399.66 9.10547 399.555 8.37891 399.344 7.76953C399.141 7.15234 398.848 6.64453 398.465 6.24609C398.082 5.84766 397.617 5.55469 397.07 5.36719C396.531 5.17969 395.93 5.08594 395.266 5.08594C394.773 5.09375 394.305 5.16797 393.859 5.30859C393.422 5.44141 393.016 5.63281 392.641 5.88281C392.391 6.04688 392.152 6.24219 391.926 6.46875C391.707 6.6875 391.504 6.92969 391.316 7.19531L391.164 5.32031H389.219V18ZM409.234 18.2344C410.469 18.2344 411.504 17.9883 412.34 17.4961C413.184 16.9961 413.816 16.4258 414.238 15.7852L412.914 14.7539C412.516 15.2695 412.016 15.6836 411.414 15.9961C410.812 16.3086 410.125 16.4648 409.352 16.4648C408.766 16.4648 408.23 16.3555 407.746 16.1367C407.262 15.918 406.848 15.6172 406.504 15.2344C406.168 14.875 405.902 14.4609 405.707 13.9922C405.52 13.5234 405.398 12.9805 405.344 12.3633V12.2812H414.402V11.3086C414.402 10.4258 414.289 9.60547 414.062 8.84766C413.844 8.08984 413.508 7.42969 413.055 6.86719C412.602 6.3125 412.031 5.87891 411.344 5.56641C410.664 5.24609 409.867 5.08594 408.953 5.08594C408.227 5.08594 407.516 5.23438 406.82 5.53125C406.133 5.82812 405.52 6.25391 404.98 6.80859C404.434 7.37109 403.996 8.05859 403.668 8.87109C403.34 9.67578 403.176 10.5898 403.176 11.6133V12.1055C403.176 12.9883 403.324 13.8047 403.621 14.5547C403.918 15.3047 404.332 15.9531 404.863 16.5C405.395 17.0469 406.031 17.4727 406.773 17.7773C407.523 18.082 408.344 18.2344 409.234 18.2344ZM408.953 6.86719C409.508 6.86719 409.984 6.96875 410.383 7.17188C410.789 7.375 411.125 7.64062 411.391 7.96875C411.656 8.29688 411.863 8.6875 412.012 9.14062C412.16 9.58594 412.234 10.0039 412.234 10.3945V10.5H405.414C405.5 9.91406 405.648 9.39844 405.859 8.95312C406.078 8.5 406.344 8.11719 406.656 7.80469C406.969 7.5 407.32 7.26953 407.711 7.11328C408.102 6.94922 408.516 6.86719 408.953 6.86719ZM421.82 16.5938C421.82 17.0469 421.961 17.4336 422.242 17.7539C422.531 18.0664 422.957 18.2227 423.52 18.2227C424.074 18.2227 424.5 18.0664 424.797 17.7539C425.094 17.4414 425.242 17.0547 425.242 16.5938C425.242 16.125 425.094 15.7305 424.797 15.4102C424.508 15.082 424.082 14.918 423.52 14.918C422.949 14.918 422.523 15.082 422.242 15.4102C421.961 15.7383 421.82 16.1328 421.82 16.5938Z" fill="#808080"/>
</svg>
