<svg width="44" height="88" viewBox="0 0 44 88" fill="none" xmlns="http://www.w3.org/2000/svg">
<path d="M41.4922 87.5922H1.99594C1.06798 87.5922 0.604004 86.9542 0.604004 85.6783C0.604004 84.4023 1.06798 83.7644 1.99594 83.7644H41.4922C41.9561 83.7644 42.3234 83.9577 42.5941 84.3443C42.8648 84.731 43.0001 85.1756 43.0001 85.6783C43.0001 86.2196 42.8648 86.6836 42.5941 87.0702C42.3234 87.4182 41.9561 87.5922 41.4922 87.5922Z" fill="black"/>
<path d="M35.7504 66.019C32.7732 66.019 30.7046 64.8784 29.5447 62.5971C28.3847 60.2772 27.8048 56.9134 27.8048 52.5056V49.5477H26.4128C24.2863 49.5477 22.4497 50.1084 20.9031 51.2297C19.3178 52.3509 18.5252 54.0715 18.5252 56.3914C18.5252 57.938 18.8152 59.3493 19.3952 60.6252C19.9365 61.8625 20.2071 62.5198 20.2071 62.5971C20.2071 63.0611 19.9945 63.4284 19.5691 63.6991C19.1438 63.9697 18.6798 64.1051 18.1772 64.1051C17.4426 64.1051 16.7659 63.2738 16.1473 61.6112C15.5287 59.9486 15.2193 58.17 15.2193 56.2754C15.2193 52.6409 16.2826 49.9924 18.4092 48.3298C20.4971 46.6285 23.165 45.7779 26.4128 45.7779H41.4922C41.9175 45.7779 42.2848 45.9519 42.5941 46.2999C42.8648 46.6479 43.0001 47.0925 43.0001 47.6338C43.0001 48.1365 42.8648 48.5618 42.5941 48.9098C42.2848 49.2191 41.9175 49.3737 41.4922 49.3737H38.9403C41.9175 51.9643 43.4061 54.8835 43.4061 58.1313C43.4061 60.4512 42.7681 62.3458 41.4922 63.8151C40.1776 65.2843 38.2636 66.019 35.7504 66.019ZM35.4024 62.2492C37.0264 62.2492 38.2443 61.7852 39.0563 60.8572C39.8296 59.9293 40.2162 58.7113 40.2162 57.2034C40.2162 55.3861 39.5396 53.6655 38.1863 52.0416C36.833 50.379 35.4798 49.5477 34.1265 49.5477H30.4147V51.9836C30.4147 53.5302 30.4727 54.8448 30.5886 55.9274C30.7046 56.9714 30.9173 58.0153 31.2266 59.0593C31.5359 60.1033 32.0386 60.8959 32.7346 61.4372C33.4305 61.9785 34.3198 62.2492 35.4024 62.2492Z" fill="black"/>
<path d="M41.4922 38.6746H16.9593C16.5726 38.6746 16.244 38.5006 15.9733 38.1526C15.7027 37.8046 15.5673 37.36 15.5673 36.8187C15.5673 36.316 15.7027 35.8907 15.9733 35.5427C16.244 35.1947 16.5726 35.0207 16.9593 35.0207H19.6271C18.3512 34.3248 17.3072 33.3195 16.4953 32.0049C15.6447 30.6516 15.2193 29.0857 15.2193 27.3071C15.2193 25.4512 15.7606 23.7886 16.8433 22.3193C17.8872 20.85 19.2792 19.7674 21.0191 19.0715C19.1245 18.1048 17.6939 16.8289 16.7273 15.2436C15.722 13.6584 15.2193 11.9958 15.2193 10.2559C15.2193 7.62665 16.2053 5.34541 18.1772 3.41217C20.1491 1.47893 22.7783 0.512306 26.0649 0.512306H41.4922C41.8788 0.512306 42.2268 0.705627 42.5361 1.09228C42.8454 1.44026 43.0001 1.88491 43.0001 2.42622C43.0001 2.92886 42.8454 3.3735 42.5361 3.76015C42.2268 4.10814 41.8788 4.28214 41.4922 4.28214H26.0649C23.7836 4.28214 21.9857 4.95876 20.6711 6.31203C19.3565 7.62664 18.6992 9.15391 18.6992 10.8938C18.6992 12.6724 19.3758 14.2577 20.7291 15.6496C22.0437 17.0029 23.745 17.6795 25.8329 17.6795H41.5501C42.5168 17.6795 43.0001 18.3175 43.0001 19.5934C43.0001 20.8307 42.5168 21.4494 41.5501 21.4494H25.8909C23.8416 21.4494 22.1404 22.1067 20.7871 23.4213C19.3952 24.6972 18.6992 26.2438 18.6992 28.0611C18.6992 29.8783 19.3758 31.4829 20.7291 32.8748C22.0437 34.2281 23.8223 34.9047 26.0649 34.9047H41.4922C41.8788 34.9047 42.2268 35.0981 42.5361 35.4847C42.8454 35.8714 43.0001 36.316 43.0001 36.8187C43.0001 37.3213 42.8454 37.766 42.5361 38.1526C42.2268 38.5006 41.8788 38.6746 41.4922 38.6746Z" fill="black"/>
</svg>
