<svg width="45" height="45" viewBox="0 0 45 45" fill="none" xmlns="http://www.w3.org/2000/svg">
<path d="M41.25 37.5V22.8263C41.2501 21.8054 41.0418 20.7952 40.6378 19.8576C40.2338 18.9201 39.6427 18.0749 38.9006 17.3738L25.0762 4.30876C24.38 3.6505 23.4582 3.28372 22.5 3.28372C21.5418 3.28372 20.62 3.6505 19.9237 4.30876L6.09937 17.3738C5.35729 18.0749 4.76616 18.9201 4.36218 19.8576C3.95821 20.7952 3.74989 21.8054 3.75 22.8263V37.5C3.75 38.4946 4.14509 39.4484 4.84835 40.1517C5.55161 40.8549 6.50544 41.25 7.5 41.25H37.5C38.4946 41.25 39.4484 40.8549 40.1516 40.1517C40.8549 39.4484 41.25 38.4946 41.25 37.5Z" stroke="black" stroke-width="2" stroke-linecap="round" stroke-linejoin="round"/>
</svg>
