<svg width="355" height="335" viewBox="0 0 355 335" fill="none" xmlns="http://www.w3.org/2000/svg">
<path d="M165.633 19.3448C171.066 10.4886 183.934 10.4886 189.367 19.3447L318.214 229.387C323.904 238.663 317.23 250.588 306.347 250.588H48.6526C37.7703 250.588 31.0957 238.663 36.7859 229.387L165.633 19.3448Z" fill="#FFC700" fill-opacity="0.66"/>
<path d="M183.985 190.66L169.425 189.926L170.036 56.5559L202.339 60.5937L183.985 190.66ZM194.753 220.026C194.753 222.636 194.059 224.879 192.673 226.755C191.367 228.631 189.736 230.141 187.778 231.283C185.902 232.506 183.904 233.363 181.783 233.852C179.662 234.423 177.827 234.709 176.277 234.709C174.564 234.709 172.606 234.423 170.404 233.852C168.283 233.363 166.284 232.506 164.408 231.283C162.532 230.141 160.941 228.631 159.636 226.755C158.331 224.879 157.678 222.636 157.678 220.026C157.678 217.252 158.331 214.887 159.636 212.929C160.941 210.971 162.532 209.381 164.408 208.157C166.284 206.852 168.283 205.914 170.404 205.343C172.606 204.772 174.564 204.486 176.277 204.486C177.827 204.486 179.662 204.772 181.783 205.343C183.904 205.914 185.902 206.852 187.778 208.157C189.736 209.381 191.367 210.971 192.673 212.929C194.059 214.887 194.753 217.252 194.753 220.026Z" fill="#A88300"/>
</svg>
