<svg width="129" height="72" viewBox="0 0 129 72" fill="none" xmlns="http://www.w3.org/2000/svg">
<path d="M17.144 33.472L6.56 53.128C6.32 53.608 6.008 54.064 5.624 54.496C5.24 54.928 4.784 55.144 4.256 55.144C3.44 55.144 2.6 54.856 1.736 54.28C0.871999 53.704 0.439999 53.008 0.439999 52.192C0.439999 51.76 0.583999 51.328 0.871999 50.896L13.256 28.648L1.16 6.54402C0.823999 6.01602 0.655999 5.48802 0.655999 4.96002C0.655999 4.14403 1.04 3.49603 1.808 3.01602C2.576 2.48802 3.416 2.22403 4.328 2.22403C4.952 2.22403 5.48 2.46402 5.912 2.94402C6.344 3.42402 6.704 3.95202 6.992 4.52802L17.144 23.68L27.368 4.52802C27.656 3.95202 28.016 3.42402 28.448 2.94402C28.88 2.46402 29.408 2.22403 30.032 2.22403C30.944 2.22403 31.784 2.48802 32.552 3.01602C33.32 3.49603 33.704 4.14403 33.704 4.96002C33.704 5.48802 33.536 6.01602 33.2 6.54402L21.032 28.648L33.488 50.896C33.776 51.328 33.92 51.76 33.92 52.192C33.92 53.008 33.488 53.704 32.624 54.28C31.76 54.856 30.92 55.144 30.104 55.144C29.576 55.144 29.12 54.928 28.736 54.496C28.352 54.064 28.04 53.608 27.8 53.128L17.144 33.472Z" fill="#4EAFCD"/>
<path d="M57.0376 4.67202C58.0456 4.67202 58.9096 5.00802 59.6296 5.68002C60.3496 6.35202 60.7096 7.14402 60.7096 8.05602C60.7096 8.96802 60.3496 9.78402 59.6296 10.504C58.9096 11.176 58.0456 11.512 57.0376 11.512C55.9816 11.512 55.0936 11.176 54.3736 10.504C53.6536 9.78402 53.2936 8.96802 53.2936 8.05602C53.2936 7.14402 53.6536 6.35202 54.3736 5.68002C55.0936 5.00802 55.9816 4.67202 57.0376 4.67202ZM57.0376 20.872C57.8536 20.872 58.5496 21.064 59.1256 21.448C59.7496 21.832 60.0616 22.336 60.0616 22.96V57.88C60.0616 59.896 59.8696 61.72 59.4856 63.352C59.1016 65.032 58.5016 66.472 57.6856 67.672C56.9176 68.872 55.9096 69.808 54.6616 70.48C53.4136 71.152 51.9256 71.488 50.1976 71.488C49.0456 71.488 48.2536 71.224 47.8216 70.696C47.3416 70.168 47.1016 69.568 47.1016 68.896C47.1016 68.08 47.3416 67.432 47.8216 66.952C48.3016 66.472 48.8776 66.232 49.5496 66.232C50.5576 66.232 51.3496 66.016 51.9256 65.584C52.5496 65.2 53.0056 64.624 53.2936 63.856C53.6296 63.136 53.8456 62.248 53.9416 61.192C54.0376 60.184 54.0856 59.08 54.0856 57.88V22.96C54.0856 22.336 54.3496 21.832 54.8776 21.448C55.4536 21.064 56.1736 20.872 57.0376 20.872ZM74.6866 52.84C74.6866 53.368 74.3746 53.872 73.7506 54.352C73.1746 54.784 72.4786 55 71.6626 55C70.7986 55 70.0786 54.784 69.5026 54.352C68.9746 53.872 68.7106 53.368 68.7106 52.84V2.36803C68.7106 1.74403 68.9746 1.24003 69.5026 0.856026C70.0786 0.472026 70.7986 0.280025 71.6626 0.280025C72.4786 0.280025 73.1746 0.472026 73.7506 0.856026C74.3746 1.24003 74.6866 1.74403 74.6866 2.36803V25.912C75.4066 24.52 76.5586 23.272 78.1426 22.168C79.7266 21.016 81.6946 20.44 84.0466 20.44C85.7746 20.44 87.4066 20.8 88.9426 21.52C90.4786 22.24 91.8226 23.248 92.9746 24.544C94.1266 25.792 95.0386 27.256 95.7106 28.936C96.3826 30.616 96.7186 32.392 96.7186 34.264V52.84C96.7186 53.56 96.4066 54.112 95.7826 54.496C95.1586 54.832 94.4626 55 93.6946 55C93.0226 55 92.3506 54.832 91.6786 54.496C91.0546 54.112 90.7426 53.56 90.7426 52.84V34.264C90.7426 33.208 90.5266 32.176 90.0946 31.168C89.6626 30.16 89.0626 29.272 88.2946 28.504C87.5746 27.688 86.7106 27.04 85.7026 26.56C84.6946 26.08 83.6386 25.84 82.5346 25.84C81.5746 25.84 80.6146 26.032 79.6546 26.416C78.7426 26.8 77.9026 27.352 77.1346 28.072C76.4146 28.792 75.8146 29.68 75.3346 30.736C74.9026 31.792 74.6866 32.968 74.6866 34.264V52.84ZM115.216 20.44C117.712 20.44 119.824 20.848 121.552 21.664C123.328 22.432 124.768 23.464 125.872 24.76C126.976 26.056 127.768 27.544 128.248 29.224C128.728 30.904 128.968 32.632 128.968 34.408V52.84C128.968 53.464 128.68 53.992 128.104 54.424C127.576 54.808 126.88 55 126.016 55C125.2 55 124.528 54.808 124 54.424C123.52 53.992 123.28 53.464 123.28 52.84V49.96C122.032 51.4 120.52 52.696 118.744 53.848C116.968 55 114.856 55.576 112.408 55.576C111.064 55.576 109.792 55.384 108.592 55C107.44 54.616 106.408 54.04 105.496 53.272C104.632 52.456 103.936 51.448 103.408 50.248C102.928 49.048 102.688 47.632 102.688 46C102.688 43.984 103.096 42.352 103.912 41.104C104.728 39.808 105.88 38.776 107.368 38.008C108.856 37.24 110.632 36.712 112.696 36.424C114.76 36.136 117.04 35.992 119.536 35.992H122.992V34.48C122.992 33.424 122.848 32.368 122.56 31.312C122.272 30.256 121.816 29.296 121.192 28.432C120.568 27.568 119.752 26.872 118.744 26.344C117.736 25.816 116.512 25.552 115.072 25.552C113.824 25.552 112.768 25.672 111.904 25.912C111.04 26.104 110.32 26.344 109.744 26.632C109.168 26.872 108.688 27.112 108.304 27.352C107.92 27.544 107.56 27.64 107.224 27.64C106.504 27.64 105.952 27.304 105.568 26.632C105.184 25.96 104.992 25.288 104.992 24.616C104.992 24.04 105.304 23.512 105.928 23.032C106.552 22.504 107.344 22.048 108.304 21.664C109.312 21.28 110.416 20.992 111.616 20.8C112.816 20.56 114.016 20.44 115.216 20.44ZM122.992 39.664H120.472C118.936 39.664 117.448 39.736 116.008 39.88C114.616 39.976 113.368 40.216 112.264 40.6C111.208 40.984 110.344 41.56 109.672 42.328C109.048 43.048 108.736 44.056 108.736 45.352C108.736 47.224 109.264 48.592 110.32 49.456C111.376 50.32 112.696 50.752 114.28 50.752C115.288 50.752 116.32 50.536 117.376 50.104C118.432 49.624 119.368 49.024 120.184 48.304C121 47.584 121.672 46.792 122.2 45.928C122.728 45.064 122.992 44.224 122.992 43.408V39.664Z" fill="black"/>
</svg>
