<svg width="227" height="92" viewBox="0 0 227 92" fill="none" xmlns="http://www.w3.org/2000/svg">
<path d="M27.98 14.56C26.62 14.56 25.58 14 24.86 12.88C24.14 11.76 23.78 10.4 23.78 8.79999C23.78 7.44 24.1 6.2 24.74 5.08C25.38 3.88 26.46 3.28 27.98 3.28H49.1C50.46 3.28 51.74 3.64 52.94 4.35999C54.14 5.07999 54.74 6.11999 54.74 7.48V64.96C54.74 69.84 54.02 74 52.58 77.44C51.22 80.8 49.34 83.56 46.94 85.72C44.54 87.8 41.7 89.32 38.42 90.28C35.22 91.24 31.78 91.72 28.1 91.72C24.1 91.72 20.42 91.2 17.06 90.16C13.7 89.04 10.82 87.48 8.42 85.48C6.02 83.48 4.14 81.08 2.78 78.28C1.42 75.48 0.739997 72.32 0.739997 68.8C0.739997 66.4 1.26 64.8 2.3 64C3.42 63.12 5.06 62.68 7.22 62.68C8.82 62.68 10.22 63 11.42 63.64C12.7 64.2 13.38 65.28 13.46 66.88C13.54 68.72 13.82 70.44 14.3 72.04C14.86 73.64 15.7 75.08 16.82 76.36C18.02 77.64 19.5 78.64 21.26 79.36C23.02 80.08 25.14 80.44 27.62 80.44C32.18 80.44 35.7 79.2 38.18 76.72C40.74 74.16 42.02 70.24 42.02 64.96V14.56H27.98ZM91.2528 86.8C91.2528 87.84 90.6128 88.8 89.3328 89.68C88.0528 90.56 86.5728 91 84.8928 91C83.0528 91 81.5328 90.56 80.3328 89.68C79.2128 88.8 78.6528 87.84 78.6528 86.8V4.35999C78.6528 3.15999 79.2128 2.19999 80.3328 1.47999C81.5328 0.679995 83.0528 0.279995 84.8928 0.279995C86.5728 0.279995 88.0528 0.679995 89.3328 1.47999C90.6128 2.19999 91.2528 3.15999 91.2528 4.35999V42.52C92.3728 40.2 94.2528 38.12 96.8928 36.28C99.5328 34.36 102.773 33.4 106.613 33.4C109.413 33.4 112.053 34.04 114.533 35.32C117.093 36.52 119.333 38.2 121.253 40.36C123.173 42.52 124.693 45.04 125.813 47.92C126.933 50.8 127.493 53.84 127.493 57.04V86.8C127.493 88.16 126.813 89.2 125.453 89.92C124.173 90.64 122.733 91 121.133 91C119.693 91 118.293 90.64 116.933 89.92C115.573 89.2 114.893 88.16 114.893 86.8V57.04C114.893 55.52 114.573 54 113.933 52.48C113.293 50.96 112.413 49.64 111.293 48.52C110.173 47.32 108.893 46.36 107.453 45.64C106.013 44.92 104.453 44.56 102.773 44.56C101.333 44.56 99.8928 44.84 98.4528 45.4C97.0928 45.96 95.8528 46.8 94.7328 47.92C93.6928 48.96 92.8528 50.28 92.2128 51.88C91.5728 53.4 91.2528 55.12 91.2528 57.04V86.8ZM167.893 33.4C172.293 33.4 176.013 34.08 179.053 35.44C182.173 36.72 184.693 38.44 186.613 40.6C188.533 42.76 189.933 45.24 190.813 48.04C191.693 50.84 192.133 53.72 192.133 56.68V86.8C192.133 87.92 191.533 88.92 190.333 89.8C189.213 90.6 187.773 91 186.013 91C184.413 91 183.053 90.6 181.933 89.8C180.813 88.92 180.253 87.92 180.253 86.8V82.6C178.173 85.08 175.653 87.28 172.693 89.2C169.733 91.04 166.213 91.96 162.133 91.96C159.973 91.96 157.893 91.64 155.893 91C153.973 90.36 152.293 89.4 150.853 88.12C149.413 86.76 148.253 85.12 147.373 83.2C146.573 81.2 146.173 78.84 146.173 76.12C146.173 72.76 146.853 69.96 148.213 67.72C149.573 65.48 151.493 63.72 153.973 62.44C156.453 61.16 159.413 60.28 162.853 59.8C166.293 59.24 170.093 58.96 174.253 58.96H179.533V56.8C179.533 55.28 179.333 53.76 178.933 52.24C178.533 50.64 177.853 49.24 176.893 48.04C175.933 46.76 174.693 45.76 173.173 45.04C171.653 44.24 169.813 43.84 167.653 43.84C165.493 43.84 163.693 44.04 162.253 44.44C160.813 44.76 159.613 45.16 158.653 45.64C157.693 46.12 156.853 46.56 156.133 46.96C155.493 47.28 154.893 47.44 154.333 47.44C152.813 47.44 151.653 46.76 150.853 45.4C150.133 43.96 149.773 42.52 149.773 41.08C149.773 40.04 150.333 39.04 151.453 38.08C152.573 37.12 154.013 36.32 155.773 35.68C157.533 34.96 159.453 34.4 161.533 34C163.693 33.6 165.813 33.4 167.893 33.4ZM179.533 65.92H176.533C174.213 65.92 171.973 66.04 169.813 66.28C167.733 66.44 165.893 66.84 164.293 67.48C162.693 68.04 161.373 68.88 160.333 70C159.373 71.12 158.893 72.64 158.893 74.56C158.893 77.28 159.613 79.28 161.053 80.56C162.573 81.76 164.453 82.36 166.693 82.36C168.213 82.36 169.733 82 171.253 81.28C172.773 80.56 174.133 79.64 175.333 78.52C176.613 77.4 177.613 76.12 178.333 74.68C179.133 73.24 179.533 71.8 179.533 70.36V65.92ZM219.129 77.32C221.049 77.32 222.689 78.04 224.049 79.48C225.489 80.84 226.209 82.52 226.209 84.52C226.209 86.44 225.489 88.12 224.049 89.56C222.689 91 221.049 91.72 219.129 91.72C217.049 91.72 215.329 91 213.969 89.56C212.609 88.12 211.929 86.44 211.929 84.52C211.929 82.52 212.609 80.84 213.969 79.48C215.329 78.04 217.049 77.32 219.129 77.32Z" fill="black"/>
</svg>
