<svg width="165" height="22" viewBox="0 0 165 22" fill="none" xmlns="http://www.w3.org/2000/svg">
<path d="M2.48828 16.1602V0.9375H0.320312V18H10.832V16.1602H2.48828ZM14.793 5.32031V7.20703H19.1055V16.125H14.793V18H25.4102V16.125H21.2734V5.32031H14.793ZM18.8242 1.99219C18.8242 2.34375 18.9297 2.63672 19.1406 2.87109C19.3594 3.10547 19.6875 3.22266 20.125 3.22266C20.5547 3.22266 20.8789 3.10547 21.0977 2.87109C21.3164 2.63672 21.4258 2.34375 21.4258 1.99219C21.4258 1.79688 21.3945 1.61719 21.332 1.45312C21.2695 1.28906 21.1758 1.15234 21.0508 1.04297C20.9492 0.941406 20.8203 0.863281 20.6641 0.808594C20.5078 0.746094 20.3281 0.714844 20.125 0.714844C19.9219 0.714844 19.7383 0.746094 19.5742 0.808594C19.418 0.863281 19.2891 0.941406 19.1875 1.04297C19.0625 1.16016 18.9688 1.30078 18.9062 1.46484C18.8516 1.62891 18.8242 1.80469 18.8242 1.99219ZM29.8633 5.32031H27.918V18H29.9805V7.91016C30.0273 7.78516 30.0859 7.66797 30.1562 7.55859C30.2344 7.44922 30.3242 7.35156 30.4258 7.26562C30.5586 7.15625 30.7188 7.07422 30.9062 7.01953C31.1016 6.95703 31.3281 6.92578 31.5859 6.92578C31.8203 6.92578 32.0234 6.95703 32.1953 7.01953C32.375 7.07422 32.5234 7.16406 32.6406 7.28906C32.7656 7.42188 32.8555 7.58984 32.9102 7.79297C32.9727 7.99609 33.0039 8.23047 33.0039 8.49609V18H35.0664V8.50781C35.0664 8.46094 35.0664 8.42188 35.0664 8.39062C35.0664 8.35156 35.0664 8.3125 35.0664 8.27344C35.0898 8.07812 35.1367 7.90234 35.207 7.74609C35.2773 7.58203 35.375 7.4375 35.5 7.3125C35.625 7.19531 35.7812 7.10156 35.9688 7.03125C36.1562 6.96094 36.3789 6.92578 36.6367 6.92578C36.8789 6.92578 37.0898 6.95703 37.2695 7.01953C37.457 7.08203 37.6133 7.17578 37.7383 7.30078C37.8555 7.43359 37.9453 7.60156 38.0078 7.80469C38.0703 8.00781 38.1016 8.24219 38.1016 8.50781V18H40.1641V8.53125C40.1641 7.92188 40.0938 7.39453 39.9531 6.94922C39.8125 6.49609 39.6094 6.12891 39.3438 5.84766C39.1016 5.59766 38.8047 5.41016 38.4531 5.28516C38.1016 5.15234 37.707 5.08594 37.2695 5.08594C36.9492 5.09375 36.6523 5.13672 36.3789 5.21484C36.1133 5.29297 35.8711 5.39844 35.6523 5.53125C35.4805 5.64844 35.3203 5.78516 35.1719 5.94141C35.0234 6.09766 34.8945 6.26562 34.7852 6.44531C34.6992 6.25 34.5938 6.07422 34.4688 5.91797C34.3516 5.76172 34.2188 5.62891 34.0703 5.51953C33.8672 5.37891 33.6289 5.27344 33.3555 5.20312C33.0898 5.125 32.7891 5.08594 32.4531 5.08594C31.8594 5.09375 31.3516 5.22266 30.9297 5.47266C30.5156 5.72266 30.1797 6.07031 29.9219 6.51562L29.8633 5.32031ZM43.6211 5.32031V7.20703H47.9336V16.125H43.6211V18H54.2383V16.125H50.1016V5.32031H43.6211ZM47.6523 1.99219C47.6523 2.34375 47.7578 2.63672 47.9688 2.87109C48.1875 3.10547 48.5156 3.22266 48.9531 3.22266C49.3828 3.22266 49.707 3.10547 49.9258 2.87109C50.1445 2.63672 50.2539 2.34375 50.2539 1.99219C50.2539 1.79688 50.2227 1.61719 50.1602 1.45312C50.0977 1.28906 50.0039 1.15234 49.8789 1.04297C49.7773 0.941406 49.6484 0.863281 49.4922 0.808594C49.3359 0.746094 49.1562 0.714844 48.9531 0.714844C48.75 0.714844 48.5664 0.746094 48.4023 0.808594C48.2461 0.863281 48.1172 0.941406 48.0156 1.04297C47.8906 1.16016 47.7969 1.30078 47.7344 1.46484C47.6797 1.62891 47.6523 1.80469 47.6523 1.99219ZM62.8281 2.25H60.6484V5.32031H57.3203V6.99609H60.6484V13.8867C60.6484 14.668 60.75 15.3359 60.9531 15.8906C61.1641 16.4375 61.4492 16.8828 61.8086 17.2266C62.168 17.5781 62.5898 17.8359 63.0742 18C63.5664 18.1562 64.0938 18.2344 64.6562 18.2344C64.9922 18.2344 65.3281 18.2188 65.6641 18.1875C66.0078 18.1562 66.332 18.1094 66.6367 18.0469C66.9414 17.9922 67.2227 17.9258 67.4805 17.8477C67.7383 17.7617 67.957 17.6641 68.1367 17.5547L67.832 16.0195C67.6992 16.0508 67.5273 16.0898 67.3164 16.1367C67.1133 16.1758 66.8945 16.2148 66.6602 16.2539C66.418 16.293 66.1719 16.3281 65.9219 16.3594C65.6719 16.3828 65.4297 16.3945 65.1953 16.3945C64.875 16.3945 64.5703 16.3555 64.2812 16.2773C64 16.1992 63.75 16.0625 63.5312 15.8672C63.3125 15.6797 63.1406 15.4258 63.0156 15.1055C62.8906 14.7852 62.8281 14.3789 62.8281 13.8867V6.99609H67.6562V5.32031H62.8281V2.25ZM80.5352 14.6367C80.5352 14.8398 80.4961 15.0312 80.418 15.2109C80.3398 15.3906 80.2266 15.5547 80.0781 15.7031C79.8359 15.9453 79.5 16.1367 79.0703 16.2773C78.6406 16.4102 78.1367 16.4766 77.5586 16.4766C77.1914 16.4766 76.8203 16.4375 76.4453 16.3594C76.0703 16.2812 75.7305 16.1484 75.4258 15.9609C75.1133 15.7734 74.8516 15.5273 74.6406 15.2227C74.4375 14.918 74.3203 14.543 74.2891 14.0977H72.1211C72.1211 14.6367 72.2422 15.1562 72.4844 15.6562C72.7344 16.1562 73.0938 16.5938 73.5625 16.9688C74.0234 17.3516 74.5898 17.6602 75.2617 17.8945C75.9336 18.1211 76.6992 18.2344 77.5586 18.2344C78.3086 18.2344 79 18.1445 79.6328 17.9648C80.2656 17.7852 80.8086 17.5312 81.2617 17.2031C81.7148 16.875 82.0664 16.4805 82.3164 16.0195C82.5742 15.5586 82.7031 15.0469 82.7031 14.4844C82.7031 13.9609 82.5898 13.5 82.3633 13.1016C82.1445 12.7031 81.8242 12.3516 81.4023 12.0469C80.9805 11.75 80.4609 11.4961 79.8438 11.2852C79.2266 11.0664 78.5273 10.875 77.7461 10.7109C77.1523 10.5938 76.6602 10.4727 76.2695 10.3477C75.8867 10.2227 75.582 10.082 75.3555 9.92578C75.1211 9.76953 74.957 9.59375 74.8633 9.39844C74.7695 9.20312 74.7227 8.98047 74.7227 8.73047C74.7227 8.48828 74.7812 8.25391 74.8984 8.02734C75.0156 7.80078 75.1914 7.60156 75.4258 7.42969C75.6523 7.25781 75.9375 7.12109 76.2812 7.01953C76.6328 6.91797 77.0391 6.86719 77.5 6.86719C77.9453 6.86719 78.3438 6.92969 78.6953 7.05469C79.0547 7.17969 79.3594 7.34375 79.6094 7.54688C79.8594 7.75 80.0547 7.98438 80.1953 8.25C80.3359 8.50781 80.4062 8.77344 80.4062 9.04688H82.5742C82.5742 8.49219 82.4531 7.97656 82.2109 7.5C81.9766 7.01562 81.6406 6.59375 81.2031 6.23438C80.7656 5.875 80.2344 5.59375 79.6094 5.39062C78.9844 5.1875 78.2812 5.08594 77.5 5.08594C76.7734 5.08594 76.1055 5.18359 75.4961 5.37891C74.8945 5.57422 74.375 5.83984 73.9375 6.17578C73.5 6.51172 73.1602 6.90625 72.918 7.35938C72.6758 7.80469 72.5547 8.28516 72.5547 8.80078C72.5547 9.32422 72.6719 9.78516 72.9062 10.1836C73.1406 10.5742 73.4727 10.9141 73.9023 11.2031C74.3242 11.5 74.832 11.7539 75.4258 11.9648C76.0273 12.1758 76.6914 12.3555 77.418 12.5039C78.0117 12.6211 78.5078 12.7539 78.9062 12.9023C79.3047 13.043 79.625 13.1992 79.8672 13.3711C80.1094 13.543 80.2812 13.7344 80.3828 13.9453C80.4844 14.1484 80.5352 14.3789 80.5352 14.6367ZM106.07 2.25H103.891V5.32031H100.562V6.99609H103.891V13.8867C103.891 14.668 103.992 15.3359 104.195 15.8906C104.406 16.4375 104.691 16.8828 105.051 17.2266C105.41 17.5781 105.832 17.8359 106.316 18C106.809 18.1562 107.336 18.2344 107.898 18.2344C108.234 18.2344 108.57 18.2188 108.906 18.1875C109.25 18.1562 109.574 18.1094 109.879 18.0469C110.184 17.9922 110.465 17.9258 110.723 17.8477C110.98 17.7617 111.199 17.6641 111.379 17.5547L111.074 16.0195C110.941 16.0508 110.77 16.0898 110.559 16.1367C110.355 16.1758 110.137 16.2148 109.902 16.2539C109.66 16.293 109.414 16.3281 109.164 16.3594C108.914 16.3828 108.672 16.3945 108.438 16.3945C108.117 16.3945 107.812 16.3555 107.523 16.2773C107.242 16.1992 106.992 16.0625 106.773 15.8672C106.555 15.6797 106.383 15.4258 106.258 15.1055C106.133 14.7852 106.07 14.3789 106.07 13.8867V6.99609H110.898V5.32031H106.07V2.25ZM120.953 18.2344C122.188 18.2344 123.223 17.9883 124.059 17.4961C124.902 16.9961 125.535 16.4258 125.957 15.7852L124.633 14.7539C124.234 15.2695 123.734 15.6836 123.133 15.9961C122.531 16.3086 121.844 16.4648 121.07 16.4648C120.484 16.4648 119.949 16.3555 119.465 16.1367C118.98 15.918 118.566 15.6172 118.223 15.2344C117.887 14.875 117.621 14.4609 117.426 13.9922C117.238 13.5234 117.117 12.9805 117.062 12.3633V12.2812H126.121V11.3086C126.121 10.4258 126.008 9.60547 125.781 8.84766C125.562 8.08984 125.227 7.42969 124.773 6.86719C124.32 6.3125 123.75 5.87891 123.062 5.56641C122.383 5.24609 121.586 5.08594 120.672 5.08594C119.945 5.08594 119.234 5.23438 118.539 5.53125C117.852 5.82812 117.238 6.25391 116.699 6.80859C116.152 7.37109 115.715 8.05859 115.387 8.87109C115.059 9.67578 114.895 10.5898 114.895 11.6133V12.1055C114.895 12.9883 115.043 13.8047 115.34 14.5547C115.637 15.3047 116.051 15.9531 116.582 16.5C117.113 17.0469 117.75 17.4727 118.492 17.7773C119.242 18.082 120.062 18.2344 120.953 18.2344ZM120.672 6.86719C121.227 6.86719 121.703 6.96875 122.102 7.17188C122.508 7.375 122.844 7.64062 123.109 7.96875C123.375 8.29688 123.582 8.6875 123.73 9.14062C123.879 9.58594 123.953 10.0039 123.953 10.3945V10.5H117.133C117.219 9.91406 117.367 9.39844 117.578 8.95312C117.797 8.5 118.062 8.11719 118.375 7.80469C118.688 7.5 119.039 7.26953 119.43 7.11328C119.82 6.94922 120.234 6.86719 120.672 6.86719ZM129.766 18H131.934V8.90625C132.082 8.63281 132.254 8.38281 132.449 8.15625C132.652 7.92969 132.871 7.73047 133.105 7.55859C133.395 7.36328 133.711 7.21094 134.055 7.10156C134.398 6.98438 134.77 6.92578 135.168 6.92578C135.629 6.92578 136.035 6.98047 136.387 7.08984C136.746 7.19922 137.051 7.375 137.301 7.61719C137.543 7.85938 137.727 8.17578 137.852 8.56641C137.977 8.95703 138.039 9.43359 138.039 9.99609V18H140.207V9.94922C140.207 9.10547 140.102 8.37891 139.891 7.76953C139.688 7.15234 139.395 6.64453 139.012 6.24609C138.629 5.84766 138.164 5.55469 137.617 5.36719C137.078 5.17969 136.477 5.08594 135.812 5.08594C135.32 5.09375 134.852 5.16797 134.406 5.30859C133.969 5.44141 133.562 5.63281 133.188 5.88281C132.938 6.04688 132.699 6.24219 132.473 6.46875C132.254 6.6875 132.051 6.92969 131.863 7.19531L131.711 5.32031H129.766V18ZM143.77 11.5547V11.8008C143.77 12.707 143.891 13.5547 144.133 14.3438C144.375 15.125 144.715 15.8047 145.152 16.3828C145.59 16.9609 146.117 17.4141 146.734 17.7422C147.359 18.0703 148.055 18.2344 148.82 18.2344C149.602 18.2344 150.285 18.1016 150.871 17.8359C151.457 17.5703 151.961 17.1797 152.383 16.6641L152.477 18H154.469V0H152.301V6.57422C151.887 6.08984 151.395 5.72266 150.824 5.47266C150.262 5.21484 149.602 5.08594 148.844 5.08594C148.07 5.08594 147.371 5.24609 146.746 5.56641C146.121 5.88672 145.59 6.33203 145.152 6.90234C144.707 7.47266 144.363 8.15625 144.121 8.95312C143.887 9.74219 143.77 10.6094 143.77 11.5547ZM145.938 11.8008V11.5547C145.938 10.9375 146.004 10.3516 146.137 9.79688C146.27 9.23438 146.477 8.73828 146.758 8.30859C147.031 7.88672 147.383 7.55078 147.812 7.30078C148.25 7.05078 148.773 6.92578 149.383 6.92578C150.094 6.92578 150.688 7.09375 151.164 7.42969C151.641 7.75781 152.02 8.17969 152.301 8.69531V14.5781C152.02 15.1328 151.641 15.5742 151.164 15.9023C150.688 16.2305 150.086 16.3945 149.359 16.3945C148.758 16.3945 148.242 16.2734 147.812 16.0312C147.383 15.7812 147.031 15.4453 146.758 15.0234C146.477 14.6016 146.27 14.1133 146.137 13.5586C146.004 13.0039 145.938 12.418 145.938 11.8008ZM164.09 17.4961V15.4336H161.734V17.5312C161.734 18.1953 161.656 18.8359 161.5 19.4531C161.344 20.0703 161.078 20.6523 160.703 21.1992L162.051 21.9375C162.676 21.3828 163.172 20.6992 163.539 19.8867C163.906 19.0742 164.09 18.2773 164.09 17.4961Z" fill="#808080"/>
</svg>
