<svg width="73" height="73" viewBox="0 0 73 73" fill="none" xmlns="http://www.w3.org/2000/svg">
<path d="M54.375 40.3462V53.7479H46.6066V41.2416C46.6066 38.1024 45.4829 35.96 42.6699 35.96C40.5239 35.96 39.2442 37.4027 38.6824 38.802C38.4794 39.3022 38.425 39.9982 38.425 40.6942V53.7479H30.653C30.653 53.7479 30.7581 32.5706 30.653 30.3775H38.425V33.6871L38.3743 33.7632H38.425V33.6907C39.4581 32.0957 41.2996 29.8265 45.4285 29.8265C50.5397 29.8265 54.375 33.1687 54.375 40.3462ZM22.5221 19.1074C19.865 19.1074 18.125 20.8546 18.125 23.1456C18.125 25.3931 19.8143 27.1875 22.4206 27.1875H22.4714C25.1829 27.1875 26.8685 25.3895 26.8685 23.1456C26.8177 20.8546 25.1829 19.1074 22.5221 19.1074ZM18.5854 53.7479H26.3574V30.3775H18.5854V53.7479Z" fill="#2867B2"/>
<path d="M14.5 7.25C12.5772 7.25 10.7331 8.01384 9.37348 9.37347C8.01384 10.7331 7.25 12.5772 7.25 14.5V58C7.25 59.9228 8.01384 61.7669 9.37348 63.1265C10.7331 64.4862 12.5772 65.25 14.5 65.25H58C59.9228 65.25 61.7669 64.4862 63.1265 63.1265C64.4862 61.7669 65.25 59.9228 65.25 58V14.5C65.25 12.5772 64.4862 10.7331 63.1265 9.37347C61.7669 8.01384 59.9228 7.25 58 7.25H14.5ZM14.5 0H58C61.8456 0 65.5338 1.52767 68.2531 4.24695C70.9723 6.96623 72.5 10.6544 72.5 14.5V58C72.5 61.8456 70.9723 65.5338 68.2531 68.253C65.5338 70.9723 61.8456 72.5 58 72.5H14.5C10.6544 72.5 6.96623 70.9723 4.24695 68.253C1.52767 65.5338 0 61.8456 0 58V14.5C0 10.6544 1.52767 6.96623 4.24695 4.24695C6.96623 1.52767 10.6544 0 14.5 0Z" fill="#2867B2"/>
</svg>
