<svg width="487" height="589" viewBox="0 0 487 589" fill="none" xmlns="http://www.w3.org/2000/svg">
<path d="M15.4521 60.4069C15.4521 58.4173 15.7774 56.7338 16.4278 55.3564C17.04 53.9408 17.8626 52.7929 18.8956 51.9129C19.9287 51.0329 21.1148 50.4016 22.4539 50.019C23.7931 49.6364 25.1705 49.4451 26.5861 49.4451H41.2784C41.7758 49.4451 42.1967 49.6746 42.541 50.1338C42.8471 50.5547 43.0001 51.1094 43.0001 51.7981C43.0001 52.4486 42.8471 52.9842 42.541 53.4051C42.1967 53.7877 41.7758 53.979 41.2784 53.979H38.9827C40.1306 54.9738 41.1636 56.179 42.0819 57.5947C43.0001 59.0104 43.4593 60.6938 43.4593 62.6452C43.4593 63.7165 43.3062 64.7304 43.0001 65.6869C42.6941 66.6052 42.2349 67.4278 41.6227 68.1548C40.9723 68.8435 40.1688 69.3982 39.2123 69.8191C38.2558 70.2017 37.1271 70.393 35.8262 70.393C34.2192 70.393 32.9183 70.0678 31.9236 69.4174C30.8905 68.7669 30.0679 67.8487 29.4557 66.6626C28.8435 65.4765 28.4227 64.0608 28.1931 62.4156C27.9635 60.7704 27.8487 58.953 27.8487 56.9634V54.2086H26.6435C25.8018 54.2086 24.96 54.3234 24.1183 54.5529C23.2765 54.7825 22.5113 55.146 21.8226 55.6434C21.1339 56.1408 20.5791 56.7912 20.1583 57.5947C19.7374 58.3982 19.527 59.3738 19.527 60.5217C19.527 61.5165 19.6226 62.3582 19.8139 63.0469C19.967 63.7356 20.1583 64.3095 20.3878 64.7687C20.5791 65.2278 20.7704 65.6104 20.9617 65.9165C21.1148 66.2226 21.1913 66.5095 21.1913 66.7774C21.1913 67.3513 20.9235 67.7913 20.3878 68.0974C19.8522 68.4035 19.3165 68.5565 18.7809 68.5565C18.3217 68.5565 17.9009 68.3078 17.5182 67.8104C17.0974 67.313 16.7339 66.6817 16.4278 65.9165C16.1217 65.113 15.8921 64.233 15.7391 63.2765C15.5478 62.3199 15.4521 61.3634 15.4521 60.4069ZM30.7757 54.2086V56.2173C30.7757 57.4417 30.8331 58.6277 30.9479 59.7756C31.0244 60.8851 31.2157 61.8799 31.5218 62.7599C31.8279 63.6017 32.287 64.2904 32.8992 64.826C33.4731 65.3234 34.2766 65.5721 35.3097 65.5721C36.8018 65.5721 37.8923 65.1513 38.581 64.3095C39.2697 63.4678 39.614 62.4156 39.614 61.153C39.614 60.3495 39.4419 59.5269 39.0975 58.6851C38.7149 57.8434 38.2366 57.0973 37.6627 56.4469C37.0888 55.7964 36.4575 55.2608 35.7688 54.8399C35.0801 54.419 34.4105 54.2086 33.7601 54.2086H30.7757Z" fill="#F2AE30"/>
<path d="M26.3566 26.0154C25.4 26.0154 24.52 26.1876 23.7165 26.5319C22.8748 26.838 22.167 27.2589 21.5931 27.7945C21.0191 28.3302 20.5791 28.9615 20.273 29.6884C19.9287 30.4154 19.7565 31.1806 19.7565 31.9841C19.7565 32.7493 19.9096 33.4954 20.2157 34.2224C20.4835 34.9494 20.9044 35.5998 21.4783 36.1737C22.0522 36.7476 22.76 37.2259 23.6018 37.6085C24.4435 37.9528 25.4 38.125 26.4713 38.125H41.2784C41.6993 38.125 42.101 38.3737 42.4836 38.8711C42.828 39.3302 43.0001 39.885 43.0001 40.5355C43.0001 41.2242 42.828 41.7981 42.4836 42.2572C42.101 42.6781 41.6993 42.8885 41.2784 42.8885H17.4609C16.9635 42.8885 16.5617 42.6781 16.2556 42.2572C15.9495 41.7981 15.7965 41.2242 15.7965 40.5355C15.7965 39.9233 15.9495 39.4068 16.2556 38.9859C16.5617 38.565 16.9635 38.3546 17.4609 38.3546H19.8139C18.7043 37.7041 17.7096 36.7476 16.8295 35.485C15.9113 34.2224 15.4521 32.6346 15.4521 30.7215C15.4521 28.885 15.9878 27.278 17.0591 25.9006C18.0922 24.5232 19.4696 23.5093 21.1913 22.8588C19.24 21.8641 17.8052 20.5823 16.8869 19.0136C15.9304 17.4449 15.4521 15.8188 15.4521 14.1353C15.4521 12.8727 15.7008 11.6483 16.1982 10.4622C16.6956 9.27615 17.4226 8.24309 18.3791 7.36309C19.2974 6.44482 20.4452 5.71786 21.8226 5.18221C23.1618 4.60829 24.7113 4.32133 26.4713 4.32133H41.2784C41.6993 4.32133 42.101 4.57003 42.4836 5.06742C42.828 5.52656 43.0001 6.08135 43.0001 6.73178C43.0001 7.38222 42.828 7.93701 42.4836 8.39614C42.101 8.85528 41.6993 9.08484 41.2784 9.08484H26.4713C25.3618 9.08484 24.3861 9.25702 23.5444 9.60136C22.7026 9.94571 22.0139 10.4048 21.4783 10.9788C20.9044 11.5527 20.4835 12.2031 20.2157 12.9301C19.9096 13.657 19.7565 14.384 19.7565 15.111C19.7565 15.8762 19.9096 16.6223 20.2157 17.3492C20.5217 18.0762 20.9617 18.7266 21.5357 19.3006C22.1096 19.8745 22.7983 20.3527 23.6018 20.7353C24.4052 21.0797 25.3044 21.2519 26.2992 21.2519H41.3358C41.9097 21.2519 42.3306 21.5006 42.5984 21.998C42.8662 22.4954 43.0001 23.0501 43.0001 23.6623C43.0001 24.198 42.8662 24.7336 42.5984 25.2693C42.3306 25.7667 41.9097 26.0154 41.3358 26.0154H26.3566Z" fill="#F2AE30"/>
<path d="M67.9557 87.7812V7.98486C67.9557 6.85984 68.3575 5.89554 69.1611 5.09195C69.9647 4.28836 70.9691 3.88657 72.1745 3.88657H95.0768C113.559 3.88657 122.801 12.0832 122.801 28.4764C122.801 35.3069 121.274 40.6909 118.22 44.6285C115.166 48.4857 111.028 51.0572 105.805 52.3429L122.68 84.0445C123.001 84.607 123.162 85.2097 123.162 85.8525C123.162 87.4597 122.318 88.9464 120.631 90.3125C119.024 91.6786 117.296 92.3616 115.448 92.3616C113.358 92.3616 111.671 91.116 110.385 88.6249L92.7866 54.151H80.6122V87.7812C80.6122 89.0669 79.9693 90.1116 78.6836 90.9151C77.4782 91.6384 75.9916 92 74.2237 92C72.5361 92 71.0495 91.6384 69.7638 90.9151C68.5584 90.1116 67.9557 89.0669 67.9557 87.7812ZM80.6122 43.9053H95.0768C105.041 43.9053 110.024 39.1239 110.024 29.5612C110.024 19.9985 105.041 15.2172 95.0768 15.2172H80.6122V43.9053Z" fill="black"/>
<path d="M142.399 77.0533C142.399 70.6245 144.81 66.1646 149.632 63.6735C154.453 61.102 161.444 59.8163 170.605 59.8163H175.909V57.6466C175.909 54.1108 174.904 51.0572 172.895 48.4857C170.967 45.9142 167.994 44.6285 163.976 44.6285C160.52 44.6285 157.467 45.2312 154.815 46.4365C152.243 47.6419 150.837 48.2446 150.596 48.2446C149.23 48.2446 148.105 47.6018 147.221 46.316C146.417 44.9499 146.015 43.4633 146.015 41.8561C146.015 39.7668 147.944 37.9587 151.801 36.4319C155.739 34.9051 159.877 34.1417 164.217 34.1417C172.494 34.1417 178.601 36.3917 182.539 40.8918C186.556 45.3115 188.565 50.8563 188.565 57.5261V87.7812C188.565 88.9062 187.963 89.9107 186.757 90.7946C185.632 91.5982 184.186 92 182.418 92C180.811 92 179.445 91.5982 178.32 90.7946C177.195 89.9107 176.632 88.9062 176.632 87.7812V83.5623C171.248 89.8303 165.181 92.9643 158.431 92.9643C153.77 92.9643 149.913 91.5982 146.859 88.866C143.886 86.1338 142.399 82.1962 142.399 77.0533ZM155.176 75.4863C155.176 78.0577 155.9 80.0265 157.346 81.3926C158.793 82.6784 160.681 83.3212 163.011 83.3212C166.065 83.3212 168.958 82.0355 171.69 79.464C174.503 76.8925 175.909 74.1603 175.909 71.2674V66.8075H172.895C169.279 66.8075 166.306 66.9682 163.976 67.2897C161.726 67.6111 159.676 68.4549 157.828 69.821C156.06 71.1871 155.176 73.0755 155.176 75.4863Z" fill="black"/>
<path d="M213.633 87.7812V4.97141C213.633 3.76602 214.195 2.80172 215.32 2.07849C216.445 1.2749 217.932 0.873108 219.78 0.873108C221.628 0.873108 223.155 1.2749 224.361 2.07849C225.646 2.80172 226.289 3.76602 226.289 4.97141V58.6109L251.482 35.4676C252.205 34.7443 253.089 34.3827 254.134 34.3827C255.5 34.3827 256.866 35.0256 258.232 36.3113C259.598 37.5971 260.281 38.9632 260.281 40.4096C260.281 41.4543 259.919 42.3382 259.196 43.0615L243.647 56.9234L262.571 84.165C263.053 84.8882 263.294 85.6115 263.294 86.3347C263.294 87.7812 262.491 89.2276 260.884 90.6741C259.276 92.0402 257.71 92.7232 256.183 92.7232C254.817 92.7232 253.692 92.1205 252.808 90.9151L235.089 64.7584L226.289 72.7139V87.7812C226.289 88.8258 225.646 89.7901 224.361 90.6741C223.075 91.558 221.548 92 219.78 92C218.012 92 216.526 91.558 215.32 90.6741C214.195 89.7901 213.633 88.8258 213.633 87.7812Z" fill="black"/>
<path d="M280.106 83.3212C280.106 82.1159 280.508 80.8703 281.311 79.5846C282.195 78.2988 283.24 77.6559 284.445 77.6559C285.168 77.6559 286.173 78.1381 287.459 79.1024C288.744 79.9864 290.472 80.9105 292.642 81.8748C294.811 82.7587 297.423 83.2007 300.477 83.2007C307.307 83.2007 310.722 81.031 310.722 76.6916C310.722 74.3612 309.718 72.5532 307.709 71.2674C305.7 69.9013 303.249 68.8567 300.356 68.1334C297.544 67.3298 294.731 66.4459 291.918 65.4816C289.106 64.5173 286.695 62.8699 284.686 60.5395C282.677 58.2091 281.673 55.1957 281.673 51.4992C281.673 46.758 283.36 42.6999 286.735 39.3248C290.11 35.8694 295.294 34.1417 302.285 34.1417C306.865 34.1417 311.004 34.8649 314.7 36.3113C318.477 37.6774 320.365 39.3248 320.365 41.2534C320.365 42.3784 319.883 43.7044 318.919 45.2312C318.035 46.6776 316.91 47.4009 315.544 47.4009C315.062 47.4009 313.414 46.8383 310.602 45.7133C307.789 44.5079 305.097 43.9053 302.526 43.9053C299.311 43.9053 296.861 44.6285 295.173 46.0749C293.566 47.5214 292.762 49.1286 292.762 50.8965C292.762 52.8251 293.767 54.3519 295.776 55.4769C297.785 56.6019 300.236 57.5261 303.129 58.2493C306.021 58.9725 308.874 59.8565 311.687 60.9011C314.58 61.9458 317.031 63.7539 319.04 66.3254C321.049 68.8968 322.053 72.1916 322.053 76.2095C322.053 81.4328 320.205 85.5311 316.508 88.5044C312.812 91.4777 307.588 92.9643 300.838 92.9643C295.133 92.9643 290.231 91.9598 286.133 89.9508C282.115 87.9419 280.106 85.732 280.106 83.3212Z" fill="black"/>
<path d="M344.388 87.7812V4.97141C344.388 3.76602 344.951 2.80172 346.076 2.07849C347.281 1.2749 348.808 0.873108 350.656 0.873108C352.424 0.873108 353.911 1.2749 355.116 2.07849C356.402 2.80172 357.045 3.76602 357.045 4.97141V43.3026C358.331 40.7311 360.299 38.5614 362.951 36.7935C365.683 35.0256 368.858 34.1417 372.474 34.1417C378.179 34.1417 383.081 36.4721 387.179 41.1329C391.358 45.7937 393.447 51.3786 393.447 57.8877V87.7812C393.447 89.0669 392.805 90.1116 391.519 90.9151C390.233 91.6384 388.746 92 387.059 92C385.452 92 384.005 91.6384 382.72 90.9151C381.434 90.1116 380.791 89.0669 380.791 87.7812V57.8877C380.791 54.6733 379.586 51.7804 377.175 49.2089C374.764 46.6374 371.911 45.3517 368.617 45.3517C365.563 45.3517 362.871 46.5169 360.54 48.8473C358.21 51.0974 357.045 54.1108 357.045 57.8877V87.7812C357.045 88.8258 356.402 89.7901 355.116 90.6741C353.831 91.558 352.344 92 350.656 92C348.888 92 347.402 91.558 346.196 90.6741C344.991 89.7901 344.388 88.8258 344.388 87.7812Z" fill="black"/>
<path d="M417.154 13.8912C417.154 12.043 417.877 10.476 419.324 9.19024C420.77 7.9045 422.498 7.26163 424.507 7.26163C426.516 7.26163 428.243 7.9045 429.69 9.19024C431.136 10.476 431.86 12.043 431.86 13.8912C431.86 15.6591 431.136 17.2261 429.69 18.5922C428.243 19.878 426.516 20.5208 424.507 20.5208C422.498 20.5208 420.77 19.878 419.324 18.5922C417.877 17.2261 417.154 15.6591 417.154 13.8912ZM418.239 87.7812V38.9632C418.239 37.7578 418.801 36.7935 419.926 36.0703C421.132 35.2667 422.658 34.8649 424.507 34.8649C426.355 34.8649 427.882 35.2667 429.087 36.0703C430.293 36.7935 430.895 37.7578 430.895 38.9632V87.7812C430.895 88.8258 430.252 89.7901 428.967 90.6741C427.761 91.558 426.275 92 424.507 92C422.739 92 421.252 91.558 420.047 90.6741C418.841 89.7901 418.239 88.8258 418.239 87.7812Z" fill="black"/>
<path d="M456.069 73.196V12.8064C456.069 11.6814 456.712 10.7171 457.998 9.91347C459.283 9.10988 460.73 8.70809 462.337 8.70809C463.944 8.70809 465.391 9.10988 466.676 9.91347C468.042 10.7171 468.725 11.6814 468.725 12.8064V34.8649H483.431C484.476 34.8649 485.319 35.347 485.962 36.3113C486.605 37.1953 486.927 38.2801 486.927 39.5659C486.927 40.8516 486.605 41.9766 485.962 42.9409C485.319 43.8249 484.476 44.2669 483.431 44.2669H468.725V73.196C468.725 76.0889 469.328 78.1381 470.533 79.3435C471.819 80.5489 474.029 81.1516 477.163 81.1516H481.382C483.069 81.1516 484.395 81.6739 485.36 82.7186C486.324 83.7632 486.806 85.049 486.806 86.5758C486.806 88.1026 486.324 89.3883 485.36 90.433C484.395 91.4777 483.069 92 481.382 92H477.163C463.1 92 456.069 85.732 456.069 73.196Z" fill="black"/>
<path d="M62.0493 221.7C62.0493 219.37 62.5716 217.763 63.6163 216.879C64.661 215.995 66.3083 215.553 68.5584 215.553C72.6567 215.553 74.746 216.959 74.8264 219.772C74.9871 223.709 76.2326 226.964 78.5631 229.535C80.8935 232.107 84.3891 233.393 89.0499 233.393C98.6929 233.393 103.514 228.209 103.514 217.843V167.217H89.4115C88.1257 167.217 87.0811 166.655 86.2775 165.53C85.5543 164.405 85.1926 163.038 85.1926 161.431C85.1926 159.904 85.5543 158.619 86.2775 157.574C87.0007 156.449 88.0454 155.887 89.4115 155.887H110.626C112.153 155.887 113.479 156.288 114.604 157.092C115.729 157.815 116.292 158.82 116.292 160.105V217.843C116.292 227.084 113.841 233.875 108.939 238.214C104.037 242.554 97.5679 244.723 89.532 244.723C81.4158 244.723 74.7862 242.634 69.6432 238.455C64.5806 234.196 62.0493 228.611 62.0493 221.7Z" fill="black"/>
<path d="M142.722 239.781V156.971C142.722 155.766 143.285 154.802 144.41 154.078C145.615 153.275 147.142 152.873 148.99 152.873C150.758 152.873 152.245 153.275 153.45 154.078C154.736 154.802 155.379 155.766 155.379 156.971V195.303C156.665 192.731 158.633 190.561 161.285 188.793C164.017 187.026 167.192 186.142 170.808 186.142C176.513 186.142 181.415 188.472 185.513 193.133C189.692 197.794 191.781 203.379 191.781 209.888V239.781C191.781 241.067 191.139 242.112 189.853 242.915C188.567 243.638 187.08 244 185.393 244C183.786 244 182.339 243.638 181.053 242.915C179.768 242.112 179.125 241.067 179.125 239.781V209.888C179.125 206.673 177.919 203.78 175.509 201.209C173.098 198.637 170.245 197.352 166.951 197.352C163.897 197.352 161.205 198.517 158.874 200.847C156.544 203.097 155.379 206.111 155.379 209.888V239.781C155.379 240.826 154.736 241.79 153.45 242.674C152.164 243.558 150.678 244 148.99 244C147.222 244 145.736 243.558 144.53 242.674C143.325 241.79 142.722 240.826 142.722 239.781Z" fill="black"/>
<path d="M212.957 229.053C212.957 222.625 215.367 218.165 220.189 215.674C225.01 213.102 232.002 211.816 241.162 211.816H246.466V209.647C246.466 206.111 245.462 203.057 243.453 200.486C241.524 197.914 238.551 196.628 234.533 196.628C231.077 196.628 228.024 197.231 225.372 198.437C222.801 199.642 221.394 200.245 221.153 200.245C219.787 200.245 218.662 199.602 217.778 198.316C216.974 196.95 216.573 195.463 216.573 193.856C216.573 191.767 218.501 189.959 222.359 188.432C226.296 186.905 230.435 186.142 234.774 186.142C243.051 186.142 249.158 188.392 253.096 192.892C257.114 197.312 259.123 202.856 259.123 209.526V239.781C259.123 240.906 258.52 241.911 257.315 242.795C256.19 243.598 254.743 244 252.975 244C251.368 244 250.002 243.598 248.877 242.795C247.752 241.911 247.189 240.906 247.189 239.781V235.562C241.805 241.83 235.738 244.964 228.988 244.964C224.327 244.964 220.47 243.598 217.416 240.866C214.443 238.134 212.957 234.196 212.957 229.053ZM225.734 227.486C225.734 230.058 226.457 232.027 227.903 233.393C229.35 234.678 231.238 235.321 233.569 235.321C236.622 235.321 239.515 234.036 242.247 231.464C245.06 228.893 246.466 226.16 246.466 223.267V218.807H243.453C239.837 218.807 236.863 218.968 234.533 219.29C232.283 219.611 230.234 220.455 228.385 221.821C226.618 223.187 225.734 225.076 225.734 227.486Z" fill="black"/>
<path d="M283.467 242.674C282.101 241.228 281.418 239.5 281.418 237.491C281.418 235.482 282.101 233.794 283.467 232.428C284.833 230.982 286.561 230.259 288.65 230.259C290.578 230.259 292.226 230.982 293.592 232.428C295.038 233.794 295.762 235.482 295.762 237.491C295.762 239.42 295.038 241.107 293.592 242.554C292.226 244 290.578 244.723 288.65 244.723C286.561 244.723 284.833 244.04 283.467 242.674Z" fill="black"/>
<path d="M307.105 242.16V226.938H304.938V244H315.449V242.16H307.105Z" fill="#808080"/>
<path d="M319.41 231.32V233.207H323.723V242.125H319.41V244H330.027V242.125H325.891V231.32H319.41ZM323.441 227.992C323.441 228.344 323.547 228.637 323.758 228.871C323.977 229.105 324.305 229.223 324.742 229.223C325.172 229.223 325.496 229.105 325.715 228.871C325.934 228.637 326.043 228.344 326.043 227.992C326.043 227.797 326.012 227.617 325.949 227.453C325.887 227.289 325.793 227.152 325.668 227.043C325.566 226.941 325.438 226.863 325.281 226.809C325.125 226.746 324.945 226.715 324.742 226.715C324.539 226.715 324.355 226.746 324.191 226.809C324.035 226.863 323.906 226.941 323.805 227.043C323.68 227.16 323.586 227.301 323.523 227.465C323.469 227.629 323.441 227.805 323.441 227.992Z" fill="#808080"/>
<path d="M334.48 231.32H332.535V244H334.598V233.91C334.645 233.785 334.703 233.668 334.773 233.559C334.852 233.449 334.941 233.352 335.043 233.266C335.176 233.156 335.336 233.074 335.523 233.02C335.719 232.957 335.945 232.926 336.203 232.926C336.438 232.926 336.641 232.957 336.812 233.02C336.992 233.074 337.141 233.164 337.258 233.289C337.383 233.422 337.473 233.59 337.527 233.793C337.59 233.996 337.621 234.23 337.621 234.496V244H339.684V234.508C339.684 234.461 339.684 234.422 339.684 234.391C339.684 234.352 339.684 234.312 339.684 234.273C339.707 234.078 339.754 233.902 339.824 233.746C339.895 233.582 339.992 233.438 340.117 233.312C340.242 233.195 340.398 233.102 340.586 233.031C340.773 232.961 340.996 232.926 341.254 232.926C341.496 232.926 341.707 232.957 341.887 233.02C342.074 233.082 342.23 233.176 342.355 233.301C342.473 233.434 342.562 233.602 342.625 233.805C342.688 234.008 342.719 234.242 342.719 234.508V244H344.781V234.531C344.781 233.922 344.711 233.395 344.57 232.949C344.43 232.496 344.227 232.129 343.961 231.848C343.719 231.598 343.422 231.41 343.07 231.285C342.719 231.152 342.324 231.086 341.887 231.086C341.566 231.094 341.27 231.137 340.996 231.215C340.73 231.293 340.488 231.398 340.27 231.531C340.098 231.648 339.938 231.785 339.789 231.941C339.641 232.098 339.512 232.266 339.402 232.445C339.316 232.25 339.211 232.074 339.086 231.918C338.969 231.762 338.836 231.629 338.688 231.52C338.484 231.379 338.246 231.273 337.973 231.203C337.707 231.125 337.406 231.086 337.07 231.086C336.477 231.094 335.969 231.223 335.547 231.473C335.133 231.723 334.797 232.07 334.539 232.516L334.48 231.32Z" fill="#808080"/>
<path d="M348.238 231.32V233.207H352.551V242.125H348.238V244H358.855V242.125H354.719V231.32H348.238ZM352.27 227.992C352.27 228.344 352.375 228.637 352.586 228.871C352.805 229.105 353.133 229.223 353.57 229.223C354 229.223 354.324 229.105 354.543 228.871C354.762 228.637 354.871 228.344 354.871 227.992C354.871 227.797 354.84 227.617 354.777 227.453C354.715 227.289 354.621 227.152 354.496 227.043C354.395 226.941 354.266 226.863 354.109 226.809C353.953 226.746 353.773 226.715 353.57 226.715C353.367 226.715 353.184 226.746 353.02 226.809C352.863 226.863 352.734 226.941 352.633 227.043C352.508 227.16 352.414 227.301 352.352 227.465C352.297 227.629 352.27 227.805 352.27 227.992Z" fill="#808080"/>
<path d="M367.445 228.25H365.266V231.32H361.938V232.996H365.266V239.887C365.266 240.668 365.367 241.336 365.57 241.891C365.781 242.438 366.066 242.883 366.426 243.227C366.785 243.578 367.207 243.836 367.691 244C368.184 244.156 368.711 244.234 369.273 244.234C369.609 244.234 369.945 244.219 370.281 244.188C370.625 244.156 370.949 244.109 371.254 244.047C371.559 243.992 371.84 243.926 372.098 243.848C372.355 243.762 372.574 243.664 372.754 243.555L372.449 242.02C372.316 242.051 372.145 242.09 371.934 242.137C371.73 242.176 371.512 242.215 371.277 242.254C371.035 242.293 370.789 242.328 370.539 242.359C370.289 242.383 370.047 242.395 369.812 242.395C369.492 242.395 369.188 242.355 368.898 242.277C368.617 242.199 368.367 242.062 368.148 241.867C367.93 241.68 367.758 241.426 367.633 241.105C367.508 240.785 367.445 240.379 367.445 239.887V232.996H372.273V231.32H367.445V228.25Z" fill="#808080"/>
<path d="M385.152 240.637C385.152 240.84 385.113 241.031 385.035 241.211C384.957 241.391 384.844 241.555 384.695 241.703C384.453 241.945 384.117 242.137 383.688 242.277C383.258 242.41 382.754 242.477 382.176 242.477C381.809 242.477 381.438 242.438 381.062 242.359C380.688 242.281 380.348 242.148 380.043 241.961C379.73 241.773 379.469 241.527 379.258 241.223C379.055 240.918 378.938 240.543 378.906 240.098H376.738C376.738 240.637 376.859 241.156 377.102 241.656C377.352 242.156 377.711 242.594 378.18 242.969C378.641 243.352 379.207 243.66 379.879 243.895C380.551 244.121 381.316 244.234 382.176 244.234C382.926 244.234 383.617 244.145 384.25 243.965C384.883 243.785 385.426 243.531 385.879 243.203C386.332 242.875 386.684 242.48 386.934 242.02C387.191 241.559 387.32 241.047 387.32 240.484C387.32 239.961 387.207 239.5 386.98 239.102C386.762 238.703 386.441 238.352 386.02 238.047C385.598 237.75 385.078 237.496 384.461 237.285C383.844 237.066 383.145 236.875 382.363 236.711C381.77 236.594 381.277 236.473 380.887 236.348C380.504 236.223 380.199 236.082 379.973 235.926C379.738 235.77 379.574 235.594 379.48 235.398C379.387 235.203 379.34 234.98 379.34 234.73C379.34 234.488 379.398 234.254 379.516 234.027C379.633 233.801 379.809 233.602 380.043 233.43C380.27 233.258 380.555 233.121 380.898 233.02C381.25 232.918 381.656 232.867 382.117 232.867C382.562 232.867 382.961 232.93 383.312 233.055C383.672 233.18 383.977 233.344 384.227 233.547C384.477 233.75 384.672 233.984 384.812 234.25C384.953 234.508 385.023 234.773 385.023 235.047H387.191C387.191 234.492 387.07 233.977 386.828 233.5C386.594 233.016 386.258 232.594 385.82 232.234C385.383 231.875 384.852 231.594 384.227 231.391C383.602 231.188 382.898 231.086 382.117 231.086C381.391 231.086 380.723 231.184 380.113 231.379C379.512 231.574 378.992 231.84 378.555 232.176C378.117 232.512 377.777 232.906 377.535 233.359C377.293 233.805 377.172 234.285 377.172 234.801C377.172 235.324 377.289 235.785 377.523 236.184C377.758 236.574 378.09 236.914 378.52 237.203C378.941 237.5 379.449 237.754 380.043 237.965C380.645 238.176 381.309 238.355 382.035 238.504C382.629 238.621 383.125 238.754 383.523 238.902C383.922 239.043 384.242 239.199 384.484 239.371C384.727 239.543 384.898 239.734 385 239.945C385.102 240.148 385.152 240.379 385.152 240.637Z" fill="#808080"/>
<path d="M410.688 228.25H408.508V231.32H405.18V232.996H408.508V239.887C408.508 240.668 408.609 241.336 408.812 241.891C409.023 242.438 409.309 242.883 409.668 243.227C410.027 243.578 410.449 243.836 410.934 244C411.426 244.156 411.953 244.234 412.516 244.234C412.852 244.234 413.188 244.219 413.523 244.188C413.867 244.156 414.191 244.109 414.496 244.047C414.801 243.992 415.082 243.926 415.34 243.848C415.598 243.762 415.816 243.664 415.996 243.555L415.691 242.02C415.559 242.051 415.387 242.09 415.176 242.137C414.973 242.176 414.754 242.215 414.52 242.254C414.277 242.293 414.031 242.328 413.781 242.359C413.531 242.383 413.289 242.395 413.055 242.395C412.734 242.395 412.43 242.355 412.141 242.277C411.859 242.199 411.609 242.062 411.391 241.867C411.172 241.68 411 241.426 410.875 241.105C410.75 240.785 410.688 240.379 410.688 239.887V232.996H415.516V231.32H410.688V228.25Z" fill="#808080"/>
<path d="M425.57 244.234C426.805 244.234 427.84 243.988 428.676 243.496C429.52 242.996 430.152 242.426 430.574 241.785L429.25 240.754C428.852 241.27 428.352 241.684 427.75 241.996C427.148 242.309 426.461 242.465 425.688 242.465C425.102 242.465 424.566 242.355 424.082 242.137C423.598 241.918 423.184 241.617 422.84 241.234C422.504 240.875 422.238 240.461 422.043 239.992C421.855 239.523 421.734 238.98 421.68 238.363V238.281H430.738V237.309C430.738 236.426 430.625 235.605 430.398 234.848C430.18 234.09 429.844 233.43 429.391 232.867C428.938 232.312 428.367 231.879 427.68 231.566C427 231.246 426.203 231.086 425.289 231.086C424.562 231.086 423.852 231.234 423.156 231.531C422.469 231.828 421.855 232.254 421.316 232.809C420.77 233.371 420.332 234.059 420.004 234.871C419.676 235.676 419.512 236.59 419.512 237.613V238.105C419.512 238.988 419.66 239.805 419.957 240.555C420.254 241.305 420.668 241.953 421.199 242.5C421.73 243.047 422.367 243.473 423.109 243.777C423.859 244.082 424.68 244.234 425.57 244.234ZM425.289 232.867C425.844 232.867 426.32 232.969 426.719 233.172C427.125 233.375 427.461 233.641 427.727 233.969C427.992 234.297 428.199 234.688 428.348 235.141C428.496 235.586 428.57 236.004 428.57 236.395V236.5H421.75C421.836 235.914 421.984 235.398 422.195 234.953C422.414 234.5 422.68 234.117 422.992 233.805C423.305 233.5 423.656 233.27 424.047 233.113C424.438 232.949 424.852 232.867 425.289 232.867Z" fill="#808080"/>
<path d="M434.383 244H436.551V234.906C436.699 234.633 436.871 234.383 437.066 234.156C437.27 233.93 437.488 233.73 437.723 233.559C438.012 233.363 438.328 233.211 438.672 233.102C439.016 232.984 439.387 232.926 439.785 232.926C440.246 232.926 440.652 232.98 441.004 233.09C441.363 233.199 441.668 233.375 441.918 233.617C442.16 233.859 442.344 234.176 442.469 234.566C442.594 234.957 442.656 235.434 442.656 235.996V244H444.824V235.949C444.824 235.105 444.719 234.379 444.508 233.77C444.305 233.152 444.012 232.645 443.629 232.246C443.246 231.848 442.781 231.555 442.234 231.367C441.695 231.18 441.094 231.086 440.43 231.086C439.938 231.094 439.469 231.168 439.023 231.309C438.586 231.441 438.18 231.633 437.805 231.883C437.555 232.047 437.316 232.242 437.09 232.469C436.871 232.688 436.668 232.93 436.48 233.195L436.328 231.32H434.383V244Z" fill="#808080"/>
<path d="M448.387 237.555V237.801C448.387 238.707 448.508 239.555 448.75 240.344C448.992 241.125 449.332 241.805 449.77 242.383C450.207 242.961 450.734 243.414 451.352 243.742C451.977 244.07 452.672 244.234 453.438 244.234C454.219 244.234 454.902 244.102 455.488 243.836C456.074 243.57 456.578 243.18 457 242.664L457.094 244H459.086V226H456.918V232.574C456.504 232.09 456.012 231.723 455.441 231.473C454.879 231.215 454.219 231.086 453.461 231.086C452.688 231.086 451.988 231.246 451.363 231.566C450.738 231.887 450.207 232.332 449.77 232.902C449.324 233.473 448.98 234.156 448.738 234.953C448.504 235.742 448.387 236.609 448.387 237.555ZM450.555 237.801V237.555C450.555 236.938 450.621 236.352 450.754 235.797C450.887 235.234 451.094 234.738 451.375 234.309C451.648 233.887 452 233.551 452.43 233.301C452.867 233.051 453.391 232.926 454 232.926C454.711 232.926 455.305 233.094 455.781 233.43C456.258 233.758 456.637 234.18 456.918 234.695V240.578C456.637 241.133 456.258 241.574 455.781 241.902C455.305 242.23 454.703 242.395 453.977 242.395C453.375 242.395 452.859 242.273 452.43 242.031C452 241.781 451.648 241.445 451.375 241.023C451.094 240.602 450.887 240.113 450.754 239.559C450.621 239.004 450.555 238.418 450.555 237.801Z" fill="#808080"/>
<path d="M468.707 243.496V241.434H466.352V243.531C466.352 244.195 466.273 244.836 466.117 245.453C465.961 246.07 465.695 246.652 465.32 247.199L466.668 247.938C467.293 247.383 467.789 246.699 468.156 245.887C468.523 245.074 468.707 244.277 468.707 243.496Z" fill="#808080"/>
<path d="M59.6172 258.938V260.824H63.6133V274.125H59.6172V276H69.9297V274.125H65.8398V260.824H69.9297V258.938H59.6172Z" fill="#808080"/>
<path d="M88.7852 258V259.887H93.0977V274.125H88.7852V276H99.4023V274.125H95.2656V258H88.7852Z" fill="#808080"/>
<path d="M103.199 263.32V265.207H107.512V274.125H103.199V276H113.816V274.125H109.68V263.32H103.199ZM107.23 259.992C107.23 260.344 107.336 260.637 107.547 260.871C107.766 261.105 108.094 261.223 108.531 261.223C108.961 261.223 109.285 261.105 109.504 260.871C109.723 260.637 109.832 260.344 109.832 259.992C109.832 259.797 109.801 259.617 109.738 259.453C109.676 259.289 109.582 259.152 109.457 259.043C109.355 258.941 109.227 258.863 109.07 258.809C108.914 258.746 108.734 258.715 108.531 258.715C108.328 258.715 108.145 258.746 107.98 258.809C107.824 258.863 107.695 258.941 107.594 259.043C107.469 259.16 107.375 259.301 107.312 259.465C107.258 259.629 107.23 259.805 107.23 259.992Z" fill="#808080"/>
<path d="M121.07 270.082L125.723 276H128.477L122.559 268.605L127.691 263.32H125.055L120.895 267.492L119.477 269.016V258H117.297V276H119.477V271.617L121.07 270.082Z" fill="#808080"/>
<path d="M137.289 276.234C138.523 276.234 139.559 275.988 140.395 275.496C141.238 274.996 141.871 274.426 142.293 273.785L140.969 272.754C140.57 273.27 140.07 273.684 139.469 273.996C138.867 274.309 138.18 274.465 137.406 274.465C136.82 274.465 136.285 274.355 135.801 274.137C135.316 273.918 134.902 273.617 134.559 273.234C134.223 272.875 133.957 272.461 133.762 271.992C133.574 271.523 133.453 270.98 133.398 270.363V270.281H142.457V269.309C142.457 268.426 142.344 267.605 142.117 266.848C141.898 266.09 141.562 265.43 141.109 264.867C140.656 264.312 140.086 263.879 139.398 263.566C138.719 263.246 137.922 263.086 137.008 263.086C136.281 263.086 135.57 263.234 134.875 263.531C134.188 263.828 133.574 264.254 133.035 264.809C132.488 265.371 132.051 266.059 131.723 266.871C131.395 267.676 131.23 268.59 131.23 269.613V270.105C131.23 270.988 131.379 271.805 131.676 272.555C131.973 273.305 132.387 273.953 132.918 274.5C133.449 275.047 134.086 275.473 134.828 275.777C135.578 276.082 136.398 276.234 137.289 276.234ZM137.008 264.867C137.562 264.867 138.039 264.969 138.438 265.172C138.844 265.375 139.18 265.641 139.445 265.969C139.711 266.297 139.918 266.688 140.066 267.141C140.215 267.586 140.289 268.004 140.289 268.395V268.5H133.469C133.555 267.914 133.703 267.398 133.914 266.953C134.133 266.5 134.398 266.117 134.711 265.805C135.023 265.5 135.375 265.27 135.766 265.113C136.156 264.949 136.57 264.867 137.008 264.867Z" fill="#808080"/>
<path d="M165.648 260.25H163.469V263.32H160.141V264.996H163.469V271.887C163.469 272.668 163.57 273.336 163.773 273.891C163.984 274.438 164.27 274.883 164.629 275.227C164.988 275.578 165.41 275.836 165.895 276C166.387 276.156 166.914 276.234 167.477 276.234C167.812 276.234 168.148 276.219 168.484 276.188C168.828 276.156 169.152 276.109 169.457 276.047C169.762 275.992 170.043 275.926 170.301 275.848C170.559 275.762 170.777 275.664 170.957 275.555L170.652 274.02C170.52 274.051 170.348 274.09 170.137 274.137C169.934 274.176 169.715 274.215 169.48 274.254C169.238 274.293 168.992 274.328 168.742 274.359C168.492 274.383 168.25 274.395 168.016 274.395C167.695 274.395 167.391 274.355 167.102 274.277C166.82 274.199 166.57 274.062 166.352 273.867C166.133 273.68 165.961 273.426 165.836 273.105C165.711 272.785 165.648 272.379 165.648 271.887V264.996H170.477V263.32H165.648V260.25Z" fill="#808080"/>
<path d="M174.32 269.543V269.801C174.32 270.715 174.453 271.562 174.719 272.344C174.984 273.125 175.367 273.805 175.867 274.383C176.359 274.961 176.961 275.414 177.672 275.742C178.391 276.07 179.199 276.234 180.098 276.234C180.988 276.234 181.789 276.07 182.5 275.742C183.211 275.414 183.816 274.961 184.316 274.383C184.809 273.805 185.188 273.125 185.453 272.344C185.719 271.562 185.852 270.715 185.852 269.801V269.543C185.852 268.629 185.719 267.781 185.453 267C185.188 266.211 184.809 265.527 184.316 264.949C183.816 264.371 183.207 263.918 182.488 263.59C181.777 263.254 180.973 263.086 180.074 263.086C179.184 263.086 178.383 263.254 177.672 263.59C176.961 263.918 176.359 264.371 175.867 264.949C175.367 265.527 174.984 266.211 174.719 267C174.453 267.781 174.32 268.629 174.32 269.543ZM176.488 269.801V269.543C176.488 268.926 176.562 268.336 176.711 267.773C176.859 267.203 177.086 266.703 177.391 266.273C177.688 265.844 178.059 265.504 178.504 265.254C178.949 264.996 179.473 264.867 180.074 264.867C180.676 264.867 181.199 264.996 181.645 265.254C182.098 265.504 182.477 265.844 182.781 266.273C183.078 266.703 183.301 267.203 183.449 267.773C183.605 268.336 183.684 268.926 183.684 269.543V269.801C183.684 270.426 183.609 271.023 183.461 271.594C183.312 272.156 183.09 272.652 182.793 273.082C182.488 273.512 182.109 273.852 181.656 274.102C181.211 274.352 180.691 274.477 180.098 274.477C179.496 274.477 178.969 274.352 178.516 274.102C178.062 273.852 177.688 273.512 177.391 273.082C177.086 272.652 176.859 272.156 176.711 271.594C176.562 271.023 176.488 270.426 176.488 269.801Z" fill="#808080"/>
<path d="M214.504 269.801V269.555C214.504 268.891 214.449 268.262 214.34 267.668C214.23 267.066 214.07 266.52 213.859 266.027C213.656 265.59 213.422 265.195 213.156 264.844C212.891 264.484 212.59 264.18 212.254 263.93C211.879 263.664 211.461 263.457 211 263.309C210.539 263.16 210.035 263.086 209.488 263.086C209.051 263.086 208.645 263.129 208.27 263.215C207.895 263.301 207.551 263.426 207.238 263.59C206.988 263.723 206.754 263.883 206.535 264.07C206.316 264.25 206.117 264.453 205.938 264.68V258H203.77V276H205.762L205.867 274.559C206.008 274.738 206.156 274.902 206.312 275.051C206.469 275.199 206.633 275.336 206.805 275.461C207.164 275.711 207.566 275.902 208.012 276.035C208.465 276.168 208.965 276.234 209.512 276.234C209.988 276.234 210.43 276.176 210.836 276.059C211.25 275.941 211.629 275.777 211.973 275.566C212.449 275.262 212.855 274.879 213.191 274.418C213.535 273.949 213.812 273.422 214.023 272.836C214.18 272.391 214.297 271.914 214.375 271.406C214.461 270.891 214.504 270.355 214.504 269.801ZM212.336 269.555V269.801C212.336 270.176 212.312 270.543 212.266 270.902C212.219 271.262 212.145 271.598 212.043 271.91C211.918 272.324 211.75 272.699 211.539 273.035C211.328 273.371 211.066 273.648 210.754 273.867C210.52 274.039 210.254 274.172 209.957 274.266C209.66 274.352 209.332 274.395 208.973 274.395C208.598 274.395 208.254 274.348 207.941 274.254C207.629 274.152 207.348 274.012 207.098 273.832C206.848 273.652 206.625 273.445 206.43 273.211C206.242 272.969 206.078 272.707 205.938 272.426V266.883C206.07 266.602 206.23 266.344 206.418 266.109C206.613 265.867 206.836 265.656 207.086 265.477C207.328 265.305 207.605 265.172 207.918 265.078C208.23 264.977 208.574 264.926 208.949 264.926C209.293 264.926 209.605 264.965 209.887 265.043C210.168 265.121 210.422 265.23 210.648 265.371C210.977 265.566 211.254 265.836 211.48 266.18C211.707 266.523 211.891 266.902 212.031 267.316C212.133 267.652 212.207 268.012 212.254 268.395C212.309 268.77 212.336 269.156 212.336 269.555Z" fill="#808080"/>
<path d="M223.773 276.234C225.008 276.234 226.043 275.988 226.879 275.496C227.723 274.996 228.355 274.426 228.777 273.785L227.453 272.754C227.055 273.27 226.555 273.684 225.953 273.996C225.352 274.309 224.664 274.465 223.891 274.465C223.305 274.465 222.77 274.355 222.285 274.137C221.801 273.918 221.387 273.617 221.043 273.234C220.707 272.875 220.441 272.461 220.246 271.992C220.059 271.523 219.938 270.98 219.883 270.363V270.281H228.941V269.309C228.941 268.426 228.828 267.605 228.602 266.848C228.383 266.09 228.047 265.43 227.594 264.867C227.141 264.312 226.57 263.879 225.883 263.566C225.203 263.246 224.406 263.086 223.492 263.086C222.766 263.086 222.055 263.234 221.359 263.531C220.672 263.828 220.059 264.254 219.52 264.809C218.973 265.371 218.535 266.059 218.207 266.871C217.879 267.676 217.715 268.59 217.715 269.613V270.105C217.715 270.988 217.863 271.805 218.16 272.555C218.457 273.305 218.871 273.953 219.402 274.5C219.934 275.047 220.57 275.473 221.312 275.777C222.062 276.082 222.883 276.234 223.773 276.234ZM223.492 264.867C224.047 264.867 224.523 264.969 224.922 265.172C225.328 265.375 225.664 265.641 225.93 265.969C226.195 266.297 226.402 266.688 226.551 267.141C226.699 267.586 226.773 268.004 226.773 268.395V268.5H219.953C220.039 267.914 220.188 267.398 220.398 266.953C220.617 266.5 220.883 266.117 221.195 265.805C221.508 265.5 221.859 265.27 222.25 265.113C222.641 264.949 223.055 264.867 223.492 264.867Z" fill="#808080"/>
<path d="M246.391 269.543V269.801C246.391 270.715 246.523 271.562 246.789 272.344C247.055 273.125 247.438 273.805 247.938 274.383C248.43 274.961 249.031 275.414 249.742 275.742C250.461 276.07 251.27 276.234 252.168 276.234C253.059 276.234 253.859 276.07 254.57 275.742C255.281 275.414 255.887 274.961 256.387 274.383C256.879 273.805 257.258 273.125 257.523 272.344C257.789 271.562 257.922 270.715 257.922 269.801V269.543C257.922 268.629 257.789 267.781 257.523 267C257.258 266.211 256.879 265.527 256.387 264.949C255.887 264.371 255.277 263.918 254.559 263.59C253.848 263.254 253.043 263.086 252.145 263.086C251.254 263.086 250.453 263.254 249.742 263.59C249.031 263.918 248.43 264.371 247.938 264.949C247.438 265.527 247.055 266.211 246.789 267C246.523 267.781 246.391 268.629 246.391 269.543ZM248.559 269.801V269.543C248.559 268.926 248.633 268.336 248.781 267.773C248.93 267.203 249.156 266.703 249.461 266.273C249.758 265.844 250.129 265.504 250.574 265.254C251.02 264.996 251.543 264.867 252.145 264.867C252.746 264.867 253.27 264.996 253.715 265.254C254.168 265.504 254.547 265.844 254.852 266.273C255.148 266.703 255.371 267.203 255.52 267.773C255.676 268.336 255.754 268.926 255.754 269.543V269.801C255.754 270.426 255.68 271.023 255.531 271.594C255.383 272.156 255.16 272.652 254.863 273.082C254.559 273.512 254.18 273.852 253.727 274.102C253.281 274.352 252.762 274.477 252.168 274.477C251.566 274.477 251.039 274.352 250.586 274.102C250.133 273.852 249.758 273.512 249.461 273.082C249.156 272.652 248.93 272.156 248.781 271.594C248.633 271.023 248.559 270.426 248.559 269.801Z" fill="#808080"/>
<path d="M261.414 276H263.582V266.906C263.73 266.633 263.902 266.383 264.098 266.156C264.301 265.93 264.52 265.73 264.754 265.559C265.043 265.363 265.359 265.211 265.703 265.102C266.047 264.984 266.418 264.926 266.816 264.926C267.277 264.926 267.684 264.98 268.035 265.09C268.395 265.199 268.699 265.375 268.949 265.617C269.191 265.859 269.375 266.176 269.5 266.566C269.625 266.957 269.688 267.434 269.688 267.996V276H271.855V267.949C271.855 267.105 271.75 266.379 271.539 265.77C271.336 265.152 271.043 264.645 270.66 264.246C270.277 263.848 269.812 263.555 269.266 263.367C268.727 263.18 268.125 263.086 267.461 263.086C266.969 263.094 266.5 263.168 266.055 263.309C265.617 263.441 265.211 263.633 264.836 263.883C264.586 264.047 264.348 264.242 264.121 264.469C263.902 264.688 263.699 264.93 263.512 265.195L263.359 263.32H261.414V276Z" fill="#808080"/>
<path d="M295.375 260.25H293.195V263.32H289.867V264.996H293.195V271.887C293.195 272.668 293.297 273.336 293.5 273.891C293.711 274.438 293.996 274.883 294.355 275.227C294.715 275.578 295.137 275.836 295.621 276C296.113 276.156 296.641 276.234 297.203 276.234C297.539 276.234 297.875 276.219 298.211 276.188C298.555 276.156 298.879 276.109 299.184 276.047C299.488 275.992 299.77 275.926 300.027 275.848C300.285 275.762 300.504 275.664 300.684 275.555L300.379 274.02C300.246 274.051 300.074 274.09 299.863 274.137C299.66 274.176 299.441 274.215 299.207 274.254C298.965 274.293 298.719 274.328 298.469 274.359C298.219 274.383 297.977 274.395 297.742 274.395C297.422 274.395 297.117 274.355 296.828 274.277C296.547 274.199 296.297 274.062 296.078 273.867C295.859 273.68 295.688 273.426 295.562 273.105C295.438 272.785 295.375 272.379 295.375 271.887V264.996H300.203V263.32H295.375V260.25Z" fill="#808080"/>
<path d="M306.824 265.207V258H304.656V276H306.824V266.789C306.98 266.539 307.156 266.312 307.352 266.109C307.555 265.898 307.773 265.715 308.008 265.559C308.305 265.355 308.629 265.199 308.98 265.09C309.332 264.98 309.703 264.926 310.094 264.926C310.57 264.918 310.992 264.984 311.359 265.125C311.727 265.258 312.031 265.461 312.273 265.734C312.5 265.984 312.672 266.301 312.789 266.684C312.906 267.059 312.965 267.496 312.965 267.996V276H315.133V268.02C315.133 267.168 315.027 266.434 314.816 265.816C314.613 265.191 314.32 264.676 313.938 264.27C313.555 263.863 313.09 263.566 312.543 263.379C312.004 263.184 311.402 263.086 310.738 263.086C310.23 263.094 309.75 263.168 309.297 263.309C308.852 263.449 308.441 263.656 308.066 263.93C307.832 264.094 307.609 264.285 307.398 264.504C307.188 264.715 306.996 264.949 306.824 265.207Z" fill="#808080"/>
<path d="M324.672 276.234C325.906 276.234 326.941 275.988 327.777 275.496C328.621 274.996 329.254 274.426 329.676 273.785L328.352 272.754C327.953 273.27 327.453 273.684 326.852 273.996C326.25 274.309 325.562 274.465 324.789 274.465C324.203 274.465 323.668 274.355 323.184 274.137C322.699 273.918 322.285 273.617 321.941 273.234C321.605 272.875 321.34 272.461 321.145 271.992C320.957 271.523 320.836 270.98 320.781 270.363V270.281H329.84V269.309C329.84 268.426 329.727 267.605 329.5 266.848C329.281 266.09 328.945 265.43 328.492 264.867C328.039 264.312 327.469 263.879 326.781 263.566C326.102 263.246 325.305 263.086 324.391 263.086C323.664 263.086 322.953 263.234 322.258 263.531C321.57 263.828 320.957 264.254 320.418 264.809C319.871 265.371 319.434 266.059 319.105 266.871C318.777 267.676 318.613 268.59 318.613 269.613V270.105C318.613 270.988 318.762 271.805 319.059 272.555C319.355 273.305 319.77 273.953 320.301 274.5C320.832 275.047 321.469 275.473 322.211 275.777C322.961 276.082 323.781 276.234 324.672 276.234ZM324.391 264.867C324.945 264.867 325.422 264.969 325.82 265.172C326.227 265.375 326.562 265.641 326.828 265.969C327.094 266.297 327.301 266.688 327.449 267.141C327.598 267.586 327.672 268.004 327.672 268.395V268.5H320.852C320.938 267.914 321.086 267.398 321.297 266.953C321.516 266.5 321.781 266.117 322.094 265.805C322.406 265.5 322.758 265.27 323.148 265.113C323.539 264.949 323.953 264.867 324.391 264.867Z" fill="#808080"/>
<path d="M356.254 276H358.223V263.32H356.043V272.414C355.926 272.688 355.777 272.941 355.598 273.176C355.426 273.402 355.223 273.598 354.988 273.762C354.707 273.965 354.375 274.125 353.992 274.242C353.609 274.352 353.176 274.406 352.691 274.406C352.277 274.406 351.91 274.352 351.59 274.242C351.277 274.133 351.012 273.941 350.793 273.668C350.574 273.402 350.41 273.043 350.301 272.59C350.191 272.137 350.137 271.566 350.137 270.879V263.32H347.969V270.855C347.969 271.801 348.07 272.613 348.273 273.293C348.484 273.965 348.781 274.52 349.164 274.957C349.547 275.395 350.008 275.719 350.547 275.93C351.086 276.133 351.688 276.234 352.352 276.234C353.18 276.234 353.91 276.062 354.543 275.719C355.176 275.367 355.703 274.879 356.125 274.254L356.254 276Z" fill="#808080"/>
<path d="M362.301 280.875H364.469V274.781C364.625 274.953 364.793 275.113 364.973 275.262C365.152 275.402 365.344 275.531 365.547 275.648C365.883 275.836 366.258 275.98 366.672 276.082C367.094 276.184 367.547 276.234 368.031 276.234C368.828 276.234 369.535 276.07 370.152 275.742C370.777 275.414 371.301 274.961 371.723 274.383C372.145 273.805 372.465 273.125 372.684 272.344C372.902 271.555 373.012 270.707 373.012 269.801V269.555C373.012 268.609 372.902 267.742 372.684 266.953C372.465 266.156 372.145 265.473 371.723 264.902C371.301 264.332 370.777 263.887 370.152 263.566C369.527 263.246 368.809 263.086 367.996 263.086C367.535 263.086 367.102 263.137 366.695 263.238C366.297 263.332 365.934 263.473 365.605 263.66C365.371 263.785 365.152 263.938 364.949 264.117C364.746 264.289 364.559 264.484 364.387 264.703L364.281 263.32H362.301V280.875ZM370.844 269.555V269.801C370.844 270.418 370.773 271.008 370.633 271.57C370.5 272.133 370.293 272.629 370.012 273.059C369.73 273.488 369.371 273.832 368.934 274.09C368.496 274.34 367.977 274.465 367.375 274.465C367 274.465 366.656 274.418 366.344 274.324C366.039 274.23 365.762 274.102 365.512 273.938C365.293 273.797 365.098 273.625 364.926 273.422C364.754 273.219 364.602 273 364.469 272.766V266.66C364.617 266.395 364.789 266.152 364.984 265.934C365.18 265.715 365.402 265.531 365.652 265.383C365.879 265.234 366.133 265.121 366.414 265.043C366.703 264.965 367.016 264.926 367.352 264.926C367.961 264.926 368.484 265.051 368.922 265.301C369.359 265.551 369.723 265.887 370.012 266.309C370.293 266.738 370.5 267.234 370.633 267.797C370.773 268.352 370.844 268.938 370.844 269.555Z" fill="#808080"/>
<path d="M376.715 280.875H378.883V274.781C379.039 274.953 379.207 275.113 379.387 275.262C379.566 275.402 379.758 275.531 379.961 275.648C380.297 275.836 380.672 275.98 381.086 276.082C381.508 276.184 381.961 276.234 382.445 276.234C383.242 276.234 383.949 276.07 384.566 275.742C385.191 275.414 385.715 274.961 386.137 274.383C386.559 273.805 386.879 273.125 387.098 272.344C387.316 271.555 387.426 270.707 387.426 269.801V269.555C387.426 268.609 387.316 267.742 387.098 266.953C386.879 266.156 386.559 265.473 386.137 264.902C385.715 264.332 385.191 263.887 384.566 263.566C383.941 263.246 383.223 263.086 382.41 263.086C381.949 263.086 381.516 263.137 381.109 263.238C380.711 263.332 380.348 263.473 380.02 263.66C379.785 263.785 379.566 263.938 379.363 264.117C379.16 264.289 378.973 264.484 378.801 264.703L378.695 263.32H376.715V280.875ZM385.258 269.555V269.801C385.258 270.418 385.188 271.008 385.047 271.57C384.914 272.133 384.707 272.629 384.426 273.059C384.145 273.488 383.785 273.832 383.348 274.09C382.91 274.34 382.391 274.465 381.789 274.465C381.414 274.465 381.07 274.418 380.758 274.324C380.453 274.23 380.176 274.102 379.926 273.938C379.707 273.797 379.512 273.625 379.34 273.422C379.168 273.219 379.016 273 378.883 272.766V266.66C379.031 266.395 379.203 266.152 379.398 265.934C379.594 265.715 379.816 265.531 380.066 265.383C380.293 265.234 380.547 265.121 380.828 265.043C381.117 264.965 381.43 264.926 381.766 264.926C382.375 264.926 382.898 265.051 383.336 265.301C383.773 265.551 384.137 265.887 384.426 266.309C384.707 266.738 384.914 267.234 385.047 267.797C385.188 268.352 385.258 268.938 385.258 269.555Z" fill="#808080"/>
<path d="M396.742 276.234C397.977 276.234 399.012 275.988 399.848 275.496C400.691 274.996 401.324 274.426 401.746 273.785L400.422 272.754C400.023 273.27 399.523 273.684 398.922 273.996C398.32 274.309 397.633 274.465 396.859 274.465C396.273 274.465 395.738 274.355 395.254 274.137C394.77 273.918 394.355 273.617 394.012 273.234C393.676 272.875 393.41 272.461 393.215 271.992C393.027 271.523 392.906 270.98 392.852 270.363V270.281H401.91V269.309C401.91 268.426 401.797 267.605 401.57 266.848C401.352 266.09 401.016 265.43 400.562 264.867C400.109 264.312 399.539 263.879 398.852 263.566C398.172 263.246 397.375 263.086 396.461 263.086C395.734 263.086 395.023 263.234 394.328 263.531C393.641 263.828 393.027 264.254 392.488 264.809C391.941 265.371 391.504 266.059 391.176 266.871C390.848 267.676 390.684 268.59 390.684 269.613V270.105C390.684 270.988 390.832 271.805 391.129 272.555C391.426 273.305 391.84 273.953 392.371 274.5C392.902 275.047 393.539 275.473 394.281 275.777C395.031 276.082 395.852 276.234 396.742 276.234ZM396.461 264.867C397.016 264.867 397.492 264.969 397.891 265.172C398.297 265.375 398.633 265.641 398.898 265.969C399.164 266.297 399.371 266.688 399.52 267.141C399.668 267.586 399.742 268.004 399.742 268.395V268.5H392.922C393.008 267.914 393.156 267.398 393.367 266.953C393.586 266.5 393.852 266.117 394.164 265.805C394.477 265.5 394.828 265.27 395.219 265.113C395.609 264.949 396.023 264.867 396.461 264.867Z" fill="#808080"/>
<path d="M413.863 263.086C412.941 263.086 412.117 263.289 411.391 263.695C410.672 264.094 410.055 264.641 409.539 265.336L409.527 265.02L409.434 263.32H407.371V276H409.551V267.867C409.691 267.477 409.867 267.125 410.078 266.812C410.297 266.492 410.551 266.223 410.84 266.004C411.16 265.754 411.535 265.566 411.965 265.441C412.395 265.309 412.875 265.242 413.406 265.242C413.82 265.242 414.215 265.266 414.59 265.312C414.973 265.352 415.375 265.418 415.797 265.512L416.09 263.391C415.871 263.297 415.543 263.223 415.105 263.168C414.676 263.113 414.262 263.086 413.863 263.086Z" fill="#808080"/>
<path d="M433.773 269.543V269.801C433.773 270.715 433.906 271.562 434.172 272.344C434.438 273.125 434.82 273.805 435.32 274.383C435.812 274.961 436.414 275.414 437.125 275.742C437.844 276.07 438.652 276.234 439.551 276.234C440.441 276.234 441.242 276.07 441.953 275.742C442.664 275.414 443.27 274.961 443.77 274.383C444.262 273.805 444.641 273.125 444.906 272.344C445.172 271.562 445.305 270.715 445.305 269.801V269.543C445.305 268.629 445.172 267.781 444.906 267C444.641 266.211 444.262 265.527 443.77 264.949C443.27 264.371 442.66 263.918 441.941 263.59C441.23 263.254 440.426 263.086 439.527 263.086C438.637 263.086 437.836 263.254 437.125 263.59C436.414 263.918 435.812 264.371 435.32 264.949C434.82 265.527 434.438 266.211 434.172 267C433.906 267.781 433.773 268.629 433.773 269.543ZM435.941 269.801V269.543C435.941 268.926 436.016 268.336 436.164 267.773C436.312 267.203 436.539 266.703 436.844 266.273C437.141 265.844 437.512 265.504 437.957 265.254C438.402 264.996 438.926 264.867 439.527 264.867C440.129 264.867 440.652 264.996 441.098 265.254C441.551 265.504 441.93 265.844 442.234 266.273C442.531 266.703 442.754 267.203 442.902 267.773C443.059 268.336 443.137 268.926 443.137 269.543V269.801C443.137 270.426 443.062 271.023 442.914 271.594C442.766 272.156 442.543 272.652 442.246 273.082C441.941 273.512 441.562 273.852 441.109 274.102C440.664 274.352 440.145 274.477 439.551 274.477C438.949 274.477 438.422 274.352 437.969 274.102C437.516 273.852 437.141 273.512 436.844 273.082C436.539 272.652 436.312 272.156 436.164 271.594C436.016 271.023 435.941 270.426 435.941 269.801Z" fill="#808080"/>
<path d="M448.797 276H450.965V266.906C451.113 266.633 451.285 266.383 451.48 266.156C451.684 265.93 451.902 265.73 452.137 265.559C452.426 265.363 452.742 265.211 453.086 265.102C453.43 264.984 453.801 264.926 454.199 264.926C454.66 264.926 455.066 264.98 455.418 265.09C455.777 265.199 456.082 265.375 456.332 265.617C456.574 265.859 456.758 266.176 456.883 266.566C457.008 266.957 457.07 267.434 457.07 267.996V276H459.238V267.949C459.238 267.105 459.133 266.379 458.922 265.77C458.719 265.152 458.426 264.645 458.043 264.246C457.66 263.848 457.195 263.555 456.648 263.367C456.109 263.18 455.508 263.086 454.844 263.086C454.352 263.094 453.883 263.168 453.438 263.309C453 263.441 452.594 263.633 452.219 263.883C451.969 264.047 451.73 264.242 451.504 264.469C451.285 264.688 451.082 264.93 450.895 265.195L450.742 263.32H448.797V276Z" fill="#808080"/>
<path d="M468.812 276.234C470.047 276.234 471.082 275.988 471.918 275.496C472.762 274.996 473.395 274.426 473.816 273.785L472.492 272.754C472.094 273.27 471.594 273.684 470.992 273.996C470.391 274.309 469.703 274.465 468.93 274.465C468.344 274.465 467.809 274.355 467.324 274.137C466.84 273.918 466.426 273.617 466.082 273.234C465.746 272.875 465.48 272.461 465.285 271.992C465.098 271.523 464.977 270.98 464.922 270.363V270.281H473.98V269.309C473.98 268.426 473.867 267.605 473.641 266.848C473.422 266.09 473.086 265.43 472.633 264.867C472.18 264.312 471.609 263.879 470.922 263.566C470.242 263.246 469.445 263.086 468.531 263.086C467.805 263.086 467.094 263.234 466.398 263.531C465.711 263.828 465.098 264.254 464.559 264.809C464.012 265.371 463.574 266.059 463.246 266.871C462.918 267.676 462.754 268.59 462.754 269.613V270.105C462.754 270.988 462.902 271.805 463.199 272.555C463.496 273.305 463.91 273.953 464.441 274.5C464.973 275.047 465.609 275.473 466.352 275.777C467.102 276.082 467.922 276.234 468.812 276.234ZM468.531 264.867C469.086 264.867 469.562 264.969 469.961 265.172C470.367 265.375 470.703 265.641 470.969 265.969C471.234 266.297 471.441 266.688 471.59 267.141C471.738 267.586 471.812 268.004 471.812 268.395V268.5H464.992C465.078 267.914 465.227 267.398 465.438 266.953C465.656 266.5 465.922 266.117 466.234 265.805C466.547 265.5 466.898 265.27 467.289 265.113C467.68 264.949 468.094 264.867 468.531 264.867Z" fill="#808080"/>
<path d="M481.398 274.594C481.398 275.047 481.539 275.434 481.82 275.754C482.109 276.066 482.535 276.223 483.098 276.223C483.652 276.223 484.078 276.066 484.375 275.754C484.672 275.441 484.82 275.055 484.82 274.594C484.82 274.125 484.672 273.73 484.375 273.41C484.086 273.082 483.66 272.918 483.098 272.918C482.527 272.918 482.102 273.082 481.82 273.41C481.539 273.738 481.398 274.133 481.398 274.594Z" fill="#808080"/>
<path d="M50.98 557.013C50.98 556.523 51.112 556.108 51.376 555.769C51.6399 555.392 52.0548 555.015 52.6204 554.638L71.2878 542.023C71.4764 541.91 71.6838 541.853 71.91 541.853C72.2495 541.853 72.5323 541.966 72.7586 542.193C72.9848 542.419 73.098 542.702 73.098 543.041V545.587C73.098 546.454 72.4946 547.284 71.2878 548.076L56.3539 558.201L71.2878 568.327C72.4946 569.119 73.098 569.949 73.098 570.816V573.361C73.098 573.701 72.9848 573.984 72.7586 574.21C72.5323 574.436 72.2495 574.549 71.91 574.549C71.6838 574.549 71.4764 574.493 71.2878 574.38L52.6204 561.765C52.0548 561.388 51.6399 561.03 51.376 560.69C51.112 560.313 50.98 559.879 50.98 559.389V557.013Z" fill="black" fill-opacity="0.55"/>
<path d="M107.053 571.212L112.823 539.93C112.936 539.402 113.144 539.025 113.445 538.799C113.785 538.535 114.162 538.403 114.577 538.403H116.839C117.179 538.403 117.462 538.535 117.688 538.799C117.952 539.025 118.084 539.308 118.084 539.647L118.027 540.1L111.07 575.058C110.843 576.077 110.542 576.831 110.164 577.321C109.787 577.774 109.165 578 108.298 578H106.035C105.205 578 104.583 577.755 104.168 577.265C103.753 576.737 103.414 576.001 103.15 575.058L97.9458 556.165L92.7416 575.058C92.4776 576.001 92.1382 576.737 91.7233 577.265C91.3085 577.755 90.6863 578 89.8566 578H87.5939C86.7265 578 86.1043 577.774 85.7272 577.321C85.35 576.831 85.0483 576.077 84.8221 575.058L77.8642 540.1L77.8077 539.647C77.8077 539.308 77.9208 539.025 78.1471 538.799C78.4111 538.535 78.7128 538.403 79.0522 538.403H81.3149C81.7297 538.403 82.088 538.535 82.3897 538.799C82.7291 539.025 82.9553 539.402 83.0685 539.93L88.8384 571.212L95.0608 548.811C95.1363 548.434 95.3248 548.076 95.6265 547.736C95.9282 547.359 96.3808 547.171 96.9841 547.171H98.9074C99.5108 547.171 99.9634 547.359 100.265 547.736C100.567 548.076 100.755 548.434 100.831 548.811L107.053 571.212Z" fill="black" fill-opacity="0.55"/>
<path d="M135.054 548.019C139.089 548.019 142.276 549.301 144.614 551.866C146.952 554.43 148.121 557.918 148.121 562.331V563.858C148.121 564.273 147.97 564.631 147.668 564.933C147.367 565.235 147.008 565.385 146.594 565.385H127.134V565.725C127.21 568.214 127.964 570.175 129.397 571.608C130.868 573.003 132.753 573.701 135.054 573.701C136.939 573.701 138.391 573.456 139.41 572.965C140.465 572.475 141.408 571.778 142.238 570.872C142.54 570.571 142.804 570.363 143.03 570.25C143.294 570.137 143.633 570.081 144.048 570.081H145.745C146.198 570.081 146.575 570.231 146.876 570.533C147.178 570.835 147.31 571.193 147.272 571.608C147.122 572.626 146.556 573.682 145.575 574.776C144.633 575.832 143.256 576.737 141.446 577.491C139.673 578.207 137.543 578.566 135.054 578.566C132.64 578.566 130.491 578.019 128.605 576.925C126.719 575.794 125.211 574.248 124.08 572.287C122.986 570.326 122.326 568.12 122.1 565.668C122.024 564.537 121.987 563.67 121.987 563.066C121.987 562.463 122.024 561.595 122.1 560.464C122.326 558.126 122.986 556.014 124.08 554.128C125.211 552.243 126.701 550.753 128.549 549.66C130.434 548.566 132.603 548.019 135.054 548.019ZM143.03 560.634V560.464C143.03 558.164 142.294 556.335 140.824 554.977C139.391 553.582 137.467 552.884 135.054 552.884C132.867 552.884 131 553.582 129.454 554.977C127.945 556.372 127.172 558.201 127.134 560.464V560.634H143.03Z" fill="black" fill-opacity="0.55"/>
<path d="M180.57 561.426C180.608 561.803 180.627 562.406 180.627 563.236C180.627 564.103 180.608 564.725 180.57 565.103C180.457 567.818 179.816 570.194 178.647 572.23C177.516 574.267 175.989 575.832 174.065 576.925C172.18 578.019 170.068 578.566 167.73 578.566C163.808 578.566 160.885 577.283 158.962 574.719V576.473C158.962 576.888 158.811 577.246 158.509 577.547C158.207 577.849 157.849 578 157.434 578H155.341C154.926 578 154.568 577.849 154.266 577.547C153.965 577.246 153.814 576.888 153.814 576.473V539.364C153.814 538.949 153.965 538.591 154.266 538.289C154.568 537.988 154.926 537.837 155.341 537.837H157.434C157.849 537.837 158.207 537.988 158.509 538.289C158.811 538.591 158.962 538.949 158.962 539.364V551.866C159.791 550.772 160.923 549.867 162.356 549.15C163.826 548.396 165.618 548.019 167.73 548.019C170.105 548.019 172.236 548.566 174.122 549.66C176.007 550.753 177.516 552.318 178.647 554.355C179.816 556.353 180.457 558.71 180.57 561.426ZM167.164 573.701C169.615 573.701 171.557 572.928 172.99 571.382C174.423 569.798 175.234 567.629 175.423 564.876C175.461 564.499 175.479 563.971 175.479 563.292C175.479 560.087 174.744 557.56 173.273 555.712C171.84 553.827 169.804 552.884 167.164 552.884C164.788 552.884 162.884 553.619 161.451 555.09C160.018 556.561 159.188 558.616 158.962 561.256C158.924 561.633 158.905 562.368 158.905 563.462C158.905 564.593 158.924 565.348 158.962 565.725C159.15 568.176 159.98 570.118 161.451 571.551C162.959 572.984 164.864 573.701 167.164 573.701Z" fill="black" fill-opacity="0.55"/>
<path d="M230.508 562.67C230.471 565.8 229.773 568.534 228.415 570.872C227.058 573.173 225.191 574.945 222.815 576.19C220.439 577.397 217.705 578 214.613 578H201.319C200.905 578 200.546 577.849 200.245 577.547C199.943 577.246 199.792 576.888 199.792 576.473V539.93C199.792 539.515 199.943 539.157 200.245 538.855C200.546 538.553 200.905 538.403 201.319 538.403H214.273C217.403 538.403 220.175 539.025 222.589 540.269C225.04 541.476 226.963 543.249 228.359 545.587C229.754 547.887 230.471 550.602 230.508 553.732C230.546 554.864 230.565 556.353 230.565 558.201C230.565 560.049 230.546 561.539 230.508 562.67ZM205.166 543.494V572.909H214.33C218.101 572.909 220.816 571.928 222.476 569.967C224.173 568.006 225.059 565.48 225.134 562.387C225.172 561.256 225.191 559.861 225.191 558.201C225.191 556.542 225.172 555.147 225.134 554.015C225.059 550.961 224.135 548.453 222.363 546.492C220.59 544.493 217.818 543.494 214.047 543.494H205.166Z" fill="black" fill-opacity="0.55"/>
<path d="M248.58 548.019C252.616 548.019 255.802 549.301 258.14 551.866C260.478 554.43 261.648 557.918 261.648 562.331V563.858C261.648 564.273 261.497 564.631 261.195 564.933C260.893 565.235 260.535 565.385 260.12 565.385H240.661V565.725C240.736 568.214 241.491 570.175 242.924 571.608C244.394 573.003 246.28 573.701 248.58 573.701C250.466 573.701 251.918 573.456 252.936 572.965C253.992 572.475 254.935 571.778 255.764 570.872C256.066 570.571 256.33 570.363 256.556 570.25C256.82 570.137 257.16 570.081 257.575 570.081H259.272C259.724 570.081 260.101 570.231 260.403 570.533C260.705 570.835 260.837 571.193 260.799 571.608C260.648 572.626 260.083 573.682 259.102 574.776C258.159 575.832 256.783 576.737 254.973 577.491C253.2 578.207 251.069 578.566 248.58 578.566C246.167 578.566 244.017 578.019 242.132 576.925C240.246 575.794 238.738 574.248 237.606 572.287C236.513 570.326 235.853 568.12 235.626 565.668C235.551 564.537 235.513 563.67 235.513 563.066C235.513 562.463 235.551 561.595 235.626 560.464C235.853 558.126 236.513 556.014 237.606 554.128C238.738 552.243 240.227 550.753 242.075 549.66C243.961 548.566 246.129 548.019 248.58 548.019ZM256.556 560.634V560.464C256.556 558.164 255.821 556.335 254.35 554.977C252.917 553.582 250.994 552.884 248.58 552.884C246.393 552.884 244.526 553.582 242.98 554.977C241.472 556.372 240.699 558.201 240.661 560.464V560.634H256.556Z" fill="black" fill-opacity="0.55"/>
<path d="M280.012 578C280.766 578 281.332 577.529 281.709 576.586L292.966 550.338C293.003 550.225 293.022 550.093 293.022 549.942C293.022 549.565 292.89 549.245 292.626 548.981C292.362 548.717 292.042 548.585 291.665 548.585H289.345C288.591 548.585 288.044 549.037 287.705 549.942L278.937 570.477L270.169 549.942C269.83 549.037 269.207 548.585 268.302 548.585H266.209C265.832 548.585 265.512 548.717 265.248 548.981C264.984 549.245 264.852 549.565 264.852 549.942C264.852 550.093 264.87 550.225 264.908 550.338L276.165 576.586C276.542 577.529 277.127 578 277.919 578H280.012Z" fill="black" fill-opacity="0.55"/>
<path d="M309.459 548.019C313.494 548.019 316.681 549.301 319.019 551.866C321.357 554.43 322.526 557.918 322.526 562.331V563.858C322.526 564.273 322.376 564.631 322.074 564.933C321.772 565.235 321.414 565.385 320.999 565.385H301.54V565.725C301.615 568.214 302.369 570.175 303.802 571.608C305.273 573.003 307.159 573.701 309.459 573.701C311.345 573.701 312.797 573.456 313.815 572.965C314.871 572.475 315.814 571.778 316.643 570.872C316.945 570.571 317.209 570.363 317.435 570.25C317.699 570.137 318.039 570.081 318.454 570.081H320.151C320.603 570.081 320.98 570.231 321.282 570.533C321.584 570.835 321.716 571.193 321.678 571.608C321.527 572.626 320.961 573.682 319.981 574.776C319.038 575.832 317.662 576.737 315.851 577.491C314.079 578.207 311.948 578.566 309.459 578.566C307.046 578.566 304.896 578.019 303.01 576.925C301.125 575.794 299.616 574.248 298.485 572.287C297.391 570.326 296.731 568.12 296.505 565.668C296.43 564.537 296.392 563.67 296.392 563.066C296.392 562.463 296.43 561.595 296.505 560.464C296.731 558.126 297.391 556.014 298.485 554.128C299.616 552.243 301.106 550.753 302.954 549.66C304.84 548.566 307.008 548.019 309.459 548.019ZM317.435 560.634V560.464C317.435 558.164 316.7 556.335 315.229 554.977C313.796 553.582 311.873 552.884 309.459 552.884C307.272 552.884 305.405 553.582 303.859 554.977C302.351 556.372 301.577 558.201 301.54 560.464V560.634H317.435Z" fill="black" fill-opacity="0.55"/>
<path d="M333.367 576.473C333.367 576.888 333.216 577.246 332.915 577.547C332.613 577.849 332.255 578 331.84 578H329.747C329.332 578 328.974 577.849 328.672 577.547C328.37 577.246 328.219 576.888 328.219 576.473V539.364C328.219 538.949 328.37 538.591 328.672 538.289C328.974 537.988 329.332 537.837 329.747 537.837H331.84C332.255 537.837 332.613 537.988 332.915 538.289C333.216 538.591 333.367 538.949 333.367 539.364V576.473Z" fill="black" fill-opacity="0.55"/>
<path d="M366.188 560.634C366.264 561.463 366.301 562.368 366.301 563.349C366.301 564.254 366.264 565.121 366.188 565.951C365.849 569.798 364.51 572.871 362.172 575.172C359.872 577.434 356.741 578.566 352.782 578.566C348.822 578.566 345.673 577.434 343.335 575.172C341.035 572.871 339.715 569.798 339.375 565.951C339.337 565.536 339.319 564.669 339.319 563.349C339.319 561.954 339.337 561.049 339.375 560.634C339.677 556.787 340.997 553.732 343.335 551.47C345.673 549.169 348.822 548.019 352.782 548.019C356.741 548.019 359.89 549.169 362.229 551.47C364.567 553.732 365.887 556.787 366.188 560.634ZM361.041 560.917C360.814 558.503 360.004 556.561 358.608 555.09C357.251 553.619 355.308 552.884 352.782 552.884C350.255 552.884 348.294 553.619 346.899 555.09C345.541 556.561 344.749 558.503 344.523 560.917C344.485 561.369 344.466 562.18 344.466 563.349C344.466 564.48 344.485 565.253 344.523 565.668C344.749 568.082 345.541 570.024 346.899 571.495C348.294 572.965 350.255 573.701 352.782 573.701C355.308 573.701 357.251 572.965 358.608 571.495C360.004 570.024 360.814 568.082 361.041 565.668C361.116 564.839 361.154 564.065 361.154 563.349C361.154 562.632 361.116 561.822 361.041 560.917Z" fill="black" fill-opacity="0.55"/>
<path d="M377.397 587.221C377.397 587.635 377.246 587.994 376.945 588.295C376.643 588.597 376.285 588.748 375.87 588.748H373.777C373.362 588.748 373.004 588.597 372.702 588.295C372.4 587.994 372.249 587.635 372.249 587.221V550.112C372.249 549.697 372.4 549.339 372.702 549.037C373.004 548.736 373.362 548.585 373.777 548.585H375.87C376.285 548.585 376.643 548.736 376.945 549.037C377.246 549.339 377.397 549.697 377.397 550.112V551.866C379.32 549.301 382.243 548.019 386.165 548.019C388.503 548.019 390.615 548.566 392.501 549.66C394.424 550.753 395.951 552.318 397.083 554.355C398.252 556.391 398.893 558.767 399.006 561.482C399.044 561.859 399.063 562.463 399.063 563.292C399.063 564.16 399.044 564.782 399.006 565.159C398.893 567.874 398.252 570.25 397.083 572.287C395.951 574.285 394.443 575.832 392.557 576.925C390.672 578.019 388.541 578.566 386.165 578.566C384.053 578.566 382.262 578.207 380.791 577.491C379.358 576.737 378.227 575.813 377.397 574.719V587.221ZM377.397 565.329C377.51 567.969 378.302 570.024 379.773 571.495C381.244 572.965 383.186 573.701 385.599 573.701C388.051 573.701 389.993 572.909 391.426 571.325C392.897 569.741 393.707 567.592 393.858 564.876C393.896 564.499 393.915 563.971 393.915 563.292C393.915 562.614 393.896 562.086 393.858 561.709C393.707 558.993 392.897 556.844 391.426 555.26C389.993 553.676 388.051 552.884 385.599 552.884C383.261 552.884 381.338 553.619 379.83 555.09C378.321 556.523 377.51 558.446 377.397 560.86L377.341 563.066L377.397 565.329Z" fill="black" fill-opacity="0.55"/>
<path d="M416.523 548.019C420.558 548.019 423.744 549.301 426.082 551.866C428.421 554.43 429.59 557.918 429.59 562.331V563.858C429.59 564.273 429.439 564.631 429.137 564.933C428.835 565.235 428.477 565.385 428.062 565.385H408.603V565.725C408.678 568.214 409.433 570.175 410.866 571.608C412.337 573.003 414.222 573.701 416.523 573.701C418.408 573.701 419.86 573.456 420.878 572.965C421.934 572.475 422.877 571.778 423.707 570.872C424.008 570.571 424.272 570.363 424.499 570.25C424.763 570.137 425.102 570.081 425.517 570.081H427.214C427.666 570.081 428.043 570.231 428.345 570.533C428.647 570.835 428.779 571.193 428.741 571.608C428.59 572.626 428.025 573.682 427.044 574.776C426.101 575.832 424.725 576.737 422.915 577.491C421.142 578.207 419.012 578.566 416.523 578.566C414.109 578.566 411.959 578.019 410.074 576.925C408.188 575.794 406.68 574.248 405.548 572.287C404.455 570.326 403.795 568.12 403.569 565.668C403.493 564.537 403.455 563.67 403.455 563.066C403.455 562.463 403.493 561.595 403.569 560.464C403.795 558.126 404.455 556.014 405.548 554.128C406.68 552.243 408.169 550.753 410.017 549.66C411.903 548.566 414.071 548.019 416.523 548.019ZM424.499 560.634V560.464C424.499 558.164 423.763 556.335 422.292 554.977C420.859 553.582 418.936 552.884 416.523 552.884C414.335 552.884 412.469 553.582 410.922 554.977C409.414 556.372 408.641 558.201 408.603 560.464V560.634H424.499Z" fill="black" fill-opacity="0.55"/>
<path d="M450.217 548.585C450.631 548.585 450.99 548.736 451.291 549.037C451.593 549.339 451.744 549.697 451.744 550.112V551.922C451.744 552.337 451.593 552.695 451.291 552.997C450.99 553.299 450.631 553.45 450.217 553.45H446.936C444.824 553.45 443.202 554.015 442.071 555.147C440.977 556.24 440.43 557.843 440.43 559.955V576.473C440.43 576.888 440.28 577.246 439.978 577.547C439.676 577.849 439.318 578 438.903 578H436.81C436.395 578 436.037 577.849 435.735 577.547C435.434 577.246 435.283 576.888 435.283 576.473V550.112C435.283 549.697 435.434 549.339 435.735 549.037C436.037 548.736 436.395 548.585 436.81 548.585H438.903C439.318 548.585 439.676 548.736 439.978 549.037C440.28 549.339 440.43 549.697 440.43 550.112V551.866C441.185 550.734 442.09 549.905 443.146 549.377C444.202 548.849 445.578 548.585 447.275 548.585H450.217Z" fill="black" fill-opacity="0.55"/>
<path d="M476.913 559.389C476.913 559.879 476.781 560.313 476.517 560.69C476.253 561.03 475.838 561.388 475.272 561.765L456.605 574.38C456.416 574.493 456.209 574.549 455.983 574.549C455.643 574.549 455.36 574.436 455.134 574.21C454.908 573.984 454.795 573.701 454.795 573.361V570.816C454.795 569.949 455.398 569.119 456.605 568.327L471.539 558.201L456.605 548.076C455.398 547.284 454.795 546.454 454.795 545.587V543.041C454.795 542.702 454.908 542.419 455.134 542.193C455.36 541.966 455.643 541.853 455.983 541.853C456.209 541.853 456.416 541.91 456.605 542.023L475.272 554.638C475.838 555.015 476.253 555.392 476.517 555.769C476.781 556.108 476.913 556.523 476.913 557.013V559.389Z" fill="black" fill-opacity="0.55"/>
<path d="M56.5201 498.52C56.2001 498.84 55.8001 499 55.3201 499C54.8401 499 54.4268 498.84 54.0801 498.52C53.7601 498.173 53.6001 497.76 53.6001 497.28V471.52C53.6001 471.04 53.7601 470.64 54.0801 470.32C54.4268 469.973 54.8401 469.8 55.3201 469.8C55.8001 469.8 56.2001 469.973 56.5201 470.32C56.8668 470.64 57.0401 471.04 57.0401 471.52V497.28C57.0401 497.76 56.8668 498.173 56.5201 498.52Z" fill="black" fill-opacity="0.35"/>
<path d="M66.9763 498.52C66.683 498.84 66.3097 499 65.8563 499C65.403 499 65.0163 498.84 64.6963 498.52C64.403 498.2 64.2563 497.827 64.2563 497.4V470.6C64.2563 470.173 64.403 469.8 64.6963 469.48C65.0163 469.16 65.403 469 65.8563 469C66.3097 469 66.683 469.16 66.9763 469.48C67.2963 469.8 67.4563 470.173 67.4563 470.6V497.4C67.4563 497.827 67.2963 498.2 66.9763 498.52Z" fill="black" fill-opacity="0.35"/>
<path d="M76.5779 498.52C76.2846 498.84 75.9112 499 75.4579 499C75.0046 499 74.6179 498.84 74.2979 498.52C74.0046 498.2 73.8579 497.827 73.8579 497.4V470.6C73.8579 470.173 74.0046 469.8 74.2979 469.48C74.6179 469.16 75.0046 469 75.4579 469C75.9112 469 76.2846 469.16 76.5779 469.48C76.8979 469.8 77.0579 470.173 77.0579 470.6V497.4C77.0579 497.827 76.8979 498.2 76.5779 498.52Z" fill="black" fill-opacity="0.35"/>
<path d="M89.1607 499.4C86.8407 499.4 85.1341 498.76 84.0407 497.48C82.9741 496.2 82.4407 494.08 82.4407 491.12V479.72C82.4407 479.293 82.5741 478.933 82.8407 478.64C83.1341 478.347 83.4941 478.2 83.9207 478.2C84.3474 478.2 84.7074 478.347 85.0007 478.64C85.2941 478.933 85.4407 479.293 85.4407 479.72V490.72C85.4407 493.12 85.8007 494.773 86.5207 495.68C87.2407 496.56 88.3874 497 89.9607 497C91.4007 497 92.7607 496.387 94.0407 495.16C95.3207 493.907 95.9607 492.547 95.9607 491.08V479.72C95.9607 479.293 96.1074 478.933 96.4007 478.64C96.7207 478.347 97.0941 478.2 97.5207 478.2C97.9474 478.2 98.3074 478.347 98.6007 478.64C98.8941 478.933 99.0407 479.293 99.0407 479.72V497.56C99.0407 497.96 98.8941 498.307 98.6007 498.6C98.3341 498.867 98.0007 499 97.6007 499C97.2007 499 96.8541 498.867 96.5607 498.6C96.2674 498.307 96.1207 497.96 96.1207 497.56V495.92C96.1207 495.893 96.1074 495.88 96.0807 495.88C96.0541 495.88 96.0274 495.893 96.0007 495.92C94.1607 498.24 91.8807 499.4 89.1607 499.4Z" fill="black" fill-opacity="0.35"/>
<path d="M109.624 489.68C107.037 489.067 105.184 488.28 104.064 487.32C102.97 486.333 102.424 485.067 102.424 483.52C102.424 481.76 103.077 480.373 104.384 479.36C105.717 478.32 107.61 477.8 110.064 477.8C111.904 477.8 113.73 478.04 115.544 478.52C116.37 478.733 116.784 479.28 116.784 480.16C116.784 480.48 116.664 480.72 116.424 480.88C116.184 481.04 115.904 481.08 115.584 481C113.824 480.467 112.064 480.2 110.304 480.2C107.104 480.2 105.504 481.227 105.504 483.28C105.504 484.187 105.824 484.947 106.464 485.56C107.104 486.147 108.264 486.627 109.944 487C112.824 487.64 114.797 488.453 115.864 489.44C116.957 490.427 117.504 491.84 117.504 493.68C117.504 495.467 116.81 496.867 115.424 497.88C114.064 498.893 112.13 499.4 109.624 499.4C107.677 499.4 105.824 499.107 104.064 498.52C103.237 498.253 102.824 497.68 102.824 496.8C102.824 496.507 102.957 496.28 103.224 496.12C103.49 495.933 103.77 495.893 104.064 496C105.797 496.667 107.57 497 109.384 497C112.744 497 114.424 495.893 114.424 493.68C114.424 492.72 114.077 491.92 113.384 491.28C112.717 490.64 111.464 490.107 109.624 489.68Z" fill="black" fill-opacity="0.35"/>
<path d="M120.325 481.4C119.978 481.4 119.685 481.293 119.445 481.08C119.232 480.84 119.125 480.547 119.125 480.2C119.125 479.853 119.232 479.573 119.445 479.36C119.685 479.12 119.978 479 120.325 479H123.245C123.485 479 123.605 478.88 123.605 478.64V472.92C123.605 472.493 123.752 472.133 124.045 471.84C124.338 471.547 124.698 471.4 125.125 471.4C125.552 471.4 125.912 471.547 126.205 471.84C126.498 472.133 126.645 472.493 126.645 472.92V478.64C126.645 478.88 126.765 479 127.005 479H133.005C133.352 479 133.632 479.12 133.845 479.36C134.085 479.573 134.205 479.853 134.205 480.2C134.205 480.547 134.085 480.84 133.845 481.08C133.632 481.293 133.352 481.4 133.005 481.4H127.005C126.765 481.4 126.645 481.52 126.645 481.76V492.32C126.645 494.24 126.898 495.507 127.405 496.12C127.912 496.707 128.885 497 130.325 497C131.178 497 131.885 496.933 132.445 496.8C132.738 496.747 133.005 496.813 133.245 497C133.512 497.16 133.645 497.387 133.645 497.68C133.645 498.053 133.525 498.387 133.285 498.68C133.072 498.973 132.792 499.147 132.445 499.2C131.752 499.333 130.872 499.4 129.805 499.4C127.458 499.4 125.832 498.92 124.925 497.96C124.045 496.973 123.605 495.187 123.605 492.6V481.76C123.605 481.52 123.485 481.4 123.245 481.4H120.325Z" fill="black" fill-opacity="0.35"/>
<path d="M140.923 498.52C140.63 498.84 140.257 499 139.803 499C139.35 499 138.963 498.84 138.643 498.52C138.35 498.2 138.203 497.827 138.203 497.4V479.72C138.203 479.293 138.35 478.933 138.643 478.64C138.937 478.347 139.297 478.2 139.723 478.2C140.15 478.2 140.51 478.347 140.803 478.64C141.097 478.933 141.243 479.293 141.243 479.72V482.8C141.243 482.827 141.257 482.84 141.283 482.84C141.337 482.84 141.363 482.813 141.363 482.76C142.163 481.427 143.283 480.36 144.723 479.56C146.19 478.733 147.83 478.28 149.643 478.2C150.017 478.173 150.337 478.293 150.603 478.56C150.87 478.827 151.003 479.147 151.003 479.52C151.003 479.867 150.87 480.173 150.603 480.44C150.363 480.707 150.057 480.853 149.683 480.88C147.043 480.987 145.003 481.76 143.563 483.2C142.123 484.613 141.403 486.6 141.403 489.16V497.4C141.403 497.827 141.243 498.2 140.923 498.52Z" fill="black" fill-opacity="0.35"/>
<path d="M163.08 488C160.44 488 158.44 488.427 157.08 489.28C155.747 490.133 155.08 491.333 155.08 492.88C155.08 494.08 155.413 495.053 156.08 495.8C156.773 496.52 157.68 496.88 158.8 496.88C160.72 496.88 162.307 496.24 163.56 494.96C164.84 493.68 165.48 491.987 165.48 489.88V488.36C165.48 488.12 165.36 488 165.12 488H163.08ZM158.16 499.4C156.347 499.4 154.867 498.827 153.72 497.68C152.573 496.533 152 495.013 152 493.12C152 490.907 152.88 489.133 154.64 487.8C156.4 486.467 159.213 485.8 163.08 485.8H165.12C165.36 485.8 165.48 485.693 165.48 485.48V484.72C165.48 483.093 165.107 481.96 164.36 481.32C163.613 480.653 162.293 480.32 160.4 480.32C158.56 480.32 156.573 480.667 154.44 481.36C154.12 481.467 153.827 481.427 153.56 481.24C153.293 481.053 153.16 480.787 153.16 480.44C153.16 479.507 153.6 478.907 154.48 478.64C156.453 478.08 158.427 477.8 160.4 477.8C163.467 477.8 165.587 478.36 166.76 479.48C167.96 480.6 168.56 482.613 168.56 485.52V497.56C168.56 497.96 168.413 498.307 168.12 498.6C167.853 498.867 167.52 499 167.12 499C166.72 499 166.373 498.867 166.08 498.6C165.787 498.307 165.64 497.96 165.64 497.56L165.6 495.48C165.6 495.453 165.587 495.44 165.56 495.44C165.507 495.44 165.48 495.467 165.48 495.52C163.907 498.107 161.467 499.4 158.16 499.4Z" fill="black" fill-opacity="0.35"/>
<path d="M171.356 481.4C171.01 481.4 170.716 481.293 170.476 481.08C170.263 480.84 170.156 480.547 170.156 480.2C170.156 479.853 170.263 479.573 170.476 479.36C170.716 479.12 171.01 479 171.356 479H174.276C174.516 479 174.636 478.88 174.636 478.64V472.92C174.636 472.493 174.783 472.133 175.076 471.84C175.37 471.547 175.73 471.4 176.156 471.4C176.583 471.4 176.943 471.547 177.236 471.84C177.53 472.133 177.676 472.493 177.676 472.92V478.64C177.676 478.88 177.796 479 178.036 479H184.036C184.383 479 184.663 479.12 184.876 479.36C185.116 479.573 185.236 479.853 185.236 480.2C185.236 480.547 185.116 480.84 184.876 481.08C184.663 481.293 184.383 481.4 184.036 481.4H178.036C177.796 481.4 177.676 481.52 177.676 481.76V492.32C177.676 494.24 177.93 495.507 178.436 496.12C178.943 496.707 179.916 497 181.356 497C182.21 497 182.916 496.933 183.476 496.8C183.77 496.747 184.036 496.813 184.276 497C184.543 497.16 184.676 497.387 184.676 497.68C184.676 498.053 184.556 498.387 184.316 498.68C184.103 498.973 183.823 499.147 183.476 499.2C182.783 499.333 181.903 499.4 180.836 499.4C178.49 499.4 176.863 498.92 175.956 497.96C175.076 496.973 174.636 495.187 174.636 492.6V481.76C174.636 481.52 174.516 481.4 174.276 481.4H171.356Z" fill="black" fill-opacity="0.35"/>
<path d="M203.364 488.6C203.364 483 201.23 480.2 196.964 480.2C192.697 480.2 190.564 483 190.564 488.6C190.564 494.2 192.697 497 196.964 497C201.23 497 203.364 494.2 203.364 488.6ZM203.964 496.56C202.284 498.453 199.951 499.4 196.964 499.4C193.977 499.4 191.644 498.453 189.964 496.56C188.284 494.667 187.444 492.013 187.444 488.6C187.444 485.187 188.284 482.533 189.964 480.64C191.644 478.747 193.977 477.8 196.964 477.8C199.951 477.8 202.284 478.747 203.964 480.64C205.644 482.533 206.484 485.187 206.484 488.6C206.484 492.013 205.644 494.667 203.964 496.56Z" fill="black" fill-opacity="0.35"/>
<path d="M211.79 498.52C211.497 498.84 211.124 499 210.67 499C210.217 499 209.83 498.84 209.51 498.52C209.217 498.2 209.07 497.827 209.07 497.4V479.72C209.07 479.293 209.217 478.933 209.51 478.64C209.804 478.347 210.164 478.2 210.59 478.2C211.017 478.2 211.377 478.347 211.67 478.64C211.964 478.933 212.11 479.293 212.11 479.72V482.8C212.11 482.827 212.124 482.84 212.15 482.84C212.204 482.84 212.23 482.813 212.23 482.76C213.03 481.427 214.15 480.36 215.59 479.56C217.057 478.733 218.697 478.28 220.51 478.2C220.884 478.173 221.204 478.293 221.47 478.56C221.737 478.827 221.87 479.147 221.87 479.52C221.87 479.867 221.737 480.173 221.47 480.44C221.23 480.707 220.924 480.853 220.55 480.88C217.91 480.987 215.87 481.76 214.43 483.2C212.99 484.613 212.27 486.6 212.27 489.16V497.4C212.27 497.827 212.11 498.2 211.79 498.52Z" fill="black" fill-opacity="0.35"/>
<path d="M90.8016 428V403.655H90.6216L80.0016 428H77.1666L66.5916 403.655H66.4116V428H62.7666V397.04H67.9866L78.5616 421.115H78.7866L89.3616 397.04H94.5816V428H90.8016Z" fill="black" fill-opacity="0.7"/>
<path d="M112.727 428.36C110.087 428.36 108.167 427.88 106.967 426.92C105.767 425.93 105.167 424.19 105.167 421.7C105.167 419.93 105.377 418.55 105.797 417.56C106.217 416.57 106.922 415.85 107.912 415.4C108.932 414.95 110.357 414.725 112.187 414.725C113.057 414.725 115.922 414.8 120.782 414.95V413.6C120.782 411.8 120.602 410.525 120.242 409.775C119.912 409.025 119.282 408.545 118.352 408.335C117.452 408.125 115.907 408.02 113.717 408.02C112.757 408.02 111.542 408.08 110.072 408.2C108.632 408.29 107.507 408.395 106.697 408.515V405.32C109.067 404.9 111.842 404.69 115.022 404.69C117.722 404.69 119.732 404.975 121.052 405.545C122.402 406.085 123.302 406.985 123.752 408.245C124.202 409.475 124.427 411.275 124.427 413.645V428H121.142L120.962 424.805H120.692C120.062 426.245 119.042 427.205 117.632 427.685C116.252 428.135 114.617 428.36 112.727 428.36ZM114.122 425.075C115.622 425.075 116.837 424.94 117.767 424.67C118.727 424.4 119.417 423.875 119.837 423.095C120.467 422.015 120.782 420.515 120.782 418.595V417.56H113.132C111.872 417.56 110.942 417.65 110.342 417.83C109.772 418.01 109.367 418.37 109.127 418.91C108.887 419.42 108.767 420.23 108.767 421.34C108.767 422.42 108.902 423.215 109.172 423.725C109.442 424.235 109.937 424.595 110.657 424.805C111.407 424.985 112.562 425.075 114.122 425.075Z" fill="black" fill-opacity="0.7"/>
<path d="M150.451 427.775C149.641 427.925 148.651 428.06 147.481 428.18C146.341 428.3 145.246 428.36 144.196 428.36C141.376 428.36 139.306 427.955 137.986 427.145C136.666 426.335 135.811 425.135 135.421 423.545C135.061 421.955 134.881 419.615 134.881 416.525C134.881 413.495 135.106 411.155 135.556 409.505C136.006 407.855 136.891 406.64 138.211 405.86C139.531 405.08 141.481 404.69 144.061 404.69C145.081 404.69 146.161 404.75 147.301 404.87C148.471 404.99 149.461 405.125 150.271 405.275V408.515C148.471 408.185 146.701 408.02 144.961 408.02C143.041 408.02 141.631 408.245 140.731 408.695C139.861 409.145 139.276 409.94 138.976 411.08C138.676 412.22 138.526 414.035 138.526 416.525C138.526 419.045 138.676 420.89 138.976 422.06C139.306 423.2 139.906 423.98 140.776 424.4C141.676 424.82 143.116 425.03 145.096 425.03C146.566 425.03 148.351 424.88 150.451 424.58V427.775Z" fill="black" fill-opacity="0.7"/>
<path d="M175.694 415.085C175.694 412.955 175.559 411.44 175.289 410.54C175.019 409.61 174.509 408.995 173.759 408.695C173.009 408.395 171.749 408.245 169.979 408.245C168.089 408.245 166.694 408.545 165.794 409.145C164.924 409.745 164.369 410.57 164.129 411.62C163.919 412.67 163.814 414.185 163.814 416.165V428H160.169V394.565H163.814V408.065H164.039C164.519 406.985 165.329 406.16 166.469 405.59C167.639 405.02 169.304 404.735 171.464 404.735C173.684 404.735 175.349 405.05 176.459 405.68C177.599 406.28 178.364 407.21 178.754 408.47C179.144 409.7 179.339 411.425 179.339 413.645V428H175.694V415.085Z" fill="black" fill-opacity="0.7"/>
<path d="M190.573 398.75V394.565H194.443V398.75H190.573ZM190.708 428V405.05H194.353V428H190.708Z" fill="black" fill-opacity="0.7"/>
<path d="M221.258 415.085C221.258 412.955 221.123 411.44 220.853 410.54C220.583 409.61 220.073 408.995 219.323 408.695C218.573 408.395 217.313 408.245 215.543 408.245C213.653 408.245 212.258 408.545 211.358 409.145C210.488 409.745 209.933 410.57 209.693 411.62C209.483 412.67 209.378 414.185 209.378 416.165V428H205.733V405.05H208.973L209.153 408.29H209.423C209.933 407.12 210.773 406.235 211.943 405.635C213.113 405.005 214.808 404.69 217.028 404.69C219.248 404.69 220.913 405.005 222.023 405.635C223.163 406.265 223.928 407.21 224.318 408.47C224.708 409.7 224.903 411.425 224.903 413.645V428H221.258V415.085Z" fill="black" fill-opacity="0.7"/>
<path d="M254.632 417.83H238.927C238.927 420.02 239.077 421.58 239.377 422.51C239.677 423.44 240.322 424.1 241.312 424.49C242.332 424.85 244.027 425.03 246.397 425.03C248.707 425.03 251.152 424.865 253.732 424.535V427.73C252.772 427.91 251.527 428.06 249.997 428.18C248.467 428.3 247.012 428.36 245.632 428.36C242.542 428.36 240.262 428 238.792 427.28C237.352 426.56 236.407 425.405 235.957 423.815C235.507 422.225 235.282 419.81 235.282 416.57C235.282 413.39 235.477 411.005 235.867 409.415C236.287 407.825 237.202 406.64 238.612 405.86C240.052 405.08 242.317 404.69 245.407 404.69C248.287 404.69 250.372 405.08 251.662 405.86C252.952 406.61 253.762 407.765 254.092 409.325C254.452 410.855 254.632 413.255 254.632 416.525V417.83ZM245.317 408.02C243.367 408.02 241.957 408.2 241.087 408.56C240.247 408.89 239.677 409.535 239.377 410.495C239.107 411.425 238.957 412.94 238.927 415.04H251.122V414.68C251.122 412.7 250.942 411.245 250.582 410.315C250.252 409.385 249.697 408.77 248.917 408.47C248.137 408.17 246.937 408.02 245.317 408.02Z" fill="black" fill-opacity="0.7"/>
<path d="M279.828 428V397.04H283.698V424.265H298.143V428H279.828Z" fill="black" fill-opacity="0.7"/>
<path d="M325.417 417.83H309.712C309.712 420.02 309.862 421.58 310.162 422.51C310.462 423.44 311.107 424.1 312.097 424.49C313.117 424.85 314.812 425.03 317.182 425.03C319.492 425.03 321.937 424.865 324.517 424.535V427.73C323.557 427.91 322.312 428.06 320.782 428.18C319.252 428.3 317.797 428.36 316.417 428.36C313.327 428.36 311.047 428 309.577 427.28C308.137 426.56 307.192 425.405 306.742 423.815C306.292 422.225 306.067 419.81 306.067 416.57C306.067 413.39 306.262 411.005 306.652 409.415C307.072 407.825 307.987 406.64 309.397 405.86C310.837 405.08 313.102 404.69 316.192 404.69C319.072 404.69 321.157 405.08 322.447 405.86C323.737 406.61 324.547 407.765 324.877 409.325C325.237 410.855 325.417 413.255 325.417 416.525V417.83ZM316.102 408.02C314.152 408.02 312.742 408.2 311.872 408.56C311.032 408.89 310.462 409.535 310.162 410.495C309.892 411.425 309.742 412.94 309.712 415.04H321.907V414.68C321.907 412.7 321.727 411.245 321.367 410.315C321.037 409.385 320.482 408.77 319.702 408.47C318.922 408.17 317.722 408.02 316.102 408.02Z" fill="black" fill-opacity="0.7"/>
<path d="M341.958 428.36C339.318 428.36 337.398 427.88 336.198 426.92C334.998 425.93 334.398 424.19 334.398 421.7C334.398 419.93 334.608 418.55 335.028 417.56C335.448 416.57 336.153 415.85 337.143 415.4C338.163 414.95 339.588 414.725 341.418 414.725C342.288 414.725 345.153 414.8 350.013 414.95V413.6C350.013 411.8 349.833 410.525 349.473 409.775C349.143 409.025 348.513 408.545 347.583 408.335C346.683 408.125 345.138 408.02 342.948 408.02C341.988 408.02 340.773 408.08 339.303 408.2C337.863 408.29 336.738 408.395 335.928 408.515V405.32C338.298 404.9 341.073 404.69 344.253 404.69C346.953 404.69 348.963 404.975 350.283 405.545C351.633 406.085 352.533 406.985 352.983 408.245C353.433 409.475 353.658 411.275 353.658 413.645V428H350.373L350.193 424.805H349.923C349.293 426.245 348.273 427.205 346.863 427.685C345.483 428.135 343.848 428.36 341.958 428.36ZM343.353 425.075C344.853 425.075 346.068 424.94 346.998 424.67C347.958 424.4 348.648 423.875 349.068 423.095C349.698 422.015 350.013 420.515 350.013 418.595V417.56H342.363C341.103 417.56 340.173 417.65 339.573 417.83C339.003 418.01 338.598 418.37 338.358 418.91C338.118 419.42 337.998 420.23 337.998 421.34C337.998 422.42 338.133 423.215 338.403 423.725C338.673 424.235 339.168 424.595 339.888 424.805C340.638 424.985 341.793 425.075 343.353 425.075Z" fill="black" fill-opacity="0.7"/>
<path d="M365.102 405.05H368.342L368.522 409.415H368.792C369.332 407.615 370.232 406.385 371.492 405.725C372.752 405.035 374.402 404.69 376.442 404.69V408.605C374.372 408.605 372.782 408.92 371.672 409.55C370.562 410.18 369.797 411.155 369.377 412.475C368.957 413.765 368.747 415.52 368.747 417.74V428H365.102V405.05Z" fill="black" fill-opacity="0.7"/>
<path d="M400.75 415.085C400.75 412.955 400.615 411.44 400.345 410.54C400.075 409.61 399.565 408.995 398.815 408.695C398.065 408.395 396.805 408.245 395.035 408.245C393.145 408.245 391.75 408.545 390.85 409.145C389.98 409.745 389.425 410.57 389.185 411.62C388.975 412.67 388.87 414.185 388.87 416.165V428H385.225V405.05H388.465L388.645 408.29H388.915C389.425 407.12 390.265 406.235 391.435 405.635C392.605 405.005 394.3 404.69 396.52 404.69C398.74 404.69 400.405 405.005 401.515 405.635C402.655 406.265 403.42 407.21 403.81 408.47C404.2 409.7 404.395 411.425 404.395 413.645V428H400.75V415.085Z" fill="black" fill-opacity="0.7"/>
<path d="M415.629 398.75V394.565H419.499V398.75H415.629ZM415.764 428V405.05H419.409V428H415.764Z" fill="black" fill-opacity="0.7"/>
<path d="M446.315 415.085C446.315 412.955 446.18 411.44 445.91 410.54C445.64 409.61 445.13 408.995 444.38 408.695C443.63 408.395 442.37 408.245 440.6 408.245C438.71 408.245 437.315 408.545 436.415 409.145C435.545 409.745 434.99 410.57 434.75 411.62C434.54 412.67 434.435 414.185 434.435 416.165V428H430.79V405.05H434.03L434.21 408.29H434.48C434.99 407.12 435.83 406.235 437 405.635C438.17 405.005 439.865 404.69 442.085 404.69C444.305 404.69 445.97 405.005 447.08 405.635C448.22 406.265 448.985 407.21 449.375 408.47C449.765 409.7 449.96 411.425 449.96 413.645V428H446.315V415.085Z" fill="black" fill-opacity="0.7"/>
<path d="M469.698 437.27C466.518 437.27 463.818 437.135 461.598 436.865V433.67C464.478 433.85 466.923 433.94 468.933 433.94C471.243 433.94 472.908 433.73 473.928 433.31C474.978 432.89 475.653 432.14 475.953 431.06C476.283 430.01 476.448 428.315 476.448 425.975V424.985H476.223C475.653 426.155 474.753 426.995 473.523 427.505C472.323 427.985 470.763 428.225 468.843 428.225C466.533 428.225 464.778 427.895 463.578 427.235C462.378 426.545 461.538 425.375 461.058 423.725C460.578 422.075 460.338 419.675 460.338 416.525C460.338 413.345 460.578 410.93 461.058 409.28C461.568 407.6 462.423 406.415 463.623 405.725C464.823 405.035 466.563 404.69 468.843 404.69C470.673 404.69 472.233 404.945 473.523 405.455C474.843 405.965 475.803 406.91 476.403 408.29H476.673L476.808 405.05H480.093V425.075C480.093 428.315 479.853 430.76 479.373 432.41C478.923 434.06 477.963 435.275 476.493 436.055C475.023 436.865 472.758 437.27 469.698 437.27ZM470.238 424.715C471.738 424.715 472.923 424.535 473.793 424.175C474.693 423.785 475.323 423.2 475.683 422.42C475.983 421.76 476.178 420.98 476.268 420.08C476.388 419.18 476.448 417.98 476.448 416.48C476.448 414.95 476.403 413.765 476.313 412.925C476.253 412.055 476.073 411.32 475.773 410.72C475.383 409.82 474.738 409.175 473.838 408.785C472.938 408.395 471.738 408.2 470.238 408.2C468.318 408.2 466.938 408.395 466.098 408.785C465.258 409.145 464.688 409.88 464.388 410.99C464.118 412.07 463.983 413.9 463.983 416.48C463.983 419.03 464.118 420.86 464.388 421.97C464.688 423.05 465.258 423.785 466.098 424.175C466.938 424.535 468.318 424.715 470.238 424.715Z" fill="black" fill-opacity="0.7"/>
<path d="M234 499V468.04H254.16V471.64H237.87V481.585H252V485.185H237.87V495.4H254.16V499H234Z" fill="black" fill-opacity="0.7"/>
<path d="M279.699 486.085C279.699 483.955 279.564 482.44 279.294 481.54C279.024 480.61 278.514 479.995 277.764 479.695C277.014 479.395 275.754 479.245 273.984 479.245C272.094 479.245 270.699 479.545 269.799 480.145C268.929 480.745 268.374 481.57 268.134 482.62C267.924 483.67 267.819 485.185 267.819 487.165V499H264.174V476.05H267.414L267.594 479.29H267.864C268.374 478.12 269.214 477.235 270.384 476.635C271.554 476.005 273.249 475.69 275.469 475.69C277.689 475.69 279.354 476.005 280.464 476.635C281.604 477.265 282.369 478.21 282.759 479.47C283.149 480.7 283.344 482.425 283.344 484.645V499H279.699V486.085Z" fill="black" fill-opacity="0.7"/>
<path d="M296.602 499V479.38H291.967V476.05H296.602V469.39H300.247V476.05H305.737V479.38H300.247V499H296.602Z" fill="black" fill-opacity="0.7"/>
<path d="M330.009 486.085C330.009 483.955 329.874 482.44 329.604 481.54C329.334 480.61 328.824 479.995 328.074 479.695C327.324 479.395 326.064 479.245 324.294 479.245C322.404 479.245 321.009 479.545 320.109 480.145C319.239 480.745 318.684 481.57 318.444 482.62C318.234 483.67 318.129 485.185 318.129 487.165V499H314.484V465.565H318.129V479.065H318.354C318.834 477.985 319.644 477.16 320.784 476.59C321.954 476.02 323.619 475.735 325.779 475.735C327.999 475.735 329.664 476.05 330.774 476.68C331.914 477.28 332.679 478.21 333.069 479.47C333.459 480.7 333.654 482.425 333.654 484.645V499H330.009V486.085Z" fill="black" fill-opacity="0.7"/>
<path d="M360.727 495.76H360.457C359.947 496.93 359.107 497.83 357.937 498.46C356.767 499.06 355.072 499.36 352.852 499.36C350.662 499.36 348.997 499.045 347.857 498.415C346.747 497.785 345.997 496.855 345.607 495.625C345.217 494.365 345.022 492.625 345.022 490.405V476.05H348.667V488.965C348.667 491.125 348.787 492.655 349.027 493.555C349.297 494.455 349.807 495.055 350.557 495.355C351.307 495.655 352.567 495.805 354.337 495.805C356.227 495.805 357.607 495.505 358.477 494.905C359.377 494.305 359.947 493.48 360.187 492.43C360.427 491.35 360.547 489.835 360.547 487.885V476.05H364.192V499H360.907L360.727 495.76Z" fill="black" fill-opacity="0.7"/>
<path d="M383.166 499.36C381.936 499.36 380.541 499.3 378.981 499.18C377.421 499.06 376.041 498.925 374.841 498.775V495.535C377.811 495.865 380.526 496.03 382.986 496.03C384.516 496.03 385.641 495.925 386.361 495.715C387.081 495.505 387.546 495.175 387.756 494.725C387.996 494.245 388.116 493.54 388.116 492.61C388.116 491.68 388.026 491.02 387.846 490.63C387.696 490.21 387.441 489.925 387.081 489.775C386.721 489.625 386.091 489.505 385.191 489.415L379.206 488.74C377.826 488.59 376.761 488.275 376.011 487.795C375.291 487.315 374.796 486.655 374.526 485.815C374.256 484.975 374.121 483.85 374.121 482.44C374.121 480.49 374.466 479.035 375.156 478.075C375.876 477.085 376.851 476.44 378.081 476.14C379.341 475.84 381.021 475.69 383.121 475.69C384.291 475.69 385.551 475.75 386.901 475.87C388.251 475.99 389.391 476.14 390.321 476.32V479.56C387.981 479.2 385.566 479.02 383.076 479.02C381.696 479.02 380.646 479.095 379.926 479.245C379.206 479.365 378.651 479.665 378.261 480.145C377.871 480.595 377.676 481.315 377.676 482.305C377.676 483.175 377.751 483.805 377.901 484.195C378.051 484.585 378.306 484.855 378.666 485.005C379.026 485.155 379.626 485.275 380.466 485.365L386.676 486.085C387.996 486.235 388.986 486.49 389.646 486.85C390.336 487.18 390.831 487.78 391.131 488.65C391.461 489.52 391.626 490.81 391.626 492.52C391.626 494.41 391.311 495.85 390.681 496.84C390.081 497.83 389.181 498.505 387.981 498.865C386.811 499.195 385.206 499.36 383.166 499.36Z" fill="black" fill-opacity="0.7"/>
<path d="M401.482 469.75V465.565H405.352V469.75H401.482ZM401.617 499V476.05H405.262V499H401.617Z" fill="black" fill-opacity="0.7"/>
<path d="M422.763 499.36C420.123 499.36 418.203 498.88 417.003 497.92C415.803 496.93 415.203 495.19 415.203 492.7C415.203 490.93 415.413 489.55 415.833 488.56C416.253 487.57 416.958 486.85 417.948 486.4C418.968 485.95 420.393 485.725 422.223 485.725C423.093 485.725 425.958 485.8 430.818 485.95V484.6C430.818 482.8 430.638 481.525 430.278 480.775C429.948 480.025 429.318 479.545 428.388 479.335C427.488 479.125 425.943 479.02 423.753 479.02C422.793 479.02 421.578 479.08 420.108 479.2C418.668 479.29 417.543 479.395 416.733 479.515V476.32C419.103 475.9 421.878 475.69 425.058 475.69C427.758 475.69 429.768 475.975 431.088 476.545C432.438 477.085 433.338 477.985 433.788 479.245C434.238 480.475 434.463 482.275 434.463 484.645V499H431.178L430.998 495.805H430.728C430.098 497.245 429.078 498.205 427.668 498.685C426.288 499.135 424.653 499.36 422.763 499.36ZM424.158 496.075C425.658 496.075 426.873 495.94 427.803 495.67C428.763 495.4 429.453 494.875 429.873 494.095C430.503 493.015 430.818 491.515 430.818 489.595V488.56H423.168C421.908 488.56 420.978 488.65 420.378 488.83C419.808 489.01 419.403 489.37 419.163 489.91C418.923 490.42 418.803 491.23 418.803 492.34C418.803 493.42 418.938 494.215 419.208 494.725C419.478 495.235 419.973 495.595 420.693 495.805C421.443 495.985 422.598 496.075 424.158 496.075Z" fill="black" fill-opacity="0.7"/>
<path d="M453.512 499.36C452.282 499.36 450.887 499.3 449.327 499.18C447.767 499.06 446.387 498.925 445.187 498.775V495.535C448.157 495.865 450.872 496.03 453.332 496.03C454.862 496.03 455.987 495.925 456.707 495.715C457.427 495.505 457.892 495.175 458.102 494.725C458.342 494.245 458.462 493.54 458.462 492.61C458.462 491.68 458.372 491.02 458.192 490.63C458.042 490.21 457.787 489.925 457.427 489.775C457.067 489.625 456.437 489.505 455.537 489.415L449.552 488.74C448.172 488.59 447.107 488.275 446.357 487.795C445.637 487.315 445.142 486.655 444.872 485.815C444.602 484.975 444.467 483.85 444.467 482.44C444.467 480.49 444.812 479.035 445.502 478.075C446.222 477.085 447.197 476.44 448.427 476.14C449.687 475.84 451.367 475.69 453.467 475.69C454.637 475.69 455.897 475.75 457.247 475.87C458.597 475.99 459.737 476.14 460.667 476.32V479.56C458.327 479.2 455.912 479.02 453.422 479.02C452.042 479.02 450.992 479.095 450.272 479.245C449.552 479.365 448.997 479.665 448.607 480.145C448.217 480.595 448.022 481.315 448.022 482.305C448.022 483.175 448.097 483.805 448.247 484.195C448.397 484.585 448.652 484.855 449.012 485.005C449.372 485.155 449.972 485.275 450.812 485.365L457.022 486.085C458.342 486.235 459.332 486.49 459.992 486.85C460.682 487.18 461.177 487.78 461.477 488.65C461.807 489.52 461.972 490.81 461.972 492.52C461.972 494.41 461.657 495.85 461.027 496.84C460.427 497.83 459.527 498.505 458.327 498.865C457.157 499.195 455.552 499.36 453.512 499.36Z" fill="black" fill-opacity="0.7"/>
<path d="M473.633 499V479.38H468.998V476.05H473.633V469.39H477.278V476.05H482.768V479.38H477.278V499H473.633Z" fill="black" fill-opacity="0.7"/>
<path d="M2.37267 91.8333C1.79393 91.8333 1.36953 91.5825 1.09945 91.081C0.829374 90.5794 0.694336 90.0199 0.694336 89.4026C0.694336 88.7853 0.829374 88.2259 1.09945 87.7243C1.36953 87.2227 1.79393 86.9719 2.37267 86.9719H41.2637C41.8424 86.9719 42.2861 87.2227 42.5948 87.7243C42.8649 88.2259 42.9999 88.7853 42.9999 89.4026C42.9999 90.0199 42.8649 90.5794 42.5948 91.081C42.2861 91.5825 41.8424 91.8333 41.2637 91.8333H2.37267Z" fill="black"/>
</svg>
