<svg width="406" height="296" viewBox="0 0 406 296" fill="none" xmlns="http://www.w3.org/2000/svg">
<path d="M99.7082 40V35.491H119.194L122.092 32.5386V24.6478L119.194 21.6954H103.895L98.3125 16.1128V6.07483L103.895 0.438532H124.937V4.94757H106.096L103.144 7.89992L103.197 14.4488L106.096 17.4011H121.395L126.977 23.0374V34.3637L121.395 40H99.7082ZM139.71 40L134.074 34.3637V17.5622L139.71 11.9259H153.022L158.659 17.5622V34.3637L153.022 40H139.71ZM141.75 36.2425H150.983L153.935 33.2901L153.881 18.6357L150.983 15.6834H141.75L138.797 18.6357V33.2901L141.75 36.2425ZM178.699 40V11.9259H183.423V16.9717L188.308 11.9259H198.668L203.606 16.918L208.437 11.9259H218.797L224.434 17.5622V40H219.71V18.7431L216.865 15.6834H209.672L204.25 21.1587V40H199.526L199.58 18.7431L196.682 15.6834H189.542L183.423 21.9102V40H178.699ZM236.014 40L230.432 34.3637V27.9759L236.014 22.3396H250.293V18.8504L247.394 15.8981H234.082V11.9259H249.434L255.017 17.5622V40H250.293V35.652L245.945 40H236.014ZM238.108 36.2425H244.764L250.293 30.7672V26.0434L238.108 26.0971L235.156 28.9958V33.2901L238.108 36.2425ZM263.569 40V11.9259H268.292V16.9717L273.177 11.9259H283.537L289.12 17.5622V40H284.396V18.7431L281.551 15.6834H274.412L268.292 21.9102V40H263.569ZM301.843 50.038L306.889 38.0676H304.903L293.362 11.9259H298.569L307.587 33.3975H308.821L317.141 11.9259H322.295L306.62 50.038H301.843ZM26.5069 104L20.8706 98.3637V81.5622L26.5069 75.9259H36.8133L41.1613 80.3812V64.4385H45.8851V104H41.1613V99.5983L36.8133 104H26.5069ZM35.6324 100.242L41.1613 94.6598V85.3197L35.6324 79.6834H28.5467L25.5944 82.6357V97.2901L28.5467 100.242H35.6324ZM54.6448 72.8661V66.532H59.3686V72.8661H54.6448ZM54.6448 104V75.9259H59.3686V104H54.6448ZM68.3317 104V79.6834H65.4331V75.9259H68.3317V69.377L73.2702 64.4385H80.2485V68.3571H75.5784L73.0555 70.9874V75.9259H79.0675V79.6834H73.0555V104H68.3317ZM84.6346 104V79.6834H81.736V75.9259H84.6346V69.377L89.5731 64.4385H96.5514V68.3571H91.8813L89.3584 70.9874V75.9259H95.3705V79.6834H89.3584V104H84.6346ZM105.715 104L100.079 98.3637V81.5622L105.715 75.9259H118.222L123.859 81.5622V91.7075H104.802V97.1291L107.755 100.081H123.375V104H105.715ZM104.802 87.95H119.135V82.6357L116.182 79.6834H107.755L104.802 82.6357V87.95ZM132.018 104V75.9259H136.742V80.9717L141.627 75.9259H148.82V80.6496H141.841L136.742 85.9102V104H132.018ZM158.241 104L152.604 98.3637V81.5622L158.241 75.9259H170.748L176.384 81.5622V91.7075H157.328V97.1291L160.281 100.081H175.901V104H158.241ZM157.328 87.95H171.661V82.6357L168.708 79.6834H160.281L157.328 82.6357V87.95ZM184.544 104V75.9259H189.268V80.9717L194.153 75.9259H204.513L210.095 81.5622V104H205.371V82.7431L202.526 79.6834H195.387L189.268 85.9102V104H184.544ZM223.878 104L218.94 99.1152V79.6834H215.987V75.9259H219.047L220.228 68.7329H223.663V75.9259H229.622V79.6834H223.663V97.4512L226.186 100.081H230.856V104H223.878ZM248.498 114.038V75.9259H253.221V80.3812L257.516 75.9259H267.876L273.458 81.5622V98.3637L267.876 104H257.516L253.221 99.5983V114.038H248.498ZM258.75 100.242H265.836L268.735 97.2901V82.6357L265.836 79.6834H258.75L253.221 85.3197V94.6598L258.75 100.242ZM284.687 104L279.105 98.3637V91.9759L284.687 86.3396H298.966V82.8504L296.067 79.8981H282.755V75.9259H298.107L303.69 81.5622V104H298.966V99.652L294.618 104H284.687ZM286.781 100.242H293.437L298.966 94.7672V90.0434L286.781 90.0971L283.828 92.9958V97.2901L286.781 100.242ZM317.502 104L312.563 99.1152V79.6834H309.611V75.9259H312.671L313.852 68.7329H317.287V75.9259H323.246V79.6834H317.287V97.4512L319.81 100.081H324.48V104H317.502ZM330.222 104V64.4385H334.946V80.3812L339.24 75.9259H349.6L355.183 81.5622V104H350.459V82.7431L347.614 79.6834H340.474L334.946 85.3197V104H330.222ZM363.719 104V100.081H378.588L381.111 97.5048V94.1231L378.427 91.4391H367.315L362.377 86.608V80.918L367.315 75.9259H383.151V79.8981H369.57L367.101 82.3137V85.0513L369.677 87.6279H380.896L385.835 92.459V99.0615L380.95 104H363.719ZM390.117 109.905L392.264 97.6659H396.988L392.855 109.905H390.117ZM91.9346 168L86.9961 163.115V143.683H84.0437V139.926H87.1035L88.2844 132.733H91.7199V139.926H97.6782V143.683H91.7199V161.451L94.2428 164.081H98.9128V168H91.9346ZM104.654 168V128.439H109.378V144.381L113.672 139.926H124.033L129.615 145.562V168H124.891V146.743L122.046 143.683H114.907L109.378 149.32V168H104.654ZM143.144 168L137.507 162.364V145.562L143.144 139.926H155.651L161.287 145.562V155.707H142.231V161.129L145.183 164.081H160.804V168H143.144ZM142.231 151.95H156.563V146.636L153.611 143.683H145.183L142.231 146.636V151.95ZM174.439 168L168.803 162.364V145.562L174.439 139.926H186.946L192.582 145.562V155.707H173.526V161.129L176.479 164.081H192.099V168H174.439ZM173.526 151.95H187.859V146.636L184.906 143.683H176.479L173.526 146.636V151.95ZM212.642 168V128.439H217.365V144.381L221.66 139.926H232.02L237.602 145.562V168H232.879V146.743L230.034 143.683H222.894L217.365 149.32V168H212.642ZM249.198 168L243.616 162.364V155.976L249.198 150.34H263.477V146.85L260.578 143.898H247.266V139.926H262.618L268.201 145.562V168H263.477V163.652L259.129 168H249.198ZM251.292 164.242H257.948L263.477 158.767V154.043L251.292 154.097L248.339 156.996V161.29L251.292 164.242ZM282.013 168L277.074 163.115V143.683H274.122V139.926H277.182L278.363 132.733H281.798V139.926H287.757V143.683H281.798V161.451L284.321 164.081H288.991V168H282.013ZM294.733 168V128.439H299.457V144.381L303.751 139.926H314.111L319.694 145.562V168H314.97V146.743L312.125 143.683H304.985L299.457 149.32V168H294.733ZM5.64339 232L0.00709158 226.364V209.562L5.64339 203.926H18.4727L23.4112 208.811V213.266H18.6874V210.367L16.0035 207.683H7.6832L4.73085 210.636V225.075L7.6832 228.081H23.1428V232H5.64339ZM30.636 232V192.439H35.3598V208.381L39.6541 203.926H50.0142L55.5968 209.562V232H50.873V210.743L48.028 207.683H40.8887L35.3598 213.32V232H30.636ZM69.1252 232L63.4889 226.364V209.562L69.1252 203.926H82.4376L88.0739 209.562V226.364L82.4376 232H69.1252ZM71.165 228.242H80.3978L83.3501 225.29L83.2964 210.636L80.3978 207.683H71.165L68.2126 210.636V225.29L71.165 228.242ZM95.9525 232V228.081H110.822L113.345 225.505V222.123L110.661 219.439H99.549L94.6106 214.608V208.918L99.549 203.926H115.384V207.898H101.804L99.3343 210.314V213.051L101.911 215.628H113.13L118.068 220.459V227.062L113.184 232H95.9525ZM130.248 232L124.612 226.364V209.562L130.248 203.926H142.755L148.392 209.562V219.707H129.335V225.129L132.288 228.081H147.908V232H130.248ZM129.335 215.95H143.668V210.636L140.715 207.683H132.288L129.335 210.636V215.95ZM156.551 232V203.926H161.275V208.972L166.16 203.926H176.52L182.102 209.562V232H177.379V210.743L174.534 207.683H167.394L161.275 213.91V232H156.551ZM207.785 232L202.846 227.115V207.683H199.894V203.926H202.954L204.135 196.733H207.57V203.926H213.529V207.683H207.57V225.451L210.093 228.081H214.763V232H207.785ZM220.505 232V192.439H225.228V208.381L229.523 203.926H239.883L245.465 209.562V232H240.742V210.743L237.897 207.683H230.757L225.228 213.32V232H220.505ZM258.994 232L253.358 226.364V209.562L258.994 203.926H271.501L277.137 209.562V219.707H258.081V225.129L261.034 228.081H276.654V232H258.994ZM258.081 215.95H272.414V210.636L269.461 207.683H261.034L258.081 210.636V215.95ZM297.197 232V203.926H301.92V208.972L306.805 203.926H313.998V208.65H307.02L301.92 213.91V232H297.197ZM323.419 232L317.783 226.364V209.562L323.419 203.926H336.732L342.368 209.562V226.364L336.732 232H323.419ZM325.459 228.242H334.692L337.644 225.29L337.59 210.636L334.692 207.683H325.459L322.507 210.636V225.29L325.459 228.242ZM353.568 232L347.986 226.364V219.976L353.568 214.34H367.847V210.85L364.948 207.898H351.636V203.926H366.988L372.571 209.562V232H367.847V227.652L363.499 232H353.568ZM355.662 228.242H362.318L367.847 222.767V218.043L355.662 218.097L352.71 220.996V225.29L355.662 228.242ZM386.115 232L380.478 226.364V209.562L386.115 203.926H396.421L400.769 208.381V192.439H405.493V232H400.769V227.598L396.421 232H386.115ZM395.24 228.242L400.769 222.66V213.32L395.24 207.683H388.154L385.202 210.636V225.29L388.154 228.242H395.24ZM32.2087 296V256.439H36.9324V296H32.2087ZM50.673 296L45.0367 290.364V273.562L50.673 267.926H63.1802L68.8165 273.562V283.707H49.7605V289.129L52.7128 292.081H68.3334V296H50.673ZM49.7605 279.95H64.0928V274.636L61.1404 271.683H52.7128L49.7605 274.636V279.95ZM76.9762 296V292.081H91.8453L94.3682 289.505V286.123L91.6842 283.439H80.5727L75.6342 278.608V272.918L80.5727 267.926H96.408V271.898H82.8272L80.3579 274.314V277.051L82.9345 279.628H94.1535L99.0919 284.459V291.062L94.2071 296H76.9762ZM106.279 296V292.081H121.149L123.671 289.505V286.123L120.988 283.439H109.876L104.937 278.608V272.918L109.876 267.926H125.711V271.898H112.13L109.661 274.314V277.051L112.238 279.628H123.457L128.395 284.459V291.062L123.51 296H106.279ZM152.737 296L147.1 290.364V273.562L152.737 267.926H163.043L167.391 272.381V256.439H172.115V296H167.391V291.598L163.043 296H152.737ZM161.862 292.242L167.391 286.66V277.32L161.862 271.683H154.776L151.824 274.636V289.29L154.776 292.242H161.862ZM180.874 264.866V258.532H185.598V264.866H180.874ZM180.874 296V267.926H185.598V296H180.874ZM199.339 296L193.703 290.364V273.562L199.339 267.926H209.645L213.993 272.381V256.439H218.717V296H213.993V291.598L209.645 296H199.339ZM208.464 292.242L213.993 286.66V277.32L208.464 271.683H201.379L198.426 274.636V289.29L201.379 292.242H208.464ZM244.637 296L239.698 291.115V271.683H236.746V267.926H239.806L240.987 260.733H244.422V267.926H250.38V271.683H244.422V289.451L246.945 292.081H251.615V296H244.637ZM257.357 296V267.926H262.08V272.972L266.965 267.926H274.158V272.65H267.18L262.08 277.91V296H257.357ZM281.018 296L275.435 290.364V283.976L281.018 278.34H295.296V274.85L292.398 271.898H279.085V267.926H294.438L300.02 273.562V296H295.296V291.652L290.948 296H281.018ZM283.111 292.242H289.767L295.296 286.767V282.043L283.111 282.097L280.159 284.996V289.29L283.111 292.242ZM316.208 296L304.291 267.926H309.445L318.516 291.276H319.751L328.769 267.926H333.976L322.059 296H316.208ZM342.815 296L337.179 290.364V273.562L342.815 267.926H355.322L360.958 273.562V283.707H341.902V289.129L344.855 292.081H360.475V296H342.815ZM341.902 279.95H356.235V274.636L353.282 271.683H344.855L341.902 274.636V279.95ZM369.118 296V256.439H373.842V296H369.118ZM381.57 296V289.666H386.294V296H381.57Z" fill="black" fill-opacity="0.5"/>
</svg>
