<svg width="1042" height="128" viewBox="0 0 1042 128" fill="none" xmlns="http://www.w3.org/2000/svg">
<path d="M213.871 53V48.491H233.357L236.256 45.5386V37.6478L233.357 34.6954H218.058L212.476 29.1128V19.0748L218.058 13.4385H239.101V17.9476H220.259L217.307 20.8999L217.361 27.4488L220.259 30.4011H235.558L241.14 36.0374V47.3637L235.558 53H213.871ZM253.873 53L248.237 47.3637V30.5622L253.873 24.9259H267.186L272.822 30.5622V47.3637L267.186 53H253.873ZM255.913 49.2425H265.146L268.098 46.2901L268.045 31.6357L265.146 28.6834H255.913L252.961 31.6357V46.2901L255.913 49.2425ZM292.862 53V24.9259H297.586V29.9717L302.471 24.9259H312.831L317.769 29.918L322.601 24.9259H332.961L338.597 30.5622V53H333.873V31.7431L331.028 28.6834H323.835L318.414 34.1587V53H313.69L313.743 31.7431L310.845 28.6834H303.705L297.586 34.9102V53H292.862ZM350.178 53L344.595 47.3637V40.9759L350.178 35.3396H364.456V31.8504L361.558 28.8981H348.245V24.9259H363.597L369.18 30.5622V53H364.456V48.652L360.108 53H350.178ZM352.271 49.2425H358.927L364.456 43.7672V39.0434L352.271 39.0971L349.319 41.9958V46.2901L352.271 49.2425ZM377.732 53V24.9259H382.456V29.9717L387.34 24.9259H397.7L403.283 30.5622V53H398.559V31.7431L395.714 28.6834H388.575L382.456 34.9102V53H377.732ZM416.006 63.038L421.052 51.0676H419.066L407.525 24.9259H412.732L421.75 46.3975H422.985L431.305 24.9259H436.458L420.784 63.038H416.006ZM458.472 53L452.836 47.3637V30.5622L458.472 24.9259H468.779L473.127 29.3812V13.4385H477.85V53H473.127V48.5983L468.779 53H458.472ZM467.598 49.2425L473.127 43.6598V34.3197L467.598 28.6834H460.512L457.56 31.6357V46.2901L460.512 49.2425H467.598ZM486.61 21.8661V15.532H491.334V21.8661H486.61ZM486.61 53V24.9259H491.334V53H486.61ZM500.297 53V28.6834H497.398V24.9259H500.297V18.377L505.236 13.4385H512.214V17.3571H507.544L505.021 19.9874V24.9259H511.033V28.6834H505.021V53H500.297ZM516.6 53V28.6834H513.701V24.9259H516.6V18.377L521.538 13.4385H528.517V17.3571H523.847L521.324 19.9874V24.9259H527.336V28.6834H521.324V53H516.6ZM537.68 53L532.044 47.3637V30.5622L537.68 24.9259H550.188L555.824 30.5622V40.7075H536.768V46.1291L539.72 49.0814H555.341V53H537.68ZM536.768 36.95H551.1V31.6357L548.148 28.6834H539.72L536.768 31.6357V36.95ZM563.983 53V24.9259H568.707V29.9717L573.592 24.9259H580.785V29.6496H573.807L568.707 34.9102V53H563.983ZM590.206 53L584.57 47.3637V30.5622L590.206 24.9259H602.713L608.35 30.5622V40.7075H589.294V46.1291L592.246 49.0814H607.867V53H590.206ZM589.294 36.95H603.626V31.6357L600.674 28.6834H592.246L589.294 31.6357V36.95ZM616.509 53V24.9259H621.233V29.9717L626.118 24.9259H636.478L642.061 30.5622V53H637.337V31.7431L634.492 28.6834H627.352L621.233 34.9102V53H616.509ZM655.844 53L650.905 48.1152V28.6834H647.953V24.9259H651.012L652.193 17.7329H655.629V24.9259H661.587V28.6834H655.629V46.4512L658.152 49.0814H662.822V53H655.844ZM680.463 63.038V24.9259H685.187V29.3812L689.481 24.9259H699.841L705.424 30.5622V47.3637L699.841 53H689.481L685.187 48.5983V63.038H680.463ZM690.716 49.2425H697.801L700.7 46.2901V31.6357L697.801 28.6834H690.716L685.187 34.3197V43.6598L690.716 49.2425ZM716.653 53L711.07 47.3637V40.9759L716.653 35.3396H730.931V31.8504L728.033 28.8981H714.72V24.9259H730.072L735.655 30.5622V53H730.931V48.652L726.583 53H716.653ZM718.746 49.2425H725.402L730.931 43.7672V39.0434L718.746 39.0971L715.794 41.9958V46.2901L718.746 49.2425ZM749.467 53L744.529 48.1152V28.6834H741.576V24.9259H744.636L745.817 17.7329H749.253V24.9259H755.211V28.6834H749.253V46.4512L751.775 49.0814H756.446V53H749.467ZM762.187 53V13.4385H766.911V29.3812L771.205 24.9259H781.565L787.148 30.5622V53H782.424V31.7431L779.579 28.6834H772.44L766.911 34.3197V53H762.187ZM795.684 53V49.0814H810.553L813.076 46.5048V43.1231L810.392 40.4391H799.281L794.342 35.608V29.918L799.281 24.9259H815.116V28.8981H801.535L799.066 31.3137V34.0513L801.643 36.6279H812.861L817.8 41.459V48.0615L812.915 53H795.684ZM822.083 58.9047L824.23 46.6659H828.953L824.82 58.9047H822.083ZM9.99109 117L5.05261 112.115V92.6834H2.10027V88.9259H5.15997L6.34091 81.7329H9.77637V88.9259H15.7347V92.6834H9.77637V110.451L12.2993 113.081H16.9694V117H9.99109ZM22.7109 117V77.4385H27.4347V93.3812L31.729 88.9259H42.0891L47.6717 94.5622V117H42.9479V95.7431L40.1029 92.6834H32.9636L27.4347 98.3197V117H22.7109ZM61.2001 117L55.5638 111.364V94.5622L61.2001 88.9259H73.7073L79.3436 94.5622V104.707H60.2875V110.129L63.2399 113.081H78.8605V117H61.2001ZM60.2875 100.95H74.6198V95.6357L71.6675 92.6834H63.2399L60.2875 95.6357V100.95ZM92.4954 117L86.8591 111.364V94.5622L92.4954 88.9259H105.003L110.639 94.5622V104.707H91.5828V110.129L94.5352 113.081H110.156V117H92.4954ZM91.5828 100.95H105.915V95.6357L102.963 92.6834H94.5352L91.5828 95.6357V100.95ZM130.698 117V77.4385H135.422V93.3812L139.716 88.9259H150.076L155.659 94.5622V117H150.935V95.7431L148.09 92.6834H140.951L135.422 98.3197V117H130.698ZM167.255 117L161.672 111.364V104.976L167.255 99.3396H181.533V95.8504L178.635 92.8981H165.322V88.9259H180.675L186.257 94.5622V117H181.533V112.652L177.185 117H167.255ZM169.348 113.242H176.004L181.533 107.767V103.043L169.348 103.097L166.396 105.996V110.29L169.348 113.242ZM200.069 117L195.131 112.115V92.6834H192.179V88.9259H195.238L196.419 81.7329H199.855V88.9259H205.813V92.6834H199.855V110.451L202.378 113.081H207.048V117H200.069ZM212.789 117V77.4385H217.513V93.3812L221.807 88.9259H232.167L237.75 94.5622V117H233.026V95.7431L230.181 92.6834H223.042L217.513 98.3197V117H212.789ZM263.178 117L257.542 111.364V94.5622L263.178 88.9259H276.007L280.946 93.8106V98.266H276.222V95.3673L273.538 92.6834H265.218L262.265 95.6357V110.075L265.218 113.081H280.677V117H263.178ZM288.171 117V77.4385H292.894V93.3812L297.189 88.9259H307.549L313.131 94.5622V117H308.408V95.7431L305.563 92.6834H298.423L292.894 98.3197V117H288.171ZM326.66 117L321.023 111.364V94.5622L326.66 88.9259H339.972L345.609 94.5622V111.364L339.972 117H326.66ZM328.7 113.242H337.932L340.885 110.29L340.831 95.6357L337.932 92.6834H328.7L325.747 95.6357V110.29L328.7 113.242ZM353.487 117V113.081H368.356L370.879 110.505V107.123L368.195 104.439H357.084L352.145 99.608V93.918L357.084 88.9259H372.919V92.8981H359.338L356.869 95.3137V98.0513L359.446 100.628H370.664L375.603 105.459V112.062L370.718 117H353.487ZM387.783 117L382.146 111.364V94.5622L387.783 88.9259H400.29L405.926 94.5622V104.707H386.87V110.129L389.822 113.081H405.443V117H387.783ZM386.87 100.95H401.202V95.6357L398.25 92.6834H389.822L386.87 95.6357V100.95ZM414.086 117V88.9259H418.81V93.9717L423.694 88.9259H434.054L439.637 94.5622V117H434.913V95.7431L432.068 92.6834H424.929L418.81 98.9102V117H414.086ZM465.32 117L460.381 112.115V92.6834H457.429V88.9259H460.488L461.669 81.7329H465.105V88.9259H471.063V92.6834H465.105V110.451L467.628 113.081H472.298V117H465.32ZM478.039 117V77.4385H482.763V93.3812L487.057 88.9259H497.417L503 94.5622V117H498.276V95.7431L495.431 92.6834H488.292L482.763 98.3197V117H478.039ZM516.528 117L510.892 111.364V94.5622L516.528 88.9259H529.036L534.672 94.5622V104.707H515.616V110.129L518.568 113.081H534.189V117H516.528ZM515.616 100.95H529.948V95.6357L526.996 92.6834H518.568L515.616 95.6357V100.95ZM554.731 117V88.9259H559.455V93.9717L564.34 88.9259H571.533V93.6496H564.554L559.455 98.9102V117H554.731ZM580.954 117L575.318 111.364V94.5622L580.954 88.9259H594.266L599.903 94.5622V111.364L594.266 117H580.954ZM582.994 113.242H592.226L595.179 110.29L595.125 95.6357L592.226 92.6834H582.994L580.041 95.6357V110.29L582.994 113.242ZM611.103 117L605.52 111.364V104.976L611.103 99.3396H625.382V95.8504L622.483 92.8981H609.171V88.9259H624.523L630.105 94.5622V117H625.382V112.652L621.034 117H611.103ZM613.196 113.242H619.853L625.382 107.767V103.043L613.196 103.097L610.244 105.996V110.29L613.196 113.242ZM643.649 117L638.013 111.364V94.5622L643.649 88.9259H653.956L658.304 93.3812V77.4385H663.027V117H658.304V112.598L653.956 117H643.649ZM652.775 113.242L658.304 107.66V98.3197L652.775 92.6834H645.689L642.737 95.6357V110.29L645.689 113.242H652.775ZM683.687 117V77.4385H688.411V117H683.687ZM702.151 117L696.515 111.364V94.5622L702.151 88.9259H714.658L720.295 94.5622V104.707H701.239V110.129L704.191 113.081H719.812V117H702.151ZM701.239 100.95H715.571V95.6357L712.619 92.6834H704.191L701.239 95.6357V100.95ZM728.454 117V113.081H743.323L745.846 110.505V107.123L743.162 104.439H732.051L727.112 99.608V93.918L732.051 88.9259H747.886V92.8981H734.305L731.836 95.3137V98.0513L734.413 100.628H745.632L750.57 105.459V112.062L745.685 117H728.454ZM757.758 117V113.081H772.627L775.15 110.505V107.123L772.466 104.439H761.354L756.416 99.608V93.918L761.354 88.9259H777.189V92.8981H763.609L761.139 95.3137V98.0513L763.716 100.628H774.935L779.873 105.459V112.062L774.989 117H757.758ZM804.215 117L798.578 111.364V94.5622L804.215 88.9259H814.521L818.869 93.3812V77.4385H823.593V117H818.869V112.598L814.521 117H804.215ZM813.34 113.242L818.869 107.66V98.3197L813.34 92.6834H806.255L803.302 95.6357V110.29L806.255 113.242H813.34ZM832.353 85.8661V79.532H837.076V85.8661H832.353ZM832.353 117V88.9259H837.076V117H832.353ZM850.817 117L845.181 111.364V94.5622L850.817 88.9259H861.123L865.471 93.3812V77.4385H870.195V117H865.471V112.598L861.123 117H850.817ZM859.942 113.242L865.471 107.66V98.3197L859.942 92.6834H852.857L849.904 95.6357V110.29L852.857 113.242H859.942ZM896.115 117L891.176 112.115V92.6834H888.224V88.9259H891.284L892.465 81.7329H895.9V88.9259H901.859V92.6834H895.9V110.451L898.423 113.081H903.093V117H896.115ZM908.835 117V88.9259H913.558V93.9717L918.443 88.9259H925.636V93.6496H918.658L913.558 98.9102V117H908.835ZM932.496 117L926.913 111.364V104.976L932.496 99.3396H946.775V95.8504L943.876 92.8981H930.563V88.9259H945.916L951.498 94.5622V117H946.775V112.652L942.426 117H932.496ZM934.589 113.242H941.246L946.775 107.767V103.043L934.589 103.097L931.637 105.996V110.29L934.589 113.242ZM967.686 117L955.77 88.9259H960.923L969.994 112.276H971.229L980.247 88.9259H985.454L973.537 117H967.686ZM994.293 117L988.657 111.364V94.5622L994.293 88.9259H1006.8L1012.44 94.5622V104.707H993.381V110.129L996.333 113.081H1011.95V117H994.293ZM993.381 100.95H1007.71V95.6357L1004.76 92.6834H996.333L993.381 95.6357V100.95ZM1020.6 117V77.4385H1025.32V117H1020.6ZM1033.05 117V110.666H1037.77V117H1033.05Z" fill="black" fill-opacity="0.5"/>
</svg>
