<svg width="58" height="12" viewBox="0 0 58 12" fill="none" xmlns="http://www.w3.org/2000/svg">
<path d="M6.5 11.625C9.6066 11.625 12.125 9.1066 12.125 6C12.125 2.8934 9.6066 0.375 6.5 0.375C3.3934 0.375 0.875 2.8934 0.875 6C0.875 9.1066 3.3934 11.625 6.5 11.625Z" fill="#808080"/>
<path d="M29 11.625C32.1066 11.625 34.625 9.1066 34.625 6C34.625 2.8934 32.1066 0.375 29 0.375C25.8934 0.375 23.375 2.8934 23.375 6C23.375 9.1066 25.8934 11.625 29 11.625Z" fill="#808080"/>
<path d="M51.5 11.625C54.6066 11.625 57.125 9.1066 57.125 6C57.125 2.8934 54.6066 0.375 51.5 0.375C48.3934 0.375 45.875 2.8934 45.875 6C45.875 9.1066 48.3934 11.625 51.5 11.625Z" fill="#808080"/>
</svg>
