<svg width="211" height="49" viewBox="0 0 211 49" fill="none" xmlns="http://www.w3.org/2000/svg">
<path fill-rule="evenodd" clip-rule="evenodd" d="M176.228 43.5501C176.086 43.4079 175.972 43.2389 175.895 43.0529C175.818 42.8669 175.778 42.6674 175.778 42.466C175.778 42.2646 175.818 42.0652 175.895 41.8791C175.972 41.6931 176.086 41.5241 176.228 41.3819L193.522 24.091L176.228 6.80014C176.086 6.65777 175.973 6.48875 175.896 6.30274C175.819 6.11672 175.779 5.91735 175.779 5.71601C175.779 5.51467 175.819 5.3153 175.896 5.12929C175.973 4.94327 176.086 4.77426 176.228 4.63189C176.371 4.48952 176.54 4.37658 176.726 4.29954C176.912 4.22249 177.111 4.18283 177.312 4.18283C177.514 4.18283 177.713 4.22249 177.899 4.29954C178.085 4.37658 178.254 4.48952 178.396 4.63189L196.771 23.0069C196.914 23.1491 197.027 23.3181 197.104 23.5041C197.182 23.6902 197.221 23.8896 197.221 24.091C197.221 24.2924 197.182 24.4919 197.104 24.6779C197.027 24.8639 196.914 25.0329 196.771 25.1751L178.396 43.5501C178.254 43.6927 178.085 43.8059 177.899 43.8831C177.713 43.9603 177.514 44 177.312 44C177.111 44 176.911 43.9603 176.725 43.8831C176.539 43.8059 176.37 43.6927 176.228 43.5501V43.5501Z" fill="black"/>
<path fill-rule="evenodd" clip-rule="evenodd" d="M34.7723 4.44986C34.9149 4.5921 35.028 4.76108 35.1052 4.94711C35.1824 5.13314 35.2222 5.33258 35.2222 5.53399C35.2222 5.7354 35.1824 5.93483 35.1052 6.12087C35.028 6.3069 34.9149 6.47587 34.7723 6.61811L17.4784 23.909L34.7723 41.1999C34.9147 41.3422 35.0276 41.5112 35.1047 41.6973C35.1817 41.8833 35.2214 42.0826 35.2214 42.284C35.2214 42.4853 35.1817 42.6847 35.1047 42.8707C35.0276 43.0567 34.9147 43.2257 34.7723 43.3681C34.6299 43.5105 34.4609 43.6234 34.2749 43.7005C34.0889 43.7775 33.8895 43.8172 33.6882 43.8172C33.4868 43.8172 33.2875 43.7775 33.1015 43.7005C32.9154 43.6234 32.7464 43.5105 32.6041 43.3681L14.2291 24.9931C14.0865 24.8509 13.9733 24.6819 13.8961 24.4959C13.8189 24.3098 13.7792 24.1104 13.7792 23.909C13.7792 23.7076 13.8189 23.5081 13.8961 23.3221C13.9733 23.1361 14.0865 22.9671 14.2291 22.8249L32.6041 4.44986C32.7463 4.30726 32.9153 4.19412 33.1013 4.11693C33.2873 4.03974 33.4868 4 33.6882 4C33.8896 4 34.089 4.03974 34.2751 4.11693C34.4611 4.19412 34.6301 4.30726 34.7723 4.44986V4.44986Z" fill="black"/>
<path d="M58.284 28.244C58.116 28.556 57.924 28.772 57.708 28.892C57.516 29.012 57.312 29.072 57.096 29.072C56.904 29.072 56.712 29.012 56.52 28.892C56.328 28.772 56.148 28.556 55.98 28.244L50.58 17.876V36.92C50.58 37.28 50.424 37.556 50.112 37.748C49.8 37.916 49.452 38 49.068 38C48.684 38 48.336 37.916 48.024 37.748C47.712 37.556 47.556 37.28 47.556 36.92V13.16C47.556 12.608 47.7 12.224 47.988 12.008C48.3 11.792 48.66 11.684 49.068 11.684C49.62 11.684 50.076 11.852 50.436 12.188C50.796 12.5 51.144 12.968 51.48 13.592L57.132 24.428L62.82 13.592C63.156 12.968 63.504 12.5 63.864 12.188C64.224 11.852 64.68 11.684 65.232 11.684C65.64 11.684 65.988 11.792 66.276 12.008C66.588 12.224 66.744 12.608 66.744 13.16V36.92C66.744 37.28 66.588 37.556 66.276 37.748C65.964 37.916 65.616 38 65.232 38C64.848 38 64.5 37.916 64.188 37.748C63.876 37.556 63.72 37.28 63.72 36.92V18.02L58.284 28.244ZM69.869 22.556C69.773 22.412 69.725 22.28 69.725 22.16C69.725 21.968 69.785 21.788 69.905 21.62C70.049 21.428 70.217 21.272 70.409 21.152C70.601 21.008 70.805 20.9 71.021 20.828C71.261 20.756 71.477 20.72 71.669 20.72C71.885 20.72 72.077 20.768 72.245 20.864C72.437 20.96 72.569 21.116 72.641 21.332L77.393 33.86L81.677 21.332C81.845 20.924 82.157 20.72 82.613 20.72C82.781 20.72 82.973 20.756 83.189 20.828C83.429 20.9 83.645 21.008 83.837 21.152C84.053 21.272 84.221 21.428 84.341 21.62C84.485 21.788 84.557 21.98 84.557 22.196C84.557 22.34 84.521 22.46 84.449 22.556L78.977 37.208C78.593 38.216 78.185 39.248 77.753 40.304C77.321 41.384 76.805 42.356 76.205 43.22C75.605 44.108 74.897 44.828 74.081 45.38C73.265 45.956 72.293 46.244 71.165 46.244C70.757 46.244 70.421 46.16 70.157 45.992C69.893 45.824 69.761 45.464 69.761 44.912C69.761 44.576 69.821 44.276 69.941 44.012C70.061 43.748 70.289 43.616 70.625 43.616C71.153 43.616 71.681 43.46 72.209 43.148C72.761 42.836 73.265 42.392 73.721 41.816C74.201 41.264 74.621 40.592 74.981 39.8C75.365 39.008 75.653 38.12 75.845 37.136L69.869 22.556Z" fill="#F2AE30"/>
<path d="M113.707 37.172C113.587 37.508 113.347 37.772 112.987 37.964C112.627 38.132 112.243 38.216 111.835 38.216C111.427 38.216 111.031 38.132 110.647 37.964C110.287 37.796 110.059 37.532 109.963 37.172L106.867 25.292L103.735 37.172C103.639 37.508 103.411 37.772 103.051 37.964C102.691 38.132 102.307 38.216 101.899 38.216C101.467 38.216 101.071 38.132 100.711 37.964C100.375 37.796 100.147 37.532 100.027 37.172L92.8988 13.232C92.8748 13.184 92.8508 13.136 92.8268 13.088C92.8268 13.04 92.8268 12.98 92.8268 12.908C92.8268 12.548 93.0308 12.26 93.4388 12.044C93.8468 11.804 94.2548 11.684 94.6628 11.684C94.9268 11.684 95.1548 11.744 95.3468 11.864C95.5628 11.96 95.7068 12.128 95.7788 12.368L101.863 33.752L105.283 20.576C105.379 20.24 105.571 20 105.859 19.856C106.171 19.712 106.507 19.64 106.867 19.64C107.203 19.64 107.515 19.712 107.803 19.856C108.091 20 108.283 20.24 108.379 20.576L111.835 33.752L117.883 12.368C117.955 12.128 118.099 11.96 118.315 11.864C118.531 11.744 118.771 11.684 119.035 11.684C119.443 11.684 119.839 11.804 120.223 12.044C120.631 12.26 120.835 12.548 120.835 12.908C120.835 13.052 120.823 13.16 120.799 13.232L113.707 37.172ZM128.31 20.72C129.27 20.72 130.182 20.9 131.046 21.26C131.91 21.62 132.666 22.124 133.314 22.772C133.962 23.396 134.478 24.128 134.862 24.968C135.246 25.808 135.438 26.696 135.438 27.632V31.304C135.438 32.216 135.246 33.092 134.862 33.932C134.478 34.772 133.962 35.516 133.314 36.164C132.666 36.812 131.91 37.328 131.046 37.712C130.182 38.096 129.27 38.288 128.31 38.288C127.35 38.288 126.438 38.096 125.574 37.712C124.734 37.328 123.99 36.812 123.342 36.164C122.694 35.516 122.178 34.772 121.794 33.932C121.41 33.092 121.218 32.216 121.218 31.304V27.632C121.218 26.72 121.398 25.844 121.758 25.004C122.142 24.164 122.658 23.432 123.306 22.808C123.954 22.16 124.698 21.656 125.538 21.296C126.402 20.912 127.326 20.72 128.31 20.72ZM132.45 27.632C132.45 27.104 132.342 26.588 132.126 26.084C131.91 25.58 131.61 25.136 131.226 24.752C130.866 24.344 130.434 24.02 129.93 23.78C129.426 23.54 128.886 23.42 128.31 23.42C127.734 23.42 127.194 23.54 126.69 23.78C126.186 24.02 125.754 24.344 125.394 24.752C125.034 25.136 124.746 25.58 124.53 26.084C124.314 26.588 124.206 27.104 124.206 27.632V31.304C124.206 31.856 124.314 32.396 124.53 32.924C124.746 33.428 125.034 33.884 125.394 34.292C125.778 34.676 126.21 34.988 126.69 35.228C127.194 35.468 127.734 35.588 128.31 35.588C128.886 35.588 129.414 35.468 129.894 35.228C130.398 34.988 130.842 34.676 131.226 34.292C131.61 33.884 131.91 33.428 132.126 32.924C132.342 32.396 132.45 31.856 132.45 31.304V27.632ZM146.582 23.42C146.006 23.42 145.442 23.54 144.89 23.78C144.338 24.02 143.846 24.368 143.414 24.824C143.006 25.28 142.67 25.844 142.406 26.516C142.142 27.164 142.01 27.896 142.01 28.712V36.92C142.01 37.184 141.854 37.436 141.542 37.676C141.254 37.892 140.906 38 140.498 38C140.066 38 139.706 37.892 139.418 37.676C139.154 37.436 139.022 37.184 139.022 36.92V21.98C139.022 21.668 139.154 21.416 139.418 21.224C139.706 21.032 140.066 20.936 140.498 20.936C140.882 20.936 141.206 21.032 141.47 21.224C141.734 21.416 141.866 21.668 141.866 21.98V23.672C142.274 22.928 142.874 22.256 143.666 21.656C144.482 21.032 145.454 20.72 146.582 20.72H147.806C148.118 20.72 148.382 20.864 148.598 21.152C148.838 21.416 148.958 21.728 148.958 22.088C148.958 22.448 148.838 22.76 148.598 23.024C148.382 23.288 148.118 23.42 147.806 23.42H146.582ZM159.461 27.416L165.437 36.092C165.557 36.284 165.617 36.464 165.617 36.632C165.617 36.992 165.437 37.34 165.077 37.676C164.717 37.988 164.345 38.144 163.961 38.144C163.625 38.144 163.349 37.988 163.133 37.676L157.409 29.288L154.421 31.952V36.92C154.421 37.184 154.265 37.436 153.953 37.676C153.665 37.892 153.317 38 152.909 38C152.477 38 152.117 37.892 151.829 37.676C151.565 37.436 151.433 37.184 151.433 36.92V11.684C151.433 11.372 151.565 11.12 151.829 10.928C152.117 10.736 152.477 10.64 152.909 10.64C153.317 10.64 153.665 10.736 153.953 10.928C154.265 11.12 154.421 11.372 154.421 11.684V28.532L162.629 21.116C162.845 20.948 163.061 20.864 163.277 20.864C163.613 20.864 163.949 21.008 164.285 21.296C164.621 21.584 164.789 21.908 164.789 22.268C164.789 22.556 164.681 22.796 164.465 22.988L159.461 27.416Z" fill="black"/>
</svg>
