<svg width="403" height="92" viewBox="0 0 403 92" fill="none" xmlns="http://www.w3.org/2000/svg">
<path d="M0.00749385 7.36C0.00749385 6.24 0.367494 5.28 1.08749 4.48C1.88749 3.68 2.92749 3.28 4.20749 3.28H27.0075C30.7675 3.28 34.3275 3.68 37.6875 4.48C41.0475 5.28 43.9675 6.64 46.4475 8.56C49.0075 10.48 51.0075 13 52.4475 16.12C53.8875 19.24 54.6075 23.12 54.6075 27.76C54.6075 31.36 54.1675 34.52 53.2875 37.24C52.4075 39.88 51.2075 42.16 49.6875 44.08C48.2475 46 46.4875 47.6 44.4075 48.88C42.3275 50.08 40.0875 50.96 37.6875 51.52L54.4875 83.08C54.8075 83.64 54.9675 84.24 54.9675 84.88C54.9675 85.68 54.7275 86.48 54.2475 87.28C53.7675 88.08 53.1675 88.8 52.4475 89.44C51.7275 90 50.8875 90.48 49.9275 90.88C49.0475 91.2 48.1675 91.36 47.2875 91.36C45.2075 91.36 43.5275 90.12 42.2475 87.64L24.7275 53.32H12.6075V86.8C12.6075 88.16 11.9275 89.2 10.5675 89.92C9.2875 90.64 7.8475 91 6.24749 91C4.64749 91 3.20749 90.64 1.92749 89.92C0.647494 89.2 0.00749385 88.16 0.00749385 86.8V7.36ZM12.6075 14.56V43.12H27.0075C31.4875 43.12 35.0875 42.04 37.8075 39.88C40.5275 37.72 41.8875 34.04 41.8875 28.84C41.8875 23.64 40.5275 19.96 37.8075 17.8C35.0875 15.64 31.4875 14.56 27.0075 14.56H12.6075ZM93.4387 33.4C97.8387 33.4 101.559 34.08 104.599 35.44C107.719 36.72 110.239 38.44 112.159 40.6C114.079 42.76 115.479 45.24 116.359 48.04C117.239 50.84 117.679 53.72 117.679 56.68V86.8C117.679 87.92 117.079 88.92 115.879 89.8C114.759 90.6 113.319 91 111.559 91C109.959 91 108.599 90.6 107.479 89.8C106.359 88.92 105.799 87.92 105.799 86.8V82.6C103.719 85.08 101.199 87.28 98.2387 89.2C95.2787 91.04 91.7587 91.96 87.6787 91.96C85.5187 91.96 83.4387 91.64 81.4387 91C79.5187 90.36 77.8387 89.4 76.3987 88.12C74.9587 86.76 73.7987 85.12 72.9187 83.2C72.1187 81.2 71.7187 78.84 71.7187 76.12C71.7187 72.76 72.3987 69.96 73.7587 67.72C75.1187 65.48 77.0387 63.72 79.5187 62.44C81.9987 61.16 84.9587 60.28 88.3987 59.8C91.8387 59.24 95.6387 58.96 99.7987 58.96H105.079V56.8C105.079 55.28 104.879 53.76 104.479 52.24C104.079 50.64 103.399 49.24 102.439 48.04C101.479 46.76 100.239 45.76 98.7187 45.04C97.1987 44.24 95.3587 43.84 93.1987 43.84C91.0387 43.84 89.2387 44.04 87.7987 44.44C86.3587 44.76 85.1587 45.16 84.1987 45.64C83.2387 46.12 82.3987 46.56 81.6787 46.96C81.0387 47.28 80.4387 47.44 79.8787 47.44C78.3587 47.44 77.1987 46.76 76.3987 45.4C75.6787 43.96 75.3187 42.52 75.3187 41.08C75.3187 40.04 75.8787 39.04 76.9987 38.08C78.1187 37.12 79.5587 36.32 81.3187 35.68C83.0787 34.96 84.9987 34.4 87.0787 34C89.2387 33.6 91.3587 33.4 93.4387 33.4ZM105.079 65.92H102.079C99.7587 65.92 97.5187 66.04 95.3587 66.28C93.2787 66.44 91.4387 66.84 89.8387 67.48C88.2387 68.04 86.9187 68.88 85.8787 70C84.9187 71.12 84.4387 72.64 84.4387 74.56C84.4387 77.28 85.1587 79.28 86.5987 80.56C88.1187 81.76 89.9987 82.36 92.2387 82.36C93.7587 82.36 95.2787 82 96.7987 81.28C98.3187 80.56 99.6787 79.64 100.879 78.52C102.159 77.4 103.159 76.12 103.879 74.68C104.679 73.24 105.079 71.8 105.079 70.36V65.92ZM170.114 56.08L188.954 83.2C189.434 83.92 189.674 84.64 189.674 85.36C189.674 86.08 189.434 86.84 188.954 87.64C188.554 88.36 187.994 89.04 187.274 89.68C186.554 90.24 185.754 90.72 184.874 91.12C184.074 91.52 183.314 91.72 182.594 91.72C181.154 91.72 180.034 91.12 179.234 89.92L161.594 63.88L152.834 71.8V86.8C152.834 87.84 152.194 88.8 150.914 89.68C149.714 90.56 148.194 91 146.354 91C144.514 91 143.034 90.56 141.914 89.68C140.794 88.8 140.234 87.84 140.234 86.8V4.35999C140.234 3.15999 140.794 2.19999 141.914 1.47999C143.034 0.679995 144.514 0.279995 146.354 0.279995C148.194 0.279995 149.714 0.679995 150.914 1.47999C152.194 2.19999 152.834 3.15999 152.834 4.35999V57.76L177.914 34.72C178.634 34 179.514 33.64 180.554 33.64C181.274 33.64 181.994 33.84 182.714 34.24C183.434 34.56 184.074 35 184.634 35.56C185.274 36.12 185.754 36.76 186.074 37.48C186.474 38.2 186.674 38.92 186.674 39.64C186.674 40.68 186.314 41.56 185.594 42.28L170.114 56.08ZM224.29 82.24C226.29 82.24 227.93 82.08 229.21 81.76C230.49 81.36 231.53 80.88 232.33 80.32C233.13 79.68 233.69 78.96 234.01 78.16C234.33 77.36 234.49 76.56 234.49 75.76C234.49 73.68 233.77 72.08 232.33 70.96C230.89 69.76 229.09 68.8 226.93 68.08C224.85 67.36 222.53 66.68 219.97 66.04C217.49 65.32 215.17 64.4 213.01 63.28C210.93 62.08 209.17 60.52 207.73 58.6C206.29 56.68 205.57 54.04 205.57 50.68C205.57 48.6 205.93 46.56 206.65 44.56C207.37 42.48 208.53 40.64 210.13 39.04C211.73 37.36 213.85 36 216.49 34.96C219.13 33.92 222.33 33.4 226.09 33.4C228.33 33.4 230.53 33.6 232.69 34C234.85 34.32 236.77 34.84 238.45 35.56C240.13 36.2 241.49 36.96 242.53 37.84C243.57 38.64 244.09 39.52 244.09 40.48C244.09 40.96 243.97 41.56 243.73 42.28C243.57 42.92 243.25 43.56 242.77 44.2C242.37 44.84 241.85 45.4 241.21 45.88C240.65 46.36 240.01 46.6 239.29 46.6C238.65 46.6 237.93 46.44 237.13 46.12C236.33 45.72 235.41 45.32 234.37 44.92C233.33 44.44 232.13 44.04 230.77 43.72C229.49 43.32 228.01 43.12 226.33 43.12C222.81 43.12 220.29 43.92 218.77 45.52C217.33 47.04 216.61 48.56 216.61 50.08C216.61 51.84 217.33 53.2 218.77 54.16C220.21 55.04 222.01 55.84 224.17 56.56C226.33 57.2 228.65 57.88 231.13 58.6C233.69 59.24 236.05 60.2 238.21 61.48C240.37 62.76 242.17 64.48 243.61 66.64C245.05 68.8 245.77 71.68 245.77 75.28C245.77 80.4 243.93 84.48 240.25 87.52C236.65 90.48 231.45 91.96 224.65 91.96C221.69 91.96 218.93 91.68 216.37 91.12C213.89 90.56 211.73 89.84 209.89 88.96C208.05 88 206.61 86.96 205.57 85.84C204.53 84.64 204.01 83.48 204.01 82.36C204.01 81.24 204.41 80.04 205.21 78.76C206.01 77.4 207.05 76.72 208.33 76.72C209.13 76.72 209.93 77 210.73 77.56C211.53 78.12 212.49 78.76 213.61 79.48C214.73 80.2 216.13 80.84 217.81 81.4C219.57 81.96 221.73 82.24 224.29 82.24ZM278.206 86.8C278.206 87.84 277.566 88.8 276.286 89.68C275.006 90.56 273.526 91 271.846 91C270.006 91 268.486 90.56 267.286 89.68C266.166 88.8 265.606 87.84 265.606 86.8V4.35999C265.606 3.15999 266.166 2.19999 267.286 1.47999C268.486 0.679995 270.006 0.279995 271.846 0.279995C273.526 0.279995 275.006 0.679995 276.286 1.47999C277.566 2.19999 278.206 3.15999 278.206 4.35999V42.52C279.326 40.2 281.206 38.12 283.846 36.28C286.486 34.36 289.726 33.4 293.566 33.4C296.366 33.4 299.006 34.04 301.486 35.32C304.046 36.52 306.286 38.2 308.206 40.36C310.126 42.52 311.646 45.04 312.766 47.92C313.886 50.8 314.446 53.84 314.446 57.04V86.8C314.446 88.16 313.766 89.2 312.406 89.92C311.126 90.64 309.686 91 308.086 91C306.646 91 305.246 90.64 303.886 89.92C302.526 89.2 301.846 88.16 301.846 86.8V57.04C301.846 55.52 301.526 54 300.886 52.48C300.246 50.96 299.366 49.64 298.246 48.52C297.126 47.32 295.846 46.36 294.406 45.64C292.966 44.92 291.406 44.56 289.726 44.56C288.286 44.56 286.846 44.84 285.406 45.4C284.046 45.96 282.806 46.8 281.686 47.92C280.646 48.96 279.806 50.28 279.166 51.88C278.526 53.4 278.206 55.12 278.206 57.04V86.8ZM342.967 34.12C344.807 34.12 346.327 34.52 347.527 35.32C348.727 36.04 349.327 37 349.327 38.2V86.8C349.327 87.84 348.727 88.8 347.527 89.68C346.327 90.56 344.807 91 342.967 91C341.127 91 339.607 90.56 338.407 89.68C337.287 88.8 336.727 87.84 336.727 86.8V38.2C336.727 37 337.287 36.04 338.407 35.32C339.607 34.52 341.127 34.12 342.967 34.12ZM342.967 6.64C345.047 6.64 346.767 7.28 348.127 8.56C349.567 9.84 350.287 11.4 350.287 13.24C350.287 15 349.567 16.56 348.127 17.92C346.767 19.2 345.047 19.84 342.967 19.84C340.887 19.84 339.127 19.2 337.687 17.92C336.327 16.56 335.647 15 335.647 13.24C335.647 11.4 336.327 9.84 337.687 8.56C339.127 7.28 340.887 6.64 342.967 6.64ZM384.588 72.28C384.588 75.16 385.188 77.2 386.388 78.4C387.668 79.6 389.868 80.2 392.988 80.2H397.188C399.028 80.2 400.388 80.76 401.268 81.88C402.148 83 402.588 84.24 402.588 85.6C402.588 86.96 402.148 88.2 401.268 89.32C400.388 90.44 399.028 91 397.188 91H392.988C386.108 91 380.868 89.52 377.268 86.56C373.748 83.6 371.988 78.84 371.988 72.28V12.16C371.988 10.96 372.628 9.99999 373.908 9.27999C375.268 8.47999 376.708 8.07999 378.228 8.07999C379.828 8.07999 381.268 8.47999 382.548 9.27999C383.908 9.99999 384.588 10.96 384.588 12.16V34.12H399.228C400.348 34.12 401.188 34.6 401.748 35.56C402.388 36.52 402.708 37.6 402.708 38.8C402.708 40 402.388 41.08 401.748 42.04C401.188 43 400.348 43.48 399.228 43.48H384.588V72.28Z" fill="black"/>
</svg>
