<svg width="73" height="73" viewBox="0 0 73 73" fill="none" xmlns="http://www.w3.org/2000/svg">
<path d="M54.375 25.1829C53.041 25.7629 51.6091 26.1617 50.1048 26.3357C51.6418 25.4294 52.8163 23.9939 53.3745 22.2865C51.9099 23.1401 50.3118 23.7406 48.6475 24.0628C47.9474 23.329 47.1052 22.7455 46.1722 22.3479C45.2393 21.9502 44.2351 21.7468 43.2209 21.75C39.1138 21.75 35.786 25.0307 35.786 29.0725C35.786 29.6453 35.8513 30.2035 35.9781 30.74C33.0322 30.6001 30.1477 29.8477 27.5089 28.5308C24.87 27.2138 22.5345 25.3613 20.6516 23.0913C19.9903 24.2045 19.6421 25.4758 19.6439 26.7707C19.6439 29.3082 20.9597 31.5557 22.9535 32.8643C21.7734 32.8273 20.6185 32.5131 19.5822 31.9472V32.0378C19.5934 33.7396 20.1941 35.3849 21.2821 36.6936C22.37 38.0023 23.8779 38.8934 25.549 39.2153C24.4519 39.5054 23.304 39.5475 22.1886 39.3385C22.6748 40.8026 23.6048 42.0789 24.8495 42.9903C26.0941 43.9017 27.5916 44.4029 29.1341 44.4244C26.4877 46.4637 23.2386 47.5654 19.8976 47.5564C19.2995 47.5564 18.7086 47.5202 18.125 47.4549C21.5342 49.6128 25.4872 50.7557 29.522 50.75C43.2028 50.75 50.6811 39.5923 50.6811 29.9135L50.6558 28.9638C52.1141 27.9389 53.3742 26.6579 54.375 25.1829Z" fill="#1DA1F2"/>
<path d="M14.5 7.25C12.5772 7.25 10.7331 8.01384 9.37348 9.37348C8.01384 10.7331 7.25 12.5772 7.25 14.5V58C7.25 59.9228 8.01384 61.7669 9.37348 63.1265C10.7331 64.4862 12.5772 65.25 14.5 65.25H58C59.9228 65.25 61.7669 64.4862 63.1265 63.1265C64.4862 61.7669 65.25 59.9228 65.25 58V14.5C65.25 12.5772 64.4862 10.7331 63.1265 9.37348C61.7669 8.01384 59.9228 7.25 58 7.25H14.5ZM14.5 0H58C61.8456 0 65.5338 1.52767 68.253 4.24695C70.9723 6.96623 72.5 10.6544 72.5 14.5V58C72.5 61.8456 70.9723 65.5338 68.253 68.253C65.5338 70.9723 61.8456 72.5 58 72.5H14.5C10.6544 72.5 6.96623 70.9723 4.24695 68.253C1.52767 65.5338 0 61.8456 0 58V14.5C0 10.6544 1.52767 6.96623 4.24695 4.24695C6.96623 1.52767 10.6544 0 14.5 0Z" fill="#1DA1F2"/>
</svg>
