<svg width="232" height="89" viewBox="0 0 232 89" fill="none" xmlns="http://www.w3.org/2000/svg">
<path d="M21.2506 41.5995L8.27108 65.7043C7.97676 66.2929 7.59414 66.8522 7.12323 67.3819C6.65232 67.9117 6.09311 68.1766 5.44561 68.1766C4.44492 68.1766 3.4148 67.8234 2.35525 67.117C1.2957 66.4107 0.76592 65.5571 0.76592 64.5565C0.76592 64.0267 0.942512 63.4969 1.2957 62.9671L16.4826 35.6837L1.64888 8.57679C1.23683 7.92929 1.03081 7.28178 1.03081 6.63428C1.03081 5.63359 1.50172 4.83893 2.44354 4.25028C3.38537 3.60278 4.41549 3.27903 5.5339 3.27903C6.29914 3.27903 6.94664 3.57335 7.47642 4.16199C8.00619 4.75063 8.44767 5.39813 8.80086 6.1045L21.2506 29.5912L33.7886 6.1045C34.1418 5.39813 34.5833 4.75063 35.1131 4.16199C35.6428 3.57335 36.2903 3.27903 37.0556 3.27903C38.174 3.27903 39.2041 3.60278 40.1459 4.25028C41.0878 4.83893 41.5587 5.63359 41.5587 6.63428C41.5587 7.28178 41.3526 7.92929 40.9406 8.57679L26.0186 35.6837L41.2938 62.9671C41.647 63.4969 41.8236 64.0267 41.8236 64.5565C41.8236 65.5571 41.2938 66.4107 40.2342 67.117C39.1747 67.8234 38.1446 68.1766 37.1439 68.1766C36.4964 68.1766 35.9372 67.9117 35.4662 67.3819C34.9953 66.8522 34.6127 66.2929 34.3184 65.7043L21.2506 41.5995Z" fill="#4EAFCD"/>
<path d="M52.497 6.28109C53.7332 6.28109 54.7927 6.69314 55.6757 7.51724C56.5586 8.34134 57.0001 9.31259 57.0001 10.431C57.0001 11.5494 56.5586 12.5501 55.6757 13.4331C54.7927 14.2572 53.7332 14.6692 52.497 14.6692C51.202 14.6692 50.113 14.2572 49.2301 13.4331C48.3471 12.5501 47.9056 11.5494 47.9056 10.431C47.9056 9.31259 48.3471 8.34134 49.2301 7.51724C50.113 6.69314 51.202 6.28109 52.497 6.28109ZM52.497 26.1477C53.4977 26.1477 54.3512 26.3832 55.0576 26.8541C55.8228 27.325 56.2055 27.943 56.2055 28.7083V71.5318C56.2055 74.0041 55.97 76.241 55.4991 78.2423C55.0282 80.3026 54.2924 82.0685 53.2917 83.5401C52.3499 85.0117 51.1137 86.1595 49.5833 86.9836C48.0528 87.8077 46.228 88.2198 44.1089 88.2198C42.6962 88.2198 41.7249 87.896 41.1951 87.2485C40.6065 86.601 40.3122 85.8652 40.3122 85.0411C40.3122 84.0404 40.6065 83.2458 41.1951 82.6571C41.7838 82.0685 42.4901 81.7742 43.3142 81.7742C44.5504 81.7742 45.5216 81.5093 46.228 80.9795C46.9932 80.5086 47.5525 79.8022 47.9056 78.8604C48.3177 77.9774 48.5826 76.8885 48.7003 75.5935C48.818 74.3573 48.8769 73.0034 48.8769 71.5318V28.7083C48.8769 27.943 49.2006 27.325 49.8481 26.8541C50.5545 26.3832 51.4375 26.1477 52.497 26.1477ZM74.1406 65.3511C74.1406 65.9986 73.758 66.6167 72.9927 67.2053C72.2864 67.7351 71.4328 68 70.4322 68C69.3726 68 68.4896 67.7351 67.7833 67.2053C67.1358 66.6167 66.812 65.9986 66.812 65.3511V3.45563C66.812 2.69039 67.1358 2.07232 67.7833 1.60141C68.4896 1.13049 69.3726 0.895037 70.4322 0.895037C71.4328 0.895037 72.2864 1.13049 72.9927 1.60141C73.758 2.07232 74.1406 2.69039 74.1406 3.45563V32.3284C75.0235 30.6214 76.4363 29.0909 78.3788 27.737C80.3213 26.3243 82.7347 25.6179 85.6191 25.6179C87.7382 25.6179 89.7395 26.0594 91.6232 26.9424C93.5068 27.8253 95.155 29.0615 96.5678 30.6508C97.9805 32.1813 99.0989 33.9766 99.923 36.0368C100.747 38.0971 101.159 40.2751 101.159 42.5708V65.3511C101.159 66.2341 100.777 66.911 100.011 67.3819C99.2461 67.794 98.3926 68 97.4507 68C96.6266 68 95.8025 67.794 94.9784 67.3819C94.2132 66.911 93.8306 66.2341 93.8306 65.3511V42.5708C93.8306 41.2757 93.5657 40.0102 93.0359 38.774C92.5062 37.5379 91.7704 36.4489 90.8285 35.5071C89.9456 34.5064 88.886 33.7117 87.6499 33.1231C86.4137 32.5344 85.1187 32.2401 83.7649 32.2401C82.5876 32.2401 81.4103 32.4756 80.233 32.9465C79.1146 33.4174 78.0845 34.0943 77.1427 34.9773C76.2597 35.8603 75.5239 36.9492 74.9353 38.2442C74.4055 39.5393 74.1406 40.9814 74.1406 42.5708V65.3511ZM123.843 25.6179C126.904 25.6179 129.494 26.1183 131.613 27.119C133.791 28.0608 135.557 29.3264 136.911 30.9157C138.265 32.505 139.236 34.3298 139.825 36.39C140.413 38.4503 140.707 40.5694 140.707 42.7473V65.3511C140.707 66.1164 140.354 66.7639 139.648 67.2936C139 67.7645 138.147 68 137.087 68C136.087 68 135.263 67.7645 134.615 67.2936C134.026 66.7639 133.732 66.1164 133.732 65.3511V61.8193C132.202 63.5852 130.347 65.1745 128.169 66.5873C125.991 68 123.401 68.7064 120.399 68.7064C118.751 68.7064 117.191 68.4709 115.72 68C114.307 67.5291 113.041 66.8227 111.923 65.8809C110.863 64.8802 110.01 63.6441 109.362 62.1725C108.774 60.7009 108.479 58.9644 108.479 56.963C108.479 54.4907 108.98 52.4893 109.98 50.9589C110.981 49.3695 112.394 48.104 114.219 47.1621C116.043 46.2203 118.221 45.5728 120.753 45.2196C123.284 44.8664 126.08 44.6899 129.141 44.6899H133.379V42.8356C133.379 41.5406 133.202 40.2456 132.849 38.9506C132.496 37.6556 131.937 36.4783 131.172 35.4188C130.406 34.3592 129.406 33.5057 128.169 32.8582C126.933 32.2107 125.432 31.8869 123.666 31.8869C122.136 31.8869 120.841 32.0341 119.781 32.3284C118.722 32.5639 117.839 32.8582 117.132 33.2114C116.426 33.5057 115.837 33.8 115.367 34.0943C114.896 34.3298 114.454 34.4475 114.042 34.4475C113.159 34.4475 112.482 34.0355 112.011 33.2114C111.54 32.3873 111.305 31.5632 111.305 30.7391C111.305 30.0327 111.688 29.3852 112.453 28.7966C113.218 28.1491 114.189 27.5899 115.367 27.119C116.603 26.648 117.957 26.2949 119.428 26.0594C120.9 25.7651 122.371 25.6179 123.843 25.6179ZM133.379 49.193H130.289C128.405 49.193 126.58 49.2812 124.814 49.4578C123.107 49.5756 121.577 49.8699 120.223 50.3408C118.928 50.8117 117.868 51.5181 117.044 52.4599C116.279 53.3429 115.896 54.579 115.896 56.1683C115.896 58.464 116.544 60.1417 117.839 61.2012C119.134 62.2608 120.753 62.7905 122.695 62.7905C123.931 62.7905 125.197 62.5256 126.492 61.9959C127.787 61.4072 128.935 60.6714 129.935 59.7885C130.936 58.9055 131.76 57.9343 132.408 56.8747C133.055 55.8152 133.379 54.785 133.379 53.7843V49.193ZM149.823 18.5542C149.823 16.3174 150.265 14.2866 151.148 12.4618C152.09 10.5782 153.326 8.98884 154.856 7.69383C156.446 6.33996 158.27 5.30984 160.331 4.60347C162.45 3.83824 164.687 3.45563 167.041 3.45563C169.572 3.45563 171.956 3.8971 174.193 4.78006C176.43 5.60416 178.343 6.78144 179.932 8.3119C181.58 9.84237 182.876 11.6672 183.817 13.7863C184.759 15.9054 185.23 18.2011 185.23 20.6733C185.23 23.852 184.494 26.7069 183.023 29.2381C181.61 31.7103 179.815 33.9766 177.637 36.0368C175.518 38.0971 173.192 40.0102 170.661 41.7761C168.13 43.4831 165.776 45.1608 163.598 46.809C161.478 48.3983 159.683 50.017 158.211 51.6652C156.799 53.2546 156.092 54.9616 156.092 56.7864V61.2895H183.199C183.906 61.2895 184.494 61.6133 184.965 62.2608C185.495 62.9083 185.76 63.7029 185.76 64.6448C185.76 65.4688 185.495 66.2341 184.965 66.9404C184.494 67.6468 183.906 68 183.199 68H151.766C151.06 68 150.324 67.7645 149.558 67.2936C148.793 66.8227 148.411 66.1752 148.411 65.3511V56.7864C148.411 54.373 149.117 52.1656 150.53 50.1642C152.001 48.104 153.826 46.1615 156.004 44.3367C158.182 42.453 160.537 40.6577 163.068 38.9506C165.658 37.1847 168.042 35.3893 170.22 33.5646C172.398 31.6809 174.193 29.709 175.606 27.6487C177.077 25.5885 177.813 23.3517 177.813 20.9382C177.813 19.7021 177.578 18.4659 177.107 17.2298C176.695 15.9348 176.047 14.7869 175.164 13.7863C174.281 12.7267 173.163 11.9026 171.809 11.314C170.455 10.6665 168.866 10.3427 167.041 10.3427C164.216 10.3427 161.832 11.1374 159.889 12.7267C158.005 14.2572 157.064 16.6706 157.064 19.967C157.064 20.7322 156.71 21.4091 156.004 21.9978C155.357 22.5864 154.415 22.8807 153.179 22.8807C152.119 22.8807 151.295 22.5864 150.706 21.9978C150.118 21.3503 149.823 20.2024 149.823 18.5542ZM212.193 68.5298C209.545 68.5298 207.043 68.206 204.688 67.5585C202.393 66.8522 200.391 65.7337 198.684 64.2033C196.977 62.6728 195.623 60.7009 194.623 58.2874C193.681 55.8152 193.21 52.8131 193.21 49.2812V22.7042C193.21 19.1723 193.681 16.1997 194.623 13.7863C195.623 11.314 196.977 9.31259 198.684 7.78213C200.391 6.25166 202.393 5.16268 204.688 4.51517C207.043 3.80881 209.545 3.45563 212.193 3.45563C214.842 3.45563 217.315 3.80881 219.61 4.51517C221.965 5.16268 223.996 6.25166 225.703 7.78213C227.469 9.31259 228.823 11.314 229.764 13.7863C230.765 16.1997 231.265 19.1723 231.265 22.7042V49.2812C231.265 52.8131 230.765 55.8152 229.764 58.2874C228.823 60.7009 227.469 62.6728 225.703 64.2033C223.996 65.7337 221.965 66.8522 219.61 67.5585C217.315 68.206 214.842 68.5298 212.193 68.5298ZM223.849 22.7042C223.849 18.4071 222.818 15.2579 220.758 13.2565C218.698 11.1962 215.843 10.1661 212.193 10.1661C208.544 10.1661 205.689 11.1962 203.629 13.2565C201.627 15.2579 200.627 18.4071 200.627 22.7042V49.2812C200.627 53.5783 201.627 56.757 203.629 58.8172C205.689 60.8186 208.544 61.8193 212.193 61.8193C215.843 61.8193 218.698 60.8186 220.758 58.8172C222.818 56.757 223.849 53.5783 223.849 49.2812V22.7042ZM212.282 32.5933C213.282 32.5933 214.107 32.9171 214.754 33.5646C215.402 34.2121 215.725 35.0362 215.725 36.0368C215.725 37.0375 215.402 37.8911 214.754 38.5974C214.107 39.2449 213.282 39.5687 212.282 39.5687C211.222 39.5687 210.369 39.2449 209.721 38.5974C209.074 37.8911 208.75 37.0375 208.75 36.0368C208.75 35.0362 209.074 34.2121 209.721 33.5646C210.369 32.9171 211.222 32.5933 212.282 32.5933Z" fill="black"/>
</svg>
