<svg width="3840" height="1080" viewBox="0 0 3840 1080" fill="none" xmlns="http://www.w3.org/2000/svg">
<path fill-rule="evenodd" clip-rule="evenodd" d="M1855.43 58.6414C1871.22 27.8079 1885.46 6.10352e-05 1920 6.10352e-05C1956.71 0 1985.14 27.395 2015.89 57.0187C2050.06 89.9398 2087.09 125.613 2141.5 129.5C2199.23 133.624 2216.05 160.515 2235.7 191.949C2254.18 221.497 2275.16 255.06 2335 277.5C2404 303.375 2563 316 2649 316C2740.55 316 2825.5 291.5 2876 258.5C2884.7 252.815 2896.96 242.872 2911.64 230.961C2960.07 191.683 3034.88 131 3095.5 131C3141.96 131 3188.96 167.613 3235.96 204.233C3282.97 240.863 3329.99 277.5 3376.5 277.5C3423.78 277.5 3446.87 222.328 3468.1 171.602C3486.16 128.441 3502.88 88.5001 3532 88.5001C3558.51 88.5001 3583.3 101.064 3607.91 113.533C3642.1 130.859 3675.93 148.001 3713.5 131C3745.88 116.347 3761.28 86.2788 3775.43 58.6414C3791.22 27.8078 3805.46 6.10352e-05 3840 6.10352e-05V1080H1920H0V0C36.7072 0 65.1416 27.395 95.8894 57.0187C130.06 89.9398 167.087 125.613 221.5 129.5C279.232 133.624 296.046 160.515 315.7 191.949C334.175 221.497 355.16 255.06 415 277.5C484 303.375 643 316 729 316C820.552 316 905.5 291.5 956 258.5C964.699 252.815 976.958 242.872 991.644 230.961C1040.07 191.683 1114.88 131 1175.5 131C1221.96 131 1268.96 167.613 1315.96 204.233C1362.97 240.863 1409.99 277.5 1456.5 277.5C1503.78 277.5 1526.87 222.328 1548.1 171.602C1566.16 128.441 1582.88 88.5001 1612 88.5001C1638.51 88.5001 1663.3 101.064 1687.91 113.533C1722.1 130.859 1755.93 148.001 1793.5 131C1825.88 116.347 1841.28 86.2789 1855.43 58.6414Z" fill="#0099FF"/>
</svg>
