<svg width="3840" height="931" viewBox="0 0 3840 931" fill="none" xmlns="http://www.w3.org/2000/svg">
<path fill-rule="evenodd" clip-rule="evenodd" d="M1860.98 45.3546C1875.61 24.4226 1892.68 0 1920 0C1936.76 -5.85277e-06 1951.65 9.13735 1967.37 18.7849C1984.95 29.5734 2003.56 41 2027 41C2102.95 41 2126.69 76.0065 2150.21 110.685C2173.3 144.721 2196.16 178.441 2267.97 178.441C2340.9 178.441 2471.42 129.639 2563.6 95.175C2599.11 81.8965 2628.93 70.7466 2647.57 65.3367C2651.51 64.1928 2655.69 62.9494 2660.11 61.6357C2730.76 40.6099 2861.85 1.60017 3047.55 65.3367C3143.11 98.1333 3190.25 137.283 3226.26 167.195C3264.61 199.045 3290.34 220.421 3348.5 212.5C3400.59 205.406 3434.73 185.323 3465.06 167.487C3501.67 145.961 3532.71 127.707 3583 139.5C3620.35 148.257 3644.82 127.264 3668.87 106.639C3691.5 87.2272 3713.76 68.1422 3746 74.5C3758.84 77.0312 3769.1 62.3425 3780.98 45.3546C3795.61 24.4226 3812.68 0 3840 0V9.14458V931H1920H0V0C16.7589 -5.85277e-06 31.6472 9.13735 47.3667 18.7849C64.9454 29.5734 83.5637 41 107 41C182.954 41 206.695 76.0065 230.213 110.685C253.295 144.721 276.163 178.441 347.97 178.441C420.9 178.441 551.424 129.639 643.598 95.1752C679.112 81.8966 708.933 70.7466 727.573 65.3367C731.514 64.1928 735.693 62.9494 740.107 61.6357C810.76 40.6099 941.846 1.60014 1127.55 65.3367C1223.11 98.1333 1270.25 137.283 1306.26 167.195C1344.61 199.045 1370.34 220.421 1428.5 212.5C1480.59 205.406 1514.73 185.323 1545.06 167.487C1581.67 145.961 1612.71 127.707 1663 139.5C1700.35 148.257 1724.82 127.264 1748.87 106.639C1771.5 87.2272 1793.76 68.1422 1826 74.5C1838.84 77.0312 1849.1 62.3424 1860.98 45.3546Z" fill="#9ED8FF" fill-opacity="0.46"/>
</svg>
