<svg width="3840" height="1022" viewBox="0 0 3840 1022" fill="none" xmlns="http://www.w3.org/2000/svg">
<path fill-rule="evenodd" clip-rule="evenodd" d="M1920 6.10352e-05C1920 6.10352e-05 1920 0 1920 0V0.000132037C1938.48 1.07527 1950.31 24.2124 1963.62 50.2537C1981.29 84.8186 2001.58 124.5 2043.5 124.5C2118.91 124.5 2135.91 149.415 2155.36 177.939C2162.1 187.821 2169.14 198.137 2179 208C2197.32 226.322 2255.78 252.046 2337.04 170.785C2369.24 138.582 2396.33 155.397 2421.56 171.053C2435.07 179.443 2448.06 187.5 2461 187.5C2476.92 187.5 2495.41 162.485 2516.25 134.275C2543.21 97.8066 2574.1 56 2608.5 56C2639.03 56 2660.56 92.4522 2681.34 127.636C2696.26 152.9 2710.8 177.51 2728 187.5C2733.47 190.679 2740.01 194.7 2747.38 199.227C2795.36 228.734 2878.29 279.722 2929 259C2954.09 248.746 2973.22 227.344 2993.46 204.692C3020.4 174.542 3049.31 142.18 3096.91 130.95C3124.83 124.364 3150.29 98.4758 3175.42 72.9224C3218.78 28.8331 3261.17 -14.2603 3313.5 44.5C3381.78 121.162 3428.55 131.88 3467.63 140.835C3488.77 145.681 3507.67 150.011 3526.5 164C3580.12 203.835 3683.17 197.901 3726.5 174C3754.18 158.729 3763.83 125.426 3773.33 92.667C3778.69 74.1538 3784.01 55.814 3792.5 41C3816 0 3829.53 0 3840 0V1022H1920H1920H0L0.000363447 6.10352e-05C18.4769 1.07425 30.3067 24.2118 43.6215 50.2537C61.2939 84.8186 81.5823 124.5 123.5 124.5C198.916 124.5 215.908 149.415 235.362 177.939C242.102 187.821 249.137 198.137 259 208C277.322 226.322 335.778 252.046 417.038 170.785C449.242 138.582 476.335 155.397 501.558 171.053C515.076 179.443 528.057 187.5 541 187.5C556.92 187.5 575.408 162.485 596.256 134.275C623.208 97.8066 654.106 56 688.5 56C719.029 56 740.559 92.4521 761.339 127.636C776.261 152.9 790.796 177.51 808 187.5C813.475 190.679 820.015 194.7 827.377 199.227C875.364 228.734 958.287 279.722 1009 259C1034.09 248.746 1053.22 227.344 1073.46 204.692C1100.4 174.542 1129.31 142.18 1176.91 130.95C1204.83 124.364 1230.29 98.4758 1255.42 72.9224C1298.78 28.8331 1341.17 -14.2603 1393.5 44.5C1461.78 121.162 1508.55 131.88 1547.63 140.835C1568.78 145.681 1587.67 150.011 1606.5 164C1660.12 203.835 1763.17 197.901 1806.5 174C1834.18 158.729 1843.84 125.427 1853.33 92.6672C1858.69 74.1539 1864.01 55.814 1872.5 41C1896 0.00159322 1909.53 6.10971e-05 1920 6.10352e-05Z" fill="#54BBFF" fill-opacity="0.69"/>
</svg>
