<svg width="3840" height="1049" viewBox="0 0 3840 1049" fill="none" xmlns="http://www.w3.org/2000/svg">
<path fill-rule="evenodd" clip-rule="evenodd" d="M3840 190.346V1049H1920H0V190.346C6.76155 183.584 14.6089 174.945 23.3528 165.318C65.6895 118.708 129.045 48.957 191.945 57.1832C249.379 64.6947 278.953 95.1724 308.371 125.488C327.541 145.243 346.645 164.93 373.349 178.147C441.029 211.645 551.424 217.228 600.243 178.147C624.64 158.616 656.312 146.662 686.949 135.1C717.614 123.526 747.242 112.344 767.5 94.3459C779.083 84.0551 789.01 71.6881 798.916 59.3472C823.642 28.5419 848.239 -2.10135 898.145 0.113146C946.83 2.27347 969.412 35.3546 997.004 75.7766C1009.03 93.3896 1022 112.396 1038.5 130.846C1066.08 161.688 1106.24 153.62 1147.59 145.312C1187.74 137.245 1229.02 128.952 1261 155.846C1284.7 175.782 1305.1 204.07 1324.88 231.498C1359.27 279.175 1391.78 324.253 1436.5 318.346C1470.49 313.856 1502.41 299.033 1532.86 284.893C1565.52 269.726 1596.48 255.346 1626.5 255.346C1643.17 255.346 1660.87 257.74 1678.45 260.118C1720.54 265.811 1761.96 271.413 1787 243.846C1796.35 233.554 1816.75 228.969 1839.67 223.819C1867.97 217.459 1900.11 210.237 1920 190.346C1926.76 183.584 1934.61 174.945 1943.35 165.318C1985.69 118.708 2049.05 48.957 2111.94 57.1832C2169.38 64.6947 2198.95 95.1724 2228.37 125.488C2247.54 145.244 2266.65 164.93 2293.35 178.147C2361.03 211.645 2471.42 217.228 2520.24 178.147C2544.64 158.616 2576.31 146.662 2606.95 135.1C2637.61 123.526 2667.24 112.344 2687.5 94.3459C2699.08 84.055 2709.01 71.688 2718.92 59.3471C2743.64 28.5418 2768.24 -2.10134 2818.15 0.113146C2866.83 2.27347 2889.41 35.3547 2917 75.7767C2929.03 93.3896 2942 112.396 2958.5 130.846C2986.08 161.688 3026.24 153.62 3067.59 145.312C3107.74 137.245 3149.02 128.952 3181 155.846C3204.7 175.782 3225.1 204.07 3244.88 231.498C3279.27 279.175 3311.78 324.253 3356.5 318.346C3390.49 313.856 3422.41 299.033 3452.86 284.893C3485.52 269.726 3516.48 255.346 3546.5 255.346C3563.17 255.346 3580.87 257.74 3598.45 260.118C3640.54 265.811 3681.96 271.413 3707 243.846C3716.35 233.554 3736.75 228.969 3759.67 223.819C3787.97 217.459 3820.11 210.237 3840 190.346Z" fill="#B0DFFF" fill-opacity="0.4"/>
</svg>
