<svg width="1677" height="64" viewBox="0 0 1677 64" fill="none" xmlns="http://www.w3.org/2000/svg">
<path d="M4.75061 53V48.491H24.2361L27.1348 45.5386V37.6478L24.2361 34.6954H8.93758L3.35496 29.1128V19.0748L8.93758 13.4385H29.9798V17.9476H11.1384L8.18607 20.8999L8.23975 27.4488L11.1384 30.4011H26.437L32.0196 36.0374V47.3637L26.437 53H4.75061ZM44.7524 53L39.1161 47.3637V30.5622L44.7524 24.9259H58.0648L63.7011 30.5622V47.3637L58.0648 53H44.7524ZM46.7922 49.2425H56.025L58.9774 46.2901L58.9237 31.6357L56.025 28.6834H46.7922L43.8399 31.6357V46.2901L46.7922 49.2425ZM83.7414 53V24.9259H88.4652V29.9717L93.35 24.9259H103.71L108.649 29.918L113.48 24.9259H123.84L129.476 30.5622V53H124.752V31.7431L121.907 28.6834H114.714L109.293 34.1587V53H104.569L104.623 31.7431L101.724 28.6834H94.5846L88.4652 34.9102V53H83.7414ZM141.057 53L135.474 47.3637V40.9759L141.057 35.3396H155.335V31.8504L152.437 28.8981H139.124V24.9259H154.477L160.059 30.5622V53H155.335V48.652L150.987 53H141.057ZM143.15 49.2425H149.807L155.335 43.7672V39.0434L143.15 39.0971L140.198 41.9958V46.2901L143.15 49.2425ZM168.611 53V24.9259H173.335V29.9717L178.22 24.9259H188.58L194.162 30.5622V53H189.438V31.7431L186.593 28.6834H179.454L173.335 34.9102V53H168.611ZM206.885 63.038L211.931 51.0676H209.945L198.404 24.9259H203.611L212.629 46.3975H213.864L222.184 24.9259H227.337L211.663 63.038H206.885ZM249.351 53L243.715 47.3637V30.5622L249.351 24.9259H259.658L264.006 29.3812V13.4385H268.73V53H264.006V48.5983L259.658 53H249.351ZM258.477 49.2425L264.006 43.6598V34.3197L258.477 28.6834H251.391L248.439 31.6357V46.2901L251.391 49.2425H258.477ZM277.489 21.8661V15.532H282.213V21.8661H277.489ZM277.489 53V24.9259H282.213V53H277.489ZM291.176 53V28.6834H288.278V24.9259H291.176V18.377L296.115 13.4385H303.093V17.3571H298.423L295.9 19.9874V24.9259H301.912V28.6834H295.9V53H291.176ZM307.479 53V28.6834H304.58V24.9259H307.479V18.377L312.418 13.4385H319.396V17.3571H314.726L312.203 19.9874V24.9259H318.215V28.6834H312.203V53H307.479ZM328.559 53L322.923 47.3637V30.5622L328.559 24.9259H341.067L346.703 30.5622V40.7075H327.647V46.1291L330.599 49.0814H346.22V53H328.559ZM327.647 36.95H341.979V31.6357L339.027 28.6834H330.599L327.647 31.6357V36.95ZM354.863 53V24.9259H359.586V29.9717L364.471 24.9259H371.664V29.6496H364.686L359.586 34.9102V53H354.863ZM381.085 53L375.449 47.3637V30.5622L381.085 24.9259H393.592L399.229 30.5622V40.7075H380.173V46.1291L383.125 49.0814H398.746V53H381.085ZM380.173 36.95H394.505V31.6357L391.553 28.6834H383.125L380.173 31.6357V36.95ZM407.388 53V24.9259H412.112V29.9717L416.997 24.9259H427.357L432.94 30.5622V53H428.216V31.7431L425.371 28.6834H418.232L412.112 34.9102V53H407.388ZM446.723 53L441.784 48.1152V28.6834H438.832V24.9259H441.891L443.072 17.7329H446.508V24.9259H452.466V28.6834H446.508V46.4512L449.031 49.0814H453.701V53H446.723ZM471.342 63.038V24.9259H476.066V29.3812L480.36 24.9259H490.72L496.303 30.5622V47.3637L490.72 53H480.36L476.066 48.5983V63.038H471.342ZM481.595 49.2425H488.68L491.579 46.2901V31.6357L488.68 28.6834H481.595L476.066 34.3197V43.6598L481.595 49.2425ZM507.532 53L501.949 47.3637V40.9759L507.532 35.3396H521.81V31.8504L518.912 28.8981H505.599V24.9259H520.951L526.534 30.5622V53H521.81V48.652L517.462 53H507.532ZM509.625 49.2425H516.281L521.81 43.7672V39.0434L509.625 39.0971L506.673 41.9958V46.2901L509.625 49.2425ZM540.346 53L535.408 48.1152V28.6834H532.456V24.9259H535.515L536.696 17.7329H540.132V24.9259H546.09V28.6834H540.132V46.4512L542.655 49.0814H547.325V53H540.346ZM553.066 53V13.4385H557.79V29.3812L562.084 24.9259H572.444L578.027 30.5622V53H573.303V31.7431L570.458 28.6834H563.319L557.79 34.3197V53H553.066ZM586.563 53V49.0814H601.432L603.955 46.5048V43.1231L601.271 40.4391H590.16L585.221 35.608V29.918L590.16 24.9259H605.995V28.8981H592.414L589.945 31.3137V34.0513L592.522 36.6279H603.741L608.679 41.459V48.0615L603.794 53H586.563ZM612.962 58.9047L615.109 46.6659H619.833L615.699 58.9047H612.962ZM645.293 53L640.355 48.1152V28.6834H637.402V24.9259H640.462L641.643 17.7329H645.078V24.9259H651.037V28.6834H645.078V46.4512L647.601 49.0814H652.271V53H645.293ZM658.013 53V13.4385H662.737V29.3812L667.031 24.9259H677.391L682.974 30.5622V53H678.25V31.7431L675.405 28.6834H668.266L662.737 34.3197V53H658.013ZM696.502 53L690.866 47.3637V30.5622L696.502 24.9259H709.009L714.646 30.5622V40.7075H695.59V46.1291L698.542 49.0814H714.163V53H696.502ZM695.59 36.95H709.922V31.6357L706.97 28.6834H698.542L695.59 31.6357V36.95ZM727.797 53L722.161 47.3637V30.5622L727.797 24.9259H740.305L745.941 30.5622V40.7075H726.885V46.1291L729.837 49.0814H745.458V53H727.797ZM726.885 36.95H741.217V31.6357L738.265 28.6834H729.837L726.885 31.6357V36.95ZM766 53V13.4385H770.724V29.3812L775.018 24.9259H785.378L790.961 30.5622V53H786.237V31.7431L783.392 28.6834H776.253L770.724 34.3197V53H766ZM802.557 53L796.974 47.3637V40.9759L802.557 35.3396H816.835V31.8504L813.937 28.8981H800.624V24.9259H815.977L821.559 30.5622V53H816.835V48.652L812.487 53H802.557ZM804.65 49.2425H811.307L816.835 43.7672V39.0434L804.65 39.0971L801.698 41.9958V46.2901L804.65 49.2425ZM835.372 53L830.433 48.1152V28.6834H827.481V24.9259H830.54L831.721 17.7329H835.157V24.9259H841.115V28.6834H835.157V46.4512L837.68 49.0814H842.35V53H835.372ZM848.091 53V13.4385H852.815V29.3812L857.109 24.9259H867.47L873.052 30.5622V53H868.328V31.7431L865.483 28.6834H858.344L852.815 34.3197V53H848.091ZM898.48 53L892.844 47.3637V30.5622L898.48 24.9259H911.309L916.248 29.8106V34.266H911.524V31.3673L908.84 28.6834H900.52L897.568 31.6357V46.0754L900.52 49.0814H915.979V53H898.48ZM923.473 53V13.4385H928.196V29.3812L932.491 24.9259H942.851L948.433 30.5622V53H943.71V31.7431L940.865 28.6834H933.725L928.196 34.3197V53H923.473ZM961.962 53L956.326 47.3637V30.5622L961.962 24.9259H975.274L980.911 30.5622V47.3637L975.274 53H961.962ZM964.002 49.2425H973.234L976.187 46.2901L976.133 31.6357L973.234 28.6834H964.002L961.049 31.6357V46.2901L964.002 49.2425ZM988.789 53V49.0814H1003.66L1006.18 46.5048V43.1231L1003.5 40.4391H992.386L987.447 35.608V29.918L992.386 24.9259H1008.22V28.8981H994.64L992.171 31.3137V34.0513L994.748 36.6279H1005.97L1010.91 41.459V48.0615L1006.02 53H988.789ZM1023.08 53L1017.45 47.3637V30.5622L1023.08 24.9259H1035.59L1041.23 30.5622V40.7075H1022.17V46.1291L1025.12 49.0814H1040.75V53H1023.08ZM1022.17 36.95H1036.5V31.6357L1033.55 28.6834H1025.12L1022.17 31.6357V36.95ZM1049.39 53V24.9259H1054.11V29.9717L1059 24.9259H1069.36L1074.94 30.5622V53H1070.22V31.7431L1067.37 28.6834H1060.23L1054.11 34.9102V53H1049.39ZM1100.62 53L1095.68 48.1152V28.6834H1092.73V24.9259H1095.79L1096.97 17.7329H1100.41V24.9259H1106.37V28.6834H1100.41V46.4512L1102.93 49.0814H1107.6V53H1100.62ZM1113.34 53V13.4385H1118.07V29.3812L1122.36 24.9259H1132.72L1138.3 30.5622V53H1133.58V31.7431L1130.73 28.6834H1123.59L1118.07 34.3197V53H1113.34ZM1151.83 53L1146.19 47.3637V30.5622L1151.83 24.9259H1164.34L1169.97 30.5622V40.7075H1150.92V46.1291L1153.87 49.0814H1169.49V53H1151.83ZM1150.92 36.95H1165.25V31.6357L1162.3 28.6834H1153.87L1150.92 31.6357V36.95ZM1190.03 53V24.9259H1194.76V29.9717L1199.64 24.9259H1206.83V29.6496H1199.86L1194.76 34.9102V53H1190.03ZM1216.26 53L1210.62 47.3637V30.5622L1216.26 24.9259H1229.57L1235.2 30.5622V47.3637L1229.57 53H1216.26ZM1218.3 49.2425H1227.53L1230.48 46.2901L1230.43 31.6357L1227.53 28.6834H1218.3L1215.34 31.6357V46.2901L1218.3 49.2425ZM1246.41 53L1240.82 47.3637V40.9759L1246.41 35.3396H1260.68V31.8504L1257.79 28.8981H1244.47V24.9259H1259.82L1265.41 30.5622V53H1260.68V48.652L1256.34 53H1246.41ZM1248.5 49.2425H1255.15L1260.68 43.7672V39.0434L1248.5 39.0971L1245.55 41.9958V46.2901L1248.5 49.2425ZM1278.95 53L1273.32 47.3637V30.5622L1278.95 24.9259H1289.26L1293.61 29.3812V13.4385H1298.33V53H1293.61V48.5983L1289.26 53H1278.95ZM1288.08 49.2425L1293.61 43.6598V34.3197L1288.08 28.6834H1280.99L1278.04 31.6357V46.2901L1280.99 49.2425H1288.08ZM1318.99 53V13.4385H1323.71V53H1318.99ZM1337.45 53L1331.82 47.3637V30.5622L1337.45 24.9259H1349.96L1355.6 30.5622V40.7075H1336.54V46.1291L1339.49 49.0814H1355.11V53H1337.45ZM1336.54 36.95H1350.87V31.6357L1347.92 28.6834H1339.49L1336.54 31.6357V36.95ZM1363.76 53V49.0814H1378.63L1381.15 46.5048V43.1231L1378.46 40.4391H1367.35L1362.41 35.608V29.918L1367.35 24.9259H1383.19V28.8981H1369.61L1367.14 31.3137V34.0513L1369.71 36.6279H1380.93L1385.87 41.459V48.0615L1380.99 53H1363.76ZM1393.06 53V49.0814H1407.93L1410.45 46.5048V43.1231L1407.77 40.4391H1396.66L1391.72 35.608V29.918L1396.66 24.9259H1412.49V28.8981H1398.91L1396.44 31.3137V34.0513L1399.02 36.6279H1410.24L1415.18 41.459V48.0615L1410.29 53H1393.06ZM1439.52 53L1433.88 47.3637V30.5622L1439.52 24.9259H1449.82L1454.17 29.3812V13.4385H1458.89V53H1454.17V48.5983L1449.82 53H1439.52ZM1448.64 49.2425L1454.17 43.6598V34.3197L1448.64 28.6834H1441.56L1438.6 31.6357V46.2901L1441.56 49.2425H1448.64ZM1467.65 21.8661V15.532H1472.38V21.8661H1467.65ZM1467.65 53V24.9259H1472.38V53H1467.65ZM1486.12 53L1480.48 47.3637V30.5622L1486.12 24.9259H1496.43L1500.77 29.3812V13.4385H1505.5V53H1500.77V48.5983L1496.43 53H1486.12ZM1495.24 49.2425L1500.77 43.6598V34.3197L1495.24 28.6834H1488.16L1485.21 31.6357V46.2901L1488.16 49.2425H1495.24ZM1531.42 53L1526.48 48.1152V28.6834H1523.53V24.9259H1526.59L1527.77 17.7329H1531.2V24.9259H1537.16V28.6834H1531.2V46.4512L1533.73 49.0814H1538.4V53H1531.42ZM1544.14 53V24.9259H1548.86V29.9717L1553.75 24.9259H1560.94V29.6496H1553.96L1548.86 34.9102V53H1544.14ZM1567.8 53L1562.22 47.3637V40.9759L1567.8 35.3396H1582.08V31.8504L1579.18 28.8981H1565.87V24.9259H1581.22L1586.8 30.5622V53H1582.08V48.652L1577.73 53H1567.8ZM1569.89 49.2425H1576.55L1582.08 43.7672V39.0434L1569.89 39.0971L1566.94 41.9958V46.2901L1569.89 49.2425ZM1602.99 53L1591.07 24.9259H1596.22L1605.3 48.2762H1606.53L1615.55 24.9259H1620.76L1608.84 53H1602.99ZM1629.6 53L1623.96 47.3637V30.5622L1629.6 24.9259H1642.1L1647.74 30.5622V40.7075H1628.68V46.1291L1631.63 49.0814H1647.26V53H1629.6ZM1628.68 36.95H1643.01V31.6357L1640.06 28.6834H1631.63L1628.68 31.6357V36.95ZM1655.9 53V13.4385H1660.62V53H1655.9ZM1668.35 53V46.6659H1673.07V53H1668.35Z" fill="black" fill-opacity="0.5"/>
</svg>
